<?xml version="1.0" encoding="utf-8"?>
<!-- Generator: Adobe Illustrator 23.0.3, SVG Export Plug-In . SVG Version: 6.00 Build 0)  -->
<svg version="1.1" id="Layer_1" xmlns="http://www.w3.org/2000/svg" xmlns:xlink="http://www.w3.org/1999/xlink" x="0px" y="0px"
	 viewBox="0 0 787 156" style="enable-background:new 0 0 787 156;" xml:space="preserve">
<style type="text/css">
	.st0{clip-path:url(#SVGID_2_);}
	.st1{opacity:0.3;clip-path:url(#SVGID_4_);}
	.st2{clip-path:url(#SVGID_6_);fill:#12263C;}
	.st3{opacity:0.2;clip-path:url(#SVGID_4_);}
	.st4{clip-path:url(#SVGID_8_);fill:#12263C;}
	.st5{opacity:0.15;clip-path:url(#SVGID_4_);}
	.st6{clip-path:url(#SVGID_10_);fill:#12263C;}
	.st7{opacity:0.1;clip-path:url(#SVGID_4_);}
	.st8{clip-path:url(#SVGID_12_);fill:#12263C;}
	.st9{opacity:0.05;clip-path:url(#SVGID_4_);}
	.st10{clip-path:url(#SVGID_14_);fill:#12263C;}
	.st11{opacity:0.55;clip-path:url(#SVGID_4_);}
	.st12{clip-path:url(#SVGID_16_);}
	.st13{fill:#12263C;}
	.st14{font-family:'TextaNarrow-Book';}
	.st15{font-size:12px;}
	.st16{opacity:0.45;clip-path:url(#SVGID_4_);}
	.st17{clip-path:url(#SVGID_18_);}
	.st18{opacity:0.4;clip-path:url(#SVGID_4_);}
	.st19{clip-path:url(#SVGID_20_);}
	.st20{opacity:0.35;clip-path:url(#SVGID_4_);}
	.st21{clip-path:url(#SVGID_22_);}
	.st22{clip-path:url(#SVGID_24_);}
	.st23{clip-path:url(#SVGID_2_);fill:#12263C;}
	.st24{opacity:0.8;clip-path:url(#SVGID_26_);}
	.st25{clip-path:url(#SVGID_28_);fill:#12263C;}
	.st26{fill:#FFFFFF;}
	.st27{opacity:0.9;clip-path:url(#SVGID_30_);}
	.st28{clip-path:url(#SVGID_32_);}
	.st29{clip-path:url(#SVGID_30_);}
	.st30{fill:#353F56;}
	.st31{font-family:'TextaNarrow-Bold';}
	.st32{clip-path:url(#SVGID_34_);}
	.st33{clip-path:url(#SVGID_36_);}
	.st34{clip-path:url(#SVGID_2_);fill:#23508A;}
	.st35{opacity:0.8;clip-path:url(#SVGID_38_);}
	.st36{clip-path:url(#SVGID_40_);fill:#4F74A1;}
	.st37{opacity:0.8;clip-path:url(#SVGID_42_);}
	.st38{clip-path:url(#SVGID_44_);}
	.st39{clip-path:url(#SVGID_46_);}
	.st40{clip-path:url(#SVGID_2_);fill:#E7344F;}
	.st41{opacity:0.8;clip-path:url(#SVGID_48_);}
	.st42{clip-path:url(#SVGID_50_);fill:#EB5C72;}
	.st43{opacity:0.8;clip-path:url(#SVGID_52_);}
	.st44{clip-path:url(#SVGID_54_);}
	.st45{clip-path:url(#SVGID_56_);}
</style>
<g>
	<defs>
		<rect id="SVGID_1_" x="9.73" y="8.26" width="767.55" height="139.48"/>
	</defs>
	<clipPath id="SVGID_2_">
		<use xlink:href="#SVGID_1_"  style="overflow:visible;"/>
	</clipPath>
	<g class="st0">
		<defs>
			<rect id="SVGID_3_" x="9.73" y="8.26" width="767.55" height="139.48"/>
		</defs>
		<clipPath id="SVGID_4_">
			<use xlink:href="#SVGID_3_"  style="overflow:visible;"/>
		</clipPath>
		<g class="st1">
			<g>
				<defs>
					<rect id="SVGID_5_" x="173.2" y="1.26" width="68.02" height="58.02"/>
				</defs>
				<clipPath id="SVGID_6_">
					<use xlink:href="#SVGID_5_"  style="overflow:visible;"/>
				</clipPath>
				<rect x="182.2" y="8.26" class="st2" width="50.02" height="50.02"/>
			</g>
		</g>
		<g class="st3">
			<g>
				<defs>
					<rect id="SVGID_7_" x="223.23" y="1.26" width="68.02" height="58.02"/>
				</defs>
				<clipPath id="SVGID_8_">
					<use xlink:href="#SVGID_7_"  style="overflow:visible;"/>
				</clipPath>
				<rect x="232.23" y="8.26" class="st4" width="50.02" height="50.02"/>
			</g>
		</g>
		<g class="st5">
			<g>
				<defs>
					<rect id="SVGID_9_" x="273.25" y="1.26" width="68.02" height="58.02"/>
				</defs>
				<clipPath id="SVGID_10_">
					<use xlink:href="#SVGID_9_"  style="overflow:visible;"/>
				</clipPath>
				<rect x="282.25" y="8.26" class="st6" width="50.02" height="50.02"/>
			</g>
		</g>
		<g class="st7">
			<g>
				<defs>
					<rect id="SVGID_11_" x="323.27" y="1.26" width="68.02" height="58.02"/>
				</defs>
				<clipPath id="SVGID_12_">
					<use xlink:href="#SVGID_11_"  style="overflow:visible;"/>
				</clipPath>
				<rect x="332.27" y="8.26" class="st8" width="50.02" height="50.02"/>
			</g>
		</g>
		<g class="st9">
			<g>
				<defs>
					<rect id="SVGID_13_" x="373.3" y="1.26" width="68.02" height="58.02"/>
				</defs>
				<clipPath id="SVGID_14_">
					<use xlink:href="#SVGID_13_"  style="overflow:visible;"/>
				</clipPath>
				<rect x="382.3" y="8.26" class="st10" width="50.02" height="50.02"/>
			</g>
		</g>
		<g class="st11">
			<g>
				<defs>
					<rect id="SVGID_15_" x="196.98" y="35.2" width="39.93" height="19.3"/>
				</defs>
				<clipPath id="SVGID_16_">
					<use xlink:href="#SVGID_15_"  style="overflow:visible;"/>
				</clipPath>
				<g class="st12">
					<text transform="matrix(1 0 0 1 206.3002 51.1975)" class="st13 st14 st15">30%</text>
				</g>
			</g>
		</g>
		<g class="st16">
			<g>
				<defs>
					<rect id="SVGID_17_" x="247" y="35.2" width="39.93" height="19.3"/>
				</defs>
				<clipPath id="SVGID_18_">
					<use xlink:href="#SVGID_17_"  style="overflow:visible;"/>
				</clipPath>
				<g class="st17">
					<text transform="matrix(1 0 0 1 256.3232 51.1975)" class="st13 st14 st15">20%</text>
				</g>
			</g>
		</g>
		<g class="st18">
			<g>
				<defs>
					<rect id="SVGID_19_" x="297.02" y="35.2" width="39.93" height="19.3"/>
				</defs>
				<clipPath id="SVGID_20_">
					<use xlink:href="#SVGID_19_"  style="overflow:visible;"/>
				</clipPath>
				<g class="st19">
					<text transform="matrix(1 0 0 1 309.7782 51.1975)" class="st13 st14 st15">15%</text>
				</g>
			</g>
		</g>
		<g class="st20">
			<g>
				<defs>
					<rect id="SVGID_21_" x="347.05" y="35.2" width="39.93" height="19.3"/>
				</defs>
				<clipPath id="SVGID_22_">
					<use xlink:href="#SVGID_21_"  style="overflow:visible;"/>
				</clipPath>
				<g class="st21">
					<text transform="matrix(1 0 0 1 358.5414 51.1975)" class="st13 st14 st15">10%</text>
				</g>
			</g>
		</g>
		<g class="st1">
			<g>
				<defs>
					<rect id="SVGID_23_" x="397.07" y="35.2" width="39.93" height="19.3"/>
				</defs>
				<clipPath id="SVGID_24_">
					<use xlink:href="#SVGID_23_"  style="overflow:visible;"/>
				</clipPath>
				<g class="st22">
					<text transform="matrix(1 0 0 1 412.9565 51.1975)" class="st13 st14 st15">5%</text>
				</g>
			</g>
		</g>
	</g>
	<rect x="9.73" y="8.26" class="st23" width="100.05" height="50.02"/>
	<g class="st0">
		<defs>
			<rect id="SVGID_25_" x="9.73" y="8.26" width="767.55" height="139.48"/>
		</defs>
		<clipPath id="SVGID_26_">
			<use xlink:href="#SVGID_25_"  style="overflow:visible;"/>
		</clipPath>
		<g class="st24">
			<g>
				<defs>
					<rect id="SVGID_27_" x="100.77" y="1.26" width="68.02" height="58.02"/>
				</defs>
				<clipPath id="SVGID_28_">
					<use xlink:href="#SVGID_27_"  style="overflow:visible;"/>
				</clipPath>
				<rect x="109.77" y="8.26" class="st25" width="50.02" height="50.02"/>
			</g>
		</g>
	</g>
	<g class="st0">
		<text transform="matrix(1 0 0 1 79.5492 51.1975)" class="st26 st14 st15">100%</text>
	</g>
	<g class="st0">
		<defs>
			<rect id="SVGID_29_" x="9.73" y="8.26" width="767.55" height="139.48"/>
		</defs>
		<clipPath id="SVGID_30_">
			<use xlink:href="#SVGID_29_"  style="overflow:visible;"/>
		</clipPath>
		<g class="st27">
			<g>
				<defs>
					<rect id="SVGID_31_" x="124.54" y="35.2" width="39.88" height="19.3"/>
				</defs>
				<clipPath id="SVGID_32_">
					<use xlink:href="#SVGID_31_"  style="overflow:visible;"/>
				</clipPath>
				<g class="st28">
					<text transform="matrix(1 0 0 1 133.5443 51.1975)" class="st26 st14 st15">80%</text>
				</g>
			</g>
		</g>
		<g class="st29">
			<text transform="matrix(1 0 0 1 9.725 88.8352)"><tspan x="0" y="0" class="st30 st31 st15">Y</tspan><tspan x="4.97" y="0" class="st30 st31 st15">an</tspan><tspan x="15.71" y="0" class="st30 st31 st15">k</tspan><tspan x="20.56" y="0" class="st30 st31 st15">ees Blue</tspan></text>
		</g>
		<g class="st29">
			<text transform="matrix(1 0 0 1 9.725 114.1438)" class="st30 st14 st15">CMYK</text>
		</g>
		<g class="st29">
			<text transform="matrix(1 0 0 1 35.6933 114.1438)" class="st30 st14 st15"> </text>
		</g>
		<g class="st29">
			<text transform="matrix(1 0 0 1 45.725 114.1438)"><tspan x="0" y="0" class="st30 st14 st15">10</tspan><tspan x="9.6" y="0" class="st30 st14 st15">0</tspan><tspan x="15.73" y="0" class="st30 st14 st15">/</tspan><tspan x="21.41" y="0" class="st30 st14 st15">82</tspan><tspan x="32.29" y="0" class="st30 st14 st15">/</tspan><tspan x="37.48" y="0" class="st30 st14 st15">4</tspan><tspan x="43.38" y="0" class="st30 st14 st15">6</tspan><tspan x="48.83" y="0" class="st30 st14 st15">/</tspan><tspan x="54.63" y="0" class="st30 st14 st15">55</tspan></text>
		</g>
	</g>
	<g class="st0">
		<text transform="matrix(1 0 0 1 110.7279 114.1399)" class="st30 st14 st15"> </text>
	</g>
	<g class="st0">
		<defs>
			<rect id="SVGID_33_" x="9.73" y="8.26" width="767.55" height="139.48"/>
		</defs>
		<clipPath id="SVGID_34_">
			<use xlink:href="#SVGID_33_"  style="overflow:visible;"/>
		</clipPath>
		<g class="st32">
			<text transform="matrix(1 0 0 1 9.725 130.9397)" class="st30 st14 st15">RGB</text>
		</g>
		<g class="st32">
			<text transform="matrix(1 0 0 1 29.7289 130.9397)" class="st30 st14 st15"> </text>
		</g>
		<g class="st32">
			<text transform="matrix(1 0 0 1 45.725 130.9397)"><tspan x="0" y="0" class="st30 st14 st15">1</tspan><tspan x="3.13" y="0" class="st30 st14 st15">8</tspan><tspan x="8.52" y="0" class="st30 st14 st15">/3</tspan><tspan x="19.91" y="0" class="st30 st14 st15">7</tspan><tspan x="23.82" y="0" class="st30 st14 st15">/</tspan><tspan x="29.4" y="0" class="st30 st14 st15">61</tspan></text>
		</g>
	</g>
	<g class="st0">
		<text transform="matrix(1 0 0 1 83.872 130.9397)" class="st30 st14 st15"> </text>
	</g>
	<g class="st0">
		<defs>
			<rect id="SVGID_35_" x="9.73" y="8.26" width="767.55" height="139.48"/>
		</defs>
		<clipPath id="SVGID_36_">
			<use xlink:href="#SVGID_35_"  style="overflow:visible;"/>
		</clipPath>
		<g class="st33">
			<text transform="matrix(1 0 0 1 9.725 147.7395)" class="st30 st14 st15">HEX</text>
		</g>
		<g class="st33">
			<text transform="matrix(1 0 0 1 28.3246 147.7395)" class="st30 st14 st15"> </text>
		</g>
		<g class="st33">
			<text transform="matrix(1 0 0 1 45.725 147.7395)" class="st30 st14 st15">#12253D</text>
		</g>
	</g>
	<rect x="454.73" y="8.26" class="st34" width="100.05" height="50.02"/>
	<g class="st0">
		<defs>
			<rect id="SVGID_37_" x="9.73" y="8.26" width="767.55" height="139.48"/>
		</defs>
		<clipPath id="SVGID_38_">
			<use xlink:href="#SVGID_37_"  style="overflow:visible;"/>
		</clipPath>
		<g class="st35">
			<g>
				<defs>
					<rect id="SVGID_39_" x="545.77" y="1.26" width="68.02" height="58.02"/>
				</defs>
				<clipPath id="SVGID_40_">
					<use xlink:href="#SVGID_39_"  style="overflow:visible;"/>
				</clipPath>
				<rect x="554.77" y="8.26" class="st36" width="50.02" height="50.02"/>
			</g>
		</g>
	</g>
	<g class="st0">
		<text transform="matrix(1 0 0 1 524.5516 51.1975)" class="st26 st14 st15">100%</text>
	</g>
	<g class="st0">
		<defs>
			<rect id="SVGID_41_" x="9.73" y="8.26" width="767.55" height="139.48"/>
		</defs>
		<clipPath id="SVGID_42_">
			<use xlink:href="#SVGID_41_"  style="overflow:visible;"/>
		</clipPath>
		<g class="st37">
			<g>
				<defs>
					<rect id="SVGID_43_" x="569.55" y="35.2" width="39.88" height="19.3"/>
				</defs>
				<clipPath id="SVGID_44_">
					<use xlink:href="#SVGID_43_"  style="overflow:visible;"/>
				</clipPath>
				<g class="st38">
					<text transform="matrix(1 0 0 1 578.5463 51.1975)" class="st26 st14 st15">80%</text>
				</g>
			</g>
		</g>
	</g>
	<g class="st0">
		<text transform="matrix(1 0 0 1 454.7274 88.5432)"><tspan x="0" y="0" class="st30 st31 st15">Y</tspan><tspan x="4.96" y="0" class="st30 st31 st15">ale Blue</tspan></text>
	</g>
	<g class="st0">
		<text transform="matrix(1 0 0 1 454.7274 113.8518)" class="st30 st14 st15">CMYK</text>
	</g>
	<g class="st0">
		<text transform="matrix(1 0 0 1 480.6957 113.8518)" class="st30 st14 st15"> </text>
	</g>
	<g class="st0">
		<text transform="matrix(1 0 0 1 490.7274 113.8518)"><tspan x="0" y="0" class="st30 st14 st15">93</tspan><tspan x="10.93" y="0" class="st30 st14 st15">/</tspan><tspan x="16.52" y="0" class="st30 st14 st15">6</tspan><tspan x="22.16" y="0" class="st30 st14 st15">9</tspan><tspan x="27.47" y="0" class="st30 st14 st15">/1</tspan><tspan x="36.68" y="0" class="st30 st14 st15">9</tspan><tspan x="41.99" y="0" class="st30 st14 st15">/</tspan><tspan x="47.18" y="0" class="st30 st14 st15">4</tspan></text>
	</g>
	<g class="st0">
		<text transform="matrix(1 0 0 1 543.7904 113.8518)" class="st30 st14 st15"> </text>
	</g>
	<g class="st0">
		<text transform="matrix(1 0 0 1 454.7274 130.6516)" class="st30 st14 st15">RGB</text>
	</g>
	<g class="st0">
		<text transform="matrix(1 0 0 1 474.7314 130.6516)" class="st30 st14 st15"> </text>
	</g>
	<g class="st0">
		<text transform="matrix(1 0 0 1 490.7274 130.6516)"><tspan x="0" y="0" class="st30 st14 st15">3</tspan><tspan x="5.3" y="0" class="st30 st14 st15">4</tspan><tspan x="11.04" y="0" class="st30 st14 st15">/</tspan><tspan x="16.72" y="0" class="st30 st14 st15">8</tspan><tspan x="22.3" y="0" class="st30 st14 st15">0</tspan><tspan x="28.43" y="0" class="st30 st14 st15">/137</tspan></text>
	</g>
	<g class="st0">
		<text transform="matrix(1 0 0 1 538.3314 130.6516)" class="st30 st14 st15"> </text>
	</g>
	<g class="st0">
		<defs>
			<rect id="SVGID_45_" x="9.73" y="8.26" width="767.55" height="139.48"/>
		</defs>
		<clipPath id="SVGID_46_">
			<use xlink:href="#SVGID_45_"  style="overflow:visible;"/>
		</clipPath>
		<g class="st39">
			<text transform="matrix(1 0 0 1 454.7274 147.4475)" class="st30 st14 st15">HEX</text>
		</g>
		<g class="st39">
			<text transform="matrix(1 0 0 1 473.3271 147.4475)" class="st30 st14 st15"> </text>
		</g>
		<g class="st39">
			<text transform="matrix(1 0 0 1 490.727 147.4475)" class="st30 st14 st15">#225089</text>
		</g>
	</g>
	<rect x="627.2" y="8.26" class="st40" width="100.05" height="50.02"/>
	<g class="st0">
		<defs>
			<rect id="SVGID_47_" x="9.73" y="8.26" width="767.55" height="139.48"/>
		</defs>
		<clipPath id="SVGID_48_">
			<use xlink:href="#SVGID_47_"  style="overflow:visible;"/>
		</clipPath>
		<g class="st41">
			<g>
				<defs>
					<rect id="SVGID_49_" x="718.25" y="1.26" width="68.02" height="58.02"/>
				</defs>
				<clipPath id="SVGID_50_">
					<use xlink:href="#SVGID_49_"  style="overflow:visible;"/>
				</clipPath>
				<rect x="727.25" y="8.26" class="st42" width="50.02" height="50.02"/>
			</g>
		</g>
	</g>
	<g class="st0">
		<text transform="matrix(1 0 0 1 697.0297 51.1975)" class="st26 st14 st15">100%</text>
	</g>
	<g class="st0">
		<defs>
			<rect id="SVGID_51_" x="9.73" y="8.26" width="767.55" height="139.48"/>
		</defs>
		<clipPath id="SVGID_52_">
			<use xlink:href="#SVGID_51_"  style="overflow:visible;"/>
		</clipPath>
		<g class="st43">
			<g>
				<defs>
					<rect id="SVGID_53_" x="742.03" y="35.2" width="39.88" height="19.3"/>
				</defs>
				<clipPath id="SVGID_54_">
					<use xlink:href="#SVGID_53_"  style="overflow:visible;"/>
				</clipPath>
				<g class="st44">
					<text transform="matrix(1 0 0 1 751.0248 51.1975)" class="st26 st14 st15">80%</text>
				</g>
			</g>
		</g>
	</g>
	<g class="st0">
		<text transform="matrix(1 0 0 1 627.2054 88.5432)"><tspan x="0" y="0" class="st30 st31 st15">Ama</tspan><tspan x="20.47" y="0" class="st30 st31 st15">r</tspan><tspan x="23.72" y="0" class="st30 st31 st15">a</tspan><tspan x="28.82" y="0" class="st30 st31 st15">n</tspan><tspan x="34.43" y="0" class="st30 st31 st15">th</tspan></text>
	</g>
	<g class="st0">
		<text transform="matrix(1 0 0 1 627.2054 113.8518)" class="st30 st14 st15">CMYK</text>
	</g>
	<g class="st0">
		<text transform="matrix(1 0 0 1 653.1732 113.8518)" class="st30 st14 st15"> </text>
	</g>
	<g class="st0">
		<text transform="matrix(1 0 0 1 663.2054 113.8518)"><tspan x="0" y="0" class="st30 st14 st15">1</tspan><tspan x="3.13" y="0" class="st30 st14 st15">/</tspan><tspan x="8.87" y="0" class="st30 st14 st15">9</tspan><tspan x="14.5" y="0" class="st30 st14 st15">0</tspan><tspan x="20.63" y="0" class="st30 st14 st15">/</tspan><tspan x="26.44" y="0" class="st30 st14 st15">5</tspan><tspan x="31.64" y="0" class="st30 st14 st15">7</tspan><tspan x="35.54" y="0" class="st30 st14 st15">/</tspan><tspan x="41.13" y="0" class="st30 st14 st15">0</tspan></text>
	</g>
	<g class="st0">
		<text transform="matrix(1 0 0 1 710.7601 113.8518)" class="st30 st14 st15"> </text>
	</g>
	<g class="st0">
		<text transform="matrix(1 0 0 1 627.2054 130.6516)" class="st30 st14 st15">RGB</text>
	</g>
	<g class="st0">
		<text transform="matrix(1 0 0 1 647.2094 130.6516)" class="st30 st14 st15"> </text>
	</g>
	<g class="st0">
		<text transform="matrix(1 0 0 1 663.2054 130.6516)"><tspan x="0" y="0" class="st30 st14 st15">23</tspan><tspan x="10.61" y="0" class="st30 st14 st15">0</tspan><tspan x="16.74" y="0" class="st30 st14 st15">/</tspan><tspan x="22.55" y="0" class="st30 st14 st15">52/79</tspan></text>
	</g>
	<g class="st0">
		<text transform="matrix(1 0 0 1 712.6459 130.6516)" class="st30 st14 st15"> </text>
	</g>
	<g class="st0">
		<defs>
			<rect id="SVGID_55_" x="9.73" y="8.26" width="767.55" height="139.48"/>
		</defs>
		<clipPath id="SVGID_56_">
			<use xlink:href="#SVGID_55_"  style="overflow:visible;"/>
		</clipPath>
		<g class="st45">
			<text transform="matrix(1 0 0 1 627.2054 147.4475)" class="st30 st14 st15">HEX</text>
		</g>
		<g class="st45">
			<text transform="matrix(1 0 0 1 645.8051 147.4475)" class="st30 st14 st15"> </text>
		</g>
		<g class="st45">
			<text transform="matrix(1 0 0 1 663.205 147.4475)" class="st30 st14 st15">#E6344f</text>
		</g>
	</g>
</g>
</svg>
