<?xml version="1.0" encoding="utf-8"?>
<!-- Generator: Adobe Illustrator 23.0.3, SVG Export Plug-In . SVG Version: 6.00 Build 0)  -->
<svg version="1.1" id="Layer_1" xmlns="http://www.w3.org/2000/svg" xmlns:xlink="http://www.w3.org/1999/xlink" x="0px" y="0px"
	 viewBox="0 0 787 156" style="enable-background:new 0 0 787 156;" xml:space="preserve">
<style type="text/css">
	.st0{clip-path:url(#SVGID_2_);}
	.st1{opacity:0.3;clip-path:url(#SVGID_4_);}
	.st2{clip-path:url(#SVGID_6_);fill:#12263C;}
	.st3{opacity:0.2;clip-path:url(#SVGID_8_);}
	.st4{clip-path:url(#SVGID_10_);fill:#12263C;}
	.st5{opacity:0.15;clip-path:url(#SVGID_12_);}
	.st6{clip-path:url(#SVGID_14_);fill:#12263C;}
	.st7{opacity:0.1;clip-path:url(#SVGID_16_);}
	.st8{clip-path:url(#SVGID_18_);fill:#12263C;}
	.st9{opacity:0.05;clip-path:url(#SVGID_20_);}
	.st10{clip-path:url(#SVGID_22_);fill:#12263C;}
	.st11{opacity:0.55;clip-path:url(#SVGID_24_);}
	.st12{clip-path:url(#SVGID_26_);}
	.st13{enable-background:new    ;}
	.st14{fill:#12263C;}
	.st15{opacity:0.45;clip-path:url(#SVGID_28_);}
	.st16{clip-path:url(#SVGID_30_);}
	.st17{opacity:0.4;clip-path:url(#SVGID_32_);}
	.st18{clip-path:url(#SVGID_34_);}
	.st19{opacity:0.35;clip-path:url(#SVGID_36_);}
	.st20{clip-path:url(#SVGID_38_);}
	.st21{opacity:0.3;clip-path:url(#SVGID_40_);}
	.st22{clip-path:url(#SVGID_42_);}
	.st23{clip-path:url(#SVGID_44_);fill:#12263C;}
	.st24{clip-path:url(#SVGID_46_);}
	.st25{opacity:0.8;clip-path:url(#SVGID_48_);}
	.st26{clip-path:url(#SVGID_50_);fill:#12263C;}
	.st27{clip-path:url(#SVGID_52_);}
	.st28{fill:#FFFFFF;}
	.st29{clip-path:url(#SVGID_54_);}
	.st30{opacity:0.9;clip-path:url(#SVGID_56_);}
	.st31{clip-path:url(#SVGID_58_);}
	.st32{clip-path:url(#SVGID_60_);}
	.st33{fill:#353F56;}
	.st34{clip-path:url(#SVGID_62_);}
	.st35{clip-path:url(#SVGID_66_);}
	.st36{clip-path:url(#SVGID_70_);}
	.st37{clip-path:url(#SVGID_72_);}
	.st38{clip-path:url(#SVGID_76_);}
	.st39{clip-path:url(#SVGID_80_);}
	.st40{clip-path:url(#SVGID_82_);}
	.st41{clip-path:url(#SVGID_86_);}
	.st42{clip-path:url(#SVGID_88_);fill:#23508A;}
	.st43{clip-path:url(#SVGID_90_);}
	.st44{opacity:0.8;clip-path:url(#SVGID_92_);}
	.st45{clip-path:url(#SVGID_94_);fill:#4F74A1;}
	.st46{clip-path:url(#SVGID_96_);}
	.st47{clip-path:url(#SVGID_98_);}
	.st48{opacity:0.8;clip-path:url(#SVGID_100_);}
	.st49{clip-path:url(#SVGID_102_);}
	.st50{clip-path:url(#SVGID_104_);}
	.st51{clip-path:url(#SVGID_106_);}
	.st52{clip-path:url(#SVGID_110_);}
	.st53{clip-path:url(#SVGID_114_);}
	.st54{clip-path:url(#SVGID_118_);}
	.st55{clip-path:url(#SVGID_122_);}
	.st56{clip-path:url(#SVGID_124_);}
	.st57{clip-path:url(#SVGID_128_);}
	.st58{clip-path:url(#SVGID_130_);fill:#E7344F;}
	.st59{clip-path:url(#SVGID_132_);}
	.st60{opacity:0.8;clip-path:url(#SVGID_134_);}
	.st61{clip-path:url(#SVGID_136_);fill:#EB5C72;}
	.st62{clip-path:url(#SVGID_138_);}
	.st63{clip-path:url(#SVGID_140_);}
	.st64{opacity:0.8;clip-path:url(#SVGID_142_);}
	.st65{clip-path:url(#SVGID_144_);}
	.st66{clip-path:url(#SVGID_146_);}
	.st67{clip-path:url(#SVGID_148_);}
	.st68{clip-path:url(#SVGID_152_);}
	.st69{clip-path:url(#SVGID_156_);}
	.st70{clip-path:url(#SVGID_160_);}
	.st71{clip-path:url(#SVGID_164_);}
	.st72{clip-path:url(#SVGID_166_);}
	.st73{clip-path:url(#SVGID_170_);}
</style>
<g>
	<g>
		<defs>
			<rect id="SVGID_1_" x="9.73" y="8.26" width="767.55" height="139.48"/>
		</defs>
		<clipPath id="SVGID_2_">
			<use xlink:href="#SVGID_1_"  style="overflow:visible;"/>
		</clipPath>
		<g class="st0">
			<g>
				<defs>
					<rect id="SVGID_3_" x="9.73" y="8.26" width="767.55" height="139.48"/>
				</defs>
				<clipPath id="SVGID_4_">
					<use xlink:href="#SVGID_3_"  style="overflow:visible;"/>
				</clipPath>
				<g class="st1">
					<g>
						<g>
							<defs>
								<rect id="SVGID_5_" x="173.2" y="1.26" width="68.02" height="58.02"/>
							</defs>
							<clipPath id="SVGID_6_">
								<use xlink:href="#SVGID_5_"  style="overflow:visible;"/>
							</clipPath>
							<rect x="182.2" y="8.26" class="st2" width="50.02" height="50.02"/>
						</g>
					</g>
				</g>
			</g>
			<g>
				<defs>
					<rect id="SVGID_7_" x="9.73" y="8.26" width="767.55" height="139.48"/>
				</defs>
				<clipPath id="SVGID_8_">
					<use xlink:href="#SVGID_7_"  style="overflow:visible;"/>
				</clipPath>
				<g class="st3">
					<g>
						<g>
							<defs>
								<rect id="SVGID_9_" x="223.23" y="1.26" width="68.02" height="58.02"/>
							</defs>
							<clipPath id="SVGID_10_">
								<use xlink:href="#SVGID_9_"  style="overflow:visible;"/>
							</clipPath>
							<rect x="232.23" y="8.26" class="st4" width="50.02" height="50.02"/>
						</g>
					</g>
				</g>
			</g>
			<g>
				<defs>
					<rect id="SVGID_11_" x="9.73" y="8.26" width="767.55" height="139.48"/>
				</defs>
				<clipPath id="SVGID_12_">
					<use xlink:href="#SVGID_11_"  style="overflow:visible;"/>
				</clipPath>
				<g class="st5">
					<g>
						<g>
							<defs>
								<rect id="SVGID_13_" x="273.25" y="1.26" width="68.02" height="58.02"/>
							</defs>
							<clipPath id="SVGID_14_">
								<use xlink:href="#SVGID_13_"  style="overflow:visible;"/>
							</clipPath>
							<rect x="282.25" y="8.26" class="st6" width="50.02" height="50.02"/>
						</g>
					</g>
				</g>
			</g>
			<g>
				<defs>
					<rect id="SVGID_15_" x="9.73" y="8.26" width="767.55" height="139.48"/>
				</defs>
				<clipPath id="SVGID_16_">
					<use xlink:href="#SVGID_15_"  style="overflow:visible;"/>
				</clipPath>
				<g class="st7">
					<g>
						<g>
							<defs>
								<rect id="SVGID_17_" x="323.27" y="1.26" width="68.02" height="58.02"/>
							</defs>
							<clipPath id="SVGID_18_">
								<use xlink:href="#SVGID_17_"  style="overflow:visible;"/>
							</clipPath>
							<rect x="332.27" y="8.26" class="st8" width="50.02" height="50.02"/>
						</g>
					</g>
				</g>
			</g>
			<g>
				<defs>
					<rect id="SVGID_19_" x="9.73" y="8.26" width="767.55" height="139.48"/>
				</defs>
				<clipPath id="SVGID_20_">
					<use xlink:href="#SVGID_19_"  style="overflow:visible;"/>
				</clipPath>
				<g class="st9">
					<g>
						<g>
							<defs>
								<rect id="SVGID_21_" x="373.3" y="1.26" width="68.02" height="58.02"/>
							</defs>
							<clipPath id="SVGID_22_">
								<use xlink:href="#SVGID_21_"  style="overflow:visible;"/>
							</clipPath>
							<rect x="382.3" y="8.26" class="st10" width="50.02" height="50.02"/>
						</g>
					</g>
				</g>
			</g>
			<g>
				<defs>
					<rect id="SVGID_23_" x="9.73" y="8.26" width="767.55" height="139.48"/>
				</defs>
				<clipPath id="SVGID_24_">
					<use xlink:href="#SVGID_23_"  style="overflow:visible;"/>
				</clipPath>
				<g class="st11">
					<g>
						<g>
							<defs>
								<rect id="SVGID_25_" x="196.98" y="35.2" width="39.93" height="19.3"/>
							</defs>
							<clipPath id="SVGID_26_">
								<use xlink:href="#SVGID_25_"  style="overflow:visible;"/>
							</clipPath>
							<g class="st12">
								<g class="st13">
									<path class="st14" d="M208.04,47.05l2.01-2.41h-3.18V44h4.09v0.56l-2.1,2.47h0.06c1.36-0.02,2.15,0.76,2.15,2.11
										c0,1.24-0.83,2.21-2.25,2.21c-1.44,0-2.07-0.98-2.07-0.98l0.4-0.49c0,0,0.56,0.84,1.67,0.84c0.97,0,1.57-0.7,1.57-1.57
										c0-0.97-0.55-1.54-1.58-1.54h-0.76V47.05z"/>
									<path class="st14" d="M212.13,47.61c0-2.1,0.98-3.77,2.71-3.77s2.7,1.67,2.7,3.77c0,2.09-0.97,3.75-2.7,3.75
										S212.13,49.7,212.13,47.61z M216.86,47.61c0-1.7-0.7-3.12-2.01-3.12c-1.33,0-2.03,1.42-2.03,3.12
										c0,1.69,0.7,3.11,2.03,3.11C216.16,50.72,216.86,49.3,216.86,47.61z"/>
									<path class="st14" d="M221.29,45.64c0,0.94-0.49,1.8-1.38,1.8s-1.39-0.86-1.39-1.8c0-0.97,0.5-1.8,1.39-1.8
										S221.29,44.67,221.29,45.64z M224.55,44l-5.18,7.2h-0.74l5.17-7.2H224.55z M219.13,45.64c0,0.68,0.26,1.24,0.78,1.24
										c0.5,0,0.77-0.55,0.77-1.24c0-0.7-0.26-1.24-0.77-1.24C219.39,44.41,219.13,44.95,219.13,45.64z M224.7,49.49
										c0,0.95-0.5,1.8-1.39,1.8c-0.89,0-1.38-0.85-1.38-1.8c0-0.96,0.49-1.8,1.38-1.8C224.2,47.7,224.7,48.54,224.7,49.49z
										 M222.53,49.49c0,0.67,0.28,1.22,0.78,1.22c0.5,0,0.77-0.55,0.77-1.22c0-0.71-0.26-1.25-0.77-1.25
										C222.81,48.25,222.53,48.79,222.53,49.49z"/>
								</g>
							</g>
						</g>
					</g>
				</g>
			</g>
			<g>
				<defs>
					<rect id="SVGID_27_" x="9.73" y="8.26" width="767.55" height="139.48"/>
				</defs>
				<clipPath id="SVGID_28_">
					<use xlink:href="#SVGID_27_"  style="overflow:visible;"/>
				</clipPath>
				<g class="st15">
					<g>
						<g>
							<defs>
								<rect id="SVGID_29_" x="247" y="35.2" width="39.93" height="19.3"/>
							</defs>
							<clipPath id="SVGID_30_">
								<use xlink:href="#SVGID_29_"  style="overflow:visible;"/>
							</clipPath>
							<g class="st16">
								<g class="st13">
									<path class="st14" d="M256.83,50.73l2.78-3.18c0.53-0.59,0.68-0.98,0.68-1.54c0-0.88-0.56-1.52-1.46-1.52
										c-1,0-1.66,0.86-1.69,0.9l-0.38-0.53c0,0,0.77-1.02,2.09-1.02c1.4,0,2.15,0.91,2.15,2.15c0,0.7-0.18,1.21-0.71,1.83
										l-2.41,2.73h3.29v0.64h-4.33V50.73z"/>
									<path class="st14" d="M262.15,47.61c0-2.1,0.98-3.77,2.71-3.77s2.7,1.67,2.7,3.77c0,2.09-0.97,3.75-2.7,3.75
										S262.15,49.7,262.15,47.61z M266.88,47.61c0-1.7-0.7-3.12-2.01-3.12c-1.33,0-2.03,1.42-2.03,3.12
										c0,1.69,0.7,3.11,2.03,3.11C266.18,50.72,266.88,49.3,266.88,47.61z"/>
									<path class="st14" d="M271.31,45.64c0,0.94-0.49,1.8-1.38,1.8s-1.39-0.86-1.39-1.8c0-0.97,0.5-1.8,1.39-1.8
										S271.31,44.67,271.31,45.64z M274.57,44l-5.18,7.2h-0.74l5.17-7.2H274.57z M269.15,45.64c0,0.68,0.26,1.24,0.78,1.24
										c0.5,0,0.77-0.55,0.77-1.24c0-0.7-0.26-1.24-0.77-1.24C269.41,44.41,269.15,44.95,269.15,45.64z M274.73,49.49
										c0,0.95-0.5,1.8-1.39,1.8c-0.89,0-1.38-0.85-1.38-1.8c0-0.96,0.49-1.8,1.38-1.8C274.22,47.7,274.73,48.54,274.73,49.49z
										 M272.56,49.49c0,0.67,0.28,1.22,0.78,1.22c0.5,0,0.77-0.55,0.77-1.22c0-0.71-0.26-1.25-0.77-1.25
										C272.83,48.25,272.56,48.79,272.56,49.49z"/>
								</g>
							</g>
						</g>
					</g>
				</g>
			</g>
			<g>
				<defs>
					<rect id="SVGID_31_" x="9.73" y="8.26" width="767.55" height="139.48"/>
				</defs>
				<clipPath id="SVGID_32_">
					<use xlink:href="#SVGID_31_"  style="overflow:visible;"/>
				</clipPath>
				<g class="st17">
					<g>
						<g>
							<defs>
								<rect id="SVGID_33_" x="297.02" y="35.2" width="39.93" height="19.3"/>
							</defs>
							<clipPath id="SVGID_34_">
								<use xlink:href="#SVGID_33_"  style="overflow:visible;"/>
							</clipPath>
							<g class="st18">
								<g class="st13">
									<path class="st14" d="M309.93,44h2.18v7.2h-0.68v-6.56h-1.5V44z"/>
									<path class="st14" d="M314.4,44.64l-0.05,2.38c0.25-0.06,0.58-0.12,1-0.12c1.52,0,2.31,0.88,2.31,2.17
										c0,1.39-0.85,2.3-2.27,2.3c-1.42,0-2.05-0.98-2.05-0.98l0.42-0.49c0,0,0.55,0.83,1.63,0.83c0.94,0,1.58-0.59,1.58-1.66
										c0-0.95-0.64-1.54-1.66-1.54c-0.92,0-1.46,0.29-1.48,0.3l-0.16-0.12l0.1-3.71h3.57v0.64H314.4z"/>
									<path class="st14" d="M321.33,45.64c0,0.94-0.49,1.8-1.38,1.8s-1.39-0.86-1.39-1.8c0-0.97,0.5-1.8,1.39-1.8
										S321.33,44.67,321.33,45.64z M324.59,44l-5.18,7.2h-0.74l5.17-7.2H324.59z M319.17,45.64c0,0.68,0.26,1.24,0.78,1.24
										c0.5,0,0.77-0.55,0.77-1.24c0-0.7-0.26-1.24-0.77-1.24C319.44,44.41,319.17,44.95,319.17,45.64z M324.75,49.49
										c0,0.95-0.5,1.8-1.39,1.8c-0.89,0-1.38-0.85-1.38-1.8c0-0.96,0.49-1.8,1.38-1.8C324.25,47.7,324.75,48.54,324.75,49.49z
										 M322.58,49.49c0,0.67,0.28,1.22,0.78,1.22c0.5,0,0.77-0.55,0.77-1.22c0-0.71-0.26-1.25-0.77-1.25
										C322.86,48.25,322.58,48.79,322.58,49.49z"/>
								</g>
							</g>
						</g>
					</g>
				</g>
			</g>
			<g>
				<defs>
					<rect id="SVGID_35_" x="9.73" y="8.26" width="767.55" height="139.48"/>
				</defs>
				<clipPath id="SVGID_36_">
					<use xlink:href="#SVGID_35_"  style="overflow:visible;"/>
				</clipPath>
				<g class="st19">
					<g>
						<g>
							<defs>
								<rect id="SVGID_37_" x="347.05" y="35.2" width="39.93" height="19.3"/>
							</defs>
							<clipPath id="SVGID_38_">
								<use xlink:href="#SVGID_37_"  style="overflow:visible;"/>
							</clipPath>
							<g class="st20">
								<g class="st13">
									<path class="st14" d="M358.7,44h2.18v7.2h-0.68v-6.56h-1.5V44z"/>
									<path class="st14" d="M362.2,47.61c0-2.1,0.98-3.77,2.71-3.77s2.7,1.67,2.7,3.77c0,2.09-0.97,3.75-2.7,3.75
										S362.2,49.7,362.2,47.61z M366.93,47.61c0-1.7-0.7-3.12-2.01-3.12c-1.33,0-2.03,1.42-2.03,3.12c0,1.69,0.7,3.11,2.03,3.11
										C366.23,50.72,366.93,49.3,366.93,47.61z"/>
									<path class="st14" d="M371.36,45.64c0,0.94-0.49,1.8-1.38,1.8s-1.39-0.86-1.39-1.8c0-0.97,0.5-1.8,1.39-1.8
										S371.36,44.67,371.36,45.64z M374.62,44l-5.18,7.2h-0.74l5.17-7.2H374.62z M369.2,45.64c0,0.68,0.26,1.24,0.78,1.24
										c0.5,0,0.77-0.55,0.77-1.24c0-0.7-0.26-1.24-0.77-1.24C369.46,44.41,369.2,44.95,369.2,45.64z M374.77,49.49
										c0,0.95-0.5,1.8-1.39,1.8c-0.89,0-1.38-0.85-1.38-1.8c0-0.96,0.49-1.8,1.38-1.8C374.27,47.7,374.77,48.54,374.77,49.49z
										 M372.6,49.49c0,0.67,0.28,1.22,0.78,1.22c0.5,0,0.77-0.55,0.77-1.22c0-0.71-0.26-1.25-0.77-1.25
										C372.88,48.25,372.6,48.79,372.6,49.49z"/>
								</g>
							</g>
						</g>
					</g>
				</g>
			</g>
			<g>
				<defs>
					<rect id="SVGID_39_" x="9.73" y="8.26" width="767.55" height="139.48"/>
				</defs>
				<clipPath id="SVGID_40_">
					<use xlink:href="#SVGID_39_"  style="overflow:visible;"/>
				</clipPath>
				<g class="st21">
					<g>
						<g>
							<defs>
								<rect id="SVGID_41_" x="397.07" y="35.2" width="39.93" height="19.3"/>
							</defs>
							<clipPath id="SVGID_42_">
								<use xlink:href="#SVGID_41_"  style="overflow:visible;"/>
							</clipPath>
							<g class="st22">
								<g class="st13">
									<path class="st14" d="M414.44,44.64l-0.05,2.38c0.25-0.06,0.57-0.12,0.99-0.12c1.52,0,2.32,0.88,2.32,2.17
										c0,1.39-0.85,2.3-2.27,2.3c-1.42,0-2.05-0.98-2.05-0.98l0.42-0.49c0,0,0.55,0.83,1.63,0.83c0.94,0,1.58-0.59,1.58-1.66
										c0-0.95-0.64-1.54-1.66-1.54c-0.92,0-1.46,0.29-1.47,0.3l-0.16-0.12l0.1-3.71h3.57v0.64H414.44z"/>
									<path class="st14" d="M421.38,45.64c0,0.94-0.49,1.8-1.38,1.8c-0.89,0-1.39-0.86-1.39-1.8c0-0.97,0.5-1.8,1.39-1.8
										C420.89,43.85,421.38,44.67,421.38,45.64z M424.64,44l-5.18,7.2h-0.74l5.17-7.2H424.64z M419.22,45.64
										c0,0.68,0.26,1.24,0.78,1.24c0.5,0,0.77-0.55,0.77-1.24c0-0.7-0.26-1.24-0.77-1.24C419.48,44.41,419.22,44.95,419.22,45.64
										z M424.8,49.49c0,0.95-0.5,1.8-1.39,1.8c-0.89,0-1.38-0.85-1.38-1.8c0-0.96,0.49-1.8,1.38-1.8
										C424.29,47.7,424.8,48.54,424.8,49.49z M422.63,49.49c0,0.67,0.28,1.22,0.78,1.22c0.5,0,0.77-0.55,0.77-1.22
										c0-0.71-0.26-1.25-0.77-1.25C422.9,48.25,422.63,48.79,422.63,49.49z"/>
								</g>
							</g>
						</g>
					</g>
				</g>
			</g>
		</g>
	</g>
	<g>
		<defs>
			<rect id="SVGID_43_" x="9.73" y="8.26" width="767.55" height="139.48"/>
		</defs>
		<clipPath id="SVGID_44_">
			<use xlink:href="#SVGID_43_"  style="overflow:visible;"/>
		</clipPath>
		<rect x="9.73" y="8.26" class="st23" width="100.05" height="50.02"/>
	</g>
	<g>
		<defs>
			<rect id="SVGID_45_" x="9.73" y="8.26" width="767.55" height="139.48"/>
		</defs>
		<clipPath id="SVGID_46_">
			<use xlink:href="#SVGID_45_"  style="overflow:visible;"/>
		</clipPath>
		<g class="st24">
			<g>
				<defs>
					<rect id="SVGID_47_" x="9.73" y="8.26" width="767.55" height="139.48"/>
				</defs>
				<clipPath id="SVGID_48_">
					<use xlink:href="#SVGID_47_"  style="overflow:visible;"/>
				</clipPath>
				<g class="st25">
					<g>
						<g>
							<defs>
								<rect id="SVGID_49_" x="100.77" y="1.26" width="68.02" height="58.02"/>
							</defs>
							<clipPath id="SVGID_50_">
								<use xlink:href="#SVGID_49_"  style="overflow:visible;"/>
							</clipPath>
							<rect x="109.77" y="8.26" class="st26" width="50.02" height="50.02"/>
						</g>
					</g>
				</g>
			</g>
		</g>
	</g>
	<g>
		<defs>
			<rect id="SVGID_51_" x="9.73" y="8.26" width="767.55" height="139.48"/>
		</defs>
		<clipPath id="SVGID_52_">
			<use xlink:href="#SVGID_51_"  style="overflow:visible;"/>
		</clipPath>
		<g class="st27">
			<g class="st13">
				<path class="st28" d="M79.71,44h2.18v7.2H81.2v-6.56h-1.5V44z"/>
				<path class="st28" d="M83.21,47.61c0-2.1,0.98-3.77,2.71-3.77s2.7,1.67,2.7,3.77c0,2.09-0.97,3.75-2.7,3.75
					S83.21,49.7,83.21,47.61z M87.93,47.61c0-1.7-0.7-3.12-2.01-3.12c-1.33,0-2.03,1.42-2.03,3.12c0,1.69,0.7,3.11,2.03,3.11
					C87.24,50.72,87.93,49.3,87.93,47.61z"/>
				<path class="st28" d="M89.68,47.61c0-2.1,0.98-3.77,2.71-3.77s2.7,1.67,2.7,3.77c0,2.09-0.97,3.75-2.7,3.75
					S89.68,49.7,89.68,47.61z M94.4,47.61c0-1.7-0.7-3.12-2.01-3.12c-1.33,0-2.03,1.42-2.03,3.12c0,1.69,0.7,3.11,2.03,3.11
					C93.71,50.72,94.4,49.3,94.4,47.61z"/>
				<path class="st28" d="M98.83,45.64c0,0.94-0.49,1.8-1.38,1.8s-1.39-0.86-1.39-1.8c0-0.97,0.5-1.8,1.39-1.8
					S98.83,44.67,98.83,45.64z M102.09,44l-5.18,7.2h-0.74l5.17-7.2H102.09z M96.67,45.64c0,0.68,0.26,1.24,0.78,1.24
					c0.5,0,0.77-0.55,0.77-1.24c0-0.7-0.26-1.24-0.77-1.24C96.94,44.41,96.67,44.95,96.67,45.64z M102.25,49.49
					c0,0.95-0.5,1.8-1.39,1.8c-0.89,0-1.38-0.85-1.38-1.8c0-0.96,0.49-1.8,1.38-1.8C101.75,47.7,102.25,48.54,102.25,49.49z
					 M100.08,49.49c0,0.67,0.28,1.22,0.78,1.22c0.5,0,0.77-0.55,0.77-1.22c0-0.71-0.26-1.25-0.77-1.25
					C100.35,48.25,100.08,48.79,100.08,49.49z"/>
			</g>
		</g>
	</g>
	<g>
		<defs>
			<rect id="SVGID_53_" x="9.73" y="8.26" width="767.55" height="139.48"/>
		</defs>
		<clipPath id="SVGID_54_">
			<use xlink:href="#SVGID_53_"  style="overflow:visible;"/>
		</clipPath>
		<g class="st29">
			<g>
				<defs>
					<rect id="SVGID_55_" x="9.73" y="8.26" width="767.55" height="139.48"/>
				</defs>
				<clipPath id="SVGID_56_">
					<use xlink:href="#SVGID_55_"  style="overflow:visible;"/>
				</clipPath>
				<g class="st30">
					<g>
						<g>
							<defs>
								<rect id="SVGID_57_" x="124.54" y="35.2" width="39.88" height="19.3"/>
							</defs>
							<clipPath id="SVGID_58_">
								<use xlink:href="#SVGID_57_"  style="overflow:visible;"/>
							</clipPath>
							<g class="st31">
								<g class="st13">
									<path class="st28" d="M134.08,49.23c0-0.82,0.41-1.46,1.07-1.8c-0.59-0.34-0.91-0.92-0.91-1.61c0-1.13,0.79-1.98,2.1-1.98
										s2.09,0.85,2.09,1.98c0,0.68-0.32,1.27-0.91,1.61c0.66,0.34,1.07,0.98,1.07,1.8c0,1.15-0.84,2.13-2.24,2.13
										C134.91,51.37,134.08,50.38,134.08,49.23z M136.34,47.75c-0.94,0-1.57,0.62-1.57,1.48c0,0.84,0.62,1.49,1.57,1.49
										c0.94,0,1.55-0.65,1.55-1.49C137.89,48.38,137.26,47.75,136.34,47.75z M137.73,45.81c0-0.72-0.49-1.32-1.39-1.32
										c-0.92,0-1.4,0.6-1.4,1.32c0,0.74,0.48,1.34,1.4,1.34C137.24,47.16,137.73,46.56,137.73,45.81z"/>
									<path class="st28" d="M139.65,47.61c0-2.1,0.98-3.77,2.71-3.77s2.7,1.67,2.7,3.77c0,2.09-0.97,3.75-2.7,3.75
										S139.65,49.7,139.65,47.61z M144.38,47.61c0-1.7-0.7-3.12-2.01-3.12c-1.33,0-2.03,1.42-2.03,3.12
										c0,1.69,0.7,3.11,2.03,3.11C143.68,50.72,144.38,49.3,144.38,47.61z"/>
									<path class="st28" d="M148.81,45.64c0,0.94-0.49,1.8-1.38,1.8s-1.39-0.86-1.39-1.8c0-0.97,0.5-1.8,1.39-1.8
										S148.81,44.67,148.81,45.64z M152.07,44l-5.18,7.2h-0.74l5.17-7.2H152.07z M146.65,45.64c0,0.68,0.26,1.24,0.78,1.24
										c0.5,0,0.77-0.55,0.77-1.24c0-0.7-0.26-1.24-0.77-1.24C146.91,44.41,146.65,44.95,146.65,45.64z M152.22,49.49
										c0,0.95-0.5,1.8-1.39,1.8c-0.89,0-1.38-0.85-1.38-1.8c0-0.96,0.49-1.8,1.38-1.8C151.72,47.7,152.22,48.54,152.22,49.49z
										 M150.05,49.49c0,0.67,0.28,1.22,0.78,1.22c0.5,0,0.77-0.55,0.77-1.22c0-0.71-0.26-1.25-0.77-1.25
										C150.33,48.25,150.05,48.79,150.05,49.49z"/>
								</g>
							</g>
						</g>
					</g>
				</g>
			</g>
			<g>
				<defs>
					<rect id="SVGID_59_" x="9.73" y="8.26" width="767.55" height="139.48"/>
				</defs>
				<clipPath id="SVGID_60_">
					<use xlink:href="#SVGID_59_"  style="overflow:visible;"/>
				</clipPath>
				<g class="st32">
					<g class="st13">
						<path class="st33" d="M14.31,81.64h1.32l-2.36,4.39v2.81h-1.19v-2.81l-2.36-4.39h1.32l1.4,2.82l0.24,0.55l0.25-0.55
							L14.31,81.64z"/>
					</g>
					<g class="st13">
						<path class="st33" d="M19.2,88.83h-0.8l-0.16-0.66h-0.02c-0.26,0.47-0.77,0.78-1.52,0.78c-1.08,0-1.71-0.7-1.71-1.6
							c0-1,0.72-1.65,2.11-1.65c0.41,0,0.74,0.07,0.98,0.16v-0.16c0-0.76-0.42-1.06-1.14-1.06c-0.68,0-1.22,0.37-1.22,0.37
							l-0.4-0.89c0,0,0.67-0.46,1.81-0.46c1.4,0,2.08,0.82,2.08,2.05V88.83z M18.08,87.02V86.6c-0.14-0.08-0.41-0.18-0.85-0.18
							c-0.74,0-1.12,0.32-1.12,0.86c0,0.47,0.32,0.83,0.86,0.83C17.57,88.12,18.05,87.64,18.08,87.02z"/>
						<path class="st33" d="M21.61,88.83h-1.18V83.8h0.76l0.16,0.72h0.06c0.37-0.55,0.8-0.84,1.54-0.84c1.19,0,1.91,0.91,1.91,2.27
							v2.89h-1.18v-2.78c0-0.77-0.36-1.37-1.02-1.37c-0.71,0-1.04,0.68-1.04,1.22V88.83z"/>
					</g>
					<g class="st13">
						<path class="st33" d="M30.38,83.8l-1.83,2.18l1.87,2.85h-1.43l-1.33-2.06l-0.41,0.47v1.59h-1.18v-7.26h1.18v4.32l1.68-2.1
							H30.38z"/>
					</g>
					<g class="st13">
						<path class="st33" d="M34.77,88.38c0,0-0.52,0.6-1.7,0.6c-1.52,0-2.42-1.12-2.42-2.65c0-1.52,0.89-2.65,2.24-2.65
							c1.34,0,2.11,1.04,2.11,2.51v0.31h-3.21c0.06,1.02,0.58,1.52,1.37,1.52c0.76,0,1.21-0.44,1.21-0.44L34.77,88.38z M31.82,85.72
							h2.01c-0.07-0.73-0.41-1.13-0.97-1.13C32.3,84.59,31.94,84.96,31.82,85.72z"/>
						<path class="st33" d="M39.8,88.38c0,0-0.52,0.6-1.7,0.6c-1.52,0-2.42-1.12-2.42-2.65c0-1.52,0.89-2.65,2.24-2.65
							c1.34,0,2.11,1.04,2.11,2.51v0.31h-3.21c0.06,1.02,0.58,1.52,1.37,1.52c0.76,0,1.21-0.44,1.21-0.44L39.8,88.38z M36.85,85.72
							h2.02c-0.07-0.73-0.41-1.13-0.97-1.13S36.97,84.96,36.85,85.72z"/>
						<path class="st33" d="M41.11,87.56c0,0,0.68,0.49,1.52,0.49c0.58,0,0.78-0.24,0.78-0.58c0-0.95-2.69-0.44-2.69-2.31
							c0-0.83,0.59-1.49,1.8-1.49c1.28,0,1.98,0.43,1.98,0.43l-0.4,0.91c0,0-0.61-0.43-1.45-0.43c-0.5,0-0.77,0.18-0.77,0.54
							c0,0.91,2.72,0.34,2.72,2.29c0,0.83-0.55,1.54-1.94,1.54c-1.37,0-1.97-0.59-1.97-0.59L41.11,87.56z"/>
						<path class="st33" d="M51.05,88.83h-3.01v-7.2h2.93c1.48,0,2.28,0.7,2.28,1.96c0,0.72-0.35,1.27-0.9,1.54v0.05
							c0.66,0.2,1.09,0.78,1.09,1.61C53.44,88.14,52.52,88.83,51.05,88.83z M50.95,82.69h-1.71v2.01h1.69c0.66,0,1.08-0.41,1.08-1
							C52,83.03,51.61,82.69,50.95,82.69z M49.23,85.69v2.09h1.83c0.64,0,1.12-0.38,1.12-1.06c0-0.61-0.44-1.03-1.03-1.03H49.23z"/>
						<path class="st33" d="M54.51,81.58h1.18v7.26h-1.18V81.58z"/>
						<path class="st33" d="M61.33,88.83h-0.78l-0.19-0.7h-0.06c-0.17,0.26-0.59,0.82-1.48,0.82c-1.19,0-1.9-0.91-1.9-2.27V83.8
							h1.19v2.78c0,0.79,0.31,1.39,0.97,1.39c0.68,0,1.03-0.64,1.07-1.14V83.8h1.18V88.83z"/>
						<path class="st33" d="M66.45,88.38c0,0-0.52,0.6-1.7,0.6c-1.52,0-2.42-1.12-2.42-2.65c0-1.52,0.89-2.65,2.24-2.65
							c1.34,0,2.11,1.04,2.11,2.51v0.31h-3.21c0.06,1.02,0.58,1.52,1.37,1.52c0.76,0,1.21-0.44,1.21-0.44L66.45,88.38z M63.5,85.72
							h2.02c-0.07-0.73-0.41-1.13-0.97-1.13S63.62,84.96,63.5,85.72z"/>
					</g>
				</g>
			</g>
			<g>
				<defs>
					<rect id="SVGID_61_" x="9.73" y="8.26" width="767.55" height="139.48"/>
				</defs>
				<clipPath id="SVGID_62_">
					<use xlink:href="#SVGID_61_"  style="overflow:visible;"/>
				</clipPath>
				<g class="st34">
					<g class="st13">
						<path class="st33" d="M15.59,113.36c0,0-0.7,0.95-2.16,0.95c-1.92,0-3.25-1.64-3.25-3.75c0-2.13,1.33-3.77,3.25-3.77
							c1.46,0,2.16,0.94,2.16,0.94l-0.38,0.53c0,0-0.66-0.82-1.76-0.82c-1.51,0-2.55,1.42-2.55,3.12c0,1.69,1.04,3.11,2.55,3.11
							c1.1,0,1.76-0.82,1.76-0.82L15.59,113.36z"/>
						<path class="st33" d="M22.17,108.27l-2.23,3.18h-0.22l-2.23-3.15v5.85H16.8v-7.2h0.5l2.52,3.6l2.53-3.6h0.49v7.2h-0.68V108.27
							z"/>
						<path class="st33" d="M28.62,106.95h0.79L27,111.36v2.78h-0.68v-2.78l-2.42-4.41h0.8l1.76,3.38l0.19,0.43h0.02l0.2-0.43
							L28.62,106.95z"/>
						<path class="st33" d="M31.16,111l3.54-4.05h0.78v0.13l-2.49,2.83l2.53,4.1v0.13h-0.72c0,0-1.64-2.67-2.28-3.69l-1.35,1.54
							v2.16h-0.68v-7.2h0.68V111z"/>
					</g>
				</g>
			</g>
			<g>
				<defs>
					<rect id="SVGID_63_" x="9.73" y="8.26" width="767.55" height="139.48"/>
				</defs>
				<clipPath id="SVGID_64_">
					<use xlink:href="#SVGID_63_"  style="overflow:visible;"/>
				</clipPath>
			</g>
			<g>
				<defs>
					<rect id="SVGID_65_" x="9.73" y="8.26" width="767.55" height="139.48"/>
				</defs>
				<clipPath id="SVGID_66_">
					<use xlink:href="#SVGID_65_"  style="overflow:visible;"/>
				</clipPath>
				<g class="st35">
					<g class="st13">
						<path class="st33" d="M45.88,106.95h2.18v7.2h-0.68v-6.56h-1.5V106.95z"/>
						<path class="st33" d="M49.38,110.56c0-2.1,0.98-3.77,2.71-3.77s2.7,1.67,2.7,3.77c0,2.09-0.97,3.75-2.7,3.75
							S49.38,112.64,49.38,110.56z M54.11,110.56c0-1.7-0.7-3.12-2.01-3.12c-1.33,0-2.03,1.42-2.03,3.12c0,1.69,0.7,3.11,2.03,3.11
							C53.41,113.66,54.11,112.25,54.11,110.56z"/>
					</g>
					<g class="st13">
						<path class="st33" d="M55.85,110.56c0-2.1,0.98-3.77,2.71-3.77s2.7,1.67,2.7,3.77c0,2.09-0.97,3.75-2.7,3.75
							S55.85,112.64,55.85,110.56z M60.58,110.56c0-1.7-0.7-3.12-2.01-3.12c-1.33,0-2.03,1.42-2.03,3.12c0,1.69,0.7,3.11,2.03,3.11
							C59.88,113.66,60.58,112.25,60.58,110.56z"/>
					</g>
					<g class="st13">
						<path class="st33" d="M61.68,115.49l4.91-10.73h0.71l-4.87,10.72L61.68,115.49z"/>
					</g>
					<g class="st13">
						<path class="st33" d="M67.67,112.18c0-0.82,0.41-1.46,1.07-1.8c-0.59-0.34-0.91-0.92-0.91-1.61c0-1.13,0.79-1.98,2.1-1.98
							c1.31,0,2.09,0.85,2.09,1.98c0,0.68-0.32,1.27-0.91,1.61c0.66,0.34,1.07,0.98,1.07,1.8c0,1.15-0.84,2.13-2.24,2.13
							C68.5,114.31,67.67,113.33,67.67,112.18z M69.93,110.7c-0.94,0-1.57,0.62-1.57,1.48c0,0.84,0.62,1.49,1.57,1.49
							c0.94,0,1.55-0.65,1.55-1.49C71.48,111.33,70.85,110.7,69.93,110.7z M71.32,108.76c0-0.72-0.49-1.32-1.39-1.32
							c-0.92,0-1.4,0.6-1.4,1.32c0,0.74,0.48,1.34,1.4,1.34C70.83,110.1,71.32,109.5,71.32,108.76z"/>
						<path class="st33" d="M73.22,113.68L76,110.5c0.53-0.59,0.68-0.98,0.68-1.54c0-0.88-0.56-1.52-1.46-1.52
							c-1,0-1.66,0.86-1.69,0.9l-0.38-0.53c0,0,0.77-1.02,2.09-1.02c1.4,0,2.15,0.91,2.15,2.15c0,0.7-0.18,1.21-0.71,1.83
							l-2.41,2.73h3.29v0.64h-4.33V113.68z"/>
					</g>
					<g class="st13">
						<path class="st33" d="M78.24,115.49l4.91-10.73h0.71l-4.87,10.72L78.24,115.49z"/>
					</g>
					<g class="st13">
						<path class="st33" d="M83.47,111.88l3.68-4.93h0.5v4.81h1.14v0.64h-1.14v1.75h-0.67v-1.75h-3.51V111.88z M84.38,111.76h2.6
							v-3.56l-2.46,3.41c-0.05,0.05-0.14,0.12-0.14,0.12V111.76z"/>
					</g>
					<g class="st13">
						<path class="st33" d="M90.33,110.74c0.35-0.61,0.98-1.02,1.8-1.02c1.31,0,2.16,1.03,2.16,2.24c0,1.24-0.9,2.3-2.21,2.3
							c-1.36,0-2.44-1.03-2.44-3.67c0-2.59,1.13-3.8,2.58-3.8c1.36,0,1.86,1.02,1.86,1.02l-0.41,0.49c0,0-0.48-0.86-1.45-0.86
							c-1.08,0-1.9,0.85-1.9,3.14V110.74z M90.44,111.97c0.24,1.2,0.89,1.64,1.64,1.64c0.89,0,1.52-0.72,1.52-1.66
							c0-0.91-0.59-1.6-1.49-1.6S90.54,111.04,90.44,111.97z"/>
					</g>
					<g class="st13">
						<path class="st33" d="M94.78,115.49l4.91-10.73h0.71l-4.87,10.72L94.78,115.49z"/>
					</g>
					<g class="st13">
						<path class="st33" d="M101.84,107.58l-0.05,2.38c0.25-0.06,0.58-0.12,1-0.12c1.52,0,2.31,0.88,2.31,2.17
							c0,1.39-0.85,2.3-2.27,2.3c-1.42,0-2.05-0.98-2.05-0.98l0.42-0.49c0,0,0.55,0.83,1.63,0.83c0.94,0,1.58-0.59,1.58-1.66
							c0-0.95-0.64-1.54-1.66-1.54c-0.92,0-1.46,0.29-1.48,0.3l-0.16-0.12l0.1-3.71h3.57v0.64H101.84z"/>
						<path class="st33" d="M107.05,107.58l-0.05,2.38c0.25-0.06,0.58-0.12,1-0.12c1.52,0,2.31,0.88,2.31,2.17
							c0,1.39-0.85,2.3-2.27,2.3c-1.42,0-2.05-0.98-2.05-0.98l0.42-0.49c0,0,0.55,0.83,1.63,0.83c0.94,0,1.58-0.59,1.58-1.66
							c0-0.95-0.64-1.54-1.66-1.54c-0.92,0-1.46,0.29-1.48,0.3l-0.16-0.12l0.1-3.71h3.57v0.64H107.05z"/>
					</g>
				</g>
			</g>
		</g>
	</g>
	<g>
		<defs>
			<rect id="SVGID_67_" x="9.73" y="8.26" width="767.55" height="139.48"/>
		</defs>
		<clipPath id="SVGID_68_">
			<use xlink:href="#SVGID_67_"  style="overflow:visible;"/>
		</clipPath>
	</g>
	<g>
		<defs>
			<rect id="SVGID_69_" x="9.73" y="8.26" width="767.55" height="139.48"/>
		</defs>
		<clipPath id="SVGID_70_">
			<use xlink:href="#SVGID_69_"  style="overflow:visible;"/>
		</clipPath>
		<g class="st36">
			<g>
				<defs>
					<rect id="SVGID_71_" x="9.73" y="8.26" width="767.55" height="139.48"/>
				</defs>
				<clipPath id="SVGID_72_">
					<use xlink:href="#SVGID_71_"  style="overflow:visible;"/>
				</clipPath>
				<g class="st37">
					<g class="st13">
						<path class="st33" d="M13.16,123.74c1.56,0,2.48,0.85,2.48,2.38c0,1.19-0.6,1.96-1.52,2.24v0.04l1.66,2.38v0.17h-0.71
							l-1.73-2.45h-2.01v2.45h-0.68v-7.2H13.16z M13.14,124.38h-1.82v3.48h1.93c0.98,0,1.69-0.56,1.69-1.71
							C14.94,124.97,14.23,124.38,13.14,124.38z"/>
						<path class="st33" d="M22.12,127.69h-2.39v-0.64h3.06v0.47c0,2.19-1.08,3.59-2.89,3.59c-1.98,0-3.21-1.64-3.21-3.75
							c0-2.13,1.27-3.77,3.25-3.77c1.58,0,2.3,0.96,2.3,0.96l-0.4,0.52c0,0-0.67-0.83-1.91-0.83c-1.59,0-2.54,1.42-2.54,3.12
							c0,1.69,0.92,3.11,2.51,3.11c1.32,0,2.22-1.04,2.22-2.67V127.69z"/>
						<path class="st33" d="M26.94,130.94h-2.85v-7.2h2.72c1.37,0,2.21,0.66,2.21,1.94c0,0.82-0.4,1.36-1.02,1.58v0.04
							c0.71,0.2,1.22,0.78,1.22,1.67C29.22,130.32,28.29,130.94,26.94,130.94z M26.8,124.38h-2.03v2.61h2.1
							c0.89,0,1.44-0.49,1.44-1.28C28.31,124.76,27.72,124.38,26.8,124.38z M24.77,127.63v2.67h2.19c0.88,0,1.56-0.43,1.56-1.37
							c0-0.85-0.67-1.31-1.52-1.31H24.77z"/>
					</g>
				</g>
			</g>
			<g>
				<defs>
					<rect id="SVGID_73_" x="9.73" y="8.26" width="767.55" height="139.48"/>
				</defs>
				<clipPath id="SVGID_74_">
					<use xlink:href="#SVGID_73_"  style="overflow:visible;"/>
				</clipPath>
			</g>
			<g>
				<defs>
					<rect id="SVGID_75_" x="9.73" y="8.26" width="767.55" height="139.48"/>
				</defs>
				<clipPath id="SVGID_76_">
					<use xlink:href="#SVGID_75_"  style="overflow:visible;"/>
				</clipPath>
				<g class="st38">
					<g class="st13">
						<path class="st33" d="M45.88,123.74h2.18v7.2h-0.68v-6.56h-1.5V123.74z"/>
					</g>
					<g class="st13">
						<path class="st33" d="M49.39,128.97c0-0.82,0.41-1.46,1.07-1.8c-0.59-0.34-0.91-0.92-0.91-1.61c0-1.13,0.79-1.98,2.1-1.98
							s2.09,0.85,2.09,1.98c0,0.68-0.32,1.27-0.91,1.61c0.66,0.34,1.07,0.98,1.07,1.8c0,1.15-0.84,2.13-2.24,2.13
							C50.22,131.11,49.39,130.12,49.39,128.97z M51.65,127.5c-0.94,0-1.57,0.62-1.57,1.48c0,0.84,0.62,1.49,1.57,1.49
							c0.94,0,1.55-0.65,1.55-1.49C53.2,128.12,52.57,127.5,51.65,127.5z M53.04,125.55c0-0.72-0.49-1.32-1.39-1.32
							c-0.92,0-1.4,0.6-1.4,1.32c0,0.74,0.48,1.34,1.4,1.34C52.55,126.9,53.04,126.3,53.04,125.55z"/>
					</g>
					<g class="st13">
						<path class="st33" d="M54.47,132.28l4.91-10.73h0.71l-4.87,10.72L54.47,132.28z"/>
						<path class="st33" d="M62.07,126.79l2.01-2.41H60.9v-0.64h4.09v0.56l-2.1,2.47h0.06c1.36-0.02,2.15,0.76,2.15,2.11
							c0,1.24-0.83,2.21-2.25,2.21c-1.44,0-2.07-0.98-2.07-0.98l0.4-0.49c0,0,0.56,0.84,1.67,0.84c0.97,0,1.57-0.7,1.57-1.57
							c0-0.97-0.55-1.54-1.58-1.54h-0.76V126.79z"/>
					</g>
					<g class="st13">
						<path class="st33" d="M65.93,123.74h4.23v0.47l-2.88,6.73h-0.83l2.87-6.56h-3.39V123.74z"/>
					</g>
					<g class="st13">
						<path class="st33" d="M69.77,132.28l4.91-10.73h0.71l-4.87,10.72L69.77,132.28z"/>
					</g>
					<g class="st13">
						<path class="st33" d="M76.35,127.53c0.35-0.61,0.98-1.02,1.8-1.02c1.31,0,2.16,1.03,2.16,2.24c0,1.24-0.9,2.3-2.21,2.3
							c-1.36,0-2.44-1.03-2.44-3.67c0-2.59,1.13-3.8,2.58-3.8c1.36,0,1.86,1.02,1.86,1.02l-0.41,0.49c0,0-0.48-0.86-1.45-0.86
							c-1.08,0-1.9,0.85-1.9,3.14V127.53z M76.46,128.77c0.24,1.2,0.89,1.64,1.64,1.64c0.89,0,1.52-0.72,1.52-1.66
							c0-0.91-0.59-1.6-1.49-1.6S76.56,127.83,76.46,128.77z"/>
						<path class="st33" d="M80.92,123.74h2.18v7.2h-0.68v-6.56h-1.5V123.74z"/>
					</g>
				</g>
			</g>
		</g>
	</g>
	<g>
		<defs>
			<rect id="SVGID_77_" x="9.73" y="8.26" width="767.55" height="139.48"/>
		</defs>
		<clipPath id="SVGID_78_">
			<use xlink:href="#SVGID_77_"  style="overflow:visible;"/>
		</clipPath>
	</g>
	<g>
		<defs>
			<rect id="SVGID_79_" x="9.73" y="8.26" width="767.55" height="139.48"/>
		</defs>
		<clipPath id="SVGID_80_">
			<use xlink:href="#SVGID_79_"  style="overflow:visible;"/>
		</clipPath>
		<g class="st39">
			<g>
				<defs>
					<rect id="SVGID_81_" x="9.73" y="8.26" width="767.55" height="139.48"/>
				</defs>
				<clipPath id="SVGID_82_">
					<use xlink:href="#SVGID_81_"  style="overflow:visible;"/>
				</clipPath>
				<g class="st40">
					<g class="st13">
						<path class="st33" d="M15.81,147.74h-0.68v-3.25h-3.8v3.25h-0.68v-7.2h0.68v3.31h3.8v-3.31h0.68V147.74z"/>
						<path class="st33" d="M21.63,144.42h-3.31v2.69h3.86v0.64h-4.55v-7.2h4.55v0.64h-3.86v2.6h3.31V144.42z"/>
						<path class="st33" d="M25.96,144.04l2.21,3.69h-0.82l-1.64-2.81l-0.23-0.47l-0.25,0.47l-1.62,2.81h-0.8l2.17-3.69l-2.1-3.5
							h0.83l1.57,2.7l0.2,0.41l0.22-0.41l1.57-2.7h0.8L25.96,144.04z"/>
					</g>
				</g>
			</g>
			<g>
				<defs>
					<rect id="SVGID_83_" x="9.73" y="8.26" width="767.55" height="139.48"/>
				</defs>
				<clipPath id="SVGID_84_">
					<use xlink:href="#SVGID_83_"  style="overflow:visible;"/>
				</clipPath>
			</g>
			<g>
				<defs>
					<rect id="SVGID_85_" x="9.73" y="8.26" width="767.55" height="139.48"/>
				</defs>
				<clipPath id="SVGID_86_">
					<use xlink:href="#SVGID_85_"  style="overflow:visible;"/>
				</clipPath>
				<g class="st41">
					<g class="st13">
						<path class="st33" d="M50.7,142.73H52l-0.1,0.47h-1.3l-0.42,2.13h1.25l-0.08,0.46H50.1l-0.38,1.96h-0.47l0.38-1.96h-1.77
							l-0.38,1.96H47l0.38-1.96h-1.3l0.1-0.46h1.28l0.42-2.13h-1.25l0.1-0.47h1.25l0.4-1.98h0.47l-0.4,1.98h1.77l0.4-1.98h0.48
							L50.7,142.73z M47.94,145.33h1.77l0.42-2.13h-1.77L47.94,145.33z"/>
						<path class="st33" d="M52.52,140.54h2.18v7.2h-0.68v-6.56h-1.5V140.54z"/>
						<path class="st33" d="M56,147.27l2.78-3.18c0.53-0.59,0.68-0.98,0.68-1.54c0-0.88-0.56-1.52-1.46-1.52
							c-1,0-1.66,0.86-1.69,0.9l-0.38-0.53c0,0,0.77-1.02,2.09-1.02c1.4,0,2.15,0.91,2.15,2.15c0,0.7-0.18,1.21-0.71,1.83
							l-2.41,2.73h3.29v0.64H56V147.27z"/>
						<path class="st33" d="M61.3,147.27l2.78-3.18c0.53-0.59,0.68-0.98,0.68-1.54c0-0.88-0.56-1.52-1.46-1.52
							c-1,0-1.66,0.86-1.69,0.9l-0.38-0.53c0,0,0.77-1.02,2.09-1.02c1.4,0,2.15,0.91,2.15,2.15c0,0.7-0.18,1.21-0.71,1.83
							l-2.41,2.73h3.29v0.64H61.3V147.27z"/>
						<path class="st33" d="M67.59,141.18l-0.05,2.38c0.25-0.06,0.58-0.12,1-0.12c1.52,0,2.31,0.88,2.31,2.17
							c0,1.39-0.85,2.3-2.27,2.3c-1.42,0-2.05-0.98-2.05-0.98l0.42-0.49c0,0,0.55,0.83,1.63,0.83c0.94,0,1.58-0.59,1.58-1.66
							c0-0.95-0.64-1.54-1.66-1.54c-0.92,0-1.46,0.29-1.48,0.3l-0.16-0.12l0.1-3.71h3.57v0.64H67.59z"/>
						<path class="st33" d="M73.05,143.59l2.01-2.41h-3.18v-0.64h4.09v0.56l-2.1,2.47h0.06c1.36-0.02,2.15,0.76,2.15,2.11
							c0,1.24-0.83,2.21-2.25,2.21c-1.44,0-2.07-0.98-2.07-0.98l0.4-0.49c0,0,0.56,0.84,1.67,0.84c0.97,0,1.57-0.7,1.57-1.57
							c0-0.97-0.55-1.54-1.58-1.54h-0.76V143.59z"/>
						<path class="st33" d="M79.65,147.74h-2.12v-7.2h2.12c1.97,0,3.33,1.37,3.33,3.6C82.98,146.37,81.61,147.74,79.65,147.74z
							 M78.21,141.18v5.92h1.4c1.51,0,2.67-1.1,2.67-2.96c0-1.86-1.16-2.96-2.67-2.96H78.21z"/>
					</g>
				</g>
			</g>
		</g>
	</g>
	<g>
		<defs>
			<rect id="SVGID_87_" x="9.73" y="8.26" width="767.55" height="139.48"/>
		</defs>
		<clipPath id="SVGID_88_">
			<use xlink:href="#SVGID_87_"  style="overflow:visible;"/>
		</clipPath>
		<rect x="454.73" y="8.26" class="st42" width="100.05" height="50.02"/>
	</g>
	<g>
		<defs>
			<rect id="SVGID_89_" x="9.73" y="8.26" width="767.55" height="139.48"/>
		</defs>
		<clipPath id="SVGID_90_">
			<use xlink:href="#SVGID_89_"  style="overflow:visible;"/>
		</clipPath>
		<g class="st43">
			<g>
				<defs>
					<rect id="SVGID_91_" x="9.73" y="8.26" width="767.55" height="139.48"/>
				</defs>
				<clipPath id="SVGID_92_">
					<use xlink:href="#SVGID_91_"  style="overflow:visible;"/>
				</clipPath>
				<g class="st44">
					<g>
						<g>
							<defs>
								<rect id="SVGID_93_" x="545.77" y="1.26" width="68.02" height="58.02"/>
							</defs>
							<clipPath id="SVGID_94_">
								<use xlink:href="#SVGID_93_"  style="overflow:visible;"/>
							</clipPath>
							<rect x="554.77" y="8.26" class="st45" width="50.02" height="50.02"/>
						</g>
					</g>
				</g>
			</g>
		</g>
	</g>
	<g>
		<defs>
			<rect id="SVGID_95_" x="9.73" y="8.26" width="767.55" height="139.48"/>
		</defs>
		<clipPath id="SVGID_96_">
			<use xlink:href="#SVGID_95_"  style="overflow:visible;"/>
		</clipPath>
		<g class="st46">
			<g class="st13">
				<path class="st28" d="M524.71,44h2.18v7.2h-0.68v-6.56h-1.5V44z"/>
				<path class="st28" d="M528.21,47.61c0-2.1,0.98-3.77,2.71-3.77c1.73,0,2.7,1.67,2.7,3.77c0,2.09-0.97,3.75-2.7,3.75
					C529.19,51.37,528.21,49.7,528.21,47.61z M532.94,47.61c0-1.7-0.7-3.12-2.01-3.12c-1.33,0-2.03,1.42-2.03,3.12
					c0,1.69,0.7,3.11,2.03,3.11C532.24,50.72,532.94,49.3,532.94,47.61z"/>
				<path class="st28" d="M534.68,47.61c0-2.1,0.98-3.77,2.71-3.77c1.73,0,2.7,1.67,2.7,3.77c0,2.09-0.97,3.75-2.7,3.75
					C535.66,51.37,534.68,49.7,534.68,47.61z M539.4,47.61c0-1.7-0.7-3.12-2.01-3.12c-1.33,0-2.03,1.42-2.03,3.12
					c0,1.69,0.7,3.11,2.03,3.11C538.71,50.72,539.4,49.3,539.4,47.61z"/>
				<path class="st28" d="M543.83,45.64c0,0.94-0.49,1.8-1.38,1.8s-1.39-0.86-1.39-1.8c0-0.97,0.5-1.8,1.39-1.8
					S543.83,44.67,543.83,45.64z M547.1,44l-5.18,7.2h-0.74l5.17-7.2H547.1z M541.67,45.64c0,0.68,0.26,1.24,0.78,1.24
					c0.5,0,0.77-0.55,0.77-1.24c0-0.7-0.26-1.24-0.77-1.24C541.94,44.41,541.67,44.95,541.67,45.64z M547.25,49.49
					c0,0.95-0.5,1.8-1.39,1.8c-0.89,0-1.38-0.85-1.38-1.8c0-0.96,0.49-1.8,1.38-1.8C546.75,47.7,547.25,48.54,547.25,49.49z
					 M545.08,49.49c0,0.67,0.28,1.22,0.78,1.22c0.5,0,0.77-0.55,0.77-1.22c0-0.71-0.26-1.25-0.77-1.25
					C545.36,48.25,545.08,48.79,545.08,49.49z"/>
			</g>
		</g>
	</g>
	<g>
		<defs>
			<rect id="SVGID_97_" x="9.73" y="8.26" width="767.55" height="139.48"/>
		</defs>
		<clipPath id="SVGID_98_">
			<use xlink:href="#SVGID_97_"  style="overflow:visible;"/>
		</clipPath>
		<g class="st47">
			<g>
				<defs>
					<rect id="SVGID_99_" x="9.73" y="8.26" width="767.55" height="139.48"/>
				</defs>
				<clipPath id="SVGID_100_">
					<use xlink:href="#SVGID_99_"  style="overflow:visible;"/>
				</clipPath>
				<g class="st48">
					<g>
						<g>
							<defs>
								<rect id="SVGID_101_" x="569.55" y="35.2" width="39.88" height="19.3"/>
							</defs>
							<clipPath id="SVGID_102_">
								<use xlink:href="#SVGID_101_"  style="overflow:visible;"/>
							</clipPath>
							<g class="st49">
								<g class="st13">
									<path class="st28" d="M579.09,49.23c0-0.82,0.41-1.46,1.07-1.8c-0.59-0.34-0.91-0.92-0.91-1.61c0-1.13,0.79-1.98,2.1-1.98
										c1.31,0,2.09,0.85,2.09,1.98c0,0.68-0.32,1.27-0.91,1.61c0.66,0.34,1.07,0.98,1.07,1.8c0,1.15-0.84,2.13-2.24,2.13
										C579.91,51.37,579.09,50.38,579.09,49.23z M581.34,47.75c-0.94,0-1.57,0.62-1.57,1.48c0,0.84,0.62,1.49,1.57,1.49
										c0.94,0,1.55-0.65,1.55-1.49C582.89,48.38,582.26,47.75,581.34,47.75z M582.73,45.81c0-0.72-0.49-1.32-1.39-1.32
										c-0.92,0-1.4,0.6-1.4,1.32c0,0.74,0.48,1.34,1.4,1.34C582.24,47.16,582.73,46.56,582.73,45.81z"/>
									<path class="st28" d="M584.65,47.61c0-2.1,0.98-3.77,2.71-3.77c1.73,0,2.7,1.67,2.7,3.77c0,2.09-0.97,3.75-2.7,3.75
										C585.64,51.37,584.65,49.7,584.65,47.61z M589.38,47.61c0-1.7-0.7-3.12-2.01-3.12c-1.33,0-2.03,1.42-2.03,3.12
										c0,1.69,0.7,3.11,2.03,3.11C588.68,50.72,589.38,49.3,589.38,47.61z"/>
									<path class="st28" d="M593.81,45.64c0,0.94-0.49,1.8-1.38,1.8s-1.39-0.86-1.39-1.8c0-0.97,0.5-1.8,1.39-1.8
										S593.81,44.67,593.81,45.64z M597.07,44l-5.18,7.2h-0.74l5.17-7.2H597.07z M591.65,45.64c0,0.68,0.26,1.24,0.78,1.24
										c0.5,0,0.77-0.55,0.77-1.24c0-0.7-0.26-1.24-0.77-1.24C591.91,44.41,591.65,44.95,591.65,45.64z M597.23,49.49
										c0,0.95-0.5,1.8-1.39,1.8s-1.38-0.85-1.38-1.8c0-0.96,0.49-1.8,1.38-1.8S597.23,48.54,597.23,49.49z M595.06,49.49
										c0,0.67,0.28,1.22,0.78,1.22s0.77-0.55,0.77-1.22c0-0.71-0.26-1.25-0.77-1.25S595.06,48.79,595.06,49.49z"/>
								</g>
							</g>
						</g>
					</g>
				</g>
			</g>
		</g>
	</g>
	<g>
		<defs>
			<rect id="SVGID_103_" x="9.73" y="8.26" width="767.55" height="139.48"/>
		</defs>
		<clipPath id="SVGID_104_">
			<use xlink:href="#SVGID_103_"  style="overflow:visible;"/>
		</clipPath>
		<g class="st50">
			<g class="st13">
				<path class="st33" d="M459.31,81.35h1.32l-2.36,4.39v2.81h-1.19v-2.81l-2.36-4.39h1.32l1.4,2.82l0.24,0.55l0.25-0.55
					L459.31,81.35z"/>
			</g>
			<g class="st13">
				<path class="st33" d="M464.2,88.54h-0.8l-0.16-0.66h-0.02c-0.26,0.47-0.77,0.78-1.52,0.78c-1.08,0-1.71-0.7-1.71-1.6
					c0-1,0.72-1.65,2.11-1.65c0.41,0,0.74,0.07,0.98,0.16v-0.16c0-0.76-0.42-1.06-1.14-1.06c-0.68,0-1.22,0.37-1.22,0.37l-0.4-0.89
					c0,0,0.67-0.46,1.81-0.46c1.4,0,2.08,0.82,2.08,2.05V88.54z M463.07,86.73v-0.42c-0.14-0.08-0.41-0.18-0.85-0.18
					c-0.74,0-1.12,0.32-1.12,0.86c0,0.47,0.32,0.83,0.86,0.83C462.57,87.82,463.05,87.34,463.07,86.73z"/>
				<path class="st33" d="M465.43,81.29h1.18v7.26h-1.18V81.29z"/>
				<path class="st33" d="M471.76,88.09c0,0-0.52,0.6-1.7,0.6c-1.52,0-2.42-1.12-2.42-2.65c0-1.52,0.89-2.65,2.24-2.65
					c1.34,0,2.11,1.04,2.11,2.51v0.31h-3.21c0.06,1.02,0.58,1.52,1.37,1.52c0.76,0,1.21-0.44,1.21-0.44L471.76,88.09z M468.81,85.42
					h2.02c-0.07-0.73-0.41-1.13-0.97-1.13S468.93,84.67,468.81,85.42z"/>
				<path class="st33" d="M478.4,88.54h-3.01v-7.2h2.93c1.48,0,2.28,0.7,2.28,1.96c0,0.72-0.35,1.27-0.9,1.54v0.05
					c0.66,0.2,1.09,0.78,1.09,1.61C480.79,87.85,479.87,88.54,478.4,88.54z M478.3,82.4h-1.71v2.01h1.69c0.66,0,1.08-0.41,1.08-1
					C479.35,82.74,478.96,82.4,478.3,82.4z M476.58,85.4v2.09h1.83c0.64,0,1.12-0.38,1.12-1.06c0-0.61-0.44-1.03-1.03-1.03H476.58z"
					/>
				<path class="st33" d="M481.86,81.29h1.18v7.26h-1.18V81.29z"/>
				<path class="st33" d="M488.68,88.54h-0.78l-0.19-0.7h-0.06c-0.17,0.26-0.59,0.82-1.48,0.82c-1.19,0-1.89-0.91-1.89-2.27v-2.89
					h1.19v2.78c0,0.79,0.31,1.39,0.97,1.39c0.68,0,1.03-0.64,1.07-1.14v-3.03h1.18V88.54z"/>
				<path class="st33" d="M493.8,88.09c0,0-0.52,0.6-1.7,0.6c-1.52,0-2.42-1.12-2.42-2.65c0-1.52,0.89-2.65,2.24-2.65
					c1.34,0,2.11,1.04,2.11,2.51v0.31h-3.21c0.06,1.02,0.58,1.52,1.37,1.52c0.76,0,1.21-0.44,1.21-0.44L493.8,88.09z M490.85,85.42
					h2.01c-0.07-0.73-0.41-1.13-0.97-1.13S490.97,84.67,490.85,85.42z"/>
			</g>
		</g>
	</g>
	<g>
		<defs>
			<rect id="SVGID_105_" x="9.73" y="8.26" width="767.55" height="139.48"/>
		</defs>
		<clipPath id="SVGID_106_">
			<use xlink:href="#SVGID_105_"  style="overflow:visible;"/>
		</clipPath>
		<g class="st51">
			<g class="st13">
				<path class="st33" d="M460.59,113.07c0,0-0.7,0.95-2.16,0.95c-1.92,0-3.25-1.64-3.25-3.75c0-2.13,1.33-3.77,3.25-3.77
					c1.46,0,2.16,0.94,2.16,0.94l-0.38,0.53c0,0-0.66-0.82-1.76-0.82c-1.51,0-2.55,1.42-2.55,3.12c0,1.69,1.04,3.11,2.55,3.11
					c1.1,0,1.76-0.82,1.76-0.82L460.59,113.07z"/>
				<path class="st33" d="M467.17,107.97l-2.23,3.18h-0.22l-2.23-3.15v5.85h-0.68v-7.2h0.5l2.52,3.6l2.53-3.6h0.49v7.2h-0.68V107.97
					z"/>
				<path class="st33" d="M473.62,106.66h0.79l-2.41,4.41v2.78h-0.68v-2.78l-2.42-4.41h0.8l1.76,3.38l0.19,0.43h0.02l0.2-0.43
					L473.62,106.66z"/>
				<path class="st33" d="M476.16,110.71l3.54-4.05h0.78v0.13l-2.5,2.83l2.53,4.1v0.13h-0.72c0,0-1.64-2.67-2.28-3.69l-1.35,1.54
					v2.16h-0.68v-7.2h0.68V110.71z"/>
			</g>
		</g>
	</g>
	<g>
		<defs>
			<rect id="SVGID_107_" x="9.73" y="8.26" width="767.55" height="139.48"/>
		</defs>
		<clipPath id="SVGID_108_">
			<use xlink:href="#SVGID_107_"  style="overflow:visible;"/>
		</clipPath>
	</g>
	<g>
		<defs>
			<rect id="SVGID_109_" x="9.73" y="8.26" width="767.55" height="139.48"/>
		</defs>
		<clipPath id="SVGID_110_">
			<use xlink:href="#SVGID_109_"  style="overflow:visible;"/>
		</clipPath>
		<g class="st52">
			<g class="st13">
				<path class="st33" d="M495.12,110.22v-0.18c-0.36,0.61-1,1.01-1.8,1.01c-1.3,0-2.16-1.02-2.16-2.22c0-1.27,0.89-2.33,2.21-2.33
					c1.37,0,2.43,1.03,2.43,3.72c0,2.58-1.02,3.8-2.48,3.8c-1.33,0-1.86-0.97-1.86-0.97l0.42-0.49c0,0,0.48,0.82,1.44,0.82
					C494.41,113.37,495.19,112.48,495.12,110.22z M495.01,108.85c-0.25-1.22-0.89-1.7-1.64-1.7c-0.89,0-1.52,0.74-1.52,1.68
					c0,0.9,0.6,1.57,1.48,1.57C494.21,110.4,494.87,109.76,495.01,108.85z"/>
				<path class="st33" d="M498.09,109.7l2.01-2.41h-3.18v-0.64h4.09v0.56l-2.1,2.47h0.06c1.36-0.02,2.15,0.76,2.15,2.11
					c0,1.24-0.83,2.21-2.25,2.21c-1.44,0-2.08-0.98-2.08-0.98l0.4-0.49c0,0,0.56,0.84,1.67,0.84c0.97,0,1.57-0.7,1.57-1.57
					c0-0.97-0.55-1.54-1.58-1.54h-0.75V109.7z"/>
			</g>
			<g class="st13">
				<path class="st33" d="M501.89,115.2l4.91-10.73h0.71l-4.87,10.72L501.89,115.2z"/>
			</g>
			<g class="st13">
				<path class="st33" d="M508.47,110.45c0.35-0.61,0.98-1.02,1.8-1.02c1.31,0,2.16,1.03,2.16,2.24c0,1.24-0.9,2.3-2.21,2.3
					c-1.36,0-2.43-1.03-2.43-3.67c0-2.59,1.13-3.8,2.58-3.8c1.36,0,1.86,1.02,1.86,1.02l-0.41,0.49c0,0-0.48-0.86-1.45-0.86
					c-1.08,0-1.89,0.85-1.89,3.14V110.45z M508.58,111.68c0.24,1.2,0.89,1.64,1.64,1.64c0.89,0,1.52-0.72,1.52-1.66
					c0-0.91-0.59-1.6-1.49-1.6S508.69,110.75,508.58,111.68z"/>
			</g>
			<g class="st13">
				<path class="st33" d="M517.28,110.22v-0.18c-0.36,0.61-1,1.01-1.8,1.01c-1.3,0-2.16-1.02-2.16-2.22c0-1.27,0.89-2.33,2.21-2.33
					c1.37,0,2.43,1.03,2.43,3.72c0,2.58-1.02,3.8-2.48,3.8c-1.33,0-1.86-0.97-1.86-0.97l0.42-0.49c0,0,0.48,0.82,1.44,0.82
					C516.57,113.37,517.35,112.48,517.28,110.22z M517.17,108.85c-0.25-1.22-0.89-1.7-1.64-1.7c-0.89,0-1.52,0.74-1.52,1.68
					c0,0.9,0.6,1.57,1.48,1.57C516.37,110.4,517.03,109.76,517.17,108.85z"/>
			</g>
			<g class="st13">
				<path class="st33" d="M518.43,115.2l4.91-10.73h0.71l-4.87,10.72L518.43,115.2z"/>
				<path class="st33" d="M524.44,106.66h2.18v7.2h-0.68v-6.56h-1.5V106.66z"/>
			</g>
			<g class="st13">
				<path class="st33" d="M531.8,110.22v-0.18c-0.36,0.61-1,1.01-1.8,1.01c-1.29,0-2.16-1.02-2.16-2.22c0-1.27,0.89-2.33,2.21-2.33
					c1.37,0,2.43,1.03,2.43,3.72c0,2.58-1.02,3.8-2.48,3.8c-1.33,0-1.86-0.97-1.86-0.97l0.42-0.49c0,0,0.48,0.82,1.44,0.82
					C531.09,113.37,531.87,112.48,531.8,110.22z M531.69,108.85c-0.25-1.22-0.89-1.7-1.64-1.7c-0.89,0-1.52,0.74-1.52,1.68
					c0,0.9,0.6,1.57,1.48,1.57C530.89,110.4,531.54,109.76,531.69,108.85z"/>
			</g>
			<g class="st13">
				<path class="st33" d="M532.95,115.2l4.91-10.73h0.71l-4.87,10.72L532.95,115.2z"/>
			</g>
			<g class="st13">
				<path class="st33" d="M538.17,111.58l3.68-4.93h0.5v4.81h1.14v0.64h-1.14v1.75h-0.67v-1.75h-3.51V111.58z M539.08,111.46h2.6
					v-3.56l-2.46,3.41c-0.05,0.05-0.14,0.12-0.14,0.12V111.46z"/>
			</g>
		</g>
	</g>
	<g>
		<defs>
			<rect id="SVGID_111_" x="9.73" y="8.26" width="767.55" height="139.48"/>
		</defs>
		<clipPath id="SVGID_112_">
			<use xlink:href="#SVGID_111_"  style="overflow:visible;"/>
		</clipPath>
	</g>
	<g>
		<defs>
			<rect id="SVGID_113_" x="9.73" y="8.26" width="767.55" height="139.48"/>
		</defs>
		<clipPath id="SVGID_114_">
			<use xlink:href="#SVGID_113_"  style="overflow:visible;"/>
		</clipPath>
		<g class="st53">
			<g class="st13">
				<path class="st33" d="M458.16,123.46c1.56,0,2.48,0.85,2.48,2.38c0,1.19-0.6,1.96-1.52,2.24v0.04l1.66,2.38v0.17h-0.71
					l-1.73-2.45h-2.01v2.45h-0.68v-7.2H458.16z M458.15,124.09h-1.82v3.48h1.93c0.98,0,1.69-0.56,1.69-1.71
					C459.94,124.68,459.24,124.09,458.15,124.09z"/>
				<path class="st33" d="M467.12,127.4h-2.39v-0.64h3.06v0.47c0,2.19-1.08,3.59-2.89,3.59c-1.98,0-3.21-1.64-3.21-3.75
					c0-2.13,1.27-3.77,3.25-3.77c1.58,0,2.3,0.96,2.3,0.96l-0.4,0.52c0,0-0.67-0.83-1.91-0.83c-1.59,0-2.54,1.42-2.54,3.12
					c0,1.69,0.92,3.11,2.51,3.11c1.32,0,2.22-1.04,2.22-2.67V127.4z"/>
				<path class="st33" d="M471.95,130.65h-2.85v-7.2h2.72c1.37,0,2.21,0.66,2.21,1.94c0,0.82-0.4,1.36-1.02,1.58v0.04
					c0.71,0.2,1.22,0.78,1.22,1.67C474.22,130.03,473.29,130.65,471.95,130.65z M471.8,124.09h-2.03v2.61h2.1
					c0.89,0,1.44-0.49,1.44-1.28C473.31,124.47,472.72,124.09,471.8,124.09z M469.77,127.34v2.67h2.19c0.88,0,1.56-0.43,1.56-1.37
					c0-0.85-0.67-1.31-1.52-1.31H469.77z"/>
			</g>
		</g>
	</g>
	<g>
		<defs>
			<rect id="SVGID_115_" x="9.73" y="8.26" width="767.55" height="139.48"/>
		</defs>
		<clipPath id="SVGID_116_">
			<use xlink:href="#SVGID_115_"  style="overflow:visible;"/>
		</clipPath>
	</g>
	<g>
		<defs>
			<rect id="SVGID_117_" x="9.73" y="8.26" width="767.55" height="139.48"/>
		</defs>
		<clipPath id="SVGID_118_">
			<use xlink:href="#SVGID_117_"  style="overflow:visible;"/>
		</clipPath>
		<g class="st54">
			<g class="st13">
				<path class="st33" d="M492.47,126.5l2.01-2.41h-3.18v-0.64h4.09v0.56l-2.1,2.47h0.06c1.36-0.02,2.15,0.76,2.15,2.11
					c0,1.24-0.83,2.21-2.25,2.21c-1.44,0-2.08-0.98-2.08-0.98l0.4-0.49c0,0,0.56,0.84,1.67,0.84c0.97,0,1.57-0.7,1.57-1.57
					c0-0.97-0.55-1.54-1.58-1.54h-0.75V126.5z"/>
			</g>
			<g class="st13">
				<path class="st33" d="M496.29,128.38l3.68-4.93h0.5v4.81h1.14v0.64h-1.14v1.75h-0.67v-1.75h-3.51V128.38z M497.2,128.26h2.6
					v-3.56l-2.46,3.41c-0.05,0.05-0.14,0.12-0.14,0.12V128.26z"/>
			</g>
			<g class="st13">
				<path class="st33" d="M502,132l4.91-10.73h0.71l-4.87,10.72L502,132z"/>
			</g>
			<g class="st13">
				<path class="st33" d="M507.99,128.68c0-0.82,0.41-1.46,1.07-1.8c-0.59-0.34-0.91-0.92-0.91-1.61c0-1.13,0.79-1.98,2.1-1.98
					c1.31,0,2.09,0.85,2.09,1.98c0,0.68-0.32,1.27-0.91,1.61c0.66,0.34,1.07,0.98,1.07,1.8c0,1.15-0.84,2.13-2.24,2.13
					C508.81,130.82,507.99,129.84,507.99,128.68z M510.24,127.21c-0.94,0-1.57,0.62-1.57,1.48c0,0.84,0.62,1.49,1.57,1.49
					c0.94,0,1.55-0.65,1.55-1.49C511.79,127.83,511.17,127.21,510.24,127.21z M511.63,125.27c0-0.72-0.49-1.32-1.39-1.32
					c-0.92,0-1.4,0.6-1.4,1.32c0,0.74,0.48,1.34,1.4,1.34C511.14,126.61,511.63,126.01,511.63,125.27z"/>
			</g>
			<g class="st13">
				<path class="st33" d="M513.56,127.07c0-2.1,0.98-3.77,2.71-3.77c1.73,0,2.7,1.67,2.7,3.77c0,2.09-0.97,3.75-2.7,3.75
					C514.54,130.82,513.56,129.15,513.56,127.07z M518.28,127.07c0-1.7-0.7-3.12-2.01-3.12c-1.33,0-2.03,1.42-2.03,3.12
					c0,1.69,0.7,3.11,2.03,3.11C517.58,130.17,518.28,128.76,518.28,127.07z"/>
			</g>
			<g class="st13">
				<path class="st33" d="M519.39,132l4.91-10.73H525l-4.87,10.72L519.39,132z"/>
				<path class="st33" d="M525.4,123.46h2.18v7.2h-0.68v-6.56h-1.5V123.46z"/>
				<path class="st33" d="M530.11,126.5l2.01-2.41h-3.18v-0.64h4.09v0.56l-2.1,2.47H531c1.36-0.02,2.15,0.76,2.15,2.11
					c0,1.24-0.83,2.21-2.25,2.21c-1.44,0-2.07-0.98-2.07-0.98l0.4-0.49c0,0,0.56,0.84,1.67,0.84c0.97,0,1.57-0.7,1.57-1.57
					c0-0.97-0.55-1.54-1.58-1.54h-0.76V126.5z"/>
				<path class="st33" d="M533.98,123.46h4.23v0.47l-2.88,6.73h-0.83l2.87-6.56h-3.39V123.46z"/>
			</g>
		</g>
	</g>
	<g>
		<defs>
			<rect id="SVGID_119_" x="9.73" y="8.26" width="767.55" height="139.48"/>
		</defs>
		<clipPath id="SVGID_120_">
			<use xlink:href="#SVGID_119_"  style="overflow:visible;"/>
		</clipPath>
	</g>
	<g>
		<defs>
			<rect id="SVGID_121_" x="9.73" y="8.26" width="767.55" height="139.48"/>
		</defs>
		<clipPath id="SVGID_122_">
			<use xlink:href="#SVGID_121_"  style="overflow:visible;"/>
		</clipPath>
		<g class="st55">
			<g>
				<defs>
					<rect id="SVGID_123_" x="9.73" y="8.26" width="767.55" height="139.48"/>
				</defs>
				<clipPath id="SVGID_124_">
					<use xlink:href="#SVGID_123_"  style="overflow:visible;"/>
				</clipPath>
				<g class="st56">
					<g class="st13">
						<path class="st33" d="M460.81,147.45h-0.68v-3.25h-3.8v3.25h-0.68v-7.2h0.68v3.31h3.8v-3.31h0.68V147.45z"/>
						<path class="st33" d="M466.63,144.12h-3.31v2.69h3.86v0.64h-4.55v-7.2h4.55v0.64h-3.86v2.6h3.31V144.12z"/>
						<path class="st33" d="M470.96,143.75l2.21,3.69h-0.82l-1.64-2.81l-0.23-0.47l-0.25,0.47l-1.62,2.81h-0.8l2.17-3.69l-2.1-3.5
							h0.83l1.57,2.7l0.2,0.41l0.22-0.41l1.57-2.7h0.8L470.96,143.75z"/>
					</g>
				</g>
			</g>
			<g>
				<defs>
					<rect id="SVGID_125_" x="9.73" y="8.26" width="767.55" height="139.48"/>
				</defs>
				<clipPath id="SVGID_126_">
					<use xlink:href="#SVGID_125_"  style="overflow:visible;"/>
				</clipPath>
			</g>
			<g>
				<defs>
					<rect id="SVGID_127_" x="9.73" y="8.26" width="767.55" height="139.48"/>
				</defs>
				<clipPath id="SVGID_128_">
					<use xlink:href="#SVGID_127_"  style="overflow:visible;"/>
				</clipPath>
				<g class="st57">
					<g class="st13">
						<path class="st33" d="M495.7,142.43H497l-0.1,0.47h-1.29l-0.42,2.13h1.25l-0.08,0.46h-1.25l-0.38,1.96h-0.47l0.38-1.96h-1.78
							l-0.38,1.96H492l0.38-1.96h-1.29l0.1-0.46h1.28l0.42-2.13h-1.25l0.1-0.47h1.25l0.4-1.98h0.47l-0.4,1.98h1.78l0.4-1.98h0.48
							L495.7,142.43z M492.95,145.04h1.78l0.42-2.13h-1.78L492.95,145.04z"/>
						<path class="st33" d="M497.85,146.98l2.78-3.18c0.53-0.59,0.68-0.98,0.68-1.54c0-0.88-0.56-1.52-1.46-1.52
							c-1,0-1.66,0.86-1.69,0.9l-0.38-0.53c0,0,0.77-1.02,2.09-1.02c1.4,0,2.15,0.91,2.15,2.15c0,0.7-0.18,1.21-0.71,1.83
							l-2.41,2.73h3.29v0.64h-4.33V146.98z"/>
						<path class="st33" d="M503.16,146.98l2.78-3.18c0.53-0.59,0.68-0.98,0.68-1.54c0-0.88-0.56-1.52-1.46-1.52
							c-1,0-1.66,0.86-1.69,0.9l-0.38-0.53c0,0,0.77-1.02,2.09-1.02c1.4,0,2.15,0.91,2.15,2.15c0,0.7-0.18,1.21-0.71,1.83
							l-2.41,2.73h3.29v0.64h-4.33V146.98z"/>
						<path class="st33" d="M509.45,140.89l-0.05,2.38c0.25-0.06,0.58-0.12,1-0.12c1.52,0,2.32,0.88,2.32,2.17
							c0,1.39-0.85,2.3-2.27,2.3c-1.42,0-2.05-0.98-2.05-0.98l0.42-0.49c0,0,0.55,0.83,1.63,0.83c0.94,0,1.58-0.59,1.58-1.66
							c0-0.95-0.64-1.54-1.66-1.54c-0.92,0-1.46,0.29-1.48,0.3l-0.16-0.12l0.1-3.71h3.57v0.64H509.45z"/>
						<path class="st33" d="M513.69,143.86c0-2.1,0.98-3.77,2.71-3.77c1.73,0,2.7,1.67,2.7,3.77c0,2.09-0.97,3.75-2.7,3.75
							C514.68,147.62,513.69,145.95,513.69,143.86z M518.42,143.86c0-1.7-0.7-3.12-2.01-3.12c-1.33,0-2.03,1.42-2.03,3.12
							c0,1.69,0.7,3.11,2.03,3.11C517.72,146.97,518.42,145.55,518.42,143.86z"/>
						<path class="st33" d="M520.17,145.48c0-0.82,0.41-1.46,1.07-1.8c-0.59-0.34-0.91-0.92-0.91-1.61c0-1.13,0.79-1.98,2.1-1.98
							c1.31,0,2.09,0.85,2.09,1.98c0,0.68-0.32,1.27-0.91,1.61c0.66,0.34,1.07,0.98,1.07,1.8c0,1.15-0.84,2.13-2.24,2.13
							C521,147.62,520.17,146.63,520.17,145.48z M522.43,144c-0.94,0-1.57,0.62-1.57,1.48c0,0.84,0.62,1.49,1.57,1.49
							c0.94,0,1.55-0.65,1.55-1.49C523.98,144.63,523.35,144,522.43,144z M523.82,142.06c0-0.72-0.49-1.32-1.39-1.32
							c-0.92,0-1.4,0.6-1.4,1.32c0,0.74,0.48,1.34,1.4,1.34C523.33,143.41,523.82,142.81,523.82,142.06z"/>
						<path class="st33" d="M529.6,143.81v-0.18c-0.36,0.61-1,1.01-1.8,1.01c-1.29,0-2.16-1.02-2.16-2.22
							c0-1.27,0.89-2.33,2.21-2.33c1.37,0,2.43,1.03,2.43,3.72c0,2.58-1.02,3.8-2.48,3.8c-1.33,0-1.86-0.97-1.86-0.97l0.42-0.49
							c0,0,0.48,0.82,1.44,0.82C528.9,146.97,529.68,146.08,529.6,143.81z M529.5,142.45c-0.25-1.22-0.89-1.7-1.64-1.7
							c-0.89,0-1.52,0.74-1.52,1.68c0,0.9,0.6,1.57,1.48,1.57C528.69,143.99,529.35,143.36,529.5,142.45z"/>
					</g>
				</g>
			</g>
		</g>
	</g>
	<g>
		<defs>
			<rect id="SVGID_129_" x="9.73" y="8.26" width="767.55" height="139.48"/>
		</defs>
		<clipPath id="SVGID_130_">
			<use xlink:href="#SVGID_129_"  style="overflow:visible;"/>
		</clipPath>
		<rect x="627.2" y="8.26" class="st58" width="100.05" height="50.02"/>
	</g>
	<g>
		<defs>
			<rect id="SVGID_131_" x="9.73" y="8.26" width="767.55" height="139.48"/>
		</defs>
		<clipPath id="SVGID_132_">
			<use xlink:href="#SVGID_131_"  style="overflow:visible;"/>
		</clipPath>
		<g class="st59">
			<g>
				<defs>
					<rect id="SVGID_133_" x="9.73" y="8.26" width="767.55" height="139.48"/>
				</defs>
				<clipPath id="SVGID_134_">
					<use xlink:href="#SVGID_133_"  style="overflow:visible;"/>
				</clipPath>
				<g class="st60">
					<g>
						<g>
							<defs>
								<rect id="SVGID_135_" x="718.25" y="1.26" width="68.02" height="58.02"/>
							</defs>
							<clipPath id="SVGID_136_">
								<use xlink:href="#SVGID_135_"  style="overflow:visible;"/>
							</clipPath>
							<rect x="727.25" y="8.26" class="st61" width="50.02" height="50.02"/>
						</g>
					</g>
				</g>
			</g>
		</g>
	</g>
	<g>
		<defs>
			<rect id="SVGID_137_" x="9.73" y="8.26" width="767.55" height="139.48"/>
		</defs>
		<clipPath id="SVGID_138_">
			<use xlink:href="#SVGID_137_"  style="overflow:visible;"/>
		</clipPath>
		<g class="st62">
			<g class="st13">
				<path class="st28" d="M697.19,44h2.18v7.2h-0.68v-6.56h-1.5V44z"/>
				<path class="st28" d="M700.69,47.61c0-2.1,0.98-3.77,2.71-3.77c1.73,0,2.7,1.67,2.7,3.77c0,2.09-0.97,3.75-2.7,3.75
					C701.67,51.37,700.69,49.7,700.69,47.61z M705.41,47.61c0-1.7-0.7-3.12-2.01-3.12c-1.33,0-2.03,1.42-2.03,3.12
					c0,1.69,0.7,3.11,2.03,3.11C704.72,50.72,705.41,49.3,705.41,47.61z"/>
				<path class="st28" d="M707.16,47.61c0-2.1,0.98-3.77,2.71-3.77c1.73,0,2.7,1.67,2.7,3.77c0,2.09-0.97,3.75-2.7,3.75
					C708.14,51.37,707.16,49.7,707.16,47.61z M711.88,47.61c0-1.7-0.7-3.12-2.01-3.12c-1.33,0-2.03,1.42-2.03,3.12
					c0,1.69,0.7,3.11,2.03,3.11C711.19,50.72,711.88,49.3,711.88,47.61z"/>
				<path class="st28" d="M716.31,45.64c0,0.94-0.49,1.8-1.38,1.8s-1.39-0.86-1.39-1.8c0-0.97,0.5-1.8,1.39-1.8
					S716.31,44.67,716.31,45.64z M719.57,44l-5.18,7.2h-0.74l5.17-7.2H719.57z M714.15,45.64c0,0.68,0.26,1.24,0.78,1.24
					c0.5,0,0.77-0.55,0.77-1.24c0-0.7-0.26-1.24-0.77-1.24C714.42,44.41,714.15,44.95,714.15,45.64z M719.73,49.49
					c0,0.95-0.5,1.8-1.39,1.8s-1.38-0.85-1.38-1.8c0-0.96,0.49-1.8,1.38-1.8S719.73,48.54,719.73,49.49z M717.56,49.49
					c0,0.67,0.28,1.22,0.78,1.22s0.77-0.55,0.77-1.22c0-0.71-0.26-1.25-0.77-1.25S717.56,48.79,717.56,49.49z"/>
			</g>
		</g>
	</g>
	<g>
		<defs>
			<rect id="SVGID_139_" x="9.73" y="8.26" width="767.55" height="139.48"/>
		</defs>
		<clipPath id="SVGID_140_">
			<use xlink:href="#SVGID_139_"  style="overflow:visible;"/>
		</clipPath>
		<g class="st63">
			<g>
				<defs>
					<rect id="SVGID_141_" x="9.73" y="8.26" width="767.55" height="139.48"/>
				</defs>
				<clipPath id="SVGID_142_">
					<use xlink:href="#SVGID_141_"  style="overflow:visible;"/>
				</clipPath>
				<g class="st64">
					<g>
						<g>
							<defs>
								<rect id="SVGID_143_" x="742.03" y="35.2" width="39.88" height="19.3"/>
							</defs>
							<clipPath id="SVGID_144_">
								<use xlink:href="#SVGID_143_"  style="overflow:visible;"/>
							</clipPath>
							<g class="st65">
								<g class="st13">
									<path class="st28" d="M751.56,49.23c0-0.82,0.41-1.46,1.07-1.8c-0.59-0.34-0.91-0.92-0.91-1.61c0-1.13,0.79-1.98,2.1-1.98
										c1.31,0,2.09,0.85,2.09,1.98c0,0.68-0.32,1.27-0.91,1.61c0.66,0.34,1.07,0.98,1.07,1.8c0,1.15-0.84,2.13-2.24,2.13
										C752.39,51.37,751.56,50.38,751.56,49.23z M753.82,47.75c-0.94,0-1.57,0.62-1.57,1.48c0,0.84,0.62,1.49,1.57,1.49
										c0.94,0,1.55-0.65,1.55-1.49C755.37,48.38,754.74,47.75,753.82,47.75z M755.21,45.81c0-0.72-0.49-1.32-1.39-1.32
										c-0.92,0-1.4,0.6-1.4,1.32c0,0.74,0.48,1.34,1.4,1.34C754.72,47.16,755.21,46.56,755.21,45.81z"/>
									<path class="st28" d="M757.13,47.61c0-2.1,0.98-3.77,2.71-3.77c1.73,0,2.7,1.67,2.7,3.77c0,2.09-0.97,3.75-2.7,3.75
										C758.12,51.37,757.13,49.7,757.13,47.61z M761.86,47.61c0-1.7-0.7-3.12-2.01-3.12c-1.33,0-2.03,1.42-2.03,3.12
										c0,1.69,0.7,3.11,2.03,3.11C761.16,50.72,761.86,49.3,761.86,47.61z"/>
									<path class="st28" d="M766.29,45.64c0,0.94-0.49,1.8-1.38,1.8s-1.39-0.86-1.39-1.8c0-0.97,0.5-1.8,1.39-1.8
										S766.29,44.67,766.29,45.64z M769.55,44l-5.18,7.2h-0.74l5.17-7.2H769.55z M764.13,45.64c0,0.68,0.26,1.24,0.78,1.24
										c0.5,0,0.77-0.55,0.77-1.24c0-0.7-0.26-1.24-0.77-1.24C764.39,44.41,764.13,44.95,764.13,45.64z M769.71,49.49
										c0,0.95-0.5,1.8-1.39,1.8s-1.38-0.85-1.38-1.8c0-0.96,0.49-1.8,1.38-1.8S769.71,48.54,769.71,49.49z M767.53,49.49
										c0,0.67,0.28,1.22,0.78,1.22s0.77-0.55,0.77-1.22c0-0.71-0.26-1.25-0.77-1.25S767.53,48.79,767.53,49.49z"/>
								</g>
							</g>
						</g>
					</g>
				</g>
			</g>
		</g>
	</g>
	<g>
		<defs>
			<rect id="SVGID_145_" x="9.73" y="8.26" width="767.55" height="139.48"/>
		</defs>
		<clipPath id="SVGID_146_">
			<use xlink:href="#SVGID_145_"  style="overflow:visible;"/>
		</clipPath>
		<g class="st66">
			<g class="st13">
				<path class="st33" d="M633.78,88.54h-1.26L632,87.07h-3.03l-0.52,1.48h-1.26l2.69-7.2h1.2L633.78,88.54z M629.32,86.06h2.33
					l-1.16-3.32L629.32,86.06z"/>
				<path class="st33" d="M634.41,83.51h0.75l0.16,0.72h0.06c0.37-0.55,0.8-0.84,1.5-0.84c0.75,0,1.32,0.34,1.63,0.91h0.05
					c0.34-0.55,0.79-0.91,1.55-0.91c1.19,0,1.9,0.91,1.9,2.27v2.89h-1.18v-2.78c0-0.77-0.35-1.37-1.01-1.37
					c-0.67,0-1,0.59-1.02,1.14v3.01h-1.18v-2.9c0-0.71-0.36-1.25-1.02-1.25c-0.67,0-1,0.61-1.02,1.14v3.01h-1.17V83.51z"/>
				<path class="st33" d="M647.09,88.54h-0.8l-0.16-0.66h-0.02c-0.26,0.47-0.77,0.78-1.52,0.78c-1.08,0-1.71-0.7-1.71-1.6
					c0-1,0.72-1.65,2.11-1.65c0.41,0,0.74,0.07,0.98,0.16v-0.16c0-0.76-0.42-1.06-1.14-1.06c-0.68,0-1.22,0.37-1.22,0.37l-0.4-0.89
					c0,0,0.67-0.46,1.81-0.46c1.4,0,2.08,0.82,2.08,2.05V88.54z M645.96,86.73v-0.42c-0.14-0.08-0.41-0.18-0.85-0.18
					c-0.74,0-1.12,0.32-1.12,0.86c0,0.47,0.32,0.83,0.86,0.83C645.46,87.82,645.94,87.34,645.96,86.73z"/>
			</g>
			<g class="st13">
				<path class="st33" d="M650.84,84.48h-0.26c-0.59,0-1.07,0.5-1.09,1.24v2.83h-1.17v-5.04h0.75l0.16,0.8h0.05
					c0.26-0.53,0.74-0.82,1.31-0.82h0.26V84.48z"/>
			</g>
			<g class="st13">
				<path class="st33" d="M655.44,88.54h-0.8l-0.16-0.66h-0.02c-0.26,0.47-0.77,0.78-1.52,0.78c-1.08,0-1.71-0.7-1.71-1.6
					c0-1,0.72-1.65,2.11-1.65c0.41,0,0.74,0.07,0.98,0.16v-0.16c0-0.76-0.42-1.06-1.14-1.06c-0.68,0-1.22,0.37-1.22,0.37l-0.4-0.89
					c0,0,0.67-0.46,1.81-0.46c1.4,0,2.08,0.82,2.08,2.05V88.54z M654.31,86.73v-0.42c-0.14-0.08-0.41-0.18-0.85-0.18
					c-0.74,0-1.12,0.32-1.12,0.86c0,0.47,0.32,0.83,0.86,0.83C653.8,87.82,654.28,87.34,654.31,86.73z"/>
			</g>
			<g class="st13">
				<path class="st33" d="M657.84,88.54h-1.17v-5.04h0.75l0.16,0.72h0.06c0.37-0.55,0.8-0.84,1.54-0.84c1.19,0,1.91,0.91,1.91,2.27
					v2.89h-1.17v-2.78c0-0.77-0.36-1.37-1.02-1.37c-0.71,0-1.04,0.68-1.04,1.22V88.54z"/>
			</g>
			<g class="st13">
				<path class="st33" d="M662.61,83.51v-1.54h1.17v1.54h1.21v0.92h-1.21v2.55c0,0.43,0.17,0.67,0.54,0.67
					c0.29,0,0.56-0.19,0.56-0.19l0.35,0.83c-0.13,0.08-0.59,0.37-1.15,0.37c-1.04,0-1.47-0.67-1.47-1.66v-2.58h-0.82v-0.92H662.61z"
					/>
				<path class="st33" d="M665.98,81.29h1.19v2.7h0.04c0.31-0.4,0.74-0.6,1.33-0.6c1.14,0,1.86,0.9,1.86,2.27v2.89h-1.17v-2.77
					c0-0.78-0.38-1.38-1.02-1.38c-0.68,0-1.03,0.7-1.03,1.24v2.91h-1.19V81.29z"/>
			</g>
		</g>
	</g>
	<g>
		<defs>
			<rect id="SVGID_147_" x="9.73" y="8.26" width="767.55" height="139.48"/>
		</defs>
		<clipPath id="SVGID_148_">
			<use xlink:href="#SVGID_147_"  style="overflow:visible;"/>
		</clipPath>
		<g class="st67">
			<g class="st13">
				<path class="st33" d="M633.07,113.07c0,0-0.7,0.95-2.16,0.95c-1.92,0-3.25-1.64-3.25-3.75c0-2.13,1.33-3.77,3.25-3.77
					c1.46,0,2.16,0.94,2.16,0.94l-0.38,0.53c0,0-0.66-0.82-1.76-0.82c-1.51,0-2.55,1.42-2.55,3.12c0,1.69,1.04,3.11,2.55,3.11
					c1.1,0,1.76-0.82,1.76-0.82L633.07,113.07z"/>
				<path class="st33" d="M639.65,107.97l-2.23,3.18h-0.22l-2.23-3.15v5.85h-0.68v-7.2h0.5l2.52,3.6l2.53-3.6h0.49v7.2h-0.68V107.97
					z"/>
				<path class="st33" d="M646.1,106.66h0.79l-2.41,4.41v2.78h-0.68v-2.78l-2.42-4.41h0.8l1.76,3.38l0.19,0.43h0.02l0.2-0.43
					L646.1,106.66z"/>
				<path class="st33" d="M648.64,110.71l3.54-4.05h0.78v0.13l-2.49,2.83l2.53,4.1v0.13h-0.72c0,0-1.64-2.67-2.28-3.69l-1.36,1.54
					v2.16h-0.68v-7.2h0.68V110.71z"/>
			</g>
		</g>
	</g>
	<g>
		<defs>
			<rect id="SVGID_149_" x="9.73" y="8.26" width="767.55" height="139.48"/>
		</defs>
		<clipPath id="SVGID_150_">
			<use xlink:href="#SVGID_149_"  style="overflow:visible;"/>
		</clipPath>
	</g>
	<g>
		<defs>
			<rect id="SVGID_151_" x="9.73" y="8.26" width="767.55" height="139.48"/>
		</defs>
		<clipPath id="SVGID_152_">
			<use xlink:href="#SVGID_151_"  style="overflow:visible;"/>
		</clipPath>
		<g class="st68">
			<g class="st13">
				<path class="st33" d="M663.36,106.66h2.18v7.2h-0.68v-6.56h-1.5V106.66z"/>
			</g>
			<g class="st13">
				<path class="st33" d="M666.56,115.2l4.91-10.73h0.71l-4.87,10.72L666.56,115.2z"/>
			</g>
			<g class="st13">
				<path class="st33" d="M676.46,110.22v-0.18c-0.36,0.61-1,1.01-1.8,1.01c-1.29,0-2.16-1.02-2.16-2.22c0-1.27,0.89-2.33,2.21-2.33
					c1.37,0,2.43,1.03,2.43,3.72c0,2.58-1.02,3.8-2.48,3.8c-1.33,0-1.86-0.97-1.86-0.97l0.42-0.49c0,0,0.48,0.82,1.44,0.82
					C675.76,113.37,676.54,112.48,676.46,110.22z M676.36,108.85c-0.25-1.22-0.89-1.7-1.64-1.7c-0.89,0-1.52,0.74-1.52,1.68
					c0,0.9,0.6,1.57,1.48,1.57C675.55,110.4,676.21,109.76,676.36,108.85z"/>
			</g>
			<g class="st13">
				<path class="st33" d="M678.23,110.27c0-2.1,0.98-3.77,2.71-3.77c1.73,0,2.7,1.67,2.7,3.77c0,2.09-0.97,3.75-2.7,3.75
					C679.22,114.02,678.23,112.35,678.23,110.27z M682.96,110.27c0-1.7-0.7-3.12-2.01-3.12c-1.33,0-2.03,1.42-2.03,3.12
					c0,1.69,0.7,3.11,2.03,3.11C682.26,113.37,682.96,111.96,682.96,110.27z"/>
			</g>
			<g class="st13">
				<path class="st33" d="M684.06,115.2l4.91-10.73h0.71l-4.87,10.72L684.06,115.2z"/>
			</g>
			<g class="st13">
				<path class="st33" d="M691.13,107.29l-0.05,2.38c0.25-0.06,0.58-0.12,1-0.12c1.52,0,2.31,0.88,2.31,2.17
					c0,1.39-0.85,2.3-2.27,2.3s-2.05-0.98-2.05-0.98l0.42-0.49c0,0,0.55,0.83,1.63,0.83c0.94,0,1.58-0.59,1.58-1.66
					c0-0.95-0.64-1.54-1.66-1.54c-0.92,0-1.46,0.29-1.47,0.3l-0.16-0.12l0.1-3.71h3.57v0.64H691.13z"/>
			</g>
			<g class="st13">
				<path class="st33" d="M695.15,106.66h4.23v0.47l-2.88,6.73h-0.83l2.87-6.56h-3.39V106.66z"/>
			</g>
			<g class="st13">
				<path class="st33" d="M698.97,115.2l4.91-10.73h0.71l-4.87,10.72L698.97,115.2z"/>
			</g>
			<g class="st13">
				<path class="st33" d="M704.86,110.27c0-2.1,0.98-3.77,2.71-3.77c1.73,0,2.7,1.67,2.7,3.77c0,2.09-0.97,3.75-2.7,3.75
					C705.85,114.02,704.86,112.35,704.86,110.27z M709.59,110.27c0-1.7-0.7-3.12-2.01-3.12c-1.33,0-2.03,1.42-2.03,3.12
					c0,1.69,0.7,3.11,2.03,3.11C708.89,113.37,709.59,111.96,709.59,110.27z"/>
			</g>
		</g>
	</g>
	<g>
		<defs>
			<rect id="SVGID_153_" x="9.73" y="8.26" width="767.55" height="139.48"/>
		</defs>
		<clipPath id="SVGID_154_">
			<use xlink:href="#SVGID_153_"  style="overflow:visible;"/>
		</clipPath>
	</g>
	<g>
		<defs>
			<rect id="SVGID_155_" x="9.73" y="8.26" width="767.55" height="139.48"/>
		</defs>
		<clipPath id="SVGID_156_">
			<use xlink:href="#SVGID_155_"  style="overflow:visible;"/>
		</clipPath>
		<g class="st69">
			<g class="st13">
				<path class="st33" d="M630.64,123.46c1.56,0,2.48,0.85,2.48,2.38c0,1.19-0.6,1.96-1.52,2.24v0.04l1.66,2.38v0.17h-0.71
					l-1.73-2.45h-2.01v2.45h-0.68v-7.2H630.64z M630.62,124.09h-1.82v3.48h1.93c0.98,0,1.69-0.56,1.69-1.71
					C632.42,124.68,631.71,124.09,630.62,124.09z"/>
				<path class="st33" d="M639.6,127.4h-2.39v-0.64h3.06v0.47c0,2.19-1.08,3.59-2.89,3.59c-1.98,0-3.21-1.64-3.21-3.75
					c0-2.13,1.27-3.77,3.25-3.77c1.58,0,2.3,0.96,2.3,0.96l-0.4,0.52c0,0-0.67-0.83-1.91-0.83c-1.59,0-2.54,1.42-2.54,3.12
					c0,1.69,0.92,3.11,2.51,3.11c1.32,0,2.22-1.04,2.22-2.67V127.4z"/>
				<path class="st33" d="M644.42,130.65h-2.85v-7.2h2.72c1.37,0,2.21,0.66,2.21,1.94c0,0.82-0.4,1.36-1.02,1.58v0.04
					c0.71,0.2,1.22,0.78,1.22,1.67C646.7,130.03,645.77,130.65,644.42,130.65z M644.28,124.09h-2.03v2.61h2.1
					c0.89,0,1.44-0.49,1.44-1.28C645.79,124.47,645.2,124.09,644.28,124.09z M642.25,127.34v2.67h2.2c0.88,0,1.56-0.43,1.56-1.37
					c0-0.85-0.67-1.31-1.52-1.31H642.25z"/>
			</g>
		</g>
	</g>
	<g>
		<defs>
			<rect id="SVGID_157_" x="9.73" y="8.26" width="767.55" height="139.48"/>
		</defs>
		<clipPath id="SVGID_158_">
			<use xlink:href="#SVGID_157_"  style="overflow:visible;"/>
		</clipPath>
	</g>
	<g>
		<defs>
			<rect id="SVGID_159_" x="9.73" y="8.26" width="767.55" height="139.48"/>
		</defs>
		<clipPath id="SVGID_160_">
			<use xlink:href="#SVGID_159_"  style="overflow:visible;"/>
		</clipPath>
		<g class="st70">
			<g class="st13">
				<path class="st33" d="M663.71,130.18l2.78-3.18c0.53-0.59,0.68-0.98,0.68-1.54c0-0.88-0.56-1.52-1.46-1.52
					c-1,0-1.66,0.86-1.69,0.9l-0.38-0.53c0,0,0.77-1.02,2.09-1.02c1.4,0,2.15,0.91,2.15,2.15c0,0.7-0.18,1.21-0.71,1.83l-2.41,2.73
					h3.29v0.64h-4.33V130.18z"/>
				<path class="st33" d="M670.25,126.5l2.01-2.41h-3.18v-0.64h4.09v0.56l-2.1,2.47h0.06c1.36-0.02,2.15,0.76,2.15,2.11
					c0,1.24-0.83,2.21-2.25,2.21c-1.44,0-2.07-0.98-2.07-0.98l0.4-0.49c0,0,0.56,0.84,1.67,0.84c0.97,0,1.57-0.7,1.57-1.57
					c0-0.97-0.55-1.54-1.58-1.54h-0.76V126.5z"/>
			</g>
			<g class="st13">
				<path class="st33" d="M674.34,127.07c0-2.1,0.98-3.77,2.71-3.77c1.73,0,2.7,1.67,2.7,3.77c0,2.09-0.97,3.75-2.7,3.75
					C675.33,130.82,674.34,129.15,674.34,127.07z M679.07,127.07c0-1.7-0.7-3.12-2.01-3.12c-1.33,0-2.03,1.42-2.03,3.12
					c0,1.69,0.7,3.11,2.03,3.11C678.37,130.17,679.07,128.76,679.07,127.07z"/>
			</g>
			<g class="st13">
				<path class="st33" d="M680.17,132l4.91-10.73h0.71l-4.87,10.72L680.17,132z"/>
			</g>
			<g class="st13">
				<path class="st33" d="M687.24,124.09l-0.05,2.38c0.25-0.06,0.57-0.12,0.99-0.12c1.52,0,2.32,0.88,2.32,2.17
					c0,1.39-0.85,2.3-2.27,2.3c-1.42,0-2.05-0.98-2.05-0.98l0.42-0.49c0,0,0.55,0.83,1.63,0.83c0.94,0,1.58-0.59,1.58-1.66
					c0-0.95-0.64-1.54-1.66-1.54c-0.92,0-1.46,0.29-1.47,0.3l-0.16-0.12l0.1-3.71h3.57v0.64H687.24z"/>
				<path class="st33" d="M691.47,130.18l2.78-3.18c0.53-0.59,0.68-0.98,0.68-1.54c0-0.88-0.56-1.52-1.46-1.52
					c-1,0-1.66,0.86-1.69,0.9l-0.38-0.53c0,0,0.77-1.02,2.09-1.02c1.4,0,2.15,0.91,2.15,2.15c0,0.7-0.18,1.21-0.71,1.83l-2.41,2.73
					h3.29v0.64h-4.33V130.18z"/>
				<path class="st33" d="M696.5,132l4.91-10.73h0.71l-4.87,10.72L696.5,132z"/>
				<path class="st33" d="M702.65,123.46h4.23v0.47l-2.88,6.73h-0.83l2.87-6.56h-3.39V123.46z"/>
				<path class="st33" d="M711.43,127.02v-0.18c-0.36,0.61-1,1.01-1.8,1.01c-1.29,0-2.16-1.02-2.16-2.22c0-1.27,0.89-2.33,2.21-2.33
					c1.37,0,2.43,1.03,2.43,3.72c0,2.58-1.02,3.8-2.48,3.8c-1.33,0-1.86-0.97-1.86-0.97l0.42-0.49c0,0,0.48,0.82,1.44,0.82
					C710.72,130.17,711.5,129.28,711.43,127.02z M711.32,125.65c-0.25-1.22-0.89-1.7-1.64-1.7c-0.89,0-1.52,0.74-1.52,1.68
					c0,0.9,0.6,1.57,1.47,1.57C710.52,127.2,711.18,126.56,711.32,125.65z"/>
			</g>
		</g>
	</g>
	<g>
		<defs>
			<rect id="SVGID_161_" x="9.73" y="8.26" width="767.55" height="139.48"/>
		</defs>
		<clipPath id="SVGID_162_">
			<use xlink:href="#SVGID_161_"  style="overflow:visible;"/>
		</clipPath>
	</g>
	<g>
		<defs>
			<rect id="SVGID_163_" x="9.73" y="8.26" width="767.55" height="139.48"/>
		</defs>
		<clipPath id="SVGID_164_">
			<use xlink:href="#SVGID_163_"  style="overflow:visible;"/>
		</clipPath>
		<g class="st71">
			<g>
				<defs>
					<rect id="SVGID_165_" x="9.73" y="8.26" width="767.55" height="139.48"/>
				</defs>
				<clipPath id="SVGID_166_">
					<use xlink:href="#SVGID_165_"  style="overflow:visible;"/>
				</clipPath>
				<g class="st72">
					<g class="st13">
						<path class="st33" d="M633.29,147.45h-0.68v-3.25h-3.8v3.25h-0.68v-7.2h0.68v3.31h3.8v-3.31h0.68V147.45z"/>
						<path class="st33" d="M639.11,144.12h-3.31v2.69h3.86v0.64h-4.54v-7.2h4.54v0.64h-3.86v2.6h3.31V144.12z"/>
						<path class="st33" d="M643.44,143.75l2.21,3.69h-0.82l-1.64-2.81l-0.23-0.47l-0.25,0.47l-1.62,2.81h-0.8l2.17-3.69l-2.1-3.5
							h0.83l1.57,2.7l0.2,0.41l0.22-0.41l1.57-2.7h0.8L643.44,143.75z"/>
					</g>
				</g>
			</g>
			<g>
				<defs>
					<rect id="SVGID_167_" x="9.73" y="8.26" width="767.55" height="139.48"/>
				</defs>
				<clipPath id="SVGID_168_">
					<use xlink:href="#SVGID_167_"  style="overflow:visible;"/>
				</clipPath>
			</g>
			<g>
				<defs>
					<rect id="SVGID_169_" x="9.73" y="8.26" width="767.55" height="139.48"/>
				</defs>
				<clipPath id="SVGID_170_">
					<use xlink:href="#SVGID_169_"  style="overflow:visible;"/>
				</clipPath>
				<g class="st73">
					<g class="st13">
						<path class="st33" d="M668.18,142.43h1.3l-0.1,0.47h-1.3l-0.42,2.13h1.25l-0.08,0.46h-1.25l-0.38,1.96h-0.47l0.38-1.96h-1.77
							l-0.38,1.96h-0.48l0.38-1.96h-1.3l0.1-0.46h1.28l0.42-2.13h-1.25l0.1-0.47h1.25l0.4-1.98h0.47l-0.4,1.98h1.77l0.4-1.98h0.48
							L668.18,142.43z M665.42,145.04h1.77l0.42-2.13h-1.77L665.42,145.04z"/>
						<path class="st33" d="M674.75,144.12h-3.31v2.69h3.86v0.64h-4.55v-7.2h4.55v0.64h-3.86v2.6h3.31V144.12z"/>
						<path class="st33" d="M676.98,144.04c0.35-0.61,0.98-1.02,1.8-1.02c1.31,0,2.16,1.03,2.16,2.24c0,1.24-0.9,2.3-2.21,2.3
							c-1.36,0-2.44-1.03-2.44-3.67c0-2.59,1.13-3.8,2.58-3.8c1.36,0,1.86,1.02,1.86,1.02l-0.41,0.49c0,0-0.48-0.86-1.45-0.86
							c-1.08,0-1.9,0.85-1.9,3.14V144.04z M677.09,145.28c0.24,1.2,0.89,1.64,1.64,1.64c0.89,0,1.52-0.72,1.52-1.66
							c0-0.91-0.59-1.6-1.49-1.6S677.2,144.34,677.09,145.28z"/>
						<path class="st33" d="M683.14,143.3l2.01-2.41h-3.18v-0.64h4.09v0.56l-2.1,2.47h0.06c1.36-0.02,2.15,0.76,2.15,2.11
							c0,1.24-0.83,2.21-2.25,2.21c-1.44,0-2.07-0.98-2.07-0.98l0.4-0.49c0,0,0.56,0.84,1.67,0.84c0.97,0,1.57-0.7,1.57-1.57
							c0-0.97-0.55-1.54-1.58-1.54h-0.76V143.3z"/>
						<path class="st33" d="M686.96,145.18l3.68-4.93h0.5v4.81h1.14v0.64h-1.14v1.75h-0.67v-1.75h-3.51V145.18z M687.88,145.06h2.6
							v-3.56l-2.46,3.41c-0.05,0.05-0.14,0.12-0.14,0.12V145.06z"/>
						<path class="st33" d="M692.87,145.18l3.68-4.93h0.5v4.81h1.14v0.64h-1.14v1.75h-0.67v-1.75h-3.51V145.18z M693.78,145.06h2.6
							v-3.56l-2.46,3.41c-0.05,0.05-0.14,0.12-0.14,0.12V145.06z"/>
						<path class="st33" d="M700.25,142.97v4.47h-0.67v-4.47h-0.84v-0.56h0.84v-0.6c0-1.07,0.59-1.7,1.52-1.7
							c0.59,0,0.91,0.2,0.91,0.2l-0.2,0.55c0,0-0.3-0.16-0.71-0.16c-0.5,0-0.85,0.37-0.85,1.09v0.61h1.36v0.56H700.25z"/>
					</g>
				</g>
			</g>
		</g>
	</g>
</g>
</svg>
