<?xml version="1.0" encoding="utf-8"?>
<!-- Generator: Adobe Illustrator 23.0.3, SVG Export Plug-In . SVG Version: 6.00 Build 0)  -->
<svg version="1.1" id="Layer_1" xmlns="http://www.w3.org/2000/svg" xmlns:xlink="http://www.w3.org/1999/xlink" x="0px" y="0px"
	 viewBox="0 0 366 341" style="enable-background:new 0 0 366 341;" xml:space="preserve">
<style type="text/css">
	.st0{clip-path:url(#SVGID_2_);fill:#12263C;}
	.st1{clip-path:url(#SVGID_4_);}
	.st2{opacity:0.8;clip-path:url(#SVGID_6_);}
	.st3{clip-path:url(#SVGID_8_);fill:#12263C;}
	.st4{clip-path:url(#SVGID_10_);}
	.st5{enable-background:new    ;}
	.st6{fill:#FFFFFF;}
	.st7{clip-path:url(#SVGID_12_);}
	.st8{opacity:0.9;clip-path:url(#SVGID_14_);}
	.st9{clip-path:url(#SVGID_16_);}
	.st10{opacity:0.3;clip-path:url(#SVGID_18_);}
	.st11{clip-path:url(#SVGID_20_);fill:#12263C;}
	.st12{opacity:0.2;clip-path:url(#SVGID_22_);}
	.st13{clip-path:url(#SVGID_24_);fill:#12263C;}
	.st14{opacity:0.15;clip-path:url(#SVGID_26_);}
	.st15{clip-path:url(#SVGID_28_);fill:#12263C;}
	.st16{opacity:0.1;clip-path:url(#SVGID_30_);}
	.st17{clip-path:url(#SVGID_32_);fill:#12263C;}
	.st18{opacity:0.05;clip-path:url(#SVGID_34_);}
	.st19{clip-path:url(#SVGID_36_);fill:#12263C;}
	.st20{opacity:0.55;clip-path:url(#SVGID_38_);}
	.st21{clip-path:url(#SVGID_40_);}
	.st22{fill:#12263C;}
	.st23{opacity:0.45;clip-path:url(#SVGID_42_);}
	.st24{clip-path:url(#SVGID_44_);}
	.st25{opacity:0.4;clip-path:url(#SVGID_46_);}
	.st26{clip-path:url(#SVGID_48_);}
	.st27{opacity:0.35;clip-path:url(#SVGID_50_);}
	.st28{clip-path:url(#SVGID_52_);}
	.st29{opacity:0.3;clip-path:url(#SVGID_54_);}
	.st30{clip-path:url(#SVGID_56_);}
	.st31{clip-path:url(#SVGID_58_);fill:#23508A;}
	.st32{clip-path:url(#SVGID_60_);}
	.st33{opacity:0.8;clip-path:url(#SVGID_62_);}
	.st34{clip-path:url(#SVGID_64_);fill:#4F74A1;}
	.st35{clip-path:url(#SVGID_66_);}
	.st36{clip-path:url(#SVGID_68_);}
	.st37{opacity:0.8;clip-path:url(#SVGID_70_);}
	.st38{clip-path:url(#SVGID_72_);}
	.st39{clip-path:url(#SVGID_74_);fill:#E7344F;}
	.st40{clip-path:url(#SVGID_76_);}
	.st41{opacity:0.8;clip-path:url(#SVGID_78_);}
	.st42{clip-path:url(#SVGID_80_);fill:#EB5C72;}
	.st43{clip-path:url(#SVGID_82_);}
	.st44{clip-path:url(#SVGID_84_);}
	.st45{opacity:0.8;clip-path:url(#SVGID_86_);}
	.st46{clip-path:url(#SVGID_88_);}
	.st47{clip-path:url(#SVGID_90_);}
	.st48{fill:#353F56;}
	.st49{clip-path:url(#SVGID_92_);}
	.st50{clip-path:url(#SVGID_96_);}
	.st51{clip-path:url(#SVGID_100_);}
	.st52{clip-path:url(#SVGID_104_);}
	.st53{clip-path:url(#SVGID_108_);}
	.st54{clip-path:url(#SVGID_112_);}
	.st55{clip-path:url(#SVGID_114_);}
	.st56{clip-path:url(#SVGID_116_);}
	.st57{clip-path:url(#SVGID_120_);}
	.st58{clip-path:url(#SVGID_124_);}
	.st59{clip-path:url(#SVGID_128_);}
	.st60{clip-path:url(#SVGID_132_);}
	.st61{clip-path:url(#SVGID_136_);}
	.st62{clip-path:url(#SVGID_138_);}
	.st63{clip-path:url(#SVGID_140_);}
	.st64{clip-path:url(#SVGID_144_);}
	.st65{clip-path:url(#SVGID_148_);}
	.st66{clip-path:url(#SVGID_152_);}
	.st67{clip-path:url(#SVGID_156_);}
	.st68{clip-path:url(#SVGID_160_);}
</style>
<g>
	<g>
		<defs>
			<rect id="SVGID_1_" y="9.51" width="358.63" height="324.49"/>
		</defs>
		<clipPath id="SVGID_2_">
			<use xlink:href="#SVGID_1_"  style="overflow:visible;"/>
		</clipPath>
		<rect x="9" y="9.51" class="st0" width="100.05" height="50.02"/>
	</g>
	<g>
		<defs>
			<rect id="SVGID_3_" y="9.51" width="358.63" height="324.49"/>
		</defs>
		<clipPath id="SVGID_4_">
			<use xlink:href="#SVGID_3_"  style="overflow:visible;"/>
		</clipPath>
		<g class="st1">
			<g>
				<defs>
					<rect id="SVGID_5_" y="9.51" width="358.63" height="324.49"/>
				</defs>
				<clipPath id="SVGID_6_">
					<use xlink:href="#SVGID_5_"  style="overflow:visible;"/>
				</clipPath>
				<g class="st2">
					<g>
						<g>
							<defs>
								<rect id="SVGID_7_" x="100.05" y="2.51" width="68.02" height="58.02"/>
							</defs>
							<clipPath id="SVGID_8_">
								<use xlink:href="#SVGID_7_"  style="overflow:visible;"/>
							</clipPath>
							<rect x="109.05" y="9.51" class="st3" width="50.02" height="50.02"/>
						</g>
					</g>
				</g>
			</g>
		</g>
	</g>
	<g>
		<defs>
			<rect id="SVGID_9_" y="9.51" width="358.63" height="324.49"/>
		</defs>
		<clipPath id="SVGID_10_">
			<use xlink:href="#SVGID_9_"  style="overflow:visible;"/>
		</clipPath>
		<g class="st4">
			<g class="st5">
				<path class="st6" d="M78.98,45.25h2.18v7.2h-0.68v-6.56h-1.5V45.25z"/>
				<path class="st6" d="M82.48,48.86c0-2.1,0.98-3.77,2.71-3.77s2.7,1.67,2.7,3.77c0,2.09-0.97,3.75-2.7,3.75
					S82.48,50.95,82.48,48.86z M87.21,48.86c0-1.7-0.7-3.12-2.01-3.12c-1.33,0-2.03,1.42-2.03,3.12c0,1.69,0.7,3.11,2.03,3.11
					C86.51,51.97,87.21,50.55,87.21,48.86z"/>
				<path class="st6" d="M88.95,48.86c0-2.1,0.98-3.77,2.71-3.77s2.7,1.67,2.7,3.77c0,2.09-0.97,3.75-2.7,3.75
					S88.95,50.95,88.95,48.86z M93.68,48.86c0-1.7-0.7-3.12-2.01-3.12c-1.33,0-2.03,1.42-2.03,3.12c0,1.69,0.7,3.11,2.03,3.11
					C92.98,51.97,93.68,50.55,93.68,48.86z"/>
				<path class="st6" d="M98.11,46.89c0,0.94-0.49,1.8-1.38,1.8s-1.39-0.86-1.39-1.8c0-0.97,0.5-1.8,1.39-1.8
					S98.11,45.92,98.11,46.89z M101.37,45.25l-5.18,7.2h-0.74l5.17-7.2H101.37z M95.95,46.89c0,0.68,0.26,1.24,0.78,1.24
					c0.5,0,0.77-0.55,0.77-1.24c0-0.7-0.26-1.24-0.77-1.24C96.21,45.66,95.95,46.2,95.95,46.89z M101.52,50.74
					c0,0.95-0.5,1.8-1.39,1.8c-0.89,0-1.38-0.85-1.38-1.8c0-0.96,0.49-1.8,1.38-1.8C101.02,48.95,101.52,49.79,101.52,50.74z
					 M99.35,50.74c0,0.67,0.28,1.22,0.78,1.22c0.5,0,0.77-0.55,0.77-1.22c0-0.71-0.26-1.25-0.77-1.25
					C99.63,49.5,99.35,50.04,99.35,50.74z"/>
			</g>
		</g>
	</g>
	<g>
		<defs>
			<rect id="SVGID_11_" y="9.51" width="358.63" height="324.49"/>
		</defs>
		<clipPath id="SVGID_12_">
			<use xlink:href="#SVGID_11_"  style="overflow:visible;"/>
		</clipPath>
		<g class="st7">
			<g>
				<defs>
					<rect id="SVGID_13_" y="9.51" width="358.63" height="324.49"/>
				</defs>
				<clipPath id="SVGID_14_">
					<use xlink:href="#SVGID_13_"  style="overflow:visible;"/>
				</clipPath>
				<g class="st8">
					<g>
						<g>
							<defs>
								<rect id="SVGID_15_" x="123.82" y="36.45" width="39.88" height="19.3"/>
							</defs>
							<clipPath id="SVGID_16_">
								<use xlink:href="#SVGID_15_"  style="overflow:visible;"/>
							</clipPath>
							<g class="st9">
								<g class="st5">
									<path class="st6" d="M133.36,50.48c0-0.82,0.41-1.46,1.07-1.8c-0.59-0.34-0.91-0.92-0.91-1.61c0-1.13,0.79-1.98,2.1-1.98
										s2.09,0.85,2.09,1.98c0,0.68-0.32,1.27-0.91,1.61c0.66,0.34,1.07,0.98,1.07,1.8c0,1.15-0.84,2.13-2.24,2.13
										C134.19,52.62,133.36,51.63,133.36,50.48z M135.61,49c-0.94,0-1.57,0.62-1.57,1.48c0,0.84,0.62,1.49,1.57,1.49
										c0.94,0,1.55-0.65,1.55-1.49C137.16,49.63,136.54,49,135.61,49z M137,47.06c0-0.72-0.49-1.32-1.39-1.32
										c-0.92,0-1.4,0.6-1.4,1.32c0,0.74,0.48,1.34,1.4,1.34C136.51,48.41,137,47.81,137,47.06z"/>
									<path class="st6" d="M138.93,48.86c0-2.1,0.98-3.77,2.71-3.77s2.7,1.67,2.7,3.77c0,2.09-0.97,3.75-2.7,3.75
										S138.93,50.95,138.93,48.86z M143.65,48.86c0-1.7-0.7-3.12-2.01-3.12c-1.33,0-2.03,1.42-2.03,3.12
										c0,1.69,0.7,3.11,2.03,3.11C142.96,51.97,143.65,50.55,143.65,48.86z"/>
									<path class="st6" d="M148.08,46.89c0,0.94-0.49,1.8-1.38,1.8s-1.39-0.86-1.39-1.8c0-0.97,0.5-1.8,1.39-1.8
										S148.08,45.92,148.08,46.89z M151.34,45.25l-5.18,7.2h-0.74l5.17-7.2H151.34z M145.92,46.89c0,0.68,0.26,1.24,0.78,1.24
										c0.5,0,0.77-0.55,0.77-1.24c0-0.7-0.26-1.24-0.77-1.24C146.19,45.66,145.92,46.2,145.92,46.89z M151.5,50.74
										c0,0.95-0.5,1.8-1.39,1.8c-0.89,0-1.38-0.85-1.38-1.8c0-0.96,0.49-1.8,1.38-1.8C151,48.95,151.5,49.79,151.5,50.74z
										 M149.33,50.74c0,0.67,0.28,1.22,0.78,1.22c0.5,0,0.77-0.55,0.77-1.22c0-0.71-0.26-1.25-0.77-1.25
										C149.6,49.5,149.33,50.04,149.33,50.74z"/>
								</g>
							</g>
						</g>
					</g>
				</g>
			</g>
			<g>
				<defs>
					<rect id="SVGID_17_" y="9.51" width="358.63" height="324.49"/>
				</defs>
				<clipPath id="SVGID_18_">
					<use xlink:href="#SVGID_17_"  style="overflow:visible;"/>
				</clipPath>
				<g class="st10">
					<g>
						<g>
							<defs>
								<rect id="SVGID_19_" x="175.08" y="2.51" width="52.91" height="58.02"/>
							</defs>
							<clipPath id="SVGID_20_">
								<use xlink:href="#SVGID_19_"  style="overflow:visible;"/>
							</clipPath>
							<rect x="184.08" y="9.51" class="st11" width="34.91" height="50.02"/>
						</g>
					</g>
				</g>
			</g>
			<g>
				<defs>
					<rect id="SVGID_21_" y="9.51" width="358.63" height="324.49"/>
				</defs>
				<clipPath id="SVGID_22_">
					<use xlink:href="#SVGID_21_"  style="overflow:visible;"/>
				</clipPath>
				<g class="st12">
					<g>
						<g>
							<defs>
								<rect id="SVGID_23_" x="209.99" y="2.51" width="52.91" height="58.02"/>
							</defs>
							<clipPath id="SVGID_24_">
								<use xlink:href="#SVGID_23_"  style="overflow:visible;"/>
							</clipPath>
							<rect x="218.99" y="9.51" class="st13" width="34.91" height="50.02"/>
						</g>
					</g>
				</g>
			</g>
			<g>
				<defs>
					<rect id="SVGID_25_" y="9.51" width="358.63" height="324.49"/>
				</defs>
				<clipPath id="SVGID_26_">
					<use xlink:href="#SVGID_25_"  style="overflow:visible;"/>
				</clipPath>
				<g class="st14">
					<g>
						<g>
							<defs>
								<rect id="SVGID_27_" x="244.9" y="2.51" width="52.91" height="58.02"/>
							</defs>
							<clipPath id="SVGID_28_">
								<use xlink:href="#SVGID_27_"  style="overflow:visible;"/>
							</clipPath>
							<rect x="253.9" y="9.51" class="st15" width="34.91" height="50.02"/>
						</g>
					</g>
				</g>
			</g>
			<g>
				<defs>
					<rect id="SVGID_29_" y="9.51" width="358.63" height="324.49"/>
				</defs>
				<clipPath id="SVGID_30_">
					<use xlink:href="#SVGID_29_"  style="overflow:visible;"/>
				</clipPath>
				<g class="st16">
					<g>
						<g>
							<defs>
								<rect id="SVGID_31_" x="279.81" y="2.51" width="52.91" height="58.02"/>
							</defs>
							<clipPath id="SVGID_32_">
								<use xlink:href="#SVGID_31_"  style="overflow:visible;"/>
							</clipPath>
							<rect x="288.81" y="9.51" class="st17" width="34.91" height="50.02"/>
						</g>
					</g>
				</g>
			</g>
			<g>
				<defs>
					<rect id="SVGID_33_" y="9.51" width="358.63" height="324.49"/>
				</defs>
				<clipPath id="SVGID_34_">
					<use xlink:href="#SVGID_33_"  style="overflow:visible;"/>
				</clipPath>
				<g class="st18">
					<g>
						<g>
							<defs>
								<rect id="SVGID_35_" x="314.72" y="2.51" width="52.91" height="58.02"/>
							</defs>
							<clipPath id="SVGID_36_">
								<use xlink:href="#SVGID_35_"  style="overflow:visible;"/>
							</clipPath>
							<rect x="323.72" y="9.51" class="st19" width="34.91" height="50.02"/>
						</g>
					</g>
				</g>
			</g>
			<g>
				<defs>
					<rect id="SVGID_37_" y="9.51" width="358.63" height="324.49"/>
				</defs>
				<clipPath id="SVGID_38_">
					<use xlink:href="#SVGID_37_"  style="overflow:visible;"/>
				</clipPath>
				<g class="st20">
					<g>
						<g>
							<defs>
								<rect id="SVGID_39_" x="185.88" y="36.45" width="39.93" height="19.3"/>
							</defs>
							<clipPath id="SVGID_40_">
								<use xlink:href="#SVGID_39_"  style="overflow:visible;"/>
							</clipPath>
							<g class="st21">
								<g class="st5">
									<path class="st22" d="M196.95,48.3l2.01-2.41h-3.18v-0.64h4.09v0.56l-2.1,2.47h0.06c1.36-0.02,2.15,0.76,2.15,2.11
										c0,1.24-0.83,2.21-2.25,2.21c-1.44,0-2.08-0.98-2.08-0.98l0.4-0.49c0,0,0.56,0.84,1.67,0.84c0.97,0,1.57-0.7,1.57-1.57
										c0-0.97-0.55-1.54-1.58-1.54h-0.75V48.3z"/>
									<path class="st22" d="M201.04,48.86c0-2.1,0.98-3.77,2.71-3.77c1.73,0,2.7,1.67,2.7,3.77c0,2.09-0.97,3.75-2.7,3.75
										C202.02,52.62,201.04,50.95,201.04,48.86z M205.76,48.86c0-1.7-0.7-3.12-2.01-3.12c-1.33,0-2.03,1.42-2.03,3.12
										c0,1.69,0.7,3.11,2.03,3.11C205.07,51.97,205.76,50.55,205.76,48.86z"/>
									<path class="st22" d="M210.19,46.89c0,0.94-0.49,1.8-1.38,1.8c-0.89,0-1.39-0.86-1.39-1.8c0-0.97,0.5-1.8,1.39-1.8
										C209.7,45.1,210.19,45.92,210.19,46.89z M213.45,45.25l-5.18,7.2h-0.74l5.17-7.2H213.45z M208.03,46.89
										c0,0.68,0.26,1.24,0.78,1.24c0.5,0,0.77-0.55,0.77-1.24c0-0.7-0.26-1.24-0.77-1.24C208.3,45.66,208.03,46.2,208.03,46.89z
										 M213.61,50.74c0,0.95-0.5,1.8-1.39,1.8c-0.89,0-1.38-0.85-1.38-1.8c0-0.96,0.49-1.8,1.38-1.8
										C213.11,48.95,213.61,49.79,213.61,50.74z M211.44,50.74c0,0.67,0.28,1.22,0.78,1.22c0.5,0,0.77-0.55,0.77-1.22
										c0-0.71-0.26-1.25-0.77-1.25C211.71,49.5,211.44,50.04,211.44,50.74z"/>
								</g>
							</g>
						</g>
					</g>
				</g>
			</g>
			<g>
				<defs>
					<rect id="SVGID_41_" y="9.51" width="358.63" height="324.49"/>
				</defs>
				<clipPath id="SVGID_42_">
					<use xlink:href="#SVGID_41_"  style="overflow:visible;"/>
				</clipPath>
				<g class="st23">
					<g>
						<g>
							<defs>
								<rect id="SVGID_43_" x="216.82" y="36.45" width="43.9" height="19.3"/>
							</defs>
							<clipPath id="SVGID_44_">
								<use xlink:href="#SVGID_43_"  style="overflow:visible;"/>
							</clipPath>
							<g class="st24">
								<g class="st5">
									<path class="st22" d="M230.62,51.98l2.78-3.18c0.53-0.59,0.68-0.98,0.68-1.54c0-0.88-0.56-1.52-1.46-1.52
										c-1,0-1.66,0.86-1.69,0.9l-0.38-0.53c0,0,0.77-1.02,2.09-1.02c1.4,0,2.15,0.91,2.15,2.15c0,0.7-0.18,1.21-0.71,1.83
										l-2.41,2.73h3.29v0.64h-4.33V51.98z"/>
									<path class="st22" d="M235.95,48.86c0-2.1,0.98-3.77,2.71-3.77s2.7,1.67,2.7,3.77c0,2.09-0.97,3.75-2.7,3.75
										S235.95,50.95,235.95,48.86z M240.67,48.86c0-1.7-0.7-3.12-2.01-3.12c-1.33,0-2.03,1.42-2.03,3.12
										c0,1.69,0.7,3.11,2.03,3.11C239.98,51.97,240.67,50.55,240.67,48.86z"/>
									<path class="st22" d="M245.1,46.89c0,0.94-0.49,1.8-1.38,1.8s-1.39-0.86-1.39-1.8c0-0.97,0.5-1.8,1.39-1.8
										S245.1,45.92,245.1,46.89z M248.36,45.25l-5.18,7.2h-0.74l5.17-7.2H248.36z M242.94,46.89c0,0.68,0.26,1.24,0.78,1.24
										c0.5,0,0.77-0.55,0.77-1.24c0-0.7-0.26-1.24-0.77-1.24C243.21,45.66,242.94,46.2,242.94,46.89z M248.52,50.74
										c0,0.95-0.5,1.8-1.39,1.8s-1.38-0.85-1.38-1.8c0-0.96,0.49-1.8,1.38-1.8S248.52,49.79,248.52,50.74z M246.35,50.74
										c0,0.67,0.28,1.22,0.78,1.22c0.5,0,0.77-0.55,0.77-1.22c0-0.71-0.26-1.25-0.77-1.25C246.62,49.5,246.35,50.04,246.35,50.74
										z"/>
								</g>
							</g>
						</g>
					</g>
				</g>
			</g>
			<g>
				<defs>
					<rect id="SVGID_45_" y="9.51" width="358.63" height="324.49"/>
				</defs>
				<clipPath id="SVGID_46_">
					<use xlink:href="#SVGID_45_"  style="overflow:visible;"/>
				</clipPath>
				<g class="st25">
					<g>
						<g>
							<defs>
								<rect id="SVGID_47_" x="251.73" y="36.45" width="43.9" height="19.3"/>
							</defs>
							<clipPath id="SVGID_48_">
								<use xlink:href="#SVGID_47_"  style="overflow:visible;"/>
							</clipPath>
							<g class="st26">
								<g class="st5">
									<path class="st22" d="M268.61,45.25h2.18v7.2h-0.68v-6.56h-1.5V45.25z"/>
									<path class="st22" d="M273.08,45.89l-0.05,2.38c0.25-0.06,0.58-0.12,1-0.12c1.52,0,2.31,0.88,2.31,2.17
										c0,1.39-0.85,2.3-2.27,2.3c-1.41,0-2.05-0.98-2.05-0.98l0.42-0.49c0,0,0.55,0.83,1.63,0.83c0.94,0,1.58-0.59,1.58-1.66
										c0-0.95-0.64-1.54-1.66-1.54c-0.92,0-1.46,0.29-1.48,0.3l-0.16-0.12l0.1-3.71h3.57v0.64H273.08z"/>
									<path class="st22" d="M280.01,46.89c0,0.94-0.49,1.8-1.38,1.8c-0.89,0-1.39-0.86-1.39-1.8c0-0.97,0.5-1.8,1.39-1.8
										C279.52,45.1,280.01,45.92,280.01,46.89z M283.27,45.25l-5.18,7.2h-0.74l5.17-7.2H283.27z M277.85,46.89
										c0,0.68,0.26,1.24,0.78,1.24c0.5,0,0.77-0.55,0.77-1.24c0-0.7-0.26-1.24-0.77-1.24C278.12,45.66,277.85,46.2,277.85,46.89z
										 M283.43,50.74c0,0.95-0.5,1.8-1.39,1.8c-0.89,0-1.38-0.85-1.38-1.8c0-0.96,0.49-1.8,1.38-1.8
										C282.92,48.95,283.43,49.79,283.43,50.74z M281.26,50.74c0,0.67,0.28,1.22,0.78,1.22s0.77-0.55,0.77-1.22
										c0-0.71-0.26-1.25-0.77-1.25S281.26,50.04,281.26,50.74z"/>
								</g>
							</g>
						</g>
					</g>
				</g>
			</g>
			<g>
				<defs>
					<rect id="SVGID_49_" y="9.51" width="358.63" height="324.49"/>
				</defs>
				<clipPath id="SVGID_50_">
					<use xlink:href="#SVGID_49_"  style="overflow:visible;"/>
				</clipPath>
				<g class="st27">
					<g>
						<g>
							<defs>
								<rect id="SVGID_51_" x="290.61" y="36.45" width="39.93" height="19.3"/>
							</defs>
							<clipPath id="SVGID_52_">
								<use xlink:href="#SVGID_51_"  style="overflow:visible;"/>
							</clipPath>
							<g class="st28">
								<g class="st5">
									<path class="st22" d="M302.26,45.25h2.18v7.2h-0.68v-6.56h-1.5V45.25z"/>
									<path class="st22" d="M305.77,48.86c0-2.1,0.98-3.77,2.71-3.77c1.73,0,2.7,1.67,2.7,3.77c0,2.09-0.97,3.75-2.7,3.75
										C306.75,52.62,305.77,50.95,305.77,48.86z M310.49,48.86c0-1.7-0.7-3.12-2.01-3.12c-1.33,0-2.03,1.42-2.03,3.12
										c0,1.69,0.7,3.11,2.03,3.11C309.79,51.97,310.49,50.55,310.49,48.86z"/>
									<path class="st22" d="M314.92,46.89c0,0.94-0.49,1.8-1.38,1.8c-0.89,0-1.39-0.86-1.39-1.8c0-0.97,0.5-1.8,1.39-1.8
										C314.43,45.1,314.92,45.92,314.92,46.89z M318.18,45.25l-5.18,7.2h-0.74l5.17-7.2H318.18z M312.76,46.89
										c0,0.68,0.26,1.24,0.78,1.24c0.5,0,0.77-0.55,0.77-1.24c0-0.7-0.26-1.24-0.77-1.24C313.03,45.66,312.76,46.2,312.76,46.89z
										 M318.34,50.74c0,0.95-0.5,1.8-1.39,1.8c-0.89,0-1.38-0.85-1.38-1.8c0-0.96,0.49-1.8,1.38-1.8
										C317.83,48.95,318.34,49.79,318.34,50.74z M316.17,50.74c0,0.67,0.28,1.22,0.78,1.22c0.5,0,0.77-0.55,0.77-1.22
										c0-0.71-0.26-1.25-0.77-1.25C316.44,49.5,316.17,50.04,316.17,50.74z"/>
								</g>
							</g>
						</g>
					</g>
				</g>
			</g>
			<g>
				<defs>
					<rect id="SVGID_53_" y="9.51" width="358.63" height="324.49"/>
				</defs>
				<clipPath id="SVGID_54_">
					<use xlink:href="#SVGID_53_"  style="overflow:visible;"/>
				</clipPath>
				<g class="st29">
					<g>
						<g>
							<defs>
								<rect id="SVGID_55_" x="331.31" y="36.45" width="34.14" height="19.3"/>
							</defs>
							<clipPath id="SVGID_56_">
								<use xlink:href="#SVGID_55_"  style="overflow:visible;"/>
							</clipPath>
							<g class="st30">
								<g class="st5">
									<path class="st22" d="M342.89,45.89l-0.05,2.38c0.25-0.06,0.58-0.12,1-0.12c1.52,0,2.31,0.88,2.31,2.17
										c0,1.39-0.85,2.3-2.27,2.3s-2.05-0.98-2.05-0.98l0.42-0.49c0,0,0.55,0.83,1.63,0.83c0.94,0,1.58-0.59,1.58-1.66
										c0-0.95-0.63-1.54-1.65-1.54c-0.92,0-1.46,0.29-1.48,0.3l-0.16-0.12l0.1-3.71h3.57v0.64H342.89z"/>
									<path class="st22" d="M349.83,46.89c0,0.94-0.49,1.8-1.38,1.8s-1.39-0.86-1.39-1.8c0-0.97,0.5-1.8,1.39-1.8
										S349.83,45.92,349.83,46.89z M353.09,45.25l-5.18,7.2h-0.74l5.17-7.2H353.09z M347.67,46.89c0,0.68,0.26,1.24,0.78,1.24
										c0.5,0,0.77-0.55,0.77-1.24c0-0.7-0.26-1.24-0.77-1.24C347.93,45.66,347.67,46.2,347.67,46.89z M353.25,50.74
										c0,0.95-0.5,1.8-1.39,1.8s-1.38-0.85-1.38-1.8c0-0.96,0.49-1.8,1.38-1.8S353.25,49.79,353.25,50.74z M351.08,50.74
										c0,0.67,0.28,1.22,0.78,1.22c0.5,0,0.77-0.55,0.77-1.22c0-0.71-0.26-1.25-0.77-1.25C351.35,49.5,351.08,50.04,351.08,50.74
										z"/>
								</g>
							</g>
						</g>
					</g>
				</g>
			</g>
		</g>
	</g>
	<g>
		<defs>
			<rect id="SVGID_57_" y="9.51" width="358.63" height="324.49"/>
		</defs>
		<clipPath id="SVGID_58_">
			<use xlink:href="#SVGID_57_"  style="overflow:visible;"/>
		</clipPath>
		<rect x="9" y="191.51" class="st31" width="100.05" height="50.02"/>
	</g>
	<g>
		<defs>
			<rect id="SVGID_59_" y="9.51" width="358.63" height="324.49"/>
		</defs>
		<clipPath id="SVGID_60_">
			<use xlink:href="#SVGID_59_"  style="overflow:visible;"/>
		</clipPath>
		<g class="st32">
			<g>
				<defs>
					<rect id="SVGID_61_" y="9.51" width="358.63" height="324.49"/>
				</defs>
				<clipPath id="SVGID_62_">
					<use xlink:href="#SVGID_61_"  style="overflow:visible;"/>
				</clipPath>
				<g class="st33">
					<g>
						<g>
							<defs>
								<rect id="SVGID_63_" x="100.05" y="184.51" width="68.02" height="58.02"/>
							</defs>
							<clipPath id="SVGID_64_">
								<use xlink:href="#SVGID_63_"  style="overflow:visible;"/>
							</clipPath>
							<rect x="109.05" y="191.51" class="st34" width="50.02" height="50.02"/>
						</g>
					</g>
				</g>
			</g>
		</g>
	</g>
	<g>
		<defs>
			<rect id="SVGID_65_" y="9.51" width="358.63" height="324.49"/>
		</defs>
		<clipPath id="SVGID_66_">
			<use xlink:href="#SVGID_65_"  style="overflow:visible;"/>
		</clipPath>
		<g class="st35">
			<g class="st5">
				<path class="st6" d="M78.98,227.25h2.18v7.2h-0.68v-6.56h-1.5V227.25z"/>
				<path class="st6" d="M82.48,230.86c0-2.1,0.98-3.77,2.71-3.77s2.7,1.67,2.7,3.77c0,2.09-0.97,3.75-2.7,3.75
					S82.48,232.95,82.48,230.86z M87.21,230.86c0-1.7-0.7-3.12-2.01-3.12c-1.33,0-2.03,1.42-2.03,3.12c0,1.69,0.7,3.11,2.03,3.11
					C86.51,233.97,87.21,232.55,87.21,230.86z"/>
				<path class="st6" d="M88.95,230.86c0-2.1,0.98-3.77,2.71-3.77s2.7,1.67,2.7,3.77c0,2.09-0.97,3.75-2.7,3.75
					S88.95,232.95,88.95,230.86z M93.68,230.86c0-1.7-0.7-3.12-2.01-3.12c-1.33,0-2.03,1.42-2.03,3.12c0,1.69,0.7,3.11,2.03,3.11
					C92.98,233.97,93.68,232.55,93.68,230.86z"/>
				<path class="st6" d="M98.11,228.89c0,0.94-0.49,1.8-1.38,1.8s-1.39-0.86-1.39-1.8c0-0.97,0.5-1.8,1.39-1.8
					S98.11,227.92,98.11,228.89z M101.37,227.25l-5.18,7.2h-0.74l5.17-7.2H101.37z M95.95,228.89c0,0.68,0.26,1.24,0.78,1.24
					c0.5,0,0.77-0.55,0.77-1.24c0-0.7-0.26-1.24-0.77-1.24C96.21,227.66,95.95,228.2,95.95,228.89z M101.52,232.74
					c0,0.95-0.5,1.8-1.39,1.8c-0.89,0-1.38-0.85-1.38-1.8c0-0.96,0.49-1.8,1.38-1.8C101.02,230.94,101.52,231.78,101.52,232.74z
					 M99.35,232.74c0,0.67,0.28,1.22,0.78,1.22c0.5,0,0.77-0.55,0.77-1.22c0-0.71-0.26-1.25-0.77-1.25
					C99.63,231.5,99.35,232.03,99.35,232.74z"/>
			</g>
		</g>
	</g>
	<g>
		<defs>
			<rect id="SVGID_67_" y="9.51" width="358.63" height="324.49"/>
		</defs>
		<clipPath id="SVGID_68_">
			<use xlink:href="#SVGID_67_"  style="overflow:visible;"/>
		</clipPath>
		<g class="st36">
			<g>
				<defs>
					<rect id="SVGID_69_" y="9.51" width="358.63" height="324.49"/>
				</defs>
				<clipPath id="SVGID_70_">
					<use xlink:href="#SVGID_69_"  style="overflow:visible;"/>
				</clipPath>
				<g class="st37">
					<g>
						<g>
							<defs>
								<rect id="SVGID_71_" x="123.82" y="218.45" width="39.88" height="19.3"/>
							</defs>
							<clipPath id="SVGID_72_">
								<use xlink:href="#SVGID_71_"  style="overflow:visible;"/>
							</clipPath>
							<g class="st38">
								<g class="st5">
									<path class="st6" d="M133.36,232.48c0-0.82,0.41-1.46,1.07-1.8c-0.59-0.34-0.91-0.92-0.91-1.61c0-1.13,0.79-1.98,2.1-1.98
										s2.09,0.85,2.09,1.98c0,0.68-0.32,1.27-0.91,1.61c0.66,0.34,1.07,0.98,1.07,1.8c0,1.15-0.84,2.13-2.24,2.13
										C134.19,234.61,133.36,233.63,133.36,232.48z M135.61,231c-0.94,0-1.57,0.62-1.57,1.48c0,0.84,0.62,1.49,1.57,1.49
										c0.94,0,1.55-0.65,1.55-1.49C137.16,231.63,136.54,231,135.61,231z M137,229.06c0-0.72-0.49-1.32-1.39-1.32
										c-0.92,0-1.4,0.6-1.4,1.32c0,0.74,0.48,1.34,1.4,1.34C136.51,230.4,137,229.8,137,229.06z"/>
									<path class="st6" d="M138.93,230.86c0-2.1,0.98-3.77,2.71-3.77s2.7,1.67,2.7,3.77c0,2.09-0.97,3.75-2.7,3.75
										S138.93,232.95,138.93,230.86z M143.65,230.86c0-1.7-0.7-3.12-2.01-3.12c-1.33,0-2.03,1.42-2.03,3.12
										c0,1.69,0.7,3.11,2.03,3.11C142.96,233.97,143.65,232.55,143.65,230.86z"/>
									<path class="st6" d="M148.08,228.89c0,0.94-0.49,1.8-1.38,1.8s-1.39-0.86-1.39-1.8c0-0.97,0.5-1.8,1.39-1.8
										S148.08,227.92,148.08,228.89z M151.34,227.25l-5.18,7.2h-0.74l5.17-7.2H151.34z M145.92,228.89
										c0,0.68,0.26,1.24,0.78,1.24c0.5,0,0.77-0.55,0.77-1.24c0-0.7-0.26-1.24-0.77-1.24
										C146.19,227.66,145.92,228.2,145.92,228.89z M151.5,232.74c0,0.95-0.5,1.8-1.39,1.8c-0.89,0-1.38-0.85-1.38-1.8
										c0-0.96,0.49-1.8,1.38-1.8C151,230.94,151.5,231.78,151.5,232.74z M149.33,232.74c0,0.67,0.28,1.22,0.78,1.22
										c0.5,0,0.77-0.55,0.77-1.22c0-0.71-0.26-1.25-0.77-1.25C149.6,231.5,149.33,232.03,149.33,232.74z"/>
								</g>
							</g>
						</g>
					</g>
				</g>
			</g>
		</g>
	</g>
	<g>
		<defs>
			<rect id="SVGID_73_" y="9.51" width="358.63" height="324.49"/>
		</defs>
		<clipPath id="SVGID_74_">
			<use xlink:href="#SVGID_73_"  style="overflow:visible;"/>
		</clipPath>
		<rect x="208.56" y="191.51" class="st39" width="100.05" height="50.02"/>
	</g>
	<g>
		<defs>
			<rect id="SVGID_75_" y="9.51" width="358.63" height="324.49"/>
		</defs>
		<clipPath id="SVGID_76_">
			<use xlink:href="#SVGID_75_"  style="overflow:visible;"/>
		</clipPath>
		<g class="st40">
			<g>
				<defs>
					<rect id="SVGID_77_" y="9.51" width="358.63" height="324.49"/>
				</defs>
				<clipPath id="SVGID_78_">
					<use xlink:href="#SVGID_77_"  style="overflow:visible;"/>
				</clipPath>
				<g class="st41">
					<g>
						<g>
							<defs>
								<rect id="SVGID_79_" x="299.61" y="184.51" width="68.02" height="58.02"/>
							</defs>
							<clipPath id="SVGID_80_">
								<use xlink:href="#SVGID_79_"  style="overflow:visible;"/>
							</clipPath>
							<rect x="308.61" y="191.51" class="st42" width="50.02" height="50.02"/>
						</g>
					</g>
				</g>
			</g>
		</g>
	</g>
	<g>
		<defs>
			<rect id="SVGID_81_" y="9.51" width="358.63" height="324.49"/>
		</defs>
		<clipPath id="SVGID_82_">
			<use xlink:href="#SVGID_81_"  style="overflow:visible;"/>
		</clipPath>
		<g class="st43">
			<g class="st5">
				<path class="st6" d="M278.54,227.25h2.18v7.2h-0.68v-6.56h-1.5V227.25z"/>
				<path class="st6" d="M282.04,230.86c0-2.1,0.98-3.77,2.71-3.77c1.73,0,2.7,1.67,2.7,3.77c0,2.09-0.97,3.75-2.7,3.75
					C283.03,234.61,282.04,232.95,282.04,230.86z M286.77,230.86c0-1.7-0.7-3.12-2.01-3.12c-1.33,0-2.03,1.42-2.03,3.12
					c0,1.69,0.7,3.11,2.03,3.11C286.07,233.97,286.77,232.55,286.77,230.86z"/>
				<path class="st6" d="M288.51,230.86c0-2.1,0.98-3.77,2.71-3.77c1.73,0,2.7,1.67,2.7,3.77c0,2.09-0.97,3.75-2.7,3.75
					C289.49,234.61,288.51,232.95,288.51,230.86z M293.24,230.86c0-1.7-0.7-3.12-2.02-3.12c-1.33,0-2.03,1.42-2.03,3.12
					c0,1.69,0.7,3.11,2.03,3.11C292.54,233.97,293.24,232.55,293.24,230.86z"/>
				<path class="st6" d="M297.67,228.89c0,0.94-0.49,1.8-1.38,1.8c-0.89,0-1.39-0.86-1.39-1.8c0-0.97,0.5-1.8,1.39-1.8
					C297.17,227.09,297.67,227.92,297.67,228.89z M300.93,227.25l-5.18,7.2H295l5.17-7.2H300.93z M295.51,228.89
					c0,0.68,0.26,1.24,0.78,1.24c0.5,0,0.77-0.55,0.77-1.24c0-0.7-0.26-1.24-0.77-1.24C295.77,227.66,295.51,228.2,295.51,228.89z
					 M301.08,232.74c0,0.95-0.5,1.8-1.39,1.8c-0.89,0-1.38-0.85-1.38-1.8c0-0.96,0.49-1.8,1.38-1.8
					C300.58,230.94,301.08,231.78,301.08,232.74z M298.91,232.74c0,0.67,0.28,1.22,0.78,1.22s0.77-0.55,0.77-1.22
					c0-0.71-0.26-1.25-0.77-1.25S298.91,232.03,298.91,232.74z"/>
			</g>
		</g>
	</g>
	<g>
		<defs>
			<rect id="SVGID_83_" y="9.51" width="358.63" height="324.49"/>
		</defs>
		<clipPath id="SVGID_84_">
			<use xlink:href="#SVGID_83_"  style="overflow:visible;"/>
		</clipPath>
		<g class="st44">
			<g>
				<defs>
					<rect id="SVGID_85_" y="9.51" width="358.63" height="324.49"/>
				</defs>
				<clipPath id="SVGID_86_">
					<use xlink:href="#SVGID_85_"  style="overflow:visible;"/>
				</clipPath>
				<g class="st45">
					<g>
						<g>
							<defs>
								<rect id="SVGID_87_" x="323.38" y="218.45" width="39.88" height="19.3"/>
							</defs>
							<clipPath id="SVGID_88_">
								<use xlink:href="#SVGID_87_"  style="overflow:visible;"/>
							</clipPath>
							<g class="st46">
								<g class="st5">
									<path class="st6" d="M332.92,232.48c0-0.82,0.41-1.46,1.07-1.8c-0.59-0.34-0.91-0.92-0.91-1.61c0-1.13,0.79-1.98,2.1-1.98
										s2.09,0.85,2.09,1.98c0,0.68-0.32,1.27-0.91,1.61c0.66,0.34,1.07,0.98,1.07,1.8c0,1.15-0.84,2.13-2.24,2.13
										C333.75,234.61,332.92,233.63,332.92,232.48z M335.17,231c-0.94,0-1.57,0.62-1.57,1.48c0,0.84,0.62,1.49,1.57,1.49
										c0.94,0,1.55-0.65,1.55-1.49C336.72,231.63,336.1,231,335.17,231z M336.56,229.06c0-0.72-0.49-1.32-1.39-1.32
										c-0.92,0-1.4,0.6-1.4,1.32c0,0.74,0.48,1.34,1.4,1.34C336.07,230.4,336.56,229.8,336.56,229.06z"/>
									<path class="st6" d="M338.49,230.86c0-2.1,0.98-3.77,2.71-3.77c1.73,0,2.7,1.67,2.7,3.77c0,2.09-0.97,3.75-2.7,3.75
										C339.47,234.61,338.49,232.95,338.49,230.86z M343.21,230.86c0-1.7-0.7-3.12-2.01-3.12c-1.33,0-2.03,1.42-2.03,3.12
										c0,1.69,0.7,3.11,2.03,3.11C342.52,233.97,343.21,232.55,343.21,230.86z"/>
									<path class="st6" d="M347.64,228.89c0,0.94-0.49,1.8-1.38,1.8c-0.89,0-1.39-0.86-1.39-1.8c0-0.97,0.5-1.8,1.39-1.8
										C347.15,227.09,347.64,227.92,347.64,228.89z M350.9,227.25l-5.18,7.2h-0.74l5.17-7.2H350.9z M345.48,228.89
										c0,0.68,0.26,1.24,0.78,1.24c0.5,0,0.77-0.55,0.77-1.24c0-0.7-0.26-1.24-0.77-1.24
										C345.75,227.66,345.48,228.2,345.48,228.89z M351.06,232.74c0,0.95-0.5,1.8-1.39,1.8c-0.89,0-1.38-0.85-1.38-1.8
										c0-0.96,0.49-1.8,1.38-1.8C350.55,230.94,351.06,231.78,351.06,232.74z M348.89,232.74c0,0.67,0.28,1.22,0.78,1.22
										c0.5,0,0.77-0.55,0.77-1.22c0-0.71-0.26-1.25-0.77-1.25C349.16,231.5,348.89,232.03,348.89,232.74z"/>
								</g>
							</g>
						</g>
					</g>
				</g>
			</g>
		</g>
	</g>
	<g>
		<defs>
			<rect id="SVGID_89_" y="9.51" width="358.63" height="324.49"/>
		</defs>
		<clipPath id="SVGID_90_">
			<use xlink:href="#SVGID_89_"  style="overflow:visible;"/>
		</clipPath>
		<g class="st47">
			<g class="st5">
				<path class="st48" d="M13.58,82.89h1.32l-2.36,4.39v2.81h-1.19v-2.81l-2.36-4.39h1.32l1.4,2.82l0.24,0.55l0.25-0.55L13.58,82.89
					z"/>
			</g>
			<g class="st5">
				<path class="st48" d="M18.48,90.09h-0.8l-0.16-0.66H17.5c-0.26,0.47-0.77,0.78-1.52,0.78c-1.08,0-1.71-0.7-1.71-1.6
					c0-1,0.72-1.65,2.11-1.65c0.41,0,0.74,0.07,0.98,0.16v-0.16c0-0.76-0.42-1.06-1.14-1.06c-0.68,0-1.22,0.37-1.22,0.37l-0.4-0.89
					c0,0,0.67-0.46,1.81-0.46c1.4,0,2.08,0.82,2.08,2.05V90.09z M17.35,88.28v-0.42c-0.14-0.08-0.41-0.18-0.85-0.18
					c-0.74,0-1.12,0.32-1.12,0.86c0,0.47,0.32,0.83,0.86,0.83C16.85,89.37,17.33,88.89,17.35,88.28z"/>
				<path class="st48" d="M20.88,90.09h-1.18v-5.04h0.76l0.16,0.72h0.06c0.37-0.55,0.8-0.84,1.54-0.84c1.19,0,1.91,0.91,1.91,2.27
					v2.89h-1.18V87.3c0-0.77-0.36-1.37-1.02-1.37c-0.71,0-1.04,0.68-1.04,1.22V90.09z"/>
			</g>
			<g class="st5">
				<path class="st48" d="M29.65,85.05l-1.83,2.18l1.87,2.85h-1.43l-1.33-2.06l-0.41,0.47v1.59h-1.18v-7.26h1.18v4.32l1.68-2.1
					H29.65z"/>
			</g>
			<g class="st5">
				<path class="st48" d="M34.05,89.63c0,0-0.52,0.6-1.7,0.6c-1.52,0-2.42-1.12-2.42-2.65c0-1.52,0.89-2.65,2.24-2.65
					c1.34,0,2.11,1.04,2.11,2.51v0.31h-3.21c0.06,1.02,0.58,1.52,1.37,1.52c0.76,0,1.21-0.44,1.21-0.44L34.05,89.63z M31.1,86.97
					h2.01c-0.07-0.73-0.41-1.13-0.97-1.13C31.57,85.84,31.22,86.21,31.1,86.97z"/>
				<path class="st48" d="M39.07,89.63c0,0-0.52,0.6-1.7,0.6c-1.52,0-2.42-1.12-2.42-2.65c0-1.52,0.89-2.65,2.24-2.65
					c1.34,0,2.11,1.04,2.11,2.51v0.31h-3.21c0.06,1.02,0.58,1.52,1.37,1.52c0.76,0,1.21-0.44,1.21-0.44L39.07,89.63z M36.12,86.97
					h2.02c-0.07-0.73-0.41-1.13-0.97-1.13S36.24,86.21,36.12,86.97z"/>
				<path class="st48" d="M40.38,88.81c0,0,0.68,0.49,1.52,0.49c0.58,0,0.78-0.24,0.78-0.58c0-0.95-2.69-0.44-2.69-2.31
					c0-0.83,0.59-1.49,1.8-1.49c1.28,0,1.98,0.43,1.98,0.43l-0.4,0.91c0,0-0.61-0.43-1.45-0.43c-0.5,0-0.77,0.18-0.77,0.54
					c0,0.91,2.72,0.34,2.72,2.29c0,0.83-0.55,1.54-1.94,1.54c-1.37,0-1.97-0.59-1.97-0.59L40.38,88.81z"/>
				<path class="st48" d="M50.33,90.09h-3.01v-7.2h2.93c1.48,0,2.28,0.7,2.28,1.96c0,0.72-0.35,1.27-0.9,1.54v0.05
					c0.66,0.2,1.09,0.78,1.09,1.61C52.72,89.39,51.79,90.09,50.33,90.09z M50.22,83.95h-1.71v2.01h1.69c0.66,0,1.08-0.41,1.08-1
					C51.28,84.28,50.88,83.95,50.22,83.95z M48.51,86.94v2.09h1.83c0.64,0,1.12-0.38,1.12-1.06c0-0.61-0.44-1.03-1.03-1.03H48.51z"
					/>
				<path class="st48" d="M53.79,82.83h1.18v7.26h-1.18V82.83z"/>
				<path class="st48" d="M60.6,90.09h-0.78l-0.19-0.7h-0.06c-0.17,0.26-0.59,0.82-1.48,0.82c-1.19,0-1.9-0.91-1.9-2.27v-2.89h1.19
					v2.78c0,0.79,0.31,1.39,0.97,1.39c0.68,0,1.03-0.64,1.07-1.14v-3.03h1.18V90.09z"/>
				<path class="st48" d="M65.72,89.63c0,0-0.52,0.6-1.7,0.6c-1.52,0-2.42-1.12-2.42-2.65c0-1.52,0.89-2.65,2.24-2.65
					c1.34,0,2.11,1.04,2.11,2.51v0.31h-3.21c0.06,1.02,0.58,1.52,1.37,1.52c0.76,0,1.21-0.44,1.21-0.44L65.72,89.63z M62.77,86.97
					h2.02c-0.07-0.73-0.41-1.13-0.97-1.13S62.89,86.21,62.77,86.97z"/>
			</g>
		</g>
	</g>
	<g>
		<defs>
			<rect id="SVGID_91_" y="9.51" width="358.63" height="324.49"/>
		</defs>
		<clipPath id="SVGID_92_">
			<use xlink:href="#SVGID_91_"  style="overflow:visible;"/>
		</clipPath>
		<g class="st49">
			<g class="st5">
				<path class="st48" d="M14.86,114.61c0,0-0.7,0.95-2.16,0.95c-1.92,0-3.25-1.64-3.25-3.75c0-2.13,1.33-3.77,3.25-3.77
					c1.46,0,2.16,0.94,2.16,0.94l-0.38,0.53c0,0-0.66-0.82-1.76-0.82c-1.51,0-2.55,1.42-2.55,3.12c0,1.69,1.04,3.11,2.55,3.11
					c1.1,0,1.76-0.82,1.76-0.82L14.86,114.61z"/>
				<path class="st48" d="M21.44,109.52l-2.23,3.18h-0.22l-2.23-3.15v5.85h-0.68v-7.2h0.5l2.52,3.6l2.53-3.6h0.49v7.2h-0.68V109.52z
					"/>
				<path class="st48" d="M27.9,108.2h0.79l-2.41,4.41v2.78h-0.68v-2.78l-2.42-4.41h0.8l1.76,3.38l0.19,0.43h0.02l0.2-0.43
					L27.9,108.2z"/>
				<path class="st48" d="M30.43,112.25l3.54-4.05h0.78v0.13l-2.49,2.83l2.53,4.1v0.13h-0.72c0,0-1.64-2.67-2.28-3.69l-1.35,1.54
					v2.16h-0.68v-7.2h0.68V112.25z"/>
			</g>
		</g>
	</g>
	<g>
		<defs>
			<rect id="SVGID_93_" y="9.51" width="358.63" height="324.49"/>
		</defs>
		<clipPath id="SVGID_94_">
			<use xlink:href="#SVGID_93_"  style="overflow:visible;"/>
		</clipPath>
	</g>
	<g>
		<defs>
			<rect id="SVGID_95_" y="9.51" width="358.63" height="324.49"/>
		</defs>
		<clipPath id="SVGID_96_">
			<use xlink:href="#SVGID_95_"  style="overflow:visible;"/>
		</clipPath>
		<g class="st50">
			<g class="st5">
				<path class="st48" d="M45.16,108.2h2.18v7.2h-0.68v-6.56h-1.5V108.2z"/>
				<path class="st48" d="M48.66,111.81c0-2.1,0.98-3.77,2.71-3.77s2.7,1.67,2.7,3.77c0,2.09-0.97,3.75-2.7,3.75
					S48.66,113.89,48.66,111.81z M53.38,111.81c0-1.7-0.7-3.12-2.01-3.12c-1.33,0-2.03,1.42-2.03,3.12c0,1.69,0.7,3.11,2.03,3.11
					C52.69,114.91,53.38,113.5,53.38,111.81z"/>
			</g>
			<g class="st5">
				<path class="st48" d="M55.13,111.81c0-2.1,0.98-3.77,2.71-3.77s2.7,1.67,2.7,3.77c0,2.09-0.97,3.75-2.7,3.75
					S55.13,113.89,55.13,111.81z M59.85,111.81c0-1.7-0.7-3.12-2.01-3.12c-1.33,0-2.03,1.42-2.03,3.12c0,1.69,0.7,3.11,2.03,3.11
					C59.16,114.91,59.85,113.5,59.85,111.81z"/>
			</g>
			<g class="st5">
				<path class="st48" d="M60.96,116.74L65.86,106h0.71l-4.87,10.72L60.96,116.74z"/>
			</g>
			<g class="st5">
				<path class="st48" d="M66.95,113.43c0-0.82,0.41-1.46,1.07-1.8c-0.59-0.34-0.91-0.92-0.91-1.61c0-1.13,0.79-1.98,2.1-1.98
					s2.09,0.85,2.09,1.98c0,0.68-0.32,1.27-0.91,1.61c0.66,0.34,1.07,0.98,1.07,1.8c0,1.15-0.84,2.13-2.24,2.13
					C67.78,115.56,66.95,114.58,66.95,113.43z M69.2,111.95c-0.94,0-1.57,0.62-1.57,1.48c0,0.84,0.62,1.49,1.57,1.49
					c0.94,0,1.55-0.65,1.55-1.49C70.75,112.58,70.13,111.95,69.2,111.95z M70.6,110.01c0-0.72-0.49-1.32-1.39-1.32
					c-0.92,0-1.4,0.6-1.4,1.32c0,0.74,0.48,1.34,1.4,1.34C70.1,111.35,70.6,110.75,70.6,110.01z"/>
				<path class="st48" d="M72.49,114.93l2.78-3.18c0.53-0.59,0.68-0.98,0.68-1.54c0-0.88-0.56-1.52-1.46-1.52
					c-1,0-1.66,0.86-1.69,0.9l-0.38-0.53c0,0,0.77-1.02,2.09-1.02c1.4,0,2.15,0.91,2.15,2.15c0,0.7-0.18,1.21-0.71,1.83l-2.41,2.73
					h3.29v0.64h-4.33V114.93z"/>
			</g>
			<g class="st5">
				<path class="st48" d="M77.52,116.74L82.42,106h0.71l-4.87,10.72L77.52,116.74z"/>
			</g>
			<g class="st5">
				<path class="st48" d="M82.74,113.13l3.68-4.93h0.5v4.81h1.14v0.64h-1.14v1.75h-0.67v-1.75h-3.51V113.13z M83.66,113.01h2.6
					v-3.56l-2.46,3.41c-0.05,0.05-0.14,0.12-0.14,0.12V113.01z"/>
			</g>
			<g class="st5">
				<path class="st48" d="M89.6,111.99c0.35-0.61,0.98-1.02,1.8-1.02c1.31,0,2.16,1.03,2.16,2.24c0,1.24-0.9,2.3-2.21,2.3
					c-1.36,0-2.44-1.03-2.44-3.67c0-2.59,1.13-3.8,2.58-3.8c1.36,0,1.86,1.02,1.86,1.02l-0.41,0.49c0,0-0.48-0.86-1.45-0.86
					c-1.08,0-1.9,0.85-1.9,3.14V111.99z M89.71,113.22c0.24,1.2,0.89,1.64,1.64,1.64c0.89,0,1.52-0.72,1.52-1.66
					c0-0.91-0.59-1.6-1.49-1.6S89.82,112.29,89.71,113.22z"/>
			</g>
			<g class="st5">
				<path class="st48" d="M94.06,116.74L98.96,106h0.71l-4.87,10.72L94.06,116.74z"/>
			</g>
			<g class="st5">
				<path class="st48" d="M101.12,108.83l-0.05,2.38c0.25-0.06,0.58-0.12,1-0.12c1.52,0,2.31,0.88,2.31,2.17
					c0,1.39-0.85,2.3-2.27,2.3c-1.42,0-2.05-0.98-2.05-0.98l0.42-0.49c0,0,0.55,0.83,1.63,0.83c0.94,0,1.58-0.59,1.58-1.66
					c0-0.95-0.64-1.54-1.66-1.54c-0.92,0-1.46,0.29-1.48,0.3l-0.16-0.12l0.1-3.71h3.57v0.64H101.12z"/>
				<path class="st48" d="M106.33,108.83l-0.05,2.38c0.25-0.06,0.58-0.12,1-0.12c1.52,0,2.31,0.88,2.31,2.17
					c0,1.39-0.85,2.3-2.27,2.3c-1.42,0-2.05-0.98-2.05-0.98l0.42-0.49c0,0,0.55,0.83,1.63,0.83c0.94,0,1.58-0.59,1.58-1.66
					c0-0.95-0.64-1.54-1.66-1.54c-0.92,0-1.46,0.29-1.48,0.3l-0.16-0.12l0.1-3.71h3.57v0.64H106.33z"/>
			</g>
		</g>
	</g>
	<g>
		<defs>
			<rect id="SVGID_97_" y="9.51" width="358.63" height="324.49"/>
		</defs>
		<clipPath id="SVGID_98_">
			<use xlink:href="#SVGID_97_"  style="overflow:visible;"/>
		</clipPath>
	</g>
	<g>
		<defs>
			<rect id="SVGID_99_" y="9.51" width="358.63" height="324.49"/>
		</defs>
		<clipPath id="SVGID_100_">
			<use xlink:href="#SVGID_99_"  style="overflow:visible;"/>
		</clipPath>
		<g class="st51">
			<g class="st5">
				<path class="st48" d="M12.43,125c1.56,0,2.48,0.85,2.48,2.38c0,1.19-0.6,1.96-1.52,2.24v0.04l1.66,2.38v0.17h-0.71l-1.73-2.45
					H10.6v2.45H9.91V125H12.43z M12.42,125.63H10.6v3.48h1.93c0.98,0,1.69-0.56,1.69-1.71C14.22,126.22,13.51,125.63,12.42,125.63z"
					/>
				<path class="st48" d="M21.39,128.94h-2.39v-0.64h3.06v0.47c0,2.19-1.08,3.59-2.89,3.59c-1.98,0-3.21-1.64-3.21-3.75
					c0-2.13,1.27-3.77,3.25-3.77c1.58,0,2.3,0.96,2.3,0.96l-0.4,0.52c0,0-0.67-0.83-1.91-0.83c-1.59,0-2.54,1.42-2.54,3.12
					c0,1.69,0.92,3.11,2.51,3.11c1.32,0,2.22-1.04,2.22-2.67V128.94z"/>
				<path class="st48" d="M26.22,132.19h-2.85V125h2.72c1.37,0,2.21,0.66,2.21,1.94c0,0.82-0.4,1.36-1.02,1.58v0.04
					c0.71,0.2,1.22,0.78,1.22,1.67C28.5,131.57,27.56,132.19,26.22,132.19z M26.07,125.63h-2.03v2.61h2.1
					c0.89,0,1.44-0.49,1.44-1.28C27.58,126.02,27,125.63,26.07,125.63z M24.05,128.88v2.67h2.19c0.88,0,1.56-0.43,1.56-1.37
					c0-0.85-0.67-1.31-1.52-1.31H24.05z"/>
			</g>
		</g>
	</g>
	<g>
		<defs>
			<rect id="SVGID_101_" y="9.51" width="358.63" height="324.49"/>
		</defs>
		<clipPath id="SVGID_102_">
			<use xlink:href="#SVGID_101_"  style="overflow:visible;"/>
		</clipPath>
	</g>
	<g>
		<defs>
			<rect id="SVGID_103_" y="9.51" width="358.63" height="324.49"/>
		</defs>
		<clipPath id="SVGID_104_">
			<use xlink:href="#SVGID_103_"  style="overflow:visible;"/>
		</clipPath>
		<g class="st52">
			<g class="st5">
				<path class="st48" d="M45.16,125h2.18v7.2h-0.68v-6.56h-1.5V125z"/>
			</g>
			<g class="st5">
				<path class="st48" d="M48.67,130.23c0-0.82,0.41-1.46,1.07-1.8c-0.59-0.34-0.91-0.92-0.91-1.61c0-1.13,0.79-1.98,2.1-1.98
					s2.09,0.85,2.09,1.98c0,0.68-0.32,1.27-0.91,1.61c0.66,0.34,1.07,0.98,1.07,1.8c0,1.15-0.84,2.13-2.24,2.13
					C49.5,132.36,48.67,131.38,48.67,130.23z M50.92,128.75c-0.94,0-1.57,0.62-1.57,1.48c0,0.84,0.62,1.49,1.57,1.49
					c0.94,0,1.55-0.65,1.55-1.49C52.47,129.38,51.85,128.75,50.92,128.75z M52.32,126.81c0-0.72-0.49-1.32-1.39-1.32
					c-0.92,0-1.4,0.6-1.4,1.32c0,0.74,0.48,1.34,1.4,1.34C51.82,128.15,52.32,127.55,52.32,126.81z"/>
			</g>
			<g class="st5">
				<path class="st48" d="M53.75,133.54l4.91-10.73h0.71l-4.87,10.72L53.75,133.54z"/>
				<path class="st48" d="M61.34,128.04l2.01-2.41h-3.18V125h4.09v0.56l-2.1,2.47h0.06c1.36-0.02,2.15,0.76,2.15,2.11
					c0,1.24-0.83,2.21-2.25,2.21c-1.44,0-2.07-0.98-2.07-0.98l0.4-0.49c0,0,0.56,0.84,1.67,0.84c0.97,0,1.57-0.7,1.57-1.57
					c0-0.97-0.55-1.54-1.58-1.54h-0.76V128.04z"/>
			</g>
			<g class="st5">
				<path class="st48" d="M65.21,125h4.23v0.47l-2.88,6.73h-0.83l2.87-6.56h-3.39V125z"/>
			</g>
			<g class="st5">
				<path class="st48" d="M69.05,133.54l4.91-10.73h0.71l-4.87,10.72L69.05,133.54z"/>
			</g>
			<g class="st5">
				<path class="st48" d="M75.62,128.79c0.35-0.61,0.98-1.02,1.8-1.02c1.31,0,2.16,1.03,2.16,2.24c0,1.24-0.9,2.3-2.21,2.3
					c-1.36,0-2.44-1.03-2.44-3.67c0-2.59,1.13-3.8,2.58-3.8c1.36,0,1.86,1.02,1.86,1.02l-0.41,0.49c0,0-0.48-0.86-1.45-0.86
					c-1.08,0-1.9,0.85-1.9,3.14V128.79z M75.73,130.02c0.24,1.2,0.89,1.64,1.64,1.64c0.89,0,1.52-0.72,1.52-1.66
					c0-0.91-0.59-1.6-1.49-1.6S75.84,129.09,75.73,130.02z"/>
				<path class="st48" d="M80.2,125h2.18v7.2h-0.68v-6.56h-1.5V125z"/>
			</g>
		</g>
	</g>
	<g>
		<defs>
			<rect id="SVGID_105_" y="9.51" width="358.63" height="324.49"/>
		</defs>
		<clipPath id="SVGID_106_">
			<use xlink:href="#SVGID_105_"  style="overflow:visible;"/>
		</clipPath>
	</g>
	<g>
		<defs>
			<rect id="SVGID_107_" y="9.51" width="358.63" height="324.49"/>
		</defs>
		<clipPath id="SVGID_108_">
			<use xlink:href="#SVGID_107_"  style="overflow:visible;"/>
		</clipPath>
		<g class="st53">
			<g class="st5">
				<path class="st48" d="M15.08,148.99H14.4v-3.25h-3.8v3.25H9.91v-7.2h0.68v3.31h3.8v-3.31h0.68V148.99z"/>
				<path class="st48" d="M20.9,145.67h-3.31v2.69h3.86v0.64h-4.55v-7.2h4.55v0.64h-3.86v2.6h3.31V145.67z"/>
				<path class="st48" d="M25.23,145.3l2.21,3.69h-0.82l-1.64-2.81l-0.23-0.47l-0.25,0.47l-1.62,2.81h-0.8l2.17-3.69l-2.1-3.5h0.83
					l1.57,2.7l0.2,0.41l0.22-0.41l1.57-2.7h0.8L25.23,145.3z"/>
			</g>
		</g>
	</g>
	<g>
		<defs>
			<rect id="SVGID_109_" y="9.51" width="358.63" height="324.49"/>
		</defs>
		<clipPath id="SVGID_110_">
			<use xlink:href="#SVGID_109_"  style="overflow:visible;"/>
		</clipPath>
	</g>
	<g>
		<defs>
			<rect id="SVGID_111_" y="9.51" width="358.63" height="324.49"/>
		</defs>
		<clipPath id="SVGID_112_">
			<use xlink:href="#SVGID_111_"  style="overflow:visible;"/>
		</clipPath>
		<g class="st54">
			<g class="st5">
				<path class="st48" d="M49.98,143.98h1.3l-0.1,0.47h-1.3l-0.42,2.13h1.25l-0.08,0.46h-1.25l-0.38,1.96h-0.47l0.38-1.96h-1.77
					l-0.38,1.96h-0.48l0.38-1.96h-1.3l0.1-0.46h1.28l0.42-2.13h-1.25l0.1-0.47h1.25l0.4-1.98h0.47l-0.4,1.98h1.77l0.4-1.98h0.48
					L49.98,143.98z M47.22,146.58h1.77l0.42-2.13h-1.77L47.22,146.58z"/>
				<path class="st48" d="M51.79,141.8h2.18v7.2h-0.68v-6.56h-1.5V141.8z"/>
				<path class="st48" d="M55.27,148.53l2.78-3.18c0.53-0.59,0.68-0.98,0.68-1.54c0-0.88-0.56-1.52-1.46-1.52
					c-1,0-1.66,0.86-1.69,0.9l-0.38-0.53c0,0,0.77-1.02,2.09-1.02c1.4,0,2.15,0.91,2.15,2.15c0,0.7-0.18,1.21-0.71,1.83l-2.41,2.73
					h3.29v0.64h-4.33V148.53z"/>
				<path class="st48" d="M60.58,148.53l2.78-3.18c0.53-0.59,0.68-0.98,0.68-1.54c0-0.88-0.56-1.52-1.46-1.52
					c-1,0-1.66,0.86-1.69,0.9l-0.38-0.53c0,0,0.77-1.02,2.09-1.02c1.4,0,2.15,0.91,2.15,2.15c0,0.7-0.18,1.21-0.71,1.83l-2.41,2.73
					h3.29v0.64h-4.33V148.53z"/>
				<path class="st48" d="M66.86,142.43l-0.05,2.38c0.25-0.06,0.58-0.12,1-0.12c1.52,0,2.31,0.88,2.31,2.17
					c0,1.39-0.85,2.3-2.27,2.3c-1.42,0-2.05-0.98-2.05-0.98l0.42-0.49c0,0,0.55,0.83,1.63,0.83c0.94,0,1.58-0.59,1.58-1.66
					c0-0.95-0.64-1.54-1.66-1.54c-0.92,0-1.46,0.29-1.48,0.3l-0.16-0.12l0.1-3.71h3.57v0.64H66.86z"/>
				<path class="st48" d="M72.32,144.84l2.01-2.41h-3.18v-0.64h4.09v0.56l-2.1,2.47h0.06c1.36-0.02,2.15,0.76,2.15,2.11
					c0,1.24-0.83,2.21-2.25,2.21c-1.44,0-2.07-0.98-2.07-0.98l0.4-0.49c0,0,0.56,0.84,1.67,0.84c0.97,0,1.57-0.7,1.57-1.57
					c0-0.97-0.55-1.54-1.58-1.54h-0.76V144.84z"/>
				<path class="st48" d="M78.92,148.99H76.8v-7.2h2.12c1.97,0,3.33,1.37,3.33,3.6C82.26,147.63,80.89,148.99,78.92,148.99z
					 M77.48,142.43v5.92h1.4c1.51,0,2.67-1.1,2.67-2.96c0-1.86-1.16-2.96-2.67-2.96H77.48z"/>
			</g>
		</g>
	</g>
	<g>
		<defs>
			<rect id="SVGID_113_" y="9.51" width="358.63" height="324.49"/>
		</defs>
		<clipPath id="SVGID_114_">
			<use xlink:href="#SVGID_113_"  style="overflow:visible;"/>
		</clipPath>
		<g class="st55">
			<g class="st5">
				<path class="st48" d="M13.58,264.61h1.32L12.54,269v2.81h-1.19V269l-2.36-4.39h1.32l1.4,2.82l0.24,0.55l0.25-0.55L13.58,264.61z
					"/>
			</g>
			<g class="st5">
				<path class="st48" d="M18.48,271.8h-0.8l-0.16-0.66H17.5c-0.26,0.47-0.77,0.78-1.52,0.78c-1.08,0-1.71-0.7-1.71-1.6
					c0-1,0.72-1.65,2.11-1.65c0.41,0,0.74,0.07,0.98,0.16v-0.16c0-0.76-0.42-1.06-1.14-1.06c-0.68,0-1.22,0.37-1.22,0.37l-0.4-0.89
					c0,0,0.67-0.46,1.81-0.46c1.4,0,2.08,0.82,2.08,2.05V271.8z M17.35,269.99v-0.42c-0.14-0.08-0.41-0.18-0.85-0.18
					c-0.74,0-1.12,0.32-1.12,0.86c0,0.47,0.32,0.83,0.86,0.83C16.85,271.08,17.33,270.6,17.35,269.99z"/>
				<path class="st48" d="M19.72,264.55h1.18v7.26h-1.18V264.55z"/>
				<path class="st48" d="M26.04,271.35c0,0-0.52,0.6-1.7,0.6c-1.52,0-2.42-1.12-2.42-2.65c0-1.52,0.89-2.65,2.24-2.65
					c1.34,0,2.11,1.04,2.11,2.51v0.31h-3.21c0.06,1.02,0.58,1.52,1.37,1.52c0.76,0,1.21-0.44,1.21-0.44L26.04,271.35z M23.09,268.68
					h2.01c-0.07-0.73-0.41-1.13-0.97-1.13S23.21,267.93,23.09,268.68z"/>
				<path class="st48" d="M32.69,271.8h-3.01v-7.2h2.93c1.48,0,2.28,0.7,2.28,1.96c0,0.72-0.35,1.27-0.9,1.54v0.05
					c0.66,0.2,1.09,0.78,1.09,1.61C35.07,271.11,34.15,271.8,32.69,271.8z M32.58,265.66h-1.71v2.01h1.69c0.66,0,1.08-0.41,1.08-1
					C33.63,266,33.24,265.66,32.58,265.66z M30.86,268.66v2.09h1.83c0.64,0,1.12-0.38,1.12-1.06c0-0.61-0.44-1.03-1.03-1.03H30.86z"
					/>
				<path class="st48" d="M36.14,264.55h1.18v7.26h-1.18V264.55z"/>
				<path class="st48" d="M42.96,271.8h-0.78l-0.19-0.7h-0.06c-0.17,0.26-0.59,0.82-1.47,0.82c-1.19,0-1.9-0.91-1.9-2.27v-2.89h1.19
					v2.78c0,0.79,0.31,1.39,0.97,1.39c0.68,0,1.03-0.64,1.07-1.14v-3.03h1.17V271.8z"/>
				<path class="st48" d="M48.08,271.35c0,0-0.52,0.6-1.7,0.6c-1.52,0-2.42-1.12-2.42-2.65c0-1.52,0.89-2.65,2.24-2.65
					c1.34,0,2.11,1.04,2.11,2.51v0.31H45.1c0.06,1.02,0.58,1.52,1.37,1.52c0.76,0,1.21-0.44,1.21-0.44L48.08,271.35z M45.13,268.68
					h2.01c-0.07-0.73-0.41-1.13-0.97-1.13C45.61,267.56,45.25,267.93,45.13,268.68z"/>
			</g>
		</g>
	</g>
	<g>
		<defs>
			<rect id="SVGID_115_" y="9.51" width="358.63" height="324.49"/>
		</defs>
		<clipPath id="SVGID_116_">
			<use xlink:href="#SVGID_115_"  style="overflow:visible;"/>
		</clipPath>
		<g class="st56">
			<g class="st5">
				<path class="st48" d="M14.86,296.33c0,0-0.7,0.95-2.16,0.95c-1.92,0-3.25-1.64-3.25-3.75c0-2.13,1.33-3.77,3.25-3.77
					c1.46,0,2.16,0.94,2.16,0.94l-0.38,0.53c0,0-0.66-0.82-1.76-0.82c-1.51,0-2.55,1.42-2.55,3.12c0,1.69,1.04,3.11,2.55,3.11
					c1.1,0,1.76-0.82,1.76-0.82L14.86,296.33z"/>
				<path class="st48" d="M21.44,291.23l-2.23,3.18h-0.22l-2.23-3.15v5.85h-0.68v-7.2h0.5l2.52,3.6l2.53-3.6h0.49v7.2h-0.68V291.23z
					"/>
				<path class="st48" d="M27.9,289.91h0.79l-2.41,4.41v2.78h-0.68v-2.78l-2.42-4.41h0.8l1.76,3.38l0.19,0.43h0.02l0.2-0.43
					L27.9,289.91z"/>
				<path class="st48" d="M30.43,293.97l3.54-4.05h0.78v0.13l-2.49,2.83l2.53,4.1v0.13h-0.72c0,0-1.64-2.67-2.28-3.69l-1.35,1.54
					v2.16h-0.68v-7.2h0.68V293.97z"/>
			</g>
		</g>
	</g>
	<g>
		<defs>
			<rect id="SVGID_117_" y="9.51" width="358.63" height="324.49"/>
		</defs>
		<clipPath id="SVGID_118_">
			<use xlink:href="#SVGID_117_"  style="overflow:visible;"/>
		</clipPath>
	</g>
	<g>
		<defs>
			<rect id="SVGID_119_" y="9.51" width="358.63" height="324.49"/>
		</defs>
		<clipPath id="SVGID_120_">
			<use xlink:href="#SVGID_119_"  style="overflow:visible;"/>
		</clipPath>
		<g class="st57">
			<g class="st5">
				<path class="st48" d="M49.39,293.48v-0.18c-0.36,0.61-1,1.01-1.8,1.01c-1.3,0-2.16-1.02-2.16-2.22c0-1.27,0.89-2.33,2.21-2.33
					c1.37,0,2.43,1.03,2.43,3.72c0,2.58-1.02,3.8-2.48,3.8c-1.33,0-1.86-0.97-1.86-0.97l0.42-0.49c0,0,0.48,0.82,1.44,0.82
					C48.68,296.63,49.46,295.74,49.39,293.48z M49.28,292.11c-0.25-1.22-0.89-1.7-1.64-1.7c-0.89,0-1.52,0.74-1.52,1.68
					c0,0.9,0.6,1.57,1.48,1.57C48.48,293.66,49.14,293.02,49.28,292.11z"/>
				<path class="st48" d="M52.37,292.96l2.01-2.41H51.2v-0.64h4.09v0.56l-2.1,2.47h0.06c1.36-0.02,2.15,0.76,2.15,2.11
					c0,1.24-0.83,2.21-2.25,2.21c-1.44,0-2.07-0.98-2.07-0.98l0.4-0.49c0,0,0.56,0.84,1.67,0.84c0.97,0,1.57-0.7,1.57-1.57
					c0-0.97-0.55-1.54-1.58-1.54h-0.76V292.96z"/>
			</g>
			<g class="st5">
				<path class="st48" d="M56.16,298.45l4.91-10.73h0.71l-4.87,10.72L56.16,298.45z"/>
			</g>
			<g class="st5">
				<path class="st48" d="M62.74,293.7c0.35-0.61,0.98-1.02,1.8-1.02c1.31,0,2.16,1.03,2.16,2.24c0,1.24-0.9,2.3-2.21,2.3
					c-1.36,0-2.44-1.03-2.44-3.67c0-2.59,1.13-3.8,2.58-3.8c1.36,0,1.86,1.02,1.86,1.02l-0.41,0.49c0,0-0.48-0.86-1.45-0.86
					c-1.08,0-1.9,0.85-1.9,3.14V293.7z M62.85,294.94c0.24,1.2,0.89,1.64,1.64,1.64c0.89,0,1.52-0.72,1.52-1.66
					c0-0.91-0.59-1.6-1.49-1.6S62.96,294,62.85,294.94z"/>
			</g>
			<g class="st5">
				<path class="st48" d="M71.55,293.48v-0.18c-0.36,0.61-1,1.01-1.8,1.01c-1.3,0-2.16-1.02-2.16-2.22c0-1.27,0.89-2.33,2.21-2.33
					c1.37,0,2.43,1.03,2.43,3.72c0,2.58-1.02,3.8-2.48,3.8c-1.33,0-1.86-0.97-1.86-0.97l0.42-0.49c0,0,0.48,0.82,1.44,0.82
					C70.84,296.63,71.62,295.74,71.55,293.48z M71.44,292.11c-0.25-1.22-0.89-1.7-1.64-1.7c-0.89,0-1.52,0.74-1.52,1.68
					c0,0.9,0.6,1.57,1.48,1.57C70.64,293.66,71.3,293.02,71.44,292.11z"/>
			</g>
			<g class="st5">
				<path class="st48" d="M72.7,298.45l4.91-10.73h0.71l-4.87,10.72L72.7,298.45z"/>
				<path class="st48" d="M78.71,289.91h2.18v7.2h-0.68v-6.56h-1.5V289.91z"/>
			</g>
			<g class="st5">
				<path class="st48" d="M86.07,293.48v-0.18c-0.36,0.61-1,1.01-1.8,1.01c-1.3,0-2.16-1.02-2.16-2.22c0-1.27,0.89-2.33,2.21-2.33
					c1.37,0,2.43,1.03,2.43,3.72c0,2.58-1.02,3.8-2.48,3.8c-1.33,0-1.86-0.97-1.86-0.97l0.42-0.49c0,0,0.48,0.82,1.44,0.82
					C85.36,296.63,86.14,295.74,86.07,293.48z M85.96,292.11c-0.25-1.22-0.89-1.7-1.64-1.7c-0.89,0-1.52,0.74-1.52,1.68
					c0,0.9,0.6,1.57,1.48,1.57C85.16,293.66,85.82,293.02,85.96,292.11z"/>
			</g>
			<g class="st5">
				<path class="st48" d="M87.22,298.45l4.91-10.73h0.71l-4.87,10.72L87.22,298.45z"/>
			</g>
			<g class="st5">
				<path class="st48" d="M92.44,294.84l3.68-4.93h0.5v4.81h1.14v0.64h-1.14v1.75h-0.67v-1.75h-3.51V294.84z M93.36,294.72h2.6
					v-3.56l-2.46,3.41c-0.05,0.05-0.14,0.12-0.14,0.12V294.72z"/>
			</g>
		</g>
	</g>
	<g>
		<defs>
			<rect id="SVGID_121_" y="9.51" width="358.63" height="324.49"/>
		</defs>
		<clipPath id="SVGID_122_">
			<use xlink:href="#SVGID_121_"  style="overflow:visible;"/>
		</clipPath>
	</g>
	<g>
		<defs>
			<rect id="SVGID_123_" y="9.51" width="358.63" height="324.49"/>
		</defs>
		<clipPath id="SVGID_124_">
			<use xlink:href="#SVGID_123_"  style="overflow:visible;"/>
		</clipPath>
		<g class="st58">
			<g class="st5">
				<path class="st48" d="M12.43,306.71c1.56,0,2.48,0.85,2.48,2.38c0,1.19-0.6,1.96-1.52,2.24v0.04l1.66,2.38v0.17h-0.71
					l-1.73-2.45H10.6v2.45H9.91v-7.2H12.43z M12.42,307.35H10.6v3.48h1.93c0.98,0,1.69-0.56,1.69-1.71
					C14.22,307.94,13.51,307.35,12.42,307.35z"/>
				<path class="st48" d="M21.39,310.66h-2.39v-0.64h3.06v0.47c0,2.19-1.08,3.59-2.89,3.59c-1.98,0-3.21-1.64-3.21-3.75
					c0-2.13,1.27-3.77,3.25-3.77c1.58,0,2.3,0.96,2.3,0.96l-0.4,0.52c0,0-0.67-0.83-1.91-0.83c-1.59,0-2.54,1.42-2.54,3.12
					c0,1.69,0.92,3.11,2.51,3.11c1.32,0,2.22-1.04,2.22-2.67V310.66z"/>
				<path class="st48" d="M26.22,313.91h-2.85v-7.2h2.72c1.37,0,2.21,0.66,2.21,1.94c0,0.82-0.4,1.36-1.02,1.58v0.04
					c0.71,0.2,1.22,0.78,1.22,1.67C28.5,313.29,27.56,313.91,26.22,313.91z M26.07,307.35h-2.03v2.61h2.1
					c0.89,0,1.44-0.49,1.44-1.28C27.58,307.73,27,307.35,26.07,307.35z M24.05,310.6v2.67h2.19c0.88,0,1.56-0.43,1.56-1.37
					c0-0.85-0.67-1.31-1.52-1.31H24.05z"/>
			</g>
		</g>
	</g>
	<g>
		<defs>
			<rect id="SVGID_125_" y="9.51" width="358.63" height="324.49"/>
		</defs>
		<clipPath id="SVGID_126_">
			<use xlink:href="#SVGID_125_"  style="overflow:visible;"/>
		</clipPath>
	</g>
	<g>
		<defs>
			<rect id="SVGID_127_" y="9.51" width="358.63" height="324.49"/>
		</defs>
		<clipPath id="SVGID_128_">
			<use xlink:href="#SVGID_127_"  style="overflow:visible;"/>
		</clipPath>
		<g class="st59">
			<g class="st5">
				<path class="st48" d="M46.74,309.76l2.01-2.41h-3.18v-0.64h4.09v0.56l-2.1,2.47h0.06c1.36-0.02,2.15,0.76,2.15,2.11
					c0,1.24-0.83,2.21-2.25,2.21c-1.44,0-2.07-0.98-2.07-0.98l0.4-0.49c0,0,0.56,0.84,1.67,0.84c0.97,0,1.57-0.7,1.57-1.57
					c0-0.97-0.55-1.54-1.58-1.54h-0.76V309.76z"/>
			</g>
			<g class="st5">
				<path class="st48" d="M50.56,311.64l3.68-4.93h0.5v4.81h1.14v0.64h-1.14v1.75h-0.67v-1.75h-3.51V311.64z M51.48,311.52h2.6
					v-3.56l-2.46,3.41c-0.05,0.05-0.14,0.12-0.14,0.12V311.52z"/>
			</g>
			<g class="st5">
				<path class="st48" d="M56.27,315.25l4.91-10.73h0.71l-4.87,10.72L56.27,315.25z"/>
			</g>
			<g class="st5">
				<path class="st48" d="M62.26,311.94c0-0.82,0.41-1.46,1.07-1.8c-0.59-0.34-0.91-0.92-0.91-1.61c0-1.13,0.79-1.98,2.1-1.98
					c1.31,0,2.09,0.85,2.09,1.98c0,0.68-0.32,1.27-0.91,1.61c0.66,0.34,1.07,0.98,1.07,1.8c0,1.15-0.84,2.13-2.24,2.13
					C63.09,314.08,62.26,313.09,62.26,311.94z M64.51,310.47c-0.94,0-1.57,0.62-1.57,1.48c0,0.84,0.62,1.49,1.57,1.49
					c0.94,0,1.55-0.65,1.55-1.49C66.06,311.09,65.44,310.47,64.51,310.47z M65.91,308.52c0-0.72-0.49-1.32-1.39-1.32
					c-0.92,0-1.4,0.6-1.4,1.32c0,0.74,0.48,1.34,1.4,1.34C65.41,309.87,65.91,309.27,65.91,308.52z"/>
			</g>
			<g class="st5">
				<path class="st48" d="M67.83,310.32c0-2.1,0.98-3.77,2.71-3.77s2.7,1.67,2.7,3.77c0,2.09-0.97,3.75-2.7,3.75
					S67.83,312.41,67.83,310.32z M72.55,310.32c0-1.7-0.7-3.12-2.01-3.12c-1.33,0-2.03,1.42-2.03,3.12c0,1.69,0.7,3.11,2.03,3.11
					C71.86,313.43,72.55,312.01,72.55,310.32z"/>
			</g>
			<g class="st5">
				<path class="st48" d="M73.66,315.25l4.91-10.73h0.71l-4.87,10.72L73.66,315.25z"/>
				<path class="st48" d="M79.67,306.71h2.18v7.2h-0.68v-6.56h-1.5V306.71z"/>
				<path class="st48" d="M84.39,309.76l2.01-2.41h-3.18v-0.64h4.09v0.56l-2.1,2.47h0.06c1.36-0.02,2.15,0.76,2.15,2.11
					c0,1.24-0.83,2.21-2.25,2.21c-1.44,0-2.07-0.98-2.07-0.98l0.4-0.49c0,0,0.56,0.84,1.67,0.84c0.97,0,1.57-0.7,1.57-1.57
					c0-0.97-0.55-1.54-1.58-1.54h-0.76V309.76z"/>
				<path class="st48" d="M88.25,306.71h4.23v0.47l-2.88,6.73h-0.83l2.87-6.56h-3.39V306.71z"/>
			</g>
		</g>
	</g>
	<g>
		<defs>
			<rect id="SVGID_129_" y="9.51" width="358.63" height="324.49"/>
		</defs>
		<clipPath id="SVGID_130_">
			<use xlink:href="#SVGID_129_"  style="overflow:visible;"/>
		</clipPath>
	</g>
	<g>
		<defs>
			<rect id="SVGID_131_" y="9.51" width="358.63" height="324.49"/>
		</defs>
		<clipPath id="SVGID_132_">
			<use xlink:href="#SVGID_131_"  style="overflow:visible;"/>
		</clipPath>
		<g class="st60">
			<g class="st5">
				<path class="st48" d="M15.08,330.71H14.4v-3.25h-3.8v3.25H9.91v-7.2h0.68v3.31h3.8v-3.31h0.68V330.71z"/>
				<path class="st48" d="M20.9,327.39h-3.31v2.69h3.86v0.64h-4.55v-7.2h4.55v0.64h-3.86v2.6h3.31V327.39z"/>
				<path class="st48" d="M25.23,327.02l2.21,3.69h-0.82l-1.64-2.81l-0.23-0.47l-0.25,0.47l-1.62,2.81h-0.8l2.17-3.69l-2.1-3.5h0.83
					l1.57,2.7l0.2,0.41l0.22-0.41l1.57-2.7h0.8L25.23,327.02z"/>
			</g>
		</g>
	</g>
	<g>
		<defs>
			<rect id="SVGID_133_" y="9.51" width="358.63" height="324.49"/>
		</defs>
		<clipPath id="SVGID_134_">
			<use xlink:href="#SVGID_133_"  style="overflow:visible;"/>
		</clipPath>
	</g>
	<g>
		<defs>
			<rect id="SVGID_135_" y="9.51" width="358.63" height="324.49"/>
		</defs>
		<clipPath id="SVGID_136_">
			<use xlink:href="#SVGID_135_"  style="overflow:visible;"/>
		</clipPath>
		<g class="st61">
			<g class="st5">
				<path class="st48" d="M49.98,325.7h1.3l-0.1,0.47h-1.3l-0.42,2.13h1.25l-0.08,0.46h-1.25l-0.38,1.96h-0.47l0.38-1.96h-1.77
					l-0.38,1.96h-0.48l0.38-1.96h-1.3l0.1-0.46h1.28l0.42-2.13h-1.25l0.1-0.47h1.25l0.4-1.98h0.47l-0.4,1.98h1.77l0.4-1.98h0.48
					L49.98,325.7z M47.22,328.3h1.77l0.42-2.13h-1.77L47.22,328.3z"/>
			</g>
			<g class="st5">
				<path class="st48" d="M52.12,330.24l2.78-3.18c0.53-0.59,0.68-0.98,0.68-1.54c0-0.88-0.56-1.52-1.46-1.52
					c-1,0-1.66,0.86-1.69,0.9l-0.38-0.53c0,0,0.77-1.02,2.09-1.02c1.4,0,2.15,0.91,2.15,2.15c0,0.7-0.18,1.21-0.71,1.83l-2.41,2.73
					h3.29v0.64h-4.33V330.24z"/>
				<path class="st48" d="M57.43,330.24l2.78-3.18c0.53-0.59,0.68-0.98,0.68-1.54c0-0.88-0.56-1.52-1.46-1.52
					c-1,0-1.66,0.86-1.69,0.9l-0.38-0.53c0,0,0.77-1.02,2.09-1.02c1.4,0,2.15,0.91,2.15,2.15c0,0.7-0.18,1.21-0.71,1.83l-2.41,2.73
					h3.29v0.64h-4.33V330.24z"/>
				<path class="st48" d="M63.71,324.15l-0.05,2.38c0.25-0.06,0.58-0.12,1-0.12c1.52,0,2.31,0.88,2.31,2.17
					c0,1.39-0.85,2.3-2.27,2.3c-1.42,0-2.05-0.98-2.05-0.98l0.42-0.49c0,0,0.55,0.83,1.63,0.83c0.94,0,1.58-0.59,1.58-1.66
					c0-0.95-0.64-1.54-1.66-1.54c-0.92,0-1.46,0.29-1.48,0.3l-0.16-0.12l0.1-3.71h3.57v0.64H63.71z"/>
				<path class="st48" d="M67.96,327.12c0-2.1,0.98-3.77,2.71-3.77s2.7,1.67,2.7,3.77c0,2.09-0.97,3.75-2.7,3.75
					S67.96,329.21,67.96,327.12z M72.69,327.12c0-1.7-0.7-3.12-2.01-3.12c-1.33,0-2.03,1.42-2.03,3.12c0,1.69,0.7,3.11,2.03,3.11
					C71.99,330.23,72.69,328.82,72.69,327.12z"/>
				<path class="st48" d="M74.44,328.74c0-0.82,0.41-1.46,1.07-1.8c-0.59-0.34-0.91-0.92-0.91-1.61c0-1.13,0.79-1.98,2.1-1.98
					s2.09,0.85,2.09,1.98c0,0.68-0.32,1.27-0.91,1.61c0.66,0.34,1.07,0.98,1.07,1.8c0,1.15-0.84,2.13-2.24,2.13
					C75.27,330.88,74.44,329.89,74.44,328.74z M76.7,327.27c-0.94,0-1.57,0.62-1.57,1.48c0,0.84,0.62,1.49,1.57,1.49
					c0.94,0,1.55-0.65,1.55-1.49C78.25,327.89,77.62,327.27,76.7,327.27z M78.09,325.33c0-0.72-0.49-1.32-1.39-1.32
					c-0.92,0-1.4,0.6-1.4,1.32c0,0.74,0.48,1.34,1.4,1.34C77.6,326.67,78.09,326.07,78.09,325.33z"/>
				<path class="st48" d="M83.87,327.08v-0.18c-0.36,0.61-1,1.01-1.8,1.01c-1.3,0-2.16-1.02-2.16-2.22c0-1.27,0.89-2.33,2.21-2.33
					c1.37,0,2.43,1.03,2.43,3.72c0,2.58-1.02,3.8-2.48,3.8c-1.33,0-1.86-0.97-1.86-0.97l0.42-0.49c0,0,0.48,0.82,1.44,0.82
					C83.17,330.23,83.94,329.34,83.87,327.08z M83.77,325.71c-0.25-1.22-0.89-1.7-1.64-1.7c-0.89,0-1.52,0.74-1.52,1.68
					c0,0.9,0.6,1.57,1.48,1.57C82.96,327.26,83.62,326.62,83.77,325.71z"/>
			</g>
		</g>
	</g>
	<g>
		<defs>
			<rect id="SVGID_137_" y="9.51" width="358.63" height="324.49"/>
		</defs>
		<clipPath id="SVGID_138_">
			<use xlink:href="#SVGID_137_"  style="overflow:visible;"/>
		</clipPath>
		<g class="st62">
			<g class="st5">
				<path class="st48" d="M215.13,271.8h-1.26l-0.52-1.48h-3.03l-0.52,1.48h-1.26l2.69-7.2h1.2L215.13,271.8z M210.67,269.32H213
					l-1.16-3.32L210.67,269.32z"/>
				<path class="st48" d="M215.76,266.76h0.76l0.16,0.72h0.06c0.37-0.55,0.8-0.84,1.5-0.84c0.76,0,1.32,0.34,1.63,0.91h0.05
					c0.34-0.55,0.79-0.91,1.55-0.91c1.19,0,1.89,0.91,1.89,2.27v2.89h-1.17v-2.78c0-0.77-0.35-1.37-1.01-1.37
					c-0.67,0-1,0.59-1.02,1.14v3.01h-1.17v-2.9c0-0.71-0.36-1.25-1.02-1.25c-0.67,0-1,0.61-1.02,1.14v3.01h-1.18V266.76z"/>
				<path class="st48" d="M228.44,271.8h-0.8l-0.16-0.66h-0.02c-0.26,0.47-0.77,0.78-1.52,0.78c-1.08,0-1.71-0.7-1.71-1.6
					c0-1,0.72-1.65,2.11-1.65c0.41,0,0.74,0.07,0.98,0.16v-0.16c0-0.76-0.42-1.06-1.14-1.06c-0.68,0-1.22,0.37-1.22,0.37l-0.4-0.89
					c0,0,0.67-0.46,1.81-0.46c1.4,0,2.08,0.82,2.08,2.05V271.8z M227.31,269.99v-0.42c-0.14-0.08-0.41-0.18-0.85-0.18
					c-0.74,0-1.12,0.32-1.12,0.86c0,0.47,0.32,0.83,0.86,0.83C226.81,271.08,227.29,270.6,227.31,269.99z"/>
			</g>
			<g class="st5">
				<path class="st48" d="M232.2,267.74h-0.26c-0.59,0-1.07,0.5-1.09,1.24v2.83h-1.17v-5.04h0.75l0.16,0.8h0.05
					c0.26-0.53,0.74-0.82,1.31-0.82h0.26V267.74z"/>
			</g>
			<g class="st5">
				<path class="st48" d="M236.79,271.8h-0.8l-0.16-0.66h-0.02c-0.26,0.47-0.77,0.78-1.52,0.78c-1.08,0-1.71-0.7-1.71-1.6
					c0-1,0.72-1.65,2.11-1.65c0.41,0,0.74,0.07,0.98,0.16v-0.16c0-0.76-0.42-1.06-1.14-1.06c-0.68,0-1.22,0.37-1.22,0.37l-0.4-0.89
					c0,0,0.67-0.46,1.81-0.46c1.4,0,2.08,0.82,2.08,2.05V271.8z M235.66,269.99v-0.42c-0.14-0.08-0.41-0.18-0.85-0.18
					c-0.74,0-1.12,0.32-1.12,0.86c0,0.47,0.32,0.83,0.86,0.83C235.16,271.08,235.64,270.6,235.66,269.99z"/>
			</g>
			<g class="st5">
				<path class="st48" d="M239.19,271.8h-1.18v-5.04h0.76l0.16,0.72h0.06c0.37-0.55,0.8-0.84,1.54-0.84c1.19,0,1.91,0.91,1.91,2.27
					v2.89h-1.18v-2.78c0-0.77-0.36-1.37-1.02-1.37c-0.71,0-1.04,0.68-1.04,1.22V271.8z"/>
			</g>
			<g class="st5">
				<path class="st48" d="M243.96,266.76v-1.54h1.17v1.54h1.21v0.92h-1.21v2.55c0,0.43,0.17,0.67,0.54,0.67
					c0.29,0,0.56-0.19,0.56-0.19l0.35,0.83c-0.13,0.08-0.59,0.37-1.15,0.37c-1.04,0-1.47-0.67-1.47-1.66v-2.58h-0.82v-0.92H243.96z"
					/>
				<path class="st48" d="M247.33,264.55h1.19v2.7h0.04c0.31-0.4,0.74-0.6,1.33-0.6c1.14,0,1.86,0.9,1.86,2.27v2.89h-1.17v-2.77
					c0-0.78-0.38-1.38-1.02-1.38c-0.68,0-1.03,0.7-1.03,1.24v2.91h-1.19V264.55z"/>
			</g>
		</g>
	</g>
	<g>
		<defs>
			<rect id="SVGID_139_" y="9.51" width="358.63" height="324.49"/>
		</defs>
		<clipPath id="SVGID_140_">
			<use xlink:href="#SVGID_139_"  style="overflow:visible;"/>
		</clipPath>
		<g class="st63">
			<g class="st5">
				<path class="st48" d="M214.42,296.33c0,0-0.7,0.95-2.16,0.95c-1.92,0-3.25-1.64-3.25-3.75c0-2.13,1.33-3.77,3.25-3.77
					c1.46,0,2.16,0.94,2.16,0.94l-0.38,0.53c0,0-0.66-0.82-1.76-0.82c-1.51,0-2.55,1.42-2.55,3.12c0,1.69,1.04,3.11,2.55,3.11
					c1.1,0,1.76-0.82,1.76-0.82L214.42,296.33z"/>
				<path class="st48" d="M221,291.23l-2.23,3.18h-0.22l-2.23-3.15v5.85h-0.68v-7.2h0.5l2.52,3.6l2.53-3.6h0.49v7.2H221V291.23z"/>
				<path class="st48" d="M227.46,289.91h0.79l-2.41,4.41v2.78h-0.68v-2.78l-2.42-4.41h0.8l1.76,3.38l0.19,0.43h0.02l0.2-0.43
					L227.46,289.91z"/>
				<path class="st48" d="M229.99,293.97l3.54-4.05h0.78v0.13l-2.5,2.83l2.53,4.1v0.13h-0.72c0,0-1.64-2.67-2.28-3.69l-1.35,1.54
					v2.16h-0.68v-7.2h0.68V293.97z"/>
			</g>
		</g>
	</g>
	<g>
		<defs>
			<rect id="SVGID_141_" y="9.51" width="358.63" height="324.49"/>
		</defs>
		<clipPath id="SVGID_142_">
			<use xlink:href="#SVGID_141_"  style="overflow:visible;"/>
		</clipPath>
	</g>
	<g>
		<defs>
			<rect id="SVGID_143_" y="9.51" width="358.63" height="324.49"/>
		</defs>
		<clipPath id="SVGID_144_">
			<use xlink:href="#SVGID_143_"  style="overflow:visible;"/>
		</clipPath>
		<g class="st64">
			<g class="st5">
				<path class="st48" d="M244.72,289.91h2.18v7.2h-0.68v-6.56h-1.5V289.91z"/>
			</g>
			<g class="st5">
				<path class="st48" d="M247.92,298.45l4.91-10.73h0.71l-4.87,10.72L247.92,298.45z"/>
			</g>
			<g class="st5">
				<path class="st48" d="M257.82,293.48v-0.18c-0.36,0.61-1,1.01-1.8,1.01c-1.29,0-2.16-1.02-2.16-2.22c0-1.27,0.89-2.33,2.21-2.33
					c1.37,0,2.43,1.03,2.43,3.72c0,2.58-1.02,3.8-2.48,3.8c-1.33,0-1.86-0.97-1.86-0.97l0.42-0.49c0,0,0.48,0.82,1.44,0.82
					C257.11,296.63,257.89,295.74,257.82,293.48z M257.71,292.11c-0.25-1.22-0.89-1.7-1.64-1.7c-0.89,0-1.52,0.74-1.52,1.68
					c0,0.9,0.6,1.57,1.48,1.57C256.91,293.66,257.57,293.02,257.71,292.11z"/>
			</g>
			<g class="st5">
				<path class="st48" d="M259.59,293.52c0-2.1,0.98-3.77,2.71-3.77c1.73,0,2.7,1.67,2.7,3.77c0,2.09-0.97,3.75-2.7,3.75
					C260.57,297.28,259.59,295.61,259.59,293.52z M264.31,293.52c0-1.7-0.7-3.12-2.01-3.12c-1.33,0-2.03,1.42-2.03,3.12
					c0,1.69,0.7,3.11,2.03,3.11C263.62,296.63,264.31,295.21,264.31,293.52z"/>
			</g>
			<g class="st5">
				<path class="st48" d="M265.42,298.45l4.91-10.73h0.71l-4.87,10.72L265.42,298.45z"/>
			</g>
			<g class="st5">
				<path class="st48" d="M272.49,290.55l-0.05,2.38c0.25-0.06,0.58-0.12,1-0.12c1.52,0,2.32,0.88,2.32,2.17
					c0,1.39-0.85,2.3-2.27,2.3c-1.42,0-2.05-0.98-2.05-0.98l0.42-0.49c0,0,0.55,0.83,1.63,0.83c0.94,0,1.58-0.59,1.58-1.66
					c0-0.95-0.64-1.54-1.66-1.54c-0.92,0-1.46,0.29-1.48,0.3l-0.16-0.12l0.1-3.71h3.57v0.64H272.49z"/>
			</g>
			<g class="st5">
				<path class="st48" d="M276.5,289.91h4.23v0.47l-2.88,6.73h-0.83l2.87-6.56h-3.39V289.91z"/>
			</g>
			<g class="st5">
				<path class="st48" d="M280.35,298.45l4.91-10.73h0.71l-4.87,10.72L280.35,298.45z"/>
			</g>
			<g class="st5">
				<path class="st48" d="M286.22,293.52c0-2.1,0.98-3.77,2.71-3.77c1.73,0,2.7,1.67,2.7,3.77c0,2.09-0.97,3.75-2.7,3.75
					C287.2,297.28,286.22,295.61,286.22,293.52z M290.94,293.52c0-1.7-0.7-3.12-2.01-3.12c-1.33,0-2.03,1.42-2.03,3.12
					c0,1.69,0.7,3.11,2.03,3.11C290.25,296.63,290.94,295.21,290.94,293.52z"/>
			</g>
		</g>
	</g>
	<g>
		<defs>
			<rect id="SVGID_145_" y="9.51" width="358.63" height="324.49"/>
		</defs>
		<clipPath id="SVGID_146_">
			<use xlink:href="#SVGID_145_"  style="overflow:visible;"/>
		</clipPath>
	</g>
	<g>
		<defs>
			<rect id="SVGID_147_" y="9.51" width="358.63" height="324.49"/>
		</defs>
		<clipPath id="SVGID_148_">
			<use xlink:href="#SVGID_147_"  style="overflow:visible;"/>
		</clipPath>
		<g class="st65">
			<g class="st5">
				<path class="st48" d="M211.99,306.71c1.56,0,2.48,0.85,2.48,2.38c0,1.19-0.6,1.96-1.52,2.24v0.04l1.66,2.38v0.17h-0.71
					l-1.73-2.45h-2.01v2.45h-0.68v-7.2H211.99z M211.98,307.35h-1.82v3.48h1.93c0.98,0,1.69-0.56,1.69-1.71
					C213.78,307.94,213.07,307.35,211.98,307.35z"/>
				<path class="st48" d="M220.95,310.66h-2.39v-0.64h3.06v0.47c0,2.19-1.08,3.59-2.89,3.59c-1.98,0-3.21-1.64-3.21-3.75
					c0-2.13,1.27-3.77,3.25-3.77c1.58,0,2.3,0.96,2.3,0.96l-0.4,0.52c0,0-0.67-0.83-1.91-0.83c-1.59,0-2.54,1.42-2.54,3.12
					c0,1.69,0.92,3.11,2.51,3.11c1.32,0,2.22-1.04,2.22-2.67V310.66z"/>
				<path class="st48" d="M225.78,313.91h-2.85v-7.2h2.72c1.37,0,2.21,0.66,2.21,1.94c0,0.82-0.4,1.36-1.02,1.58v0.04
					c0.71,0.2,1.22,0.78,1.22,1.67C228.06,313.29,227.12,313.91,225.78,313.91z M225.63,307.35h-2.03v2.61h2.1
					c0.89,0,1.44-0.49,1.44-1.28C227.15,307.73,226.56,307.35,225.63,307.35z M223.61,310.6v2.67h2.19c0.88,0,1.56-0.43,1.56-1.37
					c0-0.85-0.67-1.31-1.52-1.31H223.61z"/>
			</g>
		</g>
	</g>
	<g>
		<defs>
			<rect id="SVGID_149_" y="9.51" width="358.63" height="324.49"/>
		</defs>
		<clipPath id="SVGID_150_">
			<use xlink:href="#SVGID_149_"  style="overflow:visible;"/>
		</clipPath>
	</g>
	<g>
		<defs>
			<rect id="SVGID_151_" y="9.51" width="358.63" height="324.49"/>
		</defs>
		<clipPath id="SVGID_152_">
			<use xlink:href="#SVGID_151_"  style="overflow:visible;"/>
		</clipPath>
		<g class="st66">
			<g class="st5">
				<path class="st48" d="M245.06,313.44l2.78-3.18c0.53-0.59,0.68-0.98,0.68-1.54c0-0.88-0.56-1.52-1.46-1.52
					c-1,0-1.66,0.86-1.69,0.9l-0.38-0.53c0,0,0.77-1.02,2.09-1.02c1.4,0,2.15,0.91,2.15,2.15c0,0.7-0.18,1.21-0.71,1.83l-2.41,2.73
					h3.29v0.64h-4.33V313.44z"/>
				<path class="st48" d="M251.6,309.76l2.01-2.41h-3.18v-0.64h4.09v0.56l-2.1,2.47h0.06c1.36-0.02,2.15,0.76,2.15,2.11
					c0,1.24-0.83,2.21-2.25,2.21c-1.44,0-2.08-0.98-2.08-0.98l0.4-0.49c0,0,0.56,0.84,1.67,0.84c0.97,0,1.57-0.7,1.57-1.57
					c0-0.97-0.55-1.54-1.58-1.54h-0.75V309.76z"/>
			</g>
			<g class="st5">
				<path class="st48" d="M255.7,310.32c0-2.1,0.98-3.77,2.71-3.77c1.73,0,2.7,1.67,2.7,3.77c0,2.09-0.97,3.75-2.7,3.75
					C256.68,314.08,255.7,312.41,255.7,310.32z M260.42,310.32c0-1.7-0.7-3.12-2.01-3.12c-1.33,0-2.03,1.42-2.03,3.12
					c0,1.69,0.7,3.11,2.03,3.11C259.73,313.43,260.42,312.01,260.42,310.32z"/>
			</g>
			<g class="st5">
				<path class="st48" d="M261.53,315.25l4.91-10.73h0.71l-4.87,10.72L261.53,315.25z"/>
			</g>
			<g class="st5">
				<path class="st48" d="M268.6,307.35l-0.05,2.38c0.25-0.06,0.58-0.12,1-0.12c1.52,0,2.31,0.88,2.31,2.17
					c0,1.39-0.85,2.3-2.27,2.3s-2.05-0.98-2.05-0.98l0.42-0.49c0,0,0.55,0.83,1.63,0.83c0.94,0,1.58-0.59,1.58-1.66
					c0-0.95-0.64-1.54-1.66-1.54c-0.92,0-1.46,0.29-1.47,0.3l-0.16-0.12l0.1-3.71h3.57v0.64H268.6z"/>
				<path class="st48" d="M272.82,313.44l2.78-3.18c0.53-0.59,0.68-0.98,0.68-1.54c0-0.88-0.56-1.52-1.46-1.52
					c-1,0-1.66,0.86-1.69,0.9l-0.38-0.53c0,0,0.77-1.02,2.09-1.02c1.4,0,2.15,0.91,2.15,2.15c0,0.7-0.18,1.21-0.71,1.83l-2.41,2.73
					h3.29v0.64h-4.33V313.44z"/>
				<path class="st48" d="M277.85,315.25l4.91-10.73h0.71l-4.87,10.72L277.85,315.25z"/>
				<path class="st48" d="M284.01,306.71h4.23v0.47l-2.88,6.73h-0.83l2.87-6.56h-3.39V306.71z"/>
				<path class="st48" d="M292.79,310.28v-0.18c-0.36,0.61-1,1.01-1.8,1.01c-1.29,0-2.16-1.02-2.16-2.22c0-1.27,0.89-2.33,2.21-2.33
					c1.37,0,2.43,1.03,2.43,3.72c0,2.58-1.02,3.8-2.48,3.8c-1.33,0-1.86-0.97-1.86-0.97l0.42-0.49c0,0,0.48,0.82,1.44,0.82
					C292.08,313.43,292.86,312.54,292.79,310.28z M292.68,308.91c-0.25-1.22-0.89-1.7-1.64-1.7c-0.89,0-1.52,0.74-1.52,1.68
					c0,0.9,0.6,1.57,1.48,1.57C291.88,310.46,292.54,309.82,292.68,308.91z"/>
			</g>
		</g>
	</g>
	<g>
		<defs>
			<rect id="SVGID_153_" y="9.51" width="358.63" height="324.49"/>
		</defs>
		<clipPath id="SVGID_154_">
			<use xlink:href="#SVGID_153_"  style="overflow:visible;"/>
		</clipPath>
	</g>
	<g>
		<defs>
			<rect id="SVGID_155_" y="9.51" width="358.63" height="324.49"/>
		</defs>
		<clipPath id="SVGID_156_">
			<use xlink:href="#SVGID_155_"  style="overflow:visible;"/>
		</clipPath>
		<g class="st67">
			<g class="st5">
				<path class="st48" d="M214.64,330.71h-0.68v-3.25h-3.8v3.25h-0.68v-7.2h0.68v3.31h3.8v-3.31h0.68V330.71z"/>
				<path class="st48" d="M220.46,327.39h-3.31v2.69h3.86v0.64h-4.55v-7.2h4.55v0.64h-3.86v2.6h3.31V327.39z"/>
				<path class="st48" d="M224.79,327.02l2.21,3.69h-0.82l-1.64-2.81l-0.23-0.47l-0.25,0.47l-1.62,2.81h-0.8l2.17-3.69l-2.1-3.5
					h0.83l1.57,2.7l0.2,0.41l0.22-0.41l1.57-2.7h0.8L224.79,327.02z"/>
			</g>
		</g>
	</g>
	<g>
		<defs>
			<rect id="SVGID_157_" y="9.51" width="358.63" height="324.49"/>
		</defs>
		<clipPath id="SVGID_158_">
			<use xlink:href="#SVGID_157_"  style="overflow:visible;"/>
		</clipPath>
	</g>
	<g>
		<defs>
			<rect id="SVGID_159_" y="9.51" width="358.63" height="324.49"/>
		</defs>
		<clipPath id="SVGID_160_">
			<use xlink:href="#SVGID_159_"  style="overflow:visible;"/>
		</clipPath>
		<g class="st68">
			<g class="st5">
				<path class="st48" d="M249.54,325.7h1.29l-0.1,0.47h-1.29l-0.42,2.13h1.25l-0.08,0.46h-1.25l-0.38,1.96h-0.47l0.38-1.96h-1.77
					l-0.38,1.96h-0.48l0.38-1.96h-1.29l0.1-0.46h1.28l0.42-2.13h-1.25l0.1-0.47h1.25l0.4-1.98h0.47l-0.4,1.98h1.77l0.4-1.98h0.48
					L249.54,325.7z M246.78,328.3h1.77l0.42-2.13h-1.77L246.78,328.3z"/>
				<path class="st48" d="M256.1,327.39h-3.31v2.69h3.86v0.64h-4.54v-7.2h4.54v0.64h-3.86v2.6h3.31V327.39z"/>
				<path class="st48" d="M258.33,327.3c0.35-0.61,0.98-1.02,1.8-1.02c1.31,0,2.16,1.03,2.16,2.24c0,1.24-0.9,2.3-2.21,2.3
					c-1.36,0-2.44-1.03-2.44-3.67c0-2.59,1.13-3.8,2.58-3.8c1.36,0,1.86,1.02,1.86,1.02l-0.41,0.49c0,0-0.48-0.86-1.45-0.86
					c-1.08,0-1.9,0.85-1.9,3.14V327.3z M258.44,328.54c0.24,1.2,0.89,1.64,1.64,1.64c0.89,0,1.52-0.72,1.52-1.66
					c0-0.91-0.59-1.6-1.49-1.6C259.22,326.93,258.55,327.6,258.44,328.54z"/>
				<path class="st48" d="M264.49,326.56l2.02-2.41h-3.18v-0.64h4.09v0.56l-2.1,2.47h0.06c1.36-0.02,2.15,0.76,2.15,2.11
					c0,1.24-0.83,2.21-2.26,2.21c-1.44,0-2.07-0.98-2.07-0.98l0.4-0.49c0,0,0.56,0.84,1.67,0.84c0.97,0,1.57-0.7,1.57-1.57
					c0-0.97-0.55-1.54-1.58-1.54h-0.76V326.56z"/>
				<path class="st48" d="M268.32,328.44l3.68-4.93h0.5v4.81h1.14v0.64h-1.14v1.75h-0.67v-1.75h-3.51V328.44z M269.23,328.32h2.6
					v-3.56l-2.46,3.41c-0.05,0.05-0.14,0.12-0.14,0.12V328.32z"/>
				<path class="st48" d="M274.22,328.44l3.68-4.93h0.5v4.81h1.14v0.64h-1.14v1.75h-0.67v-1.75h-3.51V328.44z M275.13,328.32h2.6
					v-3.56l-2.46,3.41c-0.05,0.05-0.14,0.12-0.14,0.12V328.32z"/>
				<path class="st48" d="M281.6,326.24v4.47h-0.67v-4.47h-0.84v-0.56h0.84v-0.6c0-1.07,0.59-1.7,1.52-1.7c0.59,0,0.91,0.2,0.91,0.2
					l-0.2,0.55c0,0-0.3-0.16-0.71-0.16c-0.5,0-0.85,0.37-0.85,1.09v0.61h1.36v0.56H281.6z"/>
			</g>
		</g>
	</g>
</g>
</svg>
