<?xml version="1.0" encoding="utf-8"?>
<!-- Generator: Adobe Illustrator 23.0.3, SVG Export Plug-In . SVG Version: 6.00 Build 0)  -->
<svg version="1.1" id="Layer_1" xmlns="http://www.w3.org/2000/svg" xmlns:xlink="http://www.w3.org/1999/xlink" x="0px" y="0px"
	 viewBox="0 0 366 341" style="enable-background:new 0 0 366 341;" xml:space="preserve">
<style type="text/css">
	.st0{clip-path:url(#SVGID_2_);fill:#12263C;}
	.st1{clip-path:url(#SVGID_2_);}
	.st2{opacity:0.8;clip-path:url(#SVGID_4_);}
	.st3{clip-path:url(#SVGID_6_);fill:#12263C;}
	.st4{fill:#FFFFFF;}
	.st5{font-family:'TextaNarrow-Book';}
	.st6{font-size:12px;}
	.st7{opacity:0.9;clip-path:url(#SVGID_8_);}
	.st8{clip-path:url(#SVGID_10_);}
	.st9{opacity:0.3;clip-path:url(#SVGID_8_);}
	.st10{clip-path:url(#SVGID_12_);fill:#12263C;}
	.st11{opacity:0.2;clip-path:url(#SVGID_8_);}
	.st12{clip-path:url(#SVGID_14_);fill:#12263C;}
	.st13{opacity:0.15;clip-path:url(#SVGID_8_);}
	.st14{clip-path:url(#SVGID_16_);fill:#12263C;}
	.st15{opacity:0.1;clip-path:url(#SVGID_8_);}
	.st16{clip-path:url(#SVGID_18_);fill:#12263C;}
	.st17{opacity:0.05;clip-path:url(#SVGID_8_);}
	.st18{clip-path:url(#SVGID_20_);fill:#12263C;}
	.st19{opacity:0.55;clip-path:url(#SVGID_8_);}
	.st20{clip-path:url(#SVGID_22_);}
	.st21{fill:#12263C;}
	.st22{opacity:0.45;clip-path:url(#SVGID_8_);}
	.st23{clip-path:url(#SVGID_24_);}
	.st24{opacity:0.4;clip-path:url(#SVGID_8_);}
	.st25{clip-path:url(#SVGID_26_);}
	.st26{opacity:0.35;clip-path:url(#SVGID_8_);}
	.st27{clip-path:url(#SVGID_28_);}
	.st28{clip-path:url(#SVGID_30_);}
	.st29{clip-path:url(#SVGID_2_);fill:#23508A;}
	.st30{opacity:0.8;clip-path:url(#SVGID_32_);}
	.st31{clip-path:url(#SVGID_34_);fill:#4F74A1;}
	.st32{opacity:0.8;clip-path:url(#SVGID_36_);}
	.st33{clip-path:url(#SVGID_38_);}
	.st34{clip-path:url(#SVGID_2_);fill:#E7344F;}
	.st35{opacity:0.8;clip-path:url(#SVGID_40_);}
	.st36{clip-path:url(#SVGID_42_);fill:#EB5C72;}
	.st37{opacity:0.8;clip-path:url(#SVGID_44_);}
	.st38{clip-path:url(#SVGID_46_);}
	.st39{fill:#353F56;}
	.st40{font-family:'TextaNarrow-Bold';}
</style>
<g>
	<defs>
		<rect id="SVGID_1_" y="9.51" width="358.63" height="324.49"/>
	</defs>
	<clipPath id="SVGID_2_">
		<use xlink:href="#SVGID_1_"  style="overflow:visible;"/>
	</clipPath>
	<rect x="9" y="9.51" class="st0" width="100.05" height="50.02"/>
	<g class="st1">
		<defs>
			<rect id="SVGID_3_" y="9.51" width="358.63" height="324.49"/>
		</defs>
		<clipPath id="SVGID_4_">
			<use xlink:href="#SVGID_3_"  style="overflow:visible;"/>
		</clipPath>
		<g class="st2">
			<g>
				<defs>
					<rect id="SVGID_5_" x="100.05" y="2.51" width="68.02" height="58.02"/>
				</defs>
				<clipPath id="SVGID_6_">
					<use xlink:href="#SVGID_5_"  style="overflow:visible;"/>
				</clipPath>
				<rect x="109.05" y="9.51" class="st3" width="50.02" height="50.02"/>
			</g>
		</g>
	</g>
	<g class="st1">
		<text transform="matrix(1 0 0 1 78.8242 52.4473)" class="st4 st5 st6">100%</text>
	</g>
	<g class="st1">
		<defs>
			<rect id="SVGID_7_" y="9.51" width="358.63" height="324.49"/>
		</defs>
		<clipPath id="SVGID_8_">
			<use xlink:href="#SVGID_7_"  style="overflow:visible;"/>
		</clipPath>
		<g class="st7">
			<g>
				<defs>
					<rect id="SVGID_9_" x="123.82" y="36.45" width="39.88" height="19.3"/>
				</defs>
				<clipPath id="SVGID_10_">
					<use xlink:href="#SVGID_9_"  style="overflow:visible;"/>
				</clipPath>
				<g class="st8">
					<text transform="matrix(1 0 0 1 132.8193 52.4473)" class="st4 st5 st6">80%</text>
				</g>
			</g>
		</g>
		<g class="st9">
			<g>
				<defs>
					<rect id="SVGID_11_" x="175.08" y="2.51" width="52.91" height="58.02"/>
				</defs>
				<clipPath id="SVGID_12_">
					<use xlink:href="#SVGID_11_"  style="overflow:visible;"/>
				</clipPath>
				<rect x="184.08" y="9.51" class="st10" width="34.91" height="50.02"/>
			</g>
		</g>
		<g class="st11">
			<g>
				<defs>
					<rect id="SVGID_13_" x="209.99" y="2.51" width="52.91" height="58.02"/>
				</defs>
				<clipPath id="SVGID_14_">
					<use xlink:href="#SVGID_13_"  style="overflow:visible;"/>
				</clipPath>
				<rect x="218.99" y="9.51" class="st12" width="34.91" height="50.02"/>
			</g>
		</g>
		<g class="st13">
			<g>
				<defs>
					<rect id="SVGID_15_" x="244.9" y="2.51" width="52.91" height="58.02"/>
				</defs>
				<clipPath id="SVGID_16_">
					<use xlink:href="#SVGID_15_"  style="overflow:visible;"/>
				</clipPath>
				<rect x="253.9" y="9.51" class="st14" width="34.91" height="50.02"/>
			</g>
		</g>
		<g class="st15">
			<g>
				<defs>
					<rect id="SVGID_17_" x="279.81" y="2.51" width="52.91" height="58.02"/>
				</defs>
				<clipPath id="SVGID_18_">
					<use xlink:href="#SVGID_17_"  style="overflow:visible;"/>
				</clipPath>
				<rect x="288.81" y="9.51" class="st16" width="34.91" height="50.02"/>
			</g>
		</g>
		<g class="st17">
			<g>
				<defs>
					<rect id="SVGID_19_" x="314.72" y="2.51" width="52.91" height="58.02"/>
				</defs>
				<clipPath id="SVGID_20_">
					<use xlink:href="#SVGID_19_"  style="overflow:visible;"/>
				</clipPath>
				<rect x="323.72" y="9.51" class="st18" width="34.91" height="50.02"/>
			</g>
		</g>
		<g class="st19">
			<g>
				<defs>
					<rect id="SVGID_21_" x="185.88" y="36.45" width="39.93" height="19.3"/>
				</defs>
				<clipPath id="SVGID_22_">
					<use xlink:href="#SVGID_21_"  style="overflow:visible;"/>
				</clipPath>
				<g class="st20">
					<text transform="matrix(1 0 0 1 195.2056 52.4473)" class="st21 st5 st6">30%</text>
				</g>
			</g>
		</g>
		<g class="st22">
			<g>
				<defs>
					<rect id="SVGID_23_" x="216.82" y="36.45" width="43.9" height="19.3"/>
				</defs>
				<clipPath id="SVGID_24_">
					<use xlink:href="#SVGID_23_"  style="overflow:visible;"/>
				</clipPath>
				<g class="st23">
					<text transform="matrix(1 0 0 1 230.1152 52.4473)" class="st21 st5 st6">20%</text>
				</g>
			</g>
		</g>
		<g class="st24">
			<g>
				<defs>
					<rect id="SVGID_25_" x="251.73" y="36.45" width="43.9" height="19.3"/>
				</defs>
				<clipPath id="SVGID_26_">
					<use xlink:href="#SVGID_25_"  style="overflow:visible;"/>
				</clipPath>
				<g class="st25">
					<text transform="matrix(1 0 0 1 268.4565 52.4473)" class="st21 st5 st6">15%</text>
				</g>
			</g>
		</g>
		<g class="st26">
			<g>
				<defs>
					<rect id="SVGID_27_" x="290.61" y="36.45" width="39.93" height="19.3"/>
				</defs>
				<clipPath id="SVGID_28_">
					<use xlink:href="#SVGID_27_"  style="overflow:visible;"/>
				</clipPath>
				<g class="st27">
					<text transform="matrix(1 0 0 1 302.106 52.4473)" class="st21 st5 st6">10%</text>
				</g>
			</g>
		</g>
		<g class="st9">
			<g>
				<defs>
					<rect id="SVGID_29_" x="331.31" y="36.45" width="34.14" height="19.3"/>
				</defs>
				<clipPath id="SVGID_30_">
					<use xlink:href="#SVGID_29_"  style="overflow:visible;"/>
				</clipPath>
				<g class="st28">
					<text transform="matrix(1 0 0 1 341.4072 52.4473)" class="st21 st5 st6">5%</text>
				</g>
			</g>
		</g>
	</g>
	<rect x="9" y="191.51" class="st29" width="100.05" height="50.02"/>
	<g class="st1">
		<defs>
			<rect id="SVGID_31_" y="9.51" width="358.63" height="324.49"/>
		</defs>
		<clipPath id="SVGID_32_">
			<use xlink:href="#SVGID_31_"  style="overflow:visible;"/>
		</clipPath>
		<g class="st30">
			<g>
				<defs>
					<rect id="SVGID_33_" x="100.05" y="184.51" width="68.02" height="58.02"/>
				</defs>
				<clipPath id="SVGID_34_">
					<use xlink:href="#SVGID_33_"  style="overflow:visible;"/>
				</clipPath>
				<rect x="109.05" y="191.51" class="st31" width="50.02" height="50.02"/>
			</g>
		</g>
	</g>
	<g class="st1">
		<text transform="matrix(1 0 0 1 78.8242 234.4453)" class="st4 st5 st6">100%</text>
	</g>
	<g class="st1">
		<defs>
			<rect id="SVGID_35_" y="9.51" width="358.63" height="324.49"/>
		</defs>
		<clipPath id="SVGID_36_">
			<use xlink:href="#SVGID_35_"  style="overflow:visible;"/>
		</clipPath>
		<g class="st32">
			<g>
				<defs>
					<rect id="SVGID_37_" x="123.82" y="218.45" width="39.88" height="19.3"/>
				</defs>
				<clipPath id="SVGID_38_">
					<use xlink:href="#SVGID_37_"  style="overflow:visible;"/>
				</clipPath>
				<g class="st33">
					<text transform="matrix(1 0 0 1 132.8193 234.4453)" class="st4 st5 st6">80%</text>
				</g>
			</g>
		</g>
	</g>
	<rect x="208.56" y="191.51" class="st34" width="100.05" height="50.02"/>
	<g class="st1">
		<defs>
			<rect id="SVGID_39_" y="9.51" width="358.63" height="324.49"/>
		</defs>
		<clipPath id="SVGID_40_">
			<use xlink:href="#SVGID_39_"  style="overflow:visible;"/>
		</clipPath>
		<g class="st35">
			<g>
				<defs>
					<rect id="SVGID_41_" x="299.61" y="184.51" width="68.02" height="58.02"/>
				</defs>
				<clipPath id="SVGID_42_">
					<use xlink:href="#SVGID_41_"  style="overflow:visible;"/>
				</clipPath>
				<rect x="308.61" y="191.51" class="st36" width="50.02" height="50.02"/>
			</g>
		</g>
	</g>
	<g class="st1">
		<text transform="matrix(1 0 0 1 278.3833 234.4453)" class="st4 st5 st6">100%</text>
	</g>
	<g class="st1">
		<defs>
			<rect id="SVGID_43_" y="9.51" width="358.63" height="324.49"/>
		</defs>
		<clipPath id="SVGID_44_">
			<use xlink:href="#SVGID_43_"  style="overflow:visible;"/>
		</clipPath>
		<g class="st37">
			<g>
				<defs>
					<rect id="SVGID_45_" x="323.38" y="218.45" width="39.88" height="19.3"/>
				</defs>
				<clipPath id="SVGID_46_">
					<use xlink:href="#SVGID_45_"  style="overflow:visible;"/>
				</clipPath>
				<g class="st38">
					<text transform="matrix(1 0 0 1 332.3784 234.4453)" class="st4 st5 st6">80%</text>
				</g>
			</g>
		</g>
	</g>
	<g class="st1">
		<text transform="matrix(1 0 0 1 9 90.0859)"><tspan x="0" y="0" class="st39 st40 st6">Y</tspan><tspan x="4.97" y="0" class="st39 st40 st6">an</tspan><tspan x="15.71" y="0" class="st39 st40 st6">k</tspan><tspan x="20.56" y="0" class="st39 st40 st6">ees Blue</tspan></text>
	</g>
	<g class="st1">
		<text transform="matrix(1 0 0 1 9 115.3936)" class="st39 st5 st6">CMYK</text>
	</g>
	<g class="st1">
		<text transform="matrix(1 0 0 1 34.9683 115.3936)" class="st39 st5 st6"> </text>
	</g>
	<g class="st1">
		<text transform="matrix(1 0 0 1 45 115.3936)"><tspan x="0" y="0" class="st39 st5 st6">10</tspan><tspan x="9.6" y="0" class="st39 st5 st6">0</tspan><tspan x="15.73" y="0" class="st39 st5 st6">/</tspan><tspan x="21.41" y="0" class="st39 st5 st6">82</tspan><tspan x="32.29" y="0" class="st39 st5 st6">/</tspan><tspan x="37.48" y="0" class="st39 st5 st6">4</tspan><tspan x="43.38" y="0" class="st39 st5 st6">6</tspan><tspan x="48.83" y="0" class="st39 st5 st6">/</tspan><tspan x="54.63" y="0" class="st39 st5 st6">55</tspan></text>
	</g>
	<g class="st1">
		<text transform="matrix(1 0 0 1 110.0034 115.3936)" class="st39 st5 st6"> </text>
	</g>
	<g class="st1">
		<text transform="matrix(1 0 0 1 9 132.1934)" class="st39 st5 st6">RGB</text>
	</g>
	<g class="st1">
		<text transform="matrix(1 0 0 1 29.0039 132.1934)" class="st39 st5 st6"> </text>
	</g>
	<g class="st1">
		<text transform="matrix(1 0 0 1 45 132.1934)"><tspan x="0" y="0" class="st39 st5 st6">1</tspan><tspan x="3.13" y="0" class="st39 st5 st6">8</tspan><tspan x="8.52" y="0" class="st39 st5 st6">/3</tspan><tspan x="19.91" y="0" class="st39 st5 st6">7</tspan><tspan x="23.82" y="0" class="st39 st5 st6">/</tspan><tspan x="29.4" y="0" class="st39 st5 st6">61</tspan></text>
	</g>
	<g class="st1">
		<text transform="matrix(1 0 0 1 83.147 132.1934)" class="st39 st5 st6"> </text>
	</g>
	<g class="st1">
		<text transform="matrix(1 0 0 1 9 148.9932)" class="st39 st5 st6">HEX</text>
	</g>
	<g class="st1">
		<text transform="matrix(1 0 0 1 27.5996 148.9932)" class="st39 st5 st6"> </text>
	</g>
	<g class="st1">
		<text transform="matrix(1 0 0 1 45 148.9932)" class="st39 st5 st6">#12253D</text>
	</g>
	<g class="st1">
		<text transform="matrix(1 0 0 1 9 271.8018)"><tspan x="0" y="0" class="st39 st40 st6">Y</tspan><tspan x="4.97" y="0" class="st39 st40 st6">ale Blue</tspan></text>
	</g>
	<g class="st1">
		<text transform="matrix(1 0 0 1 9 297.1094)" class="st39 st5 st6">CMYK</text>
	</g>
	<g class="st1">
		<text transform="matrix(1 0 0 1 34.9683 297.1094)" class="st39 st5 st6"> </text>
	</g>
	<g class="st1">
		<text transform="matrix(1 0 0 1 45 297.1094)"><tspan x="0" y="0" class="st39 st5 st6">93</tspan><tspan x="10.93" y="0" class="st39 st5 st6">/</tspan><tspan x="16.52" y="0" class="st39 st5 st6">6</tspan><tspan x="22.16" y="0" class="st39 st5 st6">9</tspan><tspan x="27.47" y="0" class="st39 st5 st6">/1</tspan><tspan x="36.68" y="0" class="st39 st5 st6">9</tspan><tspan x="41.99" y="0" class="st39 st5 st6">/</tspan><tspan x="47.18" y="0" class="st39 st5 st6">4</tspan></text>
	</g>
	<g class="st1">
		<text transform="matrix(1 0 0 1 98.063 297.1094)" class="st39 st5 st6"> </text>
	</g>
	<g class="st1">
		<text transform="matrix(1 0 0 1 9 313.9092)" class="st39 st5 st6">RGB</text>
	</g>
	<g class="st1">
		<text transform="matrix(1 0 0 1 29.0039 313.9092)" class="st39 st5 st6"> </text>
	</g>
	<g class="st1">
		<text transform="matrix(1 0 0 1 45 313.9092)"><tspan x="0" y="0" class="st39 st5 st6">3</tspan><tspan x="5.3" y="0" class="st39 st5 st6">4</tspan><tspan x="11.04" y="0" class="st39 st5 st6">/</tspan><tspan x="16.72" y="0" class="st39 st5 st6">8</tspan><tspan x="22.3" y="0" class="st39 st5 st6">0</tspan><tspan x="28.43" y="0" class="st39 st5 st6">/137</tspan></text>
	</g>
	<g class="st1">
		<text transform="matrix(1 0 0 1 92.6045 313.9092)" class="st39 st5 st6"> </text>
	</g>
	<g class="st1">
		<text transform="matrix(1 0 0 1 9 330.71)" class="st39 st5 st6">HEX</text>
	</g>
	<g class="st1">
		<text transform="matrix(1 0 0 1 27.5996 330.71)" class="st39 st5 st6"> </text>
	</g>
	<g class="st1">
		<text transform="matrix(1 0 0 1 45 330.71)"><tspan x="0" y="0" class="st39 st5 st6">#</tspan><tspan x="6.62" y="0" class="st39 st5 st6">225089</tspan></text>
	</g>
	<g class="st1">
		<text transform="matrix(1 0 0 1 208.5601 271.8018)"><tspan x="0" y="0" class="st39 st40 st6">Ama</tspan><tspan x="20.47" y="0" class="st39 st40 st6">r</tspan><tspan x="23.72" y="0" class="st39 st40 st6">a</tspan><tspan x="28.82" y="0" class="st39 st40 st6">n</tspan><tspan x="34.43" y="0" class="st39 st40 st6">th</tspan></text>
	</g>
	<g class="st1">
		<text transform="matrix(1 0 0 1 208.5601 297.1094)" class="st39 st5 st6">CMYK</text>
	</g>
	<g class="st1">
		<text transform="matrix(1 0 0 1 234.5283 297.1094)" class="st39 st5 st6"> </text>
	</g>
	<g class="st1">
		<text transform="matrix(1 0 0 1 244.5601 297.1094)"><tspan x="0" y="0" class="st39 st5 st6">1</tspan><tspan x="3.13" y="0" class="st39 st5 st6">/</tspan><tspan x="8.87" y="0" class="st39 st5 st6">9</tspan><tspan x="14.5" y="0" class="st39 st5 st6">0</tspan><tspan x="20.63" y="0" class="st39 st5 st6">/</tspan><tspan x="26.44" y="0" class="st39 st5 st6">5</tspan><tspan x="31.64" y="0" class="st39 st5 st6">7</tspan><tspan x="35.56" y="0" class="st39 st5 st6">/</tspan><tspan x="41.13" y="0" class="st39 st5 st6">0</tspan></text>
	</g>
	<g class="st1">
		<text transform="matrix(1 0 0 1 292.1152 297.1094)" class="st39 st5 st6"> </text>
	</g>
	<g class="st1">
		<text transform="matrix(1 0 0 1 208.5601 313.9092)" class="st39 st5 st6">RGB</text>
	</g>
	<g class="st1">
		<text transform="matrix(1 0 0 1 228.564 313.9092)" class="st39 st5 st6"> </text>
	</g>
	<g class="st1">
		<text transform="matrix(1 0 0 1 244.5601 313.9092)"><tspan x="0" y="0" class="st39 st5 st6">23</tspan><tspan x="10.61" y="0" class="st39 st5 st6">0</tspan><tspan x="16.74" y="0" class="st39 st5 st6">/</tspan><tspan x="22.55" y="0" class="st39 st5 st6">52/79</tspan></text>
	</g>
	<g class="st1">
		<text transform="matrix(1 0 0 1 294 313.9092)" class="st39 st5 st6"> </text>
	</g>
	<g class="st1">
		<text transform="matrix(1 0 0 1 208.5601 330.71)" class="st39 st5 st6">HEX</text>
	</g>
	<g class="st1">
		<text transform="matrix(1 0 0 1 227.1597 330.71)" class="st39 st5 st6"> </text>
	</g>
	<g class="st1">
		<text transform="matrix(1 0 0 1 244.5596 330.71)" class="st39 st5 st6">#E6344f</text>
	</g>
</g>
</svg>
