<?xml version="1.0" encoding="utf-8"?>
<!-- Generator: Adobe Illustrator 23.0.3, SVG Export Plug-In . SVG Version: 6.00 Build 0)  -->
<svg version="1.1" id="Layer_1" xmlns="http://www.w3.org/2000/svg" xmlns:xlink="http://www.w3.org/1999/xlink" x="0px" y="0px"
	 viewBox="0 0 350 218" style="enable-background:new 0 0 350 218;" xml:space="preserve">
<style type="text/css">
	.st0{opacity:0.2;fill:#FFFFFF;enable-background:new    ;}
	.st1{opacity:0.2;}
	.st2{fill:#FFFFFF;}
	.st3{opacity:0.3;}
	.st4{opacity:0.18;}
	.st5{opacity:0.18;fill:#FFFFFF;enable-background:new    ;}
	.st6{opacity:0.38;}
	.st7{opacity:0.38;fill:#FFFFFF;enable-background:new    ;}
	.st8{opacity:0.5;fill:#FFFFFF;enable-background:new    ;}
	.st9{opacity:0.7;fill:#FFFFFF;enable-background:new    ;}
</style>
<path class="st0" d="M185.95,37.56c17.31,0,26.78-14.34,26.78-26.77c0-0.41-0.01-0.81-0.03-1.22c1.84-1.33,3.43-2.99,4.69-4.87
	c-1.69,0.75-3.5,1.25-5.4,1.48c1.95-1.16,3.43-3.01,4.14-5.2c-1.82,1.08-3.83,1.86-5.97,2.28c-1.72-1.83-4.16-2.97-6.87-2.97
	c-5.2,0-9.41,4.21-9.41,9.41c0,0.74,0.08,1.45,0.25,2.15c-7.82-0.39-14.76-4.14-19.4-9.83c-0.81,1.39-1.27,3.01-1.27,4.73
	c0,3.26,1.66,6.15,4.19,7.83c-1.54-0.05-2.99-0.47-4.26-1.18c0,0.04,0,0.08,0,0.12c0,4.56,3.24,8.36,7.55,9.22
	c-0.79,0.21-1.62,0.33-2.48,0.33c-0.61,0-1.2-0.06-1.77-0.17c1.2,3.74,4.67,6.46,8.79,6.53c-3.22,2.52-7.28,4.03-11.69,4.03
	c-0.76,0-1.51-0.05-2.24-0.13C175.68,36,180.63,37.56,185.95,37.56z"/>
<g class="st1">
	<path class="st2" d="M11.53,6.31H-0.46V18.3h11.99V6.31z"/>
	<path class="st2" d="M24.74,6.31H12.75V18.3h11.99V6.31z"/>
	<path class="st2" d="M107.7,10.88c1.11-0.72,2.54-0.79,3.78-0.44c0.01,0.74,0,1.48,0,2.22c-0.59-0.27-1.29-0.43-1.91-0.17
		c-0.49,0.2-0.79,0.7-0.87,1.2c-0.09,0.64-0.04,1.29-0.05,1.95h3.79c0.01-0.81-0.01-1.64,0.01-2.46c0.85-0.25,1.71-0.52,2.56-0.78
		c0.01,1.08-0.01,2.16,0.01,3.25c0.85-0.01,1.71,0,2.56,0v2.11c-0.85-0.04-1.72-0.01-2.57-0.01v3.63c0.01,0.67-0.04,1.34,0.04,2.01
		c0.05,0.39,0.19,0.83,0.57,1.03c0.61,0.35,1.41,0.2,1.97-0.19v2.12c-0.74,0.33-1.57,0.41-2.37,0.36c-0.76-0.05-1.54-0.32-2.05-0.94
		c-0.58-0.68-0.72-1.61-0.73-2.48c-0.01-1.86,0-3.72,0-5.58h-3.79v8.75h-2.6v-8.72c-0.6-0.01-1.2,0-1.81-0.01v-2.07
		c0.6-0.01,1.2-0.01,1.8,0c0.05-0.92-0.1-1.87,0.18-2.76C106.47,12.08,106.98,11.34,107.7,10.88z"/>
	<path class="st2" d="M52.16,11.03c0.53-0.08,1.09,0.1,1.43,0.5c0.4,0.45,0.48,1.16,0.17,1.68c-0.33,0.59-1.08,0.87-1.72,0.73
		c-0.68-0.12-1.23-0.74-1.2-1.44C50.82,11.77,51.44,11.12,52.16,11.03z"/>
	<path class="st2" d="M32.27,11.36h3.77c1.17,2.98,2.36,5.97,3.53,8.94c0.3,0.74,0.58,1.49,0.89,2.24
		c1.51-3.73,3.04-7.45,4.54-11.18c1.2-0.03,2.42,0,3.63-0.01v15.12c-0.88,0-1.75,0.01-2.61,0c0.01-3.72,0-7.43,0-11.16
		c0-0.16,0-0.34-0.01-0.5c-0.05,0.08-0.1,0.16-0.14,0.24c-1.49,3.81-3.03,7.61-4.52,11.42c-0.61,0.03-1.24,0-1.86,0.01
		c-1.55-3.81-3.08-7.62-4.61-11.44c-0.04-0.08-0.09-0.15-0.12-0.23c-0.04,1.64,0,3.26-0.01,4.89v6.77h-2.48V11.36z"/>
	<path class="st2" d="M59.3,15.62c1.25-0.35,2.6-0.34,3.85,0.01c0.27,0.08,0.5,0.17,0.74,0.32c-0.01,0.83,0,1.66-0.01,2.48
		c-0.84-0.64-1.89-1.04-2.96-0.9c-0.84,0.08-1.64,0.52-2.16,1.2c-0.65,0.84-0.8,1.97-0.69,3c0.09,0.8,0.41,1.62,1.04,2.16
		c0.65,0.58,1.57,0.79,2.42,0.73c0.84-0.1,1.65-0.45,2.33-0.96c0.01,0.78,0,1.57,0,2.35c-1.05,0.63-2.33,0.79-3.54,0.73
		c-1.24-0.06-2.48-0.54-3.38-1.41c-0.98-0.94-1.51-2.29-1.57-3.63c-0.06-1.4,0.23-2.85,1.03-4.02
		C57.09,16.67,58.14,15.97,59.3,15.62z"/>
	<path class="st2" d="M87.64,15.46c1.2-0.21,2.45-0.05,3.59,0.37v2.39c-0.79-0.54-1.76-0.84-2.73-0.8
		c-0.49,0.01-1.01,0.23-1.24,0.69c-0.17,0.45-0.05,1.05,0.37,1.33c0.74,0.49,1.61,0.7,2.37,1.14c0.6,0.34,1.18,0.78,1.48,1.42
		c0.56,1.2,0.33,2.76-0.68,3.65c-0.96,0.89-2.33,1.14-3.61,1.09c-0.91-0.06-1.81-0.24-2.64-0.6v-2.51c0.7,0.5,1.51,0.87,2.35,1.01
		c0.59,0.1,1.24,0.1,1.8-0.16c0.53-0.27,0.63-1.01,0.31-1.47c-0.29-0.35-0.73-0.56-1.13-0.74c-0.76-0.34-1.57-0.63-2.24-1.14
		c-0.48-0.36-0.83-0.89-0.96-1.47c-0.21-0.87-0.14-1.84,0.36-2.59C85.62,16.17,86.62,15.64,87.64,15.46z"/>
	<path class="st2" d="M69.69,15.8c0.72-0.43,1.62-0.47,2.41-0.2v2.6c-0.52-0.33-1.16-0.48-1.76-0.41c-0.74,0.09-1.32,0.65-1.62,1.29
		c-0.33,0.69-0.39,1.45-0.36,2.21v5.18H65.8V15.64c0.85-0.01,1.71-0.01,2.56,0v1.86C68.62,16.83,69.04,16.18,69.69,15.8z"/>
	<path class="st2" d="M51.08,15.64c0.85,0,1.72-0.01,2.57,0c-0.01,3.62,0,7.22,0,10.84h-2.57V15.64z"/>
	<path class="st2" d="M80.34,23.15c-0.25,0.56-0.7,1.03-1.27,1.25c-0.67,0.25-1.42,0.28-2.11,0.09c-0.7-0.19-1.31-0.69-1.62-1.34
		c-0.41-0.83-0.48-1.8-0.39-2.71c0.08-0.83,0.36-1.68,1-2.26c0.47-0.43,1.08-0.64,1.71-0.68c0.78-0.05,1.61,0.16,2.17,0.74
		c0.6,0.59,0.83,1.44,0.89,2.26C80.76,21.39,80.72,22.32,80.34,23.15z M82.85,18.18c-0.45-1-1.27-1.84-2.26-2.29
		c-1.16-0.53-2.48-0.59-3.72-0.44c-1.31,0.16-2.57,0.78-3.41,1.82c-0.76,0.93-1.13,2.12-1.2,3.32c-0.1,1.4,0.12,2.88,0.96,4.05
		c0.7,1,1.81,1.69,3,1.96c0.99,0.21,2.04,0.21,3.04,0c1.17-0.24,2.26-0.88,2.97-1.84c0.7-0.89,1.05-2.02,1.14-3.15
		C83.44,20.43,83.33,19.23,82.85,18.18z"/>
	<path class="st2" d="M101.29,22.16c-0.1,0.56-0.3,1.14-0.67,1.6c-0.38,0.45-0.94,0.73-1.52,0.81c-0.61,0.09-1.28,0.05-1.86-0.2
		c-0.63-0.26-1.12-0.8-1.37-1.43c-0.3-0.74-0.36-1.57-0.3-2.36c0.06-0.77,0.28-1.56,0.79-2.16c0.47-0.57,1.18-0.87,1.89-0.9
		c0.73-0.05,1.52,0.11,2.07,0.61c0.52,0.43,0.8,1.08,0.94,1.72C101.42,20.6,101.42,21.39,101.29,22.16z M103.63,18.47
		c-0.4-1.08-1.2-2.01-2.22-2.52c-1.18-0.59-2.55-0.68-3.86-0.53c-1.04,0.14-2.07,0.53-2.86,1.23c-0.97,0.84-1.55,2.07-1.71,3.33
		c-0.16,1.25-0.1,2.59,0.4,3.77c0.49,1.16,1.47,2.1,2.64,2.56c1.16,0.45,2.44,0.5,3.65,0.31c1.24-0.2,2.42-0.85,3.19-1.86
		c0.82-1.04,1.18-2.39,1.17-3.69C104.04,20.2,103.94,19.31,103.63,18.47z"/>
	<path class="st2" d="M11.53,19.53H-0.46v11.99h11.99V19.53z"/>
	<path class="st2" d="M24.74,19.53H12.75v11.99h11.99V19.53z"/>
</g>
<path class="st0" d="M279.83,32.23c-2.3-0.09-4.18-0.7-5.65-1.83c-0.28-0.21-0.94-0.87-1.17-1.14c-0.6-0.73-1-1.44-1.27-2.22
	c-0.83-2.41-0.4-5.59,1.22-9.07c1.39-2.98,3.54-5.93,7.3-10.03c0.55-0.6,2.2-2.36,2.21-2.36c0.01,0-0.08,0.15-0.2,0.33
	c-0.97,1.59-1.81,3.46-2.26,5.07c-0.73,2.59-0.64,4.82,0.26,6.55c0.62,1.19,1.68,2.22,2.88,2.79c2.09,1,5.16,1.08,8.91,0.24
	c0.26-0.06,13.04-3.35,28.41-7.32c15.37-3.97,27.94-7.21,27.95-7.21c0.01,0.01-35.7,14.83-54.24,22.53c-2.93,1.22-3.72,1.53-5.1,2
	C285.55,31.76,282.39,32.34,279.83,32.23z"/>
<g class="st3">
	<g class="st4">
		<path class="st5" d="M254.17,198.24h-3.3v18.69h3.3V198.24z"/>
	</g>
	<g class="st6">
		<path class="st7" d="M254.17,179.46h-3.3v18.75h3.3V179.46z"/>
	</g>
	<path class="st2" d="M254.17,160.83h-3.3v18.69h3.3V160.83z"/>
	<path class="st2" d="M240.53,163.99c0-1.08-0.78-1.91-1.05-2.15l-0.19,0.04c0.3,0.36,0.8,0.94,0.8,1.75c0,1.53-1.64,2.88-3.5,2.91
		l0.02,0.42c0,0.23-0.02,0.44-0.04,0.65C238.67,167.57,240.53,165.84,240.53,163.99z M237.6,176.79c-0.91,0-1.1-0.08-1.32-0.08
		c-0.15,0-0.3,0.02-0.3,0.23l0.32,0.49c0.21-0.21,0.51-0.26,0.97-0.26c0.21,0,0.53,0.04,0.65,0.06c-0.02,0.1-0.04,0.28-0.04,0.53
		v0.42c0,0.53-0.08,0.82-0.28,1.03l0.21,0.04c0.34,0,0.44-0.17,0.44-1.07c0-0.27,0.02-0.53,0.02-0.59c0.49,0.38,0.97,1.03,0.97,1.5
		c0.15-0.08,0.34-0.32,0.34-0.51c0-0.31-0.55-0.8-1.12-1.39l0.46-0.08c0.44,0,0.82,0.08,1.03,0.32l0.15-0.53
		c0-0.28-0.15-0.25-0.27-0.25c-0.49,0-1.07,0.08-1.49,0.15c-0.15-0.21-1.14-1.53-1.39-2.25l-0.21-0.02c-0.23,0-0.3,0.17-0.36,0.4
		C236.9,175.57,237.43,176.28,237.6,176.79z M232.21,174.91c-0.04-0.23-0.1-0.4-0.36-0.4l-0.25,0.04c-0.26,0.71-1.22,2.04-1.39,2.25
		c-0.42-0.06-1.01-0.15-1.49-0.15c-0.1,0-0.27,0-0.27,0.25l0.15,0.53c0.21-0.25,0.57-0.32,1.03-0.32l0.46,0.08
		c-0.57,0.57-1.1,1.05-1.1,1.39c0,0.19,0.19,0.42,0.34,0.51c0-0.49,0.49-1.14,0.97-1.49c0,0.06,0.02,0.32,0.02,0.59
		c0,0.9,0.08,1.08,0.44,1.08l0.21-0.04c-0.19-0.21-0.27-0.51-0.27-1.03v-0.42c0-0.23-0.02-0.4-0.04-0.53
		c0.12-0.02,0.44-0.06,0.65-0.06c0.46,0,0.76,0.04,0.97,0.25l0.32-0.49c0-0.21-0.15-0.23-0.29-0.23c-0.23,0-0.44,0.08-1.32,0.08
		C231.15,176.28,231.68,175.57,232.21,174.91z M228.5,163.63c0-0.78,0.51-1.37,0.8-1.73l-0.19-0.06c-0.27,0.23-1.05,1.07-1.05,2.15
		c0,1.87,1.87,3.6,4.02,3.62c-0.02-0.21-0.04-0.42-0.04-0.65l0.02-0.42C230.16,166.54,228.5,165.19,228.5,163.63z M234.23,162.18
		c0.1-0.23,0.23-0.48,0.23-0.78c0-0.8-0.67-1.2-1.58-1.2c-0.46,0-0.69,0.15-0.69,0.3l0.21,0.59l0.63-0.17
		C233.68,160.94,234.12,161.61,234.23,162.18z M234.67,161.15c0.53,0.1,0.88-0.57,0.4-0.67c0.06,0.21-0.27,0.38-0.27,0.38l0.04-0.49
		c-0.32-0.15-0.38,0.04-0.4,0.23C234.57,160.76,234.65,160.94,234.67,161.15z M236.38,165.76h0.25c1.47,0,2.95-0.95,2.95-2.19
		c0-0.65-0.3-1.12-0.65-1.62c-0.21,0.04-0.4,0.06-0.57,0.06c-0.67,0-1.03-0.36-1.05-0.71c0-0.31,0.25-0.57,0.65-0.57
		c0.63,0,1.75,0.59,2.91,0.59c-0.12,0.1-0.32,0.19-0.53,0.28c0.65,0.61,1.12,1.41,1.28,2.27l1.75,2.8c0.3,0.46,0.91,1.39,1.85,2.11
		c-1.14,0-1.87,0.02-2.84-1.49l-0.9-1.44c-0.06,0.19-0.15,0.38-0.23,0.55l1.79,2.87c0.3,0.46,0.91,1.39,1.85,2.11
		c-1.14,0-1.87,0.02-2.84-1.49l-1.54-2.46l-0.38,0.36l2.17,3.48c0.29,0.49,0.91,1.39,1.85,2.11c-1.14,0-1.87,0.02-2.85-1.49
		l-2.11-3.39l-0.42,0.25l2.57,4.13c0.3,0.46,0.91,1.39,1.85,2.11c-1.14,0-1.87,0.02-2.84-1.49l-2.65-4.23l-0.49,0.17l2.99,4.8
		c0.29,0.46,0.92,1.39,1.85,2.11c-1.14,0-1.87,0.02-2.85-1.49l-3.18-5.12l-0.1,0.02c-0.08,0.27-0.15,0.55-0.15,0.8
		c0,1.6,1.05,3.03,2.32,4.13l-0.34,0.04c-0.25,0-0.42-0.02-0.55-0.04c0.3,0.67,0.92,1.54,1.24,1.98c0.42-0.06,1.01-0.12,1.41-0.12
		c0.42,0,0.46,0.23,0.46,0.46c0,0.38-0.17,0.67-0.38,0.84c-0.08-0.21-0.23-0.46-0.99-0.46h-0.08c0.23,0.25,0.92,0.82,0.92,1.26
		c0,0.3-0.34,0.76-0.76,0.76l0.02-0.25c0-0.38-0.32-0.8-0.61-1.1v0.19c0,0.86-0.08,1.26-0.63,1.26c-0.27,0-0.47-0.15-0.53-0.19
		c0.36-0.34,0.38-0.59,0.38-1.08v-0.42l0.02-0.36c-0.21-0.04-0.27-0.04-0.44-0.04c0,0-0.78-0.06-0.97,0.34
		c-0.21-0.19-0.53-0.47-0.53-0.78c0-0.21,0.1-0.42,0.51-0.42c0.15,0,0.63,0.1,1.03,0.1c-0.1-0.25-0.59-0.95-1.01-1.47
		c-0.06,0.19-0.17,0.42-0.38,0.59c-0.02-0.31-0.21-1.37-0.74-1.98c-0.06,0.42-0.12,0.84-0.12,1.73c0,2.17,0.53,3.77,1.62,4.07
		c-0.14,0.25-0.44,0.49-0.76,0.49c-0.4,0-0.63-0.46-0.84-0.89c-0.12,0.32-0.44,1.1-0.76,1.1c-0.31,0-0.65-0.78-0.76-1.1
		c-0.23,0.42-0.44,0.89-0.84,0.89c-0.31,0-0.61-0.23-0.76-0.49c1.1-0.29,1.62-1.89,1.62-4.07c-0.04-0.89-0.1-1.3-0.17-1.73
		c-0.53,0.61-0.71,1.67-0.74,1.98c-0.21-0.17-0.32-0.4-0.38-0.59c-0.42,0.51-0.91,1.22-1.01,1.46c0.4,0,0.88-0.1,1.03-0.1
		c0.4,0,0.51,0.23,0.51,0.42c0,0.31-0.32,0.59-0.53,0.78c-0.19-0.38-0.97-0.32-0.97-0.32l-0.42,0.02l0.02,0.36v0.42
		c0,0.49,0.02,0.76,0.38,1.07c-0.06,0.04-0.25,0.19-0.53,0.19c-0.55,0-0.63-0.4-0.63-1.26v-0.19c-0.28,0.29-0.61,0.74-0.61,1.1
		l0.02,0.25c-0.44,0-0.76-0.44-0.76-0.76c0-0.46,0.69-1.01,0.93-1.26h-0.08c-0.76,0-0.92,0.25-0.99,0.44
		c-0.21-0.17-0.38-0.46-0.38-0.84c0-0.21,0.04-0.46,0.46-0.46c0.4,0,0.99,0.06,1.41,0.12c0.29-0.4,0.92-1.26,1.22-1.93
		c-0.12,0.02-0.29,0.04-0.55,0.04l-0.36-0.04c1.26-1.1,2.32-2.5,2.32-4.13c0-0.25-0.06-0.53-0.15-0.8l-0.08-0.02l-3.2,5.12
		c-0.95,1.51-1.71,1.49-2.84,1.49c0.93-0.71,1.56-1.64,1.85-2.11l3.01-4.8l-0.49-0.17l-2.65,4.25c-0.97,1.52-1.71,1.47-2.84,1.47
		c0.94-0.71,1.56-1.62,1.85-2.08l2.57-4.13l-0.42-0.25l-2.1,3.39c-0.97,1.49-1.71,1.47-2.84,1.47c0.95-0.71,1.56-1.62,1.85-2.11
		l2.17-3.47l-0.37-0.39l-1.52,2.46c-0.97,1.51-1.73,1.49-2.84,1.49c0.95-0.72,1.56-1.64,1.85-2.11l1.79-2.86
		c-0.1-0.15-0.19-0.35-0.25-0.53l-0.9,1.43c-0.95,1.52-1.71,1.5-2.84,1.5c0.92-0.71,1.56-1.64,1.85-2.11l1.75-2.79
		c0.17-0.87,0.63-1.66,1.28-2.27c-0.23-0.08-0.42-0.17-0.53-0.26c1.14,0,2.27-0.59,2.91-0.59c0.4,0,0.65,0.23,0.65,0.55
		c-0.02,0.36-0.38,0.71-1.06,0.71c-0.15,0-0.34-0.02-0.57-0.06c-0.36,0.53-0.65,0.97-0.65,1.62c0,1.22,1.47,2.19,2.95,2.19h0.25
		c0.29-0.99,0.92-1.64,1.41-2.28c-0.59-0.21-1.26-0.78-1.26-1.03l1.35,0.36h0.08l0.25-0.27c-0.12-0.02-0.84-0.1-1.32-0.3
		c-0.4-0.17-0.59-0.4-0.59-0.51c0.12-0.02,0.57,0.21,1.24,0.21c0.25,0,0.3-0.02,0.55-0.04c-0.17-0.4-0.51-0.74-0.86-0.74
		c-0.15,0-0.46,0.08-0.74,0.23c-0.17-0.29-0.34-0.67-0.34-0.88c0-0.25,0.25-0.53,0.92-0.53c0.19,0,0.38,0.02,0.53,0.04l0.38,0.1
		l-0.01-0.08c0-0.1,0.08-0.21,0.4-0.21c0.57,0,1.14,0.19,1.85,0.19c0.19,0,0.32,0,0.42-0.04l-0.42,0.51c0.1,0.15,0.4,0.53,0.4,1.12
		c0,0.97-0.63,1.77-0.63,2.74C235.81,164.93,236.25,165.44,236.38,165.76z"/>
	<path class="st2" d="M347.98,163.8c0.15,0.22,0.22,0.53,0.24,0.95l0.02,0.44h-1.91c0.03-0.65,0.12-1.1,0.27-1.34
		c0.15-0.24,0.39-0.37,0.71-0.37C347.62,163.48,347.84,163.6,347.98,163.8z M346.33,165.86h2.75v-0.27c0-0.6-0.03-1.07-0.11-1.44
		c-0.08-0.37-0.24-0.68-0.5-0.94c-0.26-0.26-0.64-0.4-1.15-0.4c-0.58,0-1.03,0.26-1.35,0.79c-0.31,0.53-0.47,1.26-0.47,2.18
		c0,0.99,0.14,1.73,0.45,2.23c0.3,0.5,0.76,0.75,1.38,0.75c0.52,0,0.94-0.17,1.24-0.51c0.31-0.34,0.46-0.8,0.46-1.39v-0.13h-0.75
		v0.17c0,0.38-0.08,0.66-0.24,0.87c-0.16,0.21-0.4,0.31-0.69,0.31c-0.35,0-0.6-0.14-0.77-0.42c-0.17-0.28-0.25-0.73-0.25-1.36
		V165.86z M343.41,163.8c0.15,0.21,0.23,0.52,0.24,0.94h0.75c0-0.59-0.15-1.06-0.45-1.41c-0.3-0.35-0.71-0.53-1.23-0.53
		c-0.67,0-1.15,0.24-1.47,0.73c-0.32,0.49-0.48,1.28-0.48,2.36c0,1.03,0.16,1.76,0.49,2.2c0.33,0.44,0.82,0.66,1.47,0.66
		c0.53,0,0.94-0.18,1.24-0.54c0.28-0.36,0.44-0.89,0.47-1.58h-0.76c-0.02,0.52-0.1,0.9-0.26,1.12c-0.15,0.22-0.4,0.33-0.74,0.33
		c-0.36,0-0.63-0.16-0.81-0.49c-0.18-0.32-0.27-0.78-0.27-1.37v-0.57c0-0.76,0.1-1.31,0.28-1.66c0.19-0.35,0.46-0.52,0.83-0.52
		C343.02,163.48,343.25,163.59,343.41,163.8z M339.38,162.96h-0.8v5.65h0.8V162.96z M339.38,160.99h-0.8v1.02h0.8V160.99z
		 M337.27,160.97c-0.44,0-0.76,0.1-0.98,0.3c-0.21,0.19-0.31,0.51-0.31,0.96v0.74h-0.81v0.68H336v4.97h0.8v-4.98h0.88v-0.68h-0.88
		v-0.64c0-0.24,0.04-0.41,0.11-0.51c0.08-0.1,0.23-0.16,0.46-0.16c0.12,0,0.23,0.01,0.31,0.02v-0.68
		C337.55,160.97,337.41,160.97,337.27,160.97z M333.92,160.97c-0.44,0-0.76,0.1-0.98,0.3c-0.21,0.19-0.31,0.51-0.31,0.96v0.74h-0.81
		v0.68h0.83v4.97h0.8v-4.98h0.89v-0.68h-0.89v-0.64c0-0.24,0.03-0.41,0.11-0.51c0.08-0.1,0.23-0.16,0.46-0.16
		c0.12,0,0.23,0.01,0.31,0.02v-0.68C334.19,160.97,334.06,160.97,333.92,160.97z M329.77,166.62c-0.1,0.49-0.26,0.85-0.5,1.07
		c-0.24,0.22-0.57,0.33-1,0.33c-0.49,0-0.85-0.15-1.09-0.44c-0.24-0.3-0.39-0.68-0.45-1.15c-0.06-0.47-0.1-1.1-0.1-1.87
		c0-1.02,0.13-1.77,0.4-2.25c0.27-0.49,0.67-0.73,1.21-0.73c0.57,0,0.99,0.24,1.26,0.71c0.27,0.48,0.41,1.24,0.41,2.26
		C329.91,165.45,329.86,166.13,329.77,166.62z M329.69,168.39c0.37-0.27,0.64-0.71,0.83-1.32c0.18-0.61,0.28-1.44,0.28-2.48
		c0-1.34-0.21-2.3-0.62-2.89c-0.42-0.58-1.04-0.87-1.87-0.87c-0.85,0-1.49,0.29-1.91,0.88c-0.42,0.59-0.62,1.55-0.62,2.88
		c0,1.03,0.09,1.87,0.28,2.48c0.18,0.62,0.46,1.05,0.83,1.32c0.37,0.26,0.84,0.4,1.42,0.4
		C328.85,168.79,329.32,168.66,329.69,168.39z M321.9,160.99h-0.8v7.62h0.8V160.99z M318.33,167.77c-0.19,0.21-0.42,0.31-0.69,0.31
		c-0.27,0-0.47-0.07-0.6-0.21c-0.12-0.14-0.19-0.38-0.19-0.72c0-0.3,0.06-0.53,0.16-0.67c0.11-0.15,0.24-0.26,0.41-0.33l0.87-0.41
		c0.17-0.09,0.29-0.15,0.33-0.17v1.4C318.62,167.29,318.52,167.56,318.33,167.77z M319.51,167.94c-0.04-0.06-0.07-0.14-0.07-0.24
		v-3.48c0-0.45-0.13-0.8-0.4-1.05c-0.26-0.24-0.65-0.37-1.14-0.37c-0.55,0-0.97,0.12-1.26,0.38c-0.28,0.25-0.42,0.65-0.42,1.18v0.12
		h0.72v-0.13c0-0.33,0.06-0.56,0.19-0.68c0.12-0.12,0.34-0.18,0.64-0.18c0.31,0,0.54,0.06,0.68,0.19c0.15,0.12,0.21,0.36,0.21,0.69
		v0.22c0,0.14-0.02,0.25-0.06,0.33c-0.04,0.08-0.1,0.13-0.2,0.17c-0.09,0.04-0.17,0.07-0.23,0.08l-0.89,0.37
		c-0.12,0.05-0.29,0.11-0.49,0.2c-0.2,0.08-0.38,0.24-0.55,0.46c-0.17,0.22-0.25,0.53-0.25,0.93c0,0.57,0.12,0.99,0.35,1.25
		c0.24,0.26,0.6,0.39,1.09,0.39c0.26,0,0.51-0.08,0.75-0.26c0.24-0.17,0.4-0.39,0.51-0.66h0.02c0.03,0.33,0.11,0.55,0.23,0.66
		c0.12,0.1,0.32,0.16,0.6,0.16c0.1,0,0.18-0.01,0.24-0.02c0.06-0.01,0.1-0.02,0.13-0.03v-0.59c-0.04,0.01-0.1,0.01-0.2,0.01
		C319.64,168.03,319.56,168,319.51,167.94z M315.29,163.68v-0.79c-0.06-0.01-0.16-0.01-0.31-0.01c-0.26,0-0.51,0.08-0.76,0.24
		c-0.24,0.16-0.44,0.42-0.58,0.75h-0.02v-0.92h-0.77v5.65h0.8v-3.44c0-0.45,0.12-0.82,0.35-1.1c0.24-0.28,0.55-0.42,0.96-0.42
		C315.09,163.66,315.2,163.67,315.29,163.68z M310.32,163.8c0.14,0.22,0.22,0.53,0.24,0.95l0.02,0.44h-1.92
		c0.03-0.65,0.12-1.1,0.27-1.34c0.15-0.24,0.39-0.37,0.71-0.37C309.95,163.48,310.18,163.6,310.32,163.8z M308.67,165.86h2.75v-0.27
		c0-0.6-0.04-1.07-0.11-1.44c-0.08-0.37-0.24-0.68-0.5-0.94c-0.26-0.26-0.64-0.4-1.15-0.4c-0.58,0-1.03,0.26-1.35,0.79
		c-0.32,0.53-0.47,1.26-0.47,2.18c0,0.99,0.15,1.73,0.44,2.23c0.3,0.5,0.76,0.75,1.38,0.75c0.52,0,0.94-0.17,1.24-0.51
		s0.46-0.8,0.46-1.39v-0.13h-0.75v0.17c0,0.38-0.08,0.66-0.24,0.87c-0.16,0.21-0.39,0.31-0.69,0.31c-0.35,0-0.6-0.14-0.77-0.42
		c-0.17-0.28-0.25-0.73-0.25-1.36L308.67,165.86L308.67,165.86z M305.4,167.58c-0.19,0.33-0.45,0.49-0.78,0.49
		c-0.31,0-0.55-0.08-0.71-0.25c-0.17-0.17-0.28-0.4-0.33-0.69c-0.05-0.3-0.08-0.69-0.08-1.16v-0.29c0-0.73,0.09-1.27,0.26-1.64
		c0.17-0.37,0.45-0.56,0.83-0.56c0.38,0,0.66,0.17,0.84,0.51c0.18,0.34,0.27,0.86,0.27,1.55v0.85
		C305.68,166.86,305.58,167.26,305.4,167.58z M306.48,168.61v-7.62h-0.8v2.55h-0.02c-0.2-0.26-0.4-0.45-0.6-0.56
		c-0.19-0.11-0.43-0.17-0.71-0.17c-0.53,0-0.95,0.24-1.25,0.74c-0.3,0.49-0.45,1.19-0.45,2.1c0,1.03,0.12,1.81,0.37,2.33
		c0.25,0.53,0.68,0.79,1.28,0.79c0.35,0,0.63-0.07,0.84-0.21c0.21-0.14,0.38-0.37,0.53-0.69h0.02v0.74L306.48,168.61L306.48,168.61z
		 M300.39,163.8c0.15,0.22,0.22,0.53,0.24,0.95l0.02,0.44h-1.91c0.03-0.65,0.12-1.1,0.27-1.34c0.15-0.24,0.39-0.37,0.71-0.37
		C300.03,163.48,300.26,163.6,300.39,163.8z M298.75,165.86h2.75v-0.27c0-0.6-0.03-1.07-0.11-1.44c-0.08-0.37-0.24-0.68-0.5-0.94
		c-0.26-0.26-0.64-0.4-1.14-0.4c-0.58,0-1.03,0.26-1.35,0.79c-0.31,0.53-0.47,1.26-0.47,2.18c0,0.99,0.15,1.73,0.44,2.23
		c0.3,0.5,0.76,0.75,1.38,0.75c0.52,0,0.94-0.17,1.24-0.51c0.31-0.34,0.46-0.8,0.46-1.39v-0.13h-0.75v0.17
		c0,0.38-0.08,0.66-0.24,0.87c-0.17,0.21-0.39,0.31-0.69,0.31c-0.35,0-0.6-0.14-0.77-0.42c-0.17-0.28-0.25-0.73-0.25-1.36V165.86z
		 M297.02,161.75v-0.76h-3.58v7.62h0.85v-3.6h2.54v-0.76h-2.54v-2.5H297.02z M288.62,168.61h0.8v-4.4c0-0.43-0.12-0.78-0.35-1.03
		c-0.24-0.25-0.58-0.38-1.03-0.38c-0.29,0-0.55,0.06-0.78,0.19c-0.23,0.13-0.44,0.32-0.64,0.58h-0.02v-0.62h-0.78v5.65h0.81v-3.84
		c0-0.4,0.12-0.71,0.35-0.94c0.23-0.23,0.5-0.35,0.81-0.35c0.56,0,0.85,0.31,0.85,0.94L288.62,168.61L288.62,168.61z M283.37,166.85
		c-0.04,0.33-0.15,0.61-0.33,0.86c-0.17,0.25-0.45,0.38-0.81,0.38s-0.62-0.19-0.79-0.55c-0.17-0.37-0.25-0.95-0.25-1.74
		c0-0.79,0.09-1.37,0.28-1.74c0.19-0.37,0.46-0.56,0.82-0.56c0.76,0,1.14,0.73,1.14,2.2C283.43,166.13,283.41,166.52,283.37,166.85z
		 M283.43,162.96v0.64h-0.02c-0.13-0.26-0.31-0.46-0.54-0.6c-0.22-0.13-0.46-0.2-0.73-0.2c-0.58,0-1.02,0.26-1.32,0.78
		c-0.31,0.52-0.47,1.24-0.47,2.16c0,1.01,0.15,1.76,0.44,2.25c0.3,0.5,0.75,0.76,1.37,0.76c0.26,0,0.49-0.06,0.68-0.19
		c0.19-0.12,0.37-0.33,0.54-0.62h0.02v0.37c0,0.53-0.1,0.92-0.29,1.17c-0.19,0.24-0.49,0.37-0.89,0.37c-0.26,0-0.46-0.05-0.61-0.17
		c-0.15-0.11-0.24-0.28-0.28-0.54h-0.78c0.06,0.44,0.22,0.79,0.51,1.03c0.28,0.24,0.68,0.35,1.17,0.35c0.63,0,1.12-0.21,1.46-0.65
		c0.35-0.43,0.52-1.05,0.52-1.85v-5.06H283.43z M279.02,162.96h-0.8v5.65h0.8V162.96z M279.02,160.99h-0.8v1.02h0.8V160.99z
		 M275.74,163.8c0.15,0.22,0.22,0.53,0.24,0.95l0.02,0.44h-1.91c0.03-0.65,0.12-1.1,0.27-1.34c0.15-0.24,0.39-0.37,0.71-0.37
		C275.38,163.48,275.59,163.6,275.74,163.8z M274.1,165.86h2.75v-0.27c0-0.6-0.03-1.07-0.11-1.44c-0.08-0.37-0.24-0.68-0.5-0.94
		c-0.26-0.26-0.64-0.4-1.15-0.4c-0.58,0-1.03,0.26-1.35,0.79c-0.31,0.53-0.47,1.26-0.47,2.18c0,0.99,0.15,1.73,0.45,2.23
		c0.3,0.5,0.76,0.75,1.38,0.75c0.52,0,0.94-0.17,1.24-0.51c0.31-0.34,0.46-0.8,0.46-1.39v-0.13h-0.75v0.17
		c0,0.38-0.08,0.66-0.24,0.87c-0.16,0.21-0.39,0.31-0.69,0.31c-0.35,0-0.6-0.14-0.77-0.42c-0.17-0.28-0.25-0.73-0.25-1.36V165.86z
		 M272.5,163.68v-0.79c-0.05-0.01-0.16-0.01-0.31-0.01c-0.26,0-0.51,0.08-0.76,0.24c-0.24,0.16-0.44,0.42-0.58,0.75h-0.02v-0.92
		h-0.78v5.65h0.8v-3.44c0-0.45,0.12-0.82,0.35-1.1c0.24-0.28,0.56-0.42,0.96-0.42C272.3,163.66,272.41,163.67,272.5,163.68z
		 M265.71,167.55c-0.19-0.35-0.29-0.92-0.29-1.71c0-0.82,0.09-1.43,0.28-1.8c0.18-0.38,0.49-0.56,0.92-0.56s0.73,0.18,0.92,0.55
		c0.18,0.37,0.28,0.97,0.28,1.81c0,0.8-0.09,1.37-0.28,1.72c-0.19,0.35-0.49,0.52-0.91,0.52
		C266.21,168.08,265.91,167.9,265.71,167.55z M268.12,163.51c-0.35-0.47-0.85-0.71-1.51-0.71c-0.66,0-1.16,0.24-1.5,0.71
		c-0.35,0.47-0.52,1.17-0.52,2.09c0,1.1,0.17,1.9,0.49,2.4c0.33,0.51,0.84,0.76,1.53,0.76c0.72,0,1.24-0.25,1.55-0.76
		c0.31-0.5,0.47-1.3,0.47-2.41C268.64,164.68,268.46,163.98,268.12,163.51z M263.65,161.75v-0.76h-3.58v7.62h0.85v-3.6h2.54v-0.76
		h-2.54v-2.5H263.65z"/>
</g>
<g class="st1">
	<path class="st2" d="M128.61,186.5l-15.4,4.46c-0.47,0.14-0.92-0.26-0.82-0.73l5.5-25.82c0.1-0.48,0.78-0.56,1-0.11l10.19,21.2
		C129.26,185.9,129.05,186.38,128.61,186.5z M131.25,185.45l-11.79-24.55c-0.3-0.61-0.91-1.02-1.61-1.05
		c-0.72-0.04-1.36,0.3-1.72,0.87l-12.79,20.31c-0.4,0.63-0.39,1.41,0.02,2.04l6.25,9.5c0.37,0.57,1.02,0.89,1.69,0.89
		c0.19,0,0.38-0.03,0.57-0.08l18.15-5.26c0.56-0.16,1.01-0.54,1.25-1.06C131.5,186.54,131.5,185.95,131.25,185.45z"/>
	<path class="st2" d="M142.78,176.6h0.78c0.72,0,1.26-0.14,1.62-0.42c0.36-0.28,0.54-0.69,0.54-1.22c0-0.54-0.15-0.94-0.45-1.2
		c-0.3-0.26-0.77-0.39-1.41-0.39h-1.07L142.78,176.6L142.78,176.6z M148.09,174.87c0,1.17-0.38,2.07-1.12,2.68
		c-0.75,0.62-1.8,0.93-3.18,0.93h-1.01v3.87h-2.35v-10.87h3.54c1.35,0,2.37,0.28,3.07,0.85
		C147.74,172.9,148.09,173.75,148.09,174.87z"/>
	<path class="st2" d="M154.32,173.89c0.31,0,0.58,0.02,0.78,0.07l-0.18,2.13c-0.18-0.05-0.42-0.07-0.68-0.07
		c-0.74,0-1.31,0.18-1.73,0.55c-0.41,0.37-0.62,0.89-0.62,1.56v4.23h-2.31v-8.31h1.75l0.34,1.4h0.11c0.26-0.47,0.62-0.84,1.07-1.13
		C153.31,174.03,153.8,173.89,154.32,173.89z"/>
	<path class="st2" d="M158.64,182.35h-2.31v-8.31h2.31V182.35z M156.23,171.89c0-0.74,0.42-1.11,1.26-1.11
		c0.84,0,1.26,0.37,1.26,1.11c0,0.35-0.1,0.63-0.31,0.82c-0.21,0.2-0.52,0.29-0.95,0.29C156.65,173.01,156.23,172.64,156.23,171.89z
		"/>
	<path class="st2" d="M166.79,179.89c0,0.85-0.3,1.5-0.9,1.95c-0.61,0.45-1.51,0.67-2.71,0.67c-0.62,0-1.14-0.04-1.58-0.12
		c-0.44-0.08-0.84-0.2-1.22-0.36v-1.88c0.43,0.2,0.92,0.37,1.46,0.5c0.54,0.13,1.01,0.2,1.42,0.2c0.84,0,1.26-0.24,1.26-0.71
		c0-0.18-0.06-0.32-0.16-0.44c-0.11-0.11-0.3-0.24-0.58-0.38c-0.27-0.14-0.64-0.31-1.09-0.49c-0.65-0.27-1.13-0.51-1.43-0.75
		c-0.3-0.23-0.53-0.49-0.67-0.79c-0.14-0.29-0.21-0.66-0.21-1.09c0-0.74,0.29-1.31,0.87-1.71c0.59-0.41,1.42-0.61,2.48-0.61
		c1.02,0,2.02,0.22,2.98,0.65l-0.7,1.63c-0.43-0.18-0.82-0.32-1.19-0.44c-0.37-0.11-0.74-0.17-1.13-0.17
		c-0.68,0-1.02,0.18-1.02,0.54c0,0.21,0.11,0.38,0.33,0.53c0.22,0.15,0.7,0.37,1.44,0.66c0.66,0.26,1.15,0.51,1.46,0.74
		c0.31,0.23,0.54,0.49,0.68,0.79C166.72,179.12,166.79,179.48,166.79,179.89z"/>
	<path class="st2" d="M175.96,182.35h-2.31v-4.86c0-0.6-0.1-1.05-0.31-1.35c-0.21-0.3-0.52-0.45-0.97-0.45
		c-0.59,0-1.02,0.21-1.29,0.64c-0.27,0.43-0.4,1.13-0.4,2.1v3.91h-2.31v-8.31h1.77l0.31,1.06h0.13c0.23-0.38,0.56-0.68,0.99-0.89
		c0.43-0.22,0.92-0.32,1.48-0.32c1.27,0,2.13,0.41,2.58,1.22h0.21c0.23-0.38,0.56-0.69,1-0.9c0.44-0.21,0.94-0.32,1.5-0.32
		c0.96,0,1.69,0.24,2.18,0.73c0.49,0.48,0.74,1.26,0.74,2.32v5.42h-2.32v-4.86c0-0.6-0.1-1.05-0.31-1.35
		c-0.21-0.3-0.52-0.45-0.97-0.45c-0.56,0-0.99,0.2-1.27,0.6c-0.28,0.4-0.42,1.03-0.42,1.89V182.35z"/>
	<path class="st2" d="M187.98,178.51l-0.9,0.03c-0.67,0.02-1.17,0.14-1.5,0.36c-0.33,0.21-0.49,0.55-0.49,1
		c0,0.64,0.38,0.96,1.12,0.96c0.53,0,0.97-0.15,1.28-0.45c0.32-0.3,0.48-0.7,0.48-1.2V178.51z M188.66,182.36l-0.45-1.13h-0.06
		c-0.39,0.48-0.79,0.81-1.2,1c-0.41,0.18-0.95,0.28-1.61,0.28c-0.81,0-1.46-0.23-1.92-0.68c-0.47-0.46-0.7-1.1-0.7-1.95
		c0-0.88,0.31-1.53,0.95-1.95c0.63-0.42,1.58-0.65,2.85-0.69l1.47-0.05v-0.36c0-0.84-0.44-1.26-1.32-1.26c-0.68,0-1.48,0.2-2.39,0.6
		l-0.77-1.53c0.98-0.5,2.06-0.75,3.24-0.75c1.14,0,2.01,0.24,2.62,0.73c0.61,0.49,0.91,1.22,0.91,2.22v5.54H188.66z"/>
</g>
<path class="st0" d="M6,171.85v3.03h3.63c2.13,0,2.49-0.47,2.49-1.52c0-1.06-0.35-1.5-2.49-1.5H6z M1.61,167.98h8.82
	c4.12,0,6.12,1.74,6.12,5.33c0,2.41-1.08,4.13-2.98,4.81c0.56,0.94,4.13,6.91,4.13,6.91h-4.99c0,0-3.26-5.82-3.53-6.3H6v6.3H1.61
	V167.98z M29.81,167.98v10.17c0,2.69-0.72,3.52-3.09,3.52c-2.38,0-3.11-0.82-3.11-3.52v-10.18h-4.37v10.36
	c0,2.05,0.18,3.62,1.04,4.64c1.38,1.63,3.42,2.39,6.44,2.39c3.01,0,5.05-0.76,6.42-2.39c0.75-0.89,1.06-2.24,1.06-4.64v-10.36
	L29.81,167.98L29.81,167.98z M43.82,173.09c-0.52,1.35-1.3,3.41-1.62,4.25h3.3C45.16,176.49,44.35,174.43,43.82,173.09z
	 M45.73,167.98h0.34l7.27,17.06h-4.87c0,0-1.27-3.28-1.47-3.82h-6.27c-0.21,0.55-1.43,3.82-1.43,3.82H34.6l7.22-17.06H45.73z
	 M61.18,167.93h7.77v3.79h-7.77c-1.71,0-3.29,0.59-3.29,4.88c0,3.71,1.32,4.47,3.29,4.47h3.29v-2.76l4.48-3.85v10.54h-7.77
	c-2,0-3.67-0.11-5.41-1.52c-1.76-1.4-2.65-3.66-2.65-6.72C53.12,170.81,55.75,167.93,61.18,167.93"/>
<g class="st3">
	<path class="st8" d="M60.26,81.21H36.12v7.89h13.06h11.08L60.26,81.21L60.26,81.21z M60.26,89.09l-6.54,6.57l-5.54-5.54l-6.06,6.14
		v5.15h6.18c0.5,0.02,0.99,0.07,1.47,0.15c1.68,0.3,2.68,1.48,2.74,3.19c0.07,1.87-0.83,3.14-2.57,3.54
		c-0.69,0.16-1.37,0.24-2.04,0.24c-1.22,0-2.42-0.26-3.56-0.82c-1.31-0.65-2.53-1.5-3.79-2.26c-1.99,1.99-4.09,4.08-6.19,6.18
		c0.03,0.05,0.27,0.28,0.36,0.36c2.74,2.42,5.91,3.9,9.52,4.51c1.47,0.25,2.93,0.4,4.38,0.4c2.01,0,3.99-0.29,5.95-1
		c4.19-1.54,6.87-4.45,7.23-9c0.38-4.67-1.75-8.1-5.85-10.3c-0.69-0.38-1.47-0.61-2.24-0.93L60.26,89.09z"/>
	<path class="st8" d="M19.8,80.48c-2.27,0-4.63,0.43-6.94,1.39c-6.78,2.82-11.7,9.7-11.21,18.09c0.44,7.52,6.01,14.37,13.39,16.33
		c1.63,0.43,3.24,0.63,4.8,0.63c5.27,0,9.96-2.24,12.69-5.26c-1.91,2.11-4.77,3.84-8.12,4.69l-11.11-11.1l0.05-0.01
		c-0.03-0.03-0.07-0.07-0.11-0.1c-3.29-3.35-3.5-8.62-0.57-12.23c1.43-1.76,3.25-2.87,5.48-3.26c0.6-0.11,1.18-0.16,1.76-0.16
		c2.4,0,4.53,0.92,6.38,2.62c2.12-2.1,4.2-4.17,6.31-6.28C29.6,82.64,24.89,80.48,19.8,80.48z M26.26,105.31
		C26.25,105.31,26.25,105.31,26.26,105.31C26.25,105.31,26.25,105.31,26.26,105.31z M26.06,105.48
		C26.05,105.48,26.05,105.48,26.06,105.48C26.05,105.48,26.05,105.48,26.06,105.48z M26.03,105.5
		C26.03,105.5,26.03,105.51,26.03,105.5C26.03,105.51,26.03,105.5,26.03,105.5z M26.02,105.52
		C26.01,105.52,26.01,105.52,26.02,105.52C26.01,105.52,26.01,105.52,26.02,105.52z M26.01,105.52
		C26.01,105.52,26.01,105.53,26.01,105.52C26.01,105.53,26.01,105.52,26.01,105.52z M26.01,105.53
		C26.01,105.53,26,105.53,26.01,105.53C26,105.53,26.01,105.53,26.01,105.53z M25.99,105.54c-0.18,0.16-0.37,0.31-0.56,0.45
		C25.62,105.85,25.81,105.69,25.99,105.54z M25.43,105.99C25.43,106,25.43,106,25.43,105.99C25.43,106,25.43,106,25.43,105.99z
		 M25.4,106.01C25.4,106.01,25.4,106.02,25.4,106.01C25.4,106.02,25.4,106.01,25.4,106.01z M32.56,111.63
		C32.55,111.63,32.55,111.63,32.56,111.63C32.55,111.63,32.55,111.63,32.56,111.63z M32.55,111.63
		C32.54,111.63,32.54,111.63,32.55,111.63C32.54,111.63,32.54,111.63,32.55,111.63z M32.54,111.64c-0.01,0.01-0.01,0.01-0.01,0.01
		C32.54,111.65,32.54,111.64,32.54,111.64z M32.53,111.65C32.53,111.65,32.53,111.65,32.53,111.65
		C32.53,111.65,32.53,111.65,32.53,111.65z M32.52,111.65C32.52,111.66,32.52,111.66,32.52,111.65
		C32.52,111.66,32.52,111.66,32.52,111.65z"/>
	<path class="st9" d="M60.26,89.09H49.19l-1.01,1.02l5.54,5.54L60.26,89.09z"/>
	<path class="st2" d="M13.33,105.24c1.66,1.64,4.01,2.67,6.5,2.67c1.85,0,3.78-0.57,5.55-1.88c-1.77,1.31-3.7,1.88-5.55,1.88
		C17.35,107.9,15,106.88,13.33,105.24z M26.25,105.31c-0.07,0.06-0.13,0.11-0.19,0.17C26.12,105.43,26.18,105.37,26.25,105.31z
		 M26.05,105.48c-0.01,0-0.01,0.01-0.01,0.01C26.05,105.49,26.05,105.49,26.05,105.48z M26.05,105.5
		C26.04,105.5,26.04,105.5,26.05,105.5C26.04,105.5,26.04,105.5,26.05,105.5z M26.04,105.5C26.04,105.5,26.03,105.5,26.04,105.5
		C26.03,105.5,26.04,105.5,26.04,105.5z M26.03,105.51C26.03,105.51,26.03,105.51,26.03,105.51
		C26.03,105.51,26.03,105.51,26.03,105.51z M26.03,105.51C26.03,105.51,26.03,105.51,26.03,105.51
		C26.03,105.51,26.03,105.51,26.03,105.51z M26,105.53C26,105.54,26,105.54,26,105.53C26,105.54,26,105.54,26,105.53z M25.43,106
		C25.43,106,25.42,106,25.43,106C25.42,106,25.43,106,25.43,106z M25.42,106C25.42,106,25.41,106,25.42,106
		C25.41,106,25.42,106,25.42,106z M25.39,106.02C25.39,106.02,25.39,106.02,25.39,106.02C25.39,106.02,25.39,106.02,25.39,106.02z
		 M32.56,111.62C32.56,111.62,32.55,111.62,32.56,111.62C32.55,111.62,32.56,111.62,32.56,111.62z M32.55,111.62
		C32.55,111.63,32.55,111.63,32.55,111.62C32.55,111.63,32.55,111.63,32.55,111.62z M32.55,111.63
		C32.55,111.63,32.55,111.63,32.55,111.63C32.55,111.63,32.55,111.63,32.55,111.63z M32.54,111.63
		C32.54,111.63,32.54,111.64,32.54,111.63C32.54,111.64,32.54,111.63,32.54,111.63z"/>
	<path class="st9" d="M13.34,105.24l-0.05,0.01l11.11,11.1c3.35-0.85,6.22-2.58,8.12-4.69l0.01-0.01l0.01-0.01
		c0.01-0.01,0.01-0.01,0.01-0.01c0,0,0,0,0.01-0.01c0,0,0.01,0,0.01-0.01c0,0,0-0.01,0.01-0.01l0.01-0.01
		c-2.11-2.1-4.2-4.2-6.31-6.3l-0.01,0.01c-0.07,0.06-0.13,0.11-0.19,0.17c-0.01,0.01-0.01,0.01-0.01,0.01c0,0,0,0-0.01,0
		c0,0-0.01,0-0.01,0.01c0,0-0.01,0-0.01,0.01c0,0,0,0-0.01,0.01c0,0,0,0-0.01,0.01c0,0,0,0-0.01,0.01c0,0,0,0-0.01,0.01
		c-0.18,0.16-0.37,0.31-0.56,0.45c0,0-0.01,0-0.01,0.01c0,0-0.01,0-0.01,0.01c0,0,0,0-0.01,0c0,0,0,0-0.01,0c0,0,0,0-0.01,0H25.4
		h-0.01c0,0-0.01,0-0.01,0.01c-1.77,1.31-3.7,1.88-5.55,1.88C17.36,107.9,15,106.88,13.34,105.24z"/>
</g>
<g class="st1">
	<path class="st2" d="M348.41,85.07h-48.67v37.91h48.67V85.07z"/>
	<path class="st2" d="M345.35,83.97h-2.37v-9.54h5.44v2.14h-3.07v1.68h3.07v2.02h-3.07V83.97z"/>
	<path class="st2" d="M299.74,74.43h6.01v2.14h-1.73v7.39h-2.43v-7.39h-1.85V74.43z"/>
	<path class="st2" d="M341.81,76.77c-0.13-0.51-0.26-0.81-0.59-1.22c-0.26-0.3-0.45-0.45-0.8-0.65c-0.3-0.18-0.49-0.26-0.84-0.35
		c-0.4-0.11-0.64-0.1-1.05-0.13c-0.36-0.02-0.56-0.02-0.93,0h-2.48v9.54h2.48v-3.12c0.36,0,0.56,0.01,0.93,0
		c0.45-0.01,0.7-0.01,1.16-0.04c0.35-0.03,0.51-0.16,0.8-0.33c0.33-0.2,0.48-0.38,0.72-0.68c0.24-0.3,0.35-0.48,0.49-0.84
		c0.18-0.46,0.21-0.75,0.21-1.24C341.91,77.34,341.9,77.13,341.81,76.77z M339.51,78.12c-0.05,0.16-0.1,0.26-0.22,0.39
		c-0.12,0.13-0.21,0.17-0.36,0.24c-0.15,0.07-0.24,0.1-0.41,0.13h-0.62h-0.3v-2.31h0.93c0.35,0.09,0.34,0.09,0.52,0.22
		c0.2,0.15,0.27,0.2,0.37,0.39c0.08,0.13,0.11,0.22,0.13,0.36C339.59,77.76,339.58,77.9,339.51,78.12z"/>
	<path class="st2" d="M323.53,74.43v9.54h2.19v-5.92l2.03,5.92h1.59l2.02-5.92v5.92h2.31v-9.54h-3.21l-1.88,5.84l-1.88-5.84H323.53z
		"/>
	<path class="st2" d="M319.69,74.43v5.84v0.41c0.01,0.22-0.02,0.35-0.12,0.55c-0.08,0.17-0.16,0.26-0.3,0.38
		c-0.13,0.11-0.22,0.16-0.38,0.22c-0.19,0.06-0.31,0.08-0.51,0.06c-0.15-0.02-0.24-0.04-0.38-0.1c-0.18-0.08-0.29-0.13-0.42-0.27
		c-0.12-0.13-0.16-0.24-0.22-0.41c-0.06-0.16-0.07-0.25-0.09-0.42v-0.41v-5.84h-2.4v5.84h-0.01l0.02,0.41
		c0.02,0.19,0.03,0.3,0.06,0.49c0.05,0.3,0.06,0.48,0.16,0.77c0.11,0.32,0.17,0.5,0.36,0.78c0.23,0.34,0.42,0.49,0.75,0.74
		c0.38,0.28,0.63,0.41,1.08,0.54c0.45,0.13,0.72,0.13,1.18,0.12c0.36-0.01,0.56-0.01,0.9-0.1c0.37-0.09,0.58-0.19,0.91-0.37
		c0.34-0.19,0.52-0.31,0.8-0.59c0.3-0.31,0.43-0.53,0.61-0.93c0.16-0.36,0.2-0.59,0.26-0.98c0.03-0.17,0.04-0.27,0.04-0.45v-0.41
		v-5.84L319.69,74.43L319.69,74.43z"/>
	<path class="st2" d="M311.56,80.7v-0.05c0.14-0.03,0.29-0.07,0.46-0.14c0.31-0.13,0.47-0.24,0.72-0.47
		c0.28-0.24,0.42-0.4,0.61-0.72c0.22-0.38,0.26-0.64,0.32-1.07c0.06-0.44,0.06-0.69-0.02-1.12c-0.06-0.38-0.13-0.61-0.3-0.95
		c-0.19-0.4-0.33-0.62-0.65-0.93c-0.37-0.36-0.64-0.54-1.13-0.69c-0.43-0.13-0.71-0.15-1.14-0.1h-1.41h-2.37v9.54h2.37v-3.12
		l1.97,3.12h2.89L311.56,80.7z M309.02,76.59h1.41c0.24,0.06,0.37,0.15,0.55,0.32c0.13,0.13,0.2,0.21,0.27,0.38
		c0.09,0.2,0.1,0.34,0.12,0.56c0.01,0.17,0.02,0.27-0.02,0.43c-0.02,0.12-0.05,0.19-0.1,0.29c-0.08,0.15-0.13,0.23-0.26,0.35
		c-0.19,0.16-0.33,0.23-0.57,0.26v0.02h-1.41L309.02,76.59L309.02,76.59z"/>
</g>
<g class="st1">
	<path class="st2" d="M144.2,86.05c-2.54,0.53-4.55,2.9-4.54,5.59c0,0.09,0.01,0.18,0.02,0.23c4.24,1.04,6.17,3.61,6.18,7.17
		c0.01,3.56-2.79,7.46-7.51,7.47c-3.83,0.01-7.81-3.27-7.83-8.54c-0.01-3.49,1.86-6.84,4.25-8.83c2.33-1.94,5.53-3.19,8.43-3.2
		C143.56,85.93,143.95,85.96,144.2,86.05c-1.81-0.86-3.83-1.35-5.97-1.35c-7.69,0-13.93,6.27-13.93,14c0,7.73,6.24,14,13.93,14
		c7.69,0,13.93-6.27,13.93-14C152.16,93.11,148.9,88.29,144.2,86.05z"/>
	<path class="st2" d="M161.16,104.5l-4.26-10.21h2.78l2.66,6.78l2.57-6.78h2.66l-4.13,10.22L161.16,104.5L161.16,104.5z"/>
	<path class="st2" d="M177.56,99.35c0,0.66-0.1,1.32-0.3,1.96c-0.2,0.64-0.51,1.22-0.91,1.73c-0.4,0.51-0.91,0.92-1.52,1.23
		c-0.61,0.31-1.32,0.47-2.14,0.47c-0.82,0-1.53-0.16-2.14-0.47c-0.61-0.31-1.12-0.72-1.52-1.23c-0.4-0.51-0.7-1.08-0.91-1.73
		c-0.2-0.64-0.31-1.3-0.31-1.96c0-0.66,0.1-1.31,0.31-1.95c0.2-0.64,0.51-1.2,0.91-1.71c0.4-0.5,0.91-0.9,1.52-1.21
		c0.61-0.3,1.32-0.46,2.14-0.46c0.82,0,1.53,0.15,2.13,0.46c0.6,0.3,1.11,0.71,1.52,1.21c0.41,0.5,0.71,1.07,0.92,1.71
		C177.46,98.03,177.56,98.69,177.56,99.35z M174.99,99.34c0-0.43-0.05-0.83-0.15-1.21c-0.1-0.38-0.25-0.71-0.44-0.99
		c-0.2-0.28-0.44-0.5-0.72-0.66c-0.28-0.16-0.61-0.24-0.99-0.24c-0.38,0-0.71,0.08-0.99,0.24c-0.28,0.16-0.52,0.38-0.72,0.66
		c-0.2,0.28-0.35,0.61-0.44,0.99c-0.1,0.38-0.15,0.79-0.15,1.21c0,0.44,0.05,0.85,0.15,1.22c0.1,0.38,0.24,0.71,0.43,0.99
		c0.19,0.28,0.43,0.51,0.72,0.67c0.29,0.16,0.62,0.24,1,0.24c0.38,0,0.71-0.08,0.99-0.24c0.28-0.16,0.52-0.39,0.72-0.67
		c0.2-0.28,0.35-0.61,0.44-0.99C174.94,100.19,174.99,99.78,174.99,99.34z"/>
	<path class="st2" d="M185.62,104.5l-0.11-0.79c-0.24,0.27-0.55,0.51-0.94,0.71c-0.39,0.2-0.86,0.31-1.39,0.31
		c-0.7,0-1.32-0.15-1.85-0.45c-0.53-0.3-0.98-0.69-1.35-1.19c-0.37-0.49-0.64-1.07-0.83-1.72c-0.19-0.65-0.28-1.33-0.28-2.03
		c0-0.66,0.1-1.31,0.29-1.95c0.2-0.64,0.49-1.2,0.89-1.71c0.4-0.5,0.9-0.9,1.5-1.21c0.6-0.3,1.31-0.46,2.12-0.46
		c0.53,0,1.11,0.1,1.72,0.29v-3.96h2.62v14.14L185.62,104.5L185.62,104.5z M185.41,96.53c-0.5-0.2-0.97-0.3-1.41-0.3
		c-0.45,0-0.83,0.08-1.15,0.26c-0.32,0.17-0.59,0.4-0.8,0.69c-0.21,0.29-0.37,0.62-0.47,0.98c-0.1,0.36-0.16,0.73-0.16,1.12
		c0,0.43,0.04,0.83,0.14,1.22c0.09,0.39,0.23,0.73,0.42,1.02c0.19,0.29,0.43,0.53,0.71,0.7s0.63,0.26,1.02,0.26
		c0.32,0,0.65-0.09,0.99-0.26c0.34-0.18,0.57-0.39,0.71-0.63L185.41,96.53L185.41,96.53z"/>
	<path class="st2" d="M195.6,104.49l-0.11-0.76c-0.28,0.31-0.64,0.56-1.08,0.74c-0.44,0.18-0.92,0.27-1.44,0.27
		c-0.44,0-0.86-0.08-1.26-0.22c-0.4-0.15-0.76-0.36-1.07-0.64c-0.31-0.28-0.56-0.61-0.75-1.02s-0.29-0.86-0.29-1.37
		c0-0.51,0.1-0.96,0.3-1.35c0.2-0.39,0.47-0.72,0.8-0.99c0.34-0.27,0.73-0.49,1.16-0.66c0.44-0.17,0.9-0.3,1.38-0.38
		c0.34-0.07,0.71-0.12,1.11-0.16c0.4-0.03,0.74-0.07,1.01-0.1v-0.15c0-0.57-0.15-0.97-0.43-1.21c-0.29-0.24-0.69-0.36-1.2-0.36
		c-0.3,0-0.58,0.04-0.85,0.11c-0.27,0.07-0.51,0.16-0.72,0.26c-0.21,0.11-0.4,0.21-0.56,0.32c-0.16,0.11-0.29,0.2-0.39,0.29
		l-0.86-1.84c0.11-0.1,0.28-0.22,0.52-0.36c0.23-0.14,0.51-0.28,0.84-0.41c0.33-0.13,0.7-0.25,1.12-0.34
		c0.41-0.09,0.86-0.14,1.34-0.14c0.56,0,1.07,0.07,1.54,0.22c0.46,0.15,0.87,0.38,1.2,0.7c0.34,0.32,0.6,0.72,0.79,1.21
		c0.19,0.49,0.29,1.08,0.29,1.77v6.56L195.6,104.49L195.6,104.49z M195.39,99.71c-0.28,0.01-0.57,0.04-0.87,0.07
		c-0.3,0.04-0.58,0.08-0.85,0.14c-0.57,0.11-0.96,0.31-1.18,0.58c-0.22,0.28-0.33,0.58-0.33,0.9c0,0.34,0.12,0.61,0.37,0.82
		c0.25,0.2,0.6,0.31,1.05,0.31c0.34,0,0.67-0.07,0.99-0.21c0.32-0.14,0.59-0.32,0.82-0.53V99.71z"/>
	<path class="st2" d="M206.07,92.69c-0.08-0.04-0.25-0.1-0.5-0.18c-0.25-0.08-0.57-0.12-0.98-0.12c-0.37,0-0.67,0.11-0.92,0.33
		s-0.37,0.58-0.37,1.07v0.49h2.19v2.12h-2.17v8.1h-2.62v-8.1h-1.35v-2.12h1.35v-0.55c0-0.66,0.09-1.23,0.25-1.69
		c0.17-0.46,0.4-0.83,0.71-1.12c0.3-0.29,0.66-0.5,1.06-0.64c0.41-0.13,0.85-0.2,1.33-0.2c0.63,0,1.16,0.06,1.57,0.18
		c0.42,0.12,0.66,0.2,0.73,0.24L206.07,92.69z"/>
	<path class="st2" d="M215.77,99.35c0,0.66-0.1,1.32-0.3,1.96c-0.2,0.64-0.51,1.22-0.91,1.73c-0.4,0.51-0.91,0.92-1.52,1.23
		c-0.61,0.31-1.32,0.47-2.14,0.47c-0.82,0-1.53-0.16-2.14-0.47c-0.61-0.31-1.12-0.72-1.52-1.23c-0.4-0.51-0.7-1.08-0.91-1.73
		c-0.2-0.64-0.31-1.3-0.31-1.96c0-0.66,0.1-1.31,0.31-1.95c0.2-0.64,0.51-1.2,0.91-1.71c0.4-0.5,0.91-0.9,1.52-1.21
		c0.61-0.3,1.32-0.46,2.14-0.46c0.82,0,1.53,0.15,2.13,0.46c0.6,0.3,1.11,0.71,1.52,1.21c0.41,0.5,0.71,1.07,0.92,1.71
		C215.66,98.03,215.77,98.69,215.77,99.35z M213.2,99.34c0-0.43-0.05-0.83-0.15-1.21c-0.1-0.38-0.25-0.71-0.44-0.99
		c-0.2-0.28-0.44-0.5-0.72-0.66c-0.28-0.16-0.61-0.24-0.99-0.24c-0.38,0-0.71,0.08-0.99,0.24c-0.28,0.16-0.52,0.38-0.72,0.66
		c-0.2,0.28-0.35,0.61-0.44,0.99c-0.1,0.38-0.15,0.79-0.15,1.21c0,0.44,0.05,0.85,0.15,1.22c0.1,0.38,0.24,0.71,0.43,0.99
		c0.19,0.28,0.43,0.51,0.72,0.67c0.29,0.16,0.62,0.24,1,0.24c0.38,0,0.71-0.08,0.99-0.24c0.28-0.16,0.52-0.39,0.72-0.67
		c0.2-0.28,0.35-0.61,0.44-0.99C213.15,100.19,213.2,99.78,213.2,99.34z"/>
	<path class="st2" d="M223.88,104.5v-5.83c0-0.78-0.16-1.38-0.49-1.8c-0.32-0.42-0.77-0.64-1.35-0.64c-0.41,0-0.78,0.11-1.13,0.32
		c-0.35,0.21-0.64,0.45-0.9,0.7v7.25h-2.61V94.28h2.38l0.13,0.81c0.41-0.34,0.87-0.6,1.38-0.78s1.03-0.28,1.55-0.28
		c0.54,0,1.03,0.08,1.48,0.24c0.45,0.16,0.84,0.42,1.16,0.77c0.32,0.35,0.57,0.81,0.75,1.38c0.18,0.56,0.26,1.24,0.26,2.03v6.04
		L223.88,104.5L223.88,104.5z"/>
	<path class="st2" d="M230.69,100.05c0.06,0.86,0.32,1.48,0.8,1.86c0.48,0.38,1.1,0.57,1.86,0.57c0.35,0,0.68-0.03,1-0.1
		c0.31-0.06,0.59-0.14,0.83-0.24c0.24-0.1,0.44-0.2,0.61-0.3c0.17-0.1,0.3-0.19,0.38-0.28l0.7,2.14c-0.1,0.07-0.26,0.17-0.47,0.29
		c-0.22,0.12-0.49,0.23-0.81,0.34c-0.32,0.11-0.7,0.2-1.14,0.28c-0.44,0.08-0.91,0.12-1.43,0.12c-0.66,0-1.29-0.11-1.89-0.32
		c-0.6-0.21-1.12-0.54-1.57-0.99c-0.45-0.44-0.81-1-1.08-1.66s-0.4-1.46-0.4-2.37c0-0.86,0.12-1.62,0.37-2.29
		c0.25-0.66,0.58-1.22,1.01-1.67s0.93-0.8,1.5-1.04c0.57-0.24,1.18-0.36,1.83-0.36c0.65,0,1.24,0.11,1.79,0.32
		c0.55,0.21,1.02,0.54,1.42,0.99c0.4,0.45,0.72,1.02,0.95,1.73c0.23,0.71,0.35,1.55,0.35,2.52v0.47L230.69,100.05L230.69,100.05z
		 M234.64,98.16c-0.03-0.35-0.1-0.66-0.22-0.92c-0.12-0.26-0.27-0.47-0.45-0.64c-0.18-0.16-0.37-0.28-0.57-0.36
		c-0.2-0.08-0.41-0.12-0.62-0.12c-0.45,0-0.88,0.17-1.29,0.51c-0.41,0.34-0.65,0.85-0.72,1.53H234.64z"/>
</g>
</svg>
