<?xml version="1.0" encoding="utf-8"?>
<!-- Generator: Adobe Illustrator 23.0.3, SVG Export Plug-In . SVG Version: 6.00 Build 0)  -->
<svg version="1.1" id="Layer_1" xmlns="http://www.w3.org/2000/svg" xmlns:xlink="http://www.w3.org/1999/xlink" x="0px" y="0px"
	 viewBox="0 0 700 673" style="enable-background:new 0 0 700 673;" xml:space="preserve">
<style type="text/css">
	.st0{fill:#D94532;fill-opacity:0.29;}
	.st1{fill:#1F2348;}
	.st2{fill:#101531;}
</style>
<ellipse class="st0" cx="99.41" cy="573.04" rx="9.1" ry="9.1"/>
<ellipse class="st0" cx="419.17" cy="633.9" rx="9.1" ry="9.1"/>
<ellipse class="st0" cx="178.5" cy="491.13" rx="9.1" ry="9.1"/>
<ellipse class="st0" cx="578.48" cy="206.17" rx="9.1" ry="9.1"/>
<ellipse class="st0" cx="227.43" cy="57.71" rx="9.1" ry="9.1"/>
<ellipse class="st0" cx="57.88" cy="49.75" rx="9.1" ry="9.1"/>
<ellipse class="st0" cx="657.57" cy="194.22" rx="9.1" ry="9.1"/>
<path class="st1" d="M76.28,102l-5.29-12.45H45.05L39.69,102H30l24-53.06h7.82L85.89,102H76.28z M48.26,82.1h19.53l-9.76-22.73
	L48.26,82.1z M146.63,74.58c3.08,0.89,5.44,2.46,7.08,4.69c1.69,2.24,2.53,4.99,2.53,8.27c0,4.52-1.62,8.07-4.84,10.66
	c-3.18,2.53-7.63,3.8-13.34,3.8h-24.07V48.94h23.33c5.46,0,9.76,1.24,12.89,3.73c3.13,2.43,4.7,5.81,4.7,10.14
	c0,2.78-0.75,5.22-2.24,7.3C151.22,72.14,149.21,73.63,146.63,74.58z M123.38,71.3h12.37c6.66,0,9.99-2.48,9.99-7.45
	c0-2.48-0.82-4.35-2.46-5.59c-1.64-1.24-4.15-1.86-7.53-1.86h-12.37V71.3z M137.01,94.55c3.48,0,6.01-0.62,7.6-1.86
	c1.64-1.24,2.46-3.2,2.46-5.89c0-2.73-0.82-4.74-2.46-6.04c-1.59-1.29-4.12-1.94-7.6-1.94h-13.64v15.72H137.01z M211.87,102.67
	c-5.22,0-9.79-1.12-13.71-3.35c-3.88-2.24-6.86-5.39-8.94-9.46c-2.09-4.12-3.13-8.94-3.13-14.46c0-5.47,1.04-10.23,3.13-14.31
	c2.09-4.12,5.07-7.28,8.94-9.46c3.92-2.24,8.5-3.35,13.71-3.35c3.58,0,6.93,0.57,10.06,1.71c3.18,1.09,5.81,2.63,7.9,4.62
	l-3.13,7.01c-2.38-1.94-4.77-3.33-7.15-4.17c-2.34-0.89-4.84-1.34-7.53-1.34c-5.12,0-9.09,1.66-11.92,4.99
	c-2.78,3.33-4.17,8.1-4.17,14.31c0,6.26,1.39,11.08,4.17,14.46c2.78,3.33,6.76,4.99,11.92,4.99c2.68,0,5.19-0.42,7.53-1.27
	c2.38-0.89,4.77-2.31,7.15-4.25l3.13,7.01c-2.09,1.99-4.72,3.55-7.9,4.69C218.8,102.12,215.45,102.67,211.87,102.67z M261.17,48.94
	h19.52c8.7,0,15.43,2.31,20.2,6.93c4.82,4.62,7.23,11.13,7.23,19.53c0,8.45-2.41,15-7.23,19.67c-4.77,4.62-11.5,6.93-20.2,6.93
	h-19.52V48.94z M280.1,94.18c12.22,0,18.33-6.26,18.33-18.78c0-12.42-6.11-18.63-18.33-18.63h-9.32v37.41H280.1z M340.29,102V48.94
	h35.47v7.6h-26.08v14.68h24.52v7.6h-24.52V94.4h26.08v7.6H340.29z M406.97,102V48.94h34.65v7.68h-25.11v14.53h23.62v7.75h-23.62V102
	H406.97z M515.51,73.31V98.8c-2.43,1.19-5.36,2.14-8.79,2.83c-3.43,0.7-6.93,1.04-10.51,1.04c-5.46,0-10.21-1.09-14.23-3.28
	c-4.02-2.19-7.11-5.32-9.24-9.39s-3.2-8.94-3.2-14.61c0-5.56,1.07-10.38,3.2-14.46s5.17-7.2,9.09-9.39
	c3.97-2.19,8.62-3.28,13.94-3.28c3.73,0,7.2,0.55,10.43,1.64c3.28,1.09,6.01,2.63,8.2,4.62l-3.28,7.01
	c-2.48-1.94-4.92-3.33-7.3-4.17c-2.38-0.84-4.99-1.27-7.82-1.27c-5.46,0-9.61,1.64-12.45,4.92c-2.78,3.28-4.17,8.07-4.17,14.38
	c0,6.51,1.44,11.43,4.32,14.76c2.88,3.28,7.18,4.92,12.89,4.92c3.48,0,6.91-0.47,10.28-1.42V80.24h-11.48v-6.93H515.51z
	 M585.36,48.94h9.54V102h-9.54V78.97h-27.2V102h-9.46V48.94h9.46v22.21h27.2V48.94z M628.76,102V48.94h9.61V102H628.76z
	 M29.85,200.44c2.53,0.35,4.32,0.52,5.37,0.52c2.43,0,4.1-0.6,4.99-1.79c0.89-1.19,1.34-3.33,1.34-6.41v-50.82h9.61v50.82
	c0,5.66-1.07,9.76-3.2,12.3c-2.14,2.58-5.79,3.88-10.95,3.88c-2.38,0-4.77-0.2-7.15-0.6V200.44z M131.08,195H119.3l-24.67-24.82V195
	h-9.61v-53.06h9.61v23.77l23.7-23.77h11.55l-25.78,25.49L131.08,195z M157.01,195v-53.06h9.61v45.16h24.82v7.9H157.01z
	 M265.19,141.94h7.6V195h-8.5v-32.94L250.21,195h-6.33l-14.16-32.57V195h-8.49v-53.06h7.6l18.26,41.51L265.19,141.94z
	 M342.44,141.94h9.02V195h-7.15l-28.62-37.19V195h-8.94v-53.06h7.15l28.54,37.11V141.94z M408.9,195.67
	c-5.12,0-9.59-1.09-13.41-3.28c-3.78-2.24-6.71-5.39-8.79-9.46c-2.04-4.12-3.05-8.97-3.05-14.53c0-5.51,1.02-10.31,3.05-14.38
	c2.04-4.12,4.94-7.28,8.72-9.46c3.83-2.19,8.32-3.28,13.49-3.28s9.64,1.09,13.41,3.28c3.83,2.19,6.73,5.34,8.72,9.46
	c2.04,4.07,3.05,8.87,3.05,14.38c0,5.57-1.02,10.41-3.05,14.53c-2.04,4.07-4.94,7.23-8.72,9.46
	C418.54,194.58,414.07,195.67,408.9,195.67z M408.9,187.99c4.92,0,8.74-1.69,11.48-5.07c2.73-3.38,4.1-8.22,4.1-14.53
	c0-6.26-1.37-11.05-4.1-14.38c-2.73-3.38-6.56-5.07-11.48-5.07c-4.92,0-8.74,1.66-11.48,4.99c-2.73,3.33-4.1,8.15-4.1,14.46
	c0,6.31,1.37,11.15,4.1,14.53C400.16,186.31,403.99,187.99,408.9,187.99z M466.3,141.94h23.03c5.71,0,10.16,1.39,13.34,4.17
	c3.18,2.73,4.77,6.48,4.77,11.25c0,4.77-1.61,8.54-4.84,11.33c-3.18,2.78-7.6,4.17-13.27,4.17h-13.41V195h-9.61V141.94z
	 M488.21,165.41c3.33,0,5.84-0.67,7.53-2.01c1.74-1.39,2.61-3.38,2.61-5.96c0-2.63-0.85-4.62-2.53-5.96
	c-1.69-1.39-4.22-2.09-7.6-2.09h-12.3v16.02H488.21z M572.95,193.43c1.09,1.94,2.43,3.75,4.02,5.44c1.59,1.69,3.45,3.4,5.59,5.14
	l-6.48,5.22c-2.39-1.69-4.65-3.73-6.78-6.11c-2.09-2.34-3.92-4.84-5.51-7.53c-0.45,0.05-1.17,0.08-2.16,0.08
	c-5.12,0-9.59-1.09-13.41-3.28c-3.78-2.24-6.71-5.39-8.79-9.46c-2.04-4.12-3.05-8.97-3.05-14.53c0-5.51,1.02-10.31,3.05-14.38
	c2.04-4.12,4.94-7.28,8.72-9.46c3.83-2.19,8.32-3.28,13.49-3.28s9.64,1.09,13.41,3.28c3.83,2.19,6.73,5.34,8.72,9.46
	c2.04,4.07,3.06,8.87,3.06,14.38c0,6.06-1.22,11.25-3.65,15.58C580.77,188.29,577.37,191.45,572.95,193.43z M546.04,168.4
	c0,6.31,1.37,11.15,4.1,14.53c2.73,3.38,6.56,5.07,11.48,5.07c4.92,0,8.74-1.69,11.48-5.07c2.73-3.38,4.1-8.22,4.1-14.53
	c0-6.26-1.37-11.05-4.1-14.38c-2.73-3.38-6.56-5.07-11.48-5.07c-4.92,0-8.74,1.66-11.48,4.99
	C547.41,157.27,546.04,162.09,546.04,168.4z M662.68,195h-10.14l-6.78-17.66c-0.6-1.64-1.52-2.78-2.76-3.43s-2.86-0.97-4.84-0.97
	h-9.61V195h-9.54v-53.06h22.73c6.01,0,10.58,1.32,13.71,3.95c3.13,2.63,4.69,6.41,4.69,11.33c0,3.53-0.94,6.53-2.83,9.02
	c-1.84,2.44-4.47,4.17-7.9,5.22c3.13,0.65,5.39,2.83,6.78,6.56L662.68,195z M640.4,165.49c3.63,0,6.31-0.67,8.05-2.01
	c1.74-1.34,2.61-3.38,2.61-6.11c0-2.68-0.87-4.67-2.61-5.96c-1.69-1.34-4.37-2.01-8.05-2.01h-12v16.1H640.4z M53.7,289.67
	c-4.07,0-7.9-0.55-11.48-1.64c-3.53-1.09-6.53-2.66-9.02-4.7l3.28-7.01c2.58,1.94,5.27,3.38,8.05,4.32
	c2.83,0.89,5.91,1.34,9.24,1.34c3.68,0,6.51-0.65,8.5-1.94c2.04-1.29,3.06-3.11,3.06-5.44c0-1.99-0.94-3.5-2.83-4.55
	c-1.84-1.09-4.89-2.11-9.17-3.06c-6.66-1.44-11.5-3.3-14.53-5.59c-3.03-2.29-4.55-5.61-4.55-9.99c0-3.13,0.84-5.91,2.53-8.35
	c1.69-2.43,4.07-4.35,7.15-5.74c3.13-1.39,6.73-2.09,10.81-2.09c3.73,0,7.25,0.57,10.58,1.71c3.38,1.09,6.14,2.63,8.27,4.62
	l-3.2,7.01c-4.72-3.78-9.94-5.66-15.65-5.66c-3.43,0-6.14,0.72-8.12,2.16c-1.99,1.39-2.98,3.3-2.98,5.74c0,2.09,0.87,3.68,2.61,4.77
	c1.79,1.09,4.82,2.11,9.09,3.06c4.42,1.04,8.02,2.19,10.81,3.43c2.78,1.19,4.92,2.76,6.41,4.7c1.49,1.89,2.24,4.27,2.24,7.15
	c0,3.18-0.84,5.96-2.53,8.35c-1.69,2.33-4.12,4.15-7.3,5.44C61.77,289.02,58.02,289.67,53.7,289.67z M117.41,289v-45.16h-17.29v-7.9
	h44.34v7.9H127.1V289H117.41z M195.37,289.67c-7.3,0-12.84-1.86-16.62-5.59c-3.73-3.77-5.59-9.29-5.59-16.54v-31.6h9.46v32.12
	c0,4.57,1.07,8.05,3.2,10.43c2.14,2.33,5.32,3.5,9.54,3.5c4.12,0,7.25-1.19,9.39-3.58c2.19-2.39,3.28-5.84,3.28-10.36v-32.12h9.46
	v31.6c0,7.2-1.89,12.69-5.66,16.47C208.06,287.78,202.57,289.67,195.37,289.67z M289.88,235.94h9.76L276.02,289h-7.82l-23.62-53.06
	h9.99l17.66,40.99L289.88,235.94z M393.82,235.94h9.24L384.28,289h-7.83l-13.34-38.16L349.63,289h-7.82l-18.71-53.06h9.76
	l13.27,39.57l13.79-39.57h6.86l13.49,39.87L393.82,235.94z M457.18,262.02l20.2,26.98h-11.25l-14.38-19.82L437.36,289h-11.25
	l20.2-27.05l-19.52-26.01h11.25l13.71,19l13.86-19h11.18L457.18,262.02z M548.77,235.94l-21.54,32.04V289h-9.61v-21.02l-21.54-32.04
	h10.95l15.35,24l15.43-24H548.77z M582.59,281.32h28.24V289h-38.98v-7.01l27.28-38.38h-27.28v-7.68h38.16v6.93L582.59,281.32z"/>
<path class="st2" d="M68.83,397.26v37.49h-5.96v-6.78c-1.09,2.33-2.76,4.15-4.99,5.44c-2.19,1.24-4.74,1.86-7.68,1.86
	c-3.33,0-6.26-0.8-8.79-2.39c-2.48-1.59-4.42-3.83-5.81-6.71c-1.34-2.93-2.01-6.33-2.01-10.21c0-3.88,0.7-7.28,2.09-10.21
	c1.39-2.98,3.33-5.29,5.81-6.93c2.53-1.64,5.44-2.46,8.72-2.46c2.93,0,5.49,0.65,7.68,1.94c2.19,1.29,3.85,3.11,4.99,5.44v-6.48
	H68.83z M51.39,430.27c3.68,0,6.51-1.24,8.5-3.73c1.99-2.53,2.98-6.11,2.98-10.73c0-4.62-0.99-8.17-2.98-10.66
	c-1.99-2.48-4.82-3.73-8.5-3.73c-3.68,0-6.56,1.29-8.64,3.88c-2.04,2.53-3.06,6.09-3.06,10.66c0,4.57,1.02,8.1,3.06,10.58
	C44.78,429.03,47.66,430.27,51.39,430.27z M121.56,396.36c3.28,0,6.19,0.79,8.72,2.38c2.53,1.59,4.5,3.85,5.89,6.78
	c1.39,2.88,2.09,6.26,2.09,10.14c0,3.88-0.7,7.3-2.09,10.28c-1.39,2.93-3.35,5.22-5.89,6.86c-2.53,1.64-5.44,2.46-8.72,2.46
	c-2.93,0-5.49-0.65-7.68-1.94c-2.19-1.29-3.85-3.13-4.99-5.51v6.93h-6.04v-54.85h6.04v24c1.09-2.44,2.73-4.3,4.92-5.59
	C116.04,397.01,118.63,396.36,121.56,396.36z M120.44,430.27c3.63,0,6.46-1.27,8.49-3.8c2.04-2.58,3.06-6.18,3.06-10.8
	c0-4.52-1.02-8.02-3.06-10.51c-1.99-2.48-4.82-3.73-8.49-3.73c-3.73,0-6.58,1.24-8.57,3.73c-1.99,2.48-2.98,6.04-2.98,10.66
	c0,4.62,0.99,8.2,2.98,10.73C113.86,429.03,116.72,430.27,120.44,430.27z M185.62,435.26c-3.63,0-6.81-0.8-9.54-2.39
	c-2.68-1.59-4.77-3.83-6.26-6.71c-1.44-2.93-2.16-6.33-2.16-10.21c0-3.88,0.75-7.28,2.24-10.21c1.49-2.98,3.6-5.29,6.33-6.93
	c2.78-1.64,6.01-2.46,9.69-2.46c2.53,0,4.97,0.45,7.3,1.34c2.38,0.85,4.35,2.04,5.89,3.58l-2.01,4.47
	c-1.89-1.49-3.73-2.58-5.51-3.28c-1.74-0.7-3.53-1.04-5.37-1.04c-3.83,0-6.83,1.29-9.02,3.88c-2.19,2.53-3.28,6.09-3.28,10.66
	c0,4.52,1.07,8.05,3.21,10.58c2.19,2.48,5.22,3.73,9.09,3.73c1.84,0,3.63-0.35,5.37-1.04c1.79-0.7,3.63-1.79,5.51-3.28l2.01,4.47
	c-1.59,1.49-3.6,2.68-6.04,3.58C190.69,434.84,188.2,435.26,185.62,435.26z M262.16,379.89v54.85h-5.96v-6.78
	c-1.09,2.33-2.76,4.15-4.99,5.44c-2.19,1.24-4.74,1.86-7.68,1.86c-3.28,0-6.18-0.82-8.72-2.46c-2.48-1.64-4.42-3.92-5.81-6.86
	c-1.39-2.98-2.09-6.41-2.09-10.28c0-3.88,0.67-7.25,2.01-10.14c1.39-2.93,3.35-5.19,5.89-6.78c2.53-1.59,5.44-2.38,8.72-2.38
	c2.93,0,5.49,0.65,7.68,1.94c2.19,1.24,3.83,3.01,4.92,5.29v-23.7H262.16z M244.73,430.27c3.68,0,6.51-1.24,8.49-3.73
	c1.99-2.53,2.98-6.11,2.98-10.73c0-4.57-0.99-8.1-2.98-10.58c-1.99-2.53-4.82-3.8-8.49-3.8c-3.68,0-6.56,1.24-8.65,3.73
	c-2.04,2.48-3.05,5.99-3.05,10.51c0,4.62,1.02,8.22,3.05,10.8C238.17,429,241.05,430.27,244.73,430.27z M327.57,415.81h-27.5
	c0.05,4.77,1.14,8.37,3.28,10.8c2.19,2.43,5.34,3.65,9.46,3.65c4.37,0,8.4-1.47,12.07-4.4l2.01,4.4c-1.64,1.54-3.75,2.76-6.33,3.65
	c-2.53,0.89-5.14,1.34-7.83,1.34c-5.86,0-10.46-1.71-13.79-5.14c-3.33-3.48-4.99-8.22-4.99-14.23c0-3.83,0.75-7.2,2.24-10.14
	c1.49-2.98,3.58-5.29,6.26-6.93c2.68-1.64,5.74-2.46,9.17-2.46c4.97,0,8.87,1.64,11.7,4.92c2.83,3.23,4.25,7.7,4.25,13.41V415.81z
	 M311.69,401.06c-3.13,0-5.69,0.94-7.68,2.83c-1.94,1.89-3.18,4.55-3.73,7.97h21.84c-0.3-3.53-1.34-6.21-3.13-8.05
	C317.26,401.98,314.82,401.06,311.69,401.06z M373.4,384.81c-1.99,0-3.55,0.57-4.7,1.71c-1.09,1.09-1.64,3.01-1.64,5.74v4.99h9.17
	v4.77h-9.17v32.71h-6.04v-32.71h-7.3v-4.77h7.3v-5.74c0-3.93,0.97-6.88,2.91-8.87c1.99-2.04,4.74-3.06,8.27-3.06
	c1.74,0,3.43,0.22,5.07,0.67v5.14C375.88,385.01,374.59,384.81,373.4,384.81z M439.5,397.26v37.19c0,5.57-1.44,9.76-4.32,12.6
	c-2.83,2.88-7.03,4.32-12.6,4.32c-5.71,0-10.63-1.29-14.76-3.88l1.04-4.92c2.39,1.34,4.62,2.31,6.71,2.91
	c2.14,0.6,4.47,0.89,7.01,0.89c3.63,0,6.36-0.97,8.2-2.91c1.84-1.89,2.76-4.72,2.76-8.5v-8.87c-1.14,2.38-2.83,4.25-5.07,5.59
	c-2.19,1.29-4.79,1.94-7.82,1.94c-3.28,0-6.21-0.77-8.79-2.31c-2.53-1.54-4.5-3.73-5.89-6.56c-1.39-2.83-2.09-6.09-2.09-9.76
	c0-3.68,0.7-6.93,2.09-9.76c1.39-2.83,3.35-5.02,5.89-6.56c2.58-1.54,5.52-2.31,8.79-2.31c2.98,0,5.56,0.65,7.75,1.94
	c2.24,1.29,3.93,3.11,5.07,5.44v-6.48H439.5z M421.84,428.56c3.63,0,6.46-1.19,8.5-3.58c2.09-2.43,3.13-5.76,3.13-9.99
	c0-4.22-1.04-7.53-3.13-9.91c-2.04-2.43-4.87-3.65-8.5-3.65c-3.68,0-6.58,1.22-8.72,3.65c-2.09,2.39-3.13,5.69-3.13,9.91
	c0,4.22,1.04,7.55,3.13,9.99C415.26,427.36,418.16,428.56,421.84,428.56z M492.15,396.36c8.99,0,13.49,4.94,13.49,14.83v23.55h-6.04
	v-23.25c0-3.48-0.7-6.01-2.09-7.6c-1.39-1.64-3.58-2.46-6.56-2.46c-3.48,0-6.26,1.07-8.35,3.2c-2.09,2.14-3.13,5.02-3.13,8.64v21.46
	h-6.04v-54.85h6.04v23.48c1.19-2.29,2.88-4.02,5.07-5.22C486.79,396.96,489.32,396.36,492.15,396.36z M539.4,434.74v-37.49h6.04
	v37.49H539.4z M538.8,381.38h7.38v6.86h-7.38V381.38z M25.9,538.33c1.34,0.4,2.56,0.6,3.65,0.6c4.17,0,6.26-2.48,6.26-7.45v-41.21
	h6.04v41.96c0,3.92-0.99,6.88-2.98,8.87c-1.94,2.04-4.62,3.06-8.05,3.06c-1.64,0-3.28-0.22-4.92-0.67V538.33z M35.14,474.38h7.38
	v6.86h-7.38V474.38z M109.09,527.74h-7.9l-19.23-18.03v18.03h-6.04v-54.85h6.04v34.58l17.66-17.14h7.68l-18.78,17.96L109.09,527.74z
	 M136.64,527.74v-54.85h6.04v54.85H136.64z M218.34,489.36c8.3,0,12.45,4.94,12.45,14.83v23.55h-6.04v-23.25
	c0-3.53-0.62-6.09-1.86-7.68c-1.19-1.59-3.15-2.38-5.89-2.38c-3.18,0-5.66,1.07-7.45,3.2c-1.79,2.14-2.68,5.04-2.68,8.72v21.39
	h-6.04v-23.25c0-3.48-0.62-6.01-1.86-7.6c-1.24-1.64-3.23-2.46-5.96-2.46c-3.18,0-5.69,1.07-7.53,3.2
	c-1.79,2.14-2.68,5.04-2.68,8.72v21.39h-6.04v-26.98c0-3.88-0.2-7.38-0.6-10.51h5.74l0.6,6.56c1.04-2.38,2.58-4.22,4.62-5.51
	c2.09-1.29,4.5-1.94,7.23-1.94c2.98,0,5.41,0.6,7.3,1.79c1.89,1.19,3.28,3.03,4.17,5.51c1.14-2.23,2.81-4,4.99-5.29
	C213.04,490.03,215.55,489.36,218.34,489.36z M283.31,489.36c8.99,0,13.49,4.94,13.49,14.83v23.55h-6.04v-23.25
	c0-3.48-0.7-6.01-2.09-7.6c-1.39-1.64-3.58-2.46-6.56-2.46c-3.48,0-6.26,1.07-8.35,3.2c-2.09,2.14-3.13,5.02-3.13,8.64v21.46h-6.04
	v-26.98c0-3.88-0.2-7.38-0.6-10.51h5.74l0.6,6.71c1.14-2.43,2.86-4.3,5.14-5.59C277.77,490.03,280.38,489.36,283.31,489.36z
	 M346.06,528.26c-3.53,0-6.63-0.79-9.32-2.38c-2.68-1.59-4.77-3.85-6.26-6.78c-1.44-2.93-2.16-6.36-2.16-10.28
	c0-3.92,0.72-7.35,2.16-10.29c1.49-2.93,3.58-5.19,6.26-6.78c2.68-1.59,5.79-2.38,9.32-2.38c3.53,0,6.63,0.79,9.31,2.38
	c2.68,1.59,4.75,3.85,6.19,6.78c1.49,2.93,2.24,6.36,2.24,10.29c0,3.92-0.74,7.35-2.24,10.28c-1.44,2.93-3.5,5.19-6.19,6.78
	C352.69,527.47,349.58,528.26,346.06,528.26z M346.06,523.27c3.73,0,6.58-1.22,8.57-3.65c1.99-2.48,2.98-6.09,2.98-10.81
	c0-4.57-1.02-8.1-3.06-10.58c-2.04-2.53-4.87-3.8-8.49-3.8c-3.68,0-6.53,1.27-8.57,3.8c-2.04,2.48-3.06,6.01-3.06,10.58
	c0,4.72,0.99,8.32,2.98,10.81C339.45,522.05,342.33,523.27,346.06,523.27z M414.27,489.36c3.28,0,6.19,0.82,8.72,2.46
	c2.53,1.64,4.5,3.95,5.89,6.93c1.39,2.93,2.09,6.33,2.09,10.21c0,3.88-0.7,7.28-2.09,10.21c-1.39,2.88-3.35,5.12-5.89,6.71
	c-2.48,1.59-5.39,2.38-8.72,2.38c-2.93,0-5.49-0.65-7.68-1.94c-2.19-1.29-3.85-3.13-4.99-5.51v23.03h-6.04v-43.07
	c0-3.88-0.2-7.38-0.6-10.51h5.74l0.6,7.23c1.04-2.58,2.68-4.57,4.92-5.96C408.5,490.08,411.19,489.36,414.27,489.36z M413.15,523.27
	c3.68,0,6.51-1.24,8.5-3.73c2.04-2.48,3.05-6.01,3.05-10.58c0-4.57-1.02-8.12-3.05-10.66c-2.04-2.58-4.87-3.88-8.5-3.88
	c-3.73,0-6.58,1.24-8.57,3.73c-1.99,2.48-2.98,6.04-2.98,10.66c0,4.62,0.99,8.2,2.98,10.73
	C406.57,522.03,409.42,523.27,413.15,523.27z M496.21,490.26c-0.4,3.13-0.6,6.63-0.6,10.51v43.07h-6.04v-22.73
	c-1.09,2.29-2.73,4.05-4.92,5.29c-2.19,1.24-4.74,1.86-7.68,1.86c-3.33,0-6.26-0.79-8.79-2.38c-2.48-1.59-4.42-3.83-5.81-6.71
	c-1.34-2.93-2.01-6.33-2.01-10.21c0-3.88,0.7-7.28,2.09-10.21c1.39-2.98,3.33-5.29,5.81-6.93c2.53-1.64,5.44-2.46,8.72-2.46
	c3.03,0,5.66,0.7,7.9,2.09c2.24,1.34,3.9,3.28,4.99,5.81l0.74-7.01H496.21z M478.18,523.27c3.68,0,6.51-1.24,8.49-3.73
	c1.99-2.53,2.98-6.11,2.98-10.73c0-4.62-0.99-8.17-2.98-10.66c-1.99-2.48-4.82-3.73-8.49-3.73c-3.68,0-6.56,1.29-8.65,3.88
	c-2.04,2.53-3.05,6.09-3.05,10.66c0,4.57,1.02,8.1,3.05,10.58C471.57,522.03,474.45,523.27,478.18,523.27z M547.08,489.36
	c1.24,0,2.38,0.15,3.43,0.45l-0.15,5.52c-1.14-0.4-2.46-0.6-3.95-0.6c-3.63,0-6.33,1.14-8.12,3.43c-1.74,2.23-2.61,4.97-2.61,8.2
	v21.39h-6.04v-26.98c0-3.88-0.2-7.38-0.6-10.51h5.74l0.6,6.93c0.94-2.53,2.46-4.47,4.55-5.81
	C542.02,490.03,544.4,489.36,547.08,489.36z M48.48,622.26c-6.31,0-11.3-1.61-14.98-4.84l2.01-4.47c2.04,1.59,4.1,2.73,6.19,3.43
	c2.09,0.7,4.42,1.04,7.01,1.04c2.83,0,4.97-0.47,6.41-1.42c1.49-0.99,2.24-2.41,2.24-4.25c0-1.49-0.5-2.68-1.49-3.58
	c-0.99-0.89-2.63-1.59-4.92-2.09l-6.33-1.49c-3.13-0.7-5.56-1.94-7.3-3.73c-1.69-1.79-2.53-3.92-2.53-6.41
	c0-3.28,1.32-5.94,3.95-7.97c2.63-2.09,6.11-3.13,10.43-3.13c2.63,0,5.12,0.42,7.45,1.27c2.34,0.84,4.3,2.06,5.89,3.65l-2.01,4.4
	c-3.53-2.93-7.3-4.4-11.33-4.4c-2.68,0-4.77,0.52-6.26,1.57c-1.44,0.99-2.16,2.41-2.16,4.25c0,1.54,0.45,2.76,1.34,3.65
	c0.94,0.89,2.43,1.59,4.47,2.09l6.33,1.57c3.48,0.79,6.06,2.04,7.75,3.73c1.69,1.64,2.53,3.8,2.53,6.48c0,3.23-1.32,5.81-3.95,7.75
	C56.58,621.29,53,622.26,48.48,622.26z M102.82,589.03v20.49c0,2.78,0.57,4.74,1.71,5.89c1.14,1.09,2.76,1.64,4.84,1.64
	c1.39,0,2.73-0.22,4.02-0.67v5.14c-1.54,0.5-3.28,0.74-5.22,0.74c-3.58,0-6.38-0.99-8.42-2.98c-1.99-2.04-2.98-5.02-2.98-8.94
	v-21.31h-7.3v-4.77h7.3v-9.61l6.04-2.16v11.77h10.73v4.77H102.82z M174.56,584.26v37.48h-5.89v-6.48c-1.19,2.29-2.86,4.02-4.99,5.22
	c-2.14,1.19-4.55,1.79-7.23,1.79c-4.42,0-7.77-1.24-10.06-3.73c-2.29-2.48-3.43-6.16-3.43-11.03v-23.25H149v23.1
	c0,3.38,0.7,5.86,2.09,7.45c1.39,1.59,3.5,2.39,6.34,2.39c3.33,0,6.01-1.07,8.05-3.21c2.04-2.19,3.06-5.04,3.06-8.57v-21.16H174.56z
	 M235.46,584.33h6.04l-16.17,37.41h-5.74l-15.95-37.41h6.33l12.67,30.85L235.46,584.33z M321.48,584.26h5.96l-13.86,37.48h-5.81
	l-10.73-29.29l-10.66,29.29h-5.81l-13.86-37.48h6.34l10.58,30.26l10.95-30.26h5.29l10.81,30.33L321.48,584.26z M374.93,602.44
	l15.43,19.3h-7.23l-11.85-14.76l-11.7,14.76h-7.38l15.58-19.3l-14.68-18.18h7.3l10.88,13.79l10.88-13.79h7.38L374.93,602.44z
	 M451.93,584.26l-17.51,40.91c-1.84,4.27-4.15,7.4-6.93,9.39c-2.78,1.99-6.21,3.35-10.29,4.1l-1.27-4.7
	c3.53-0.79,6.18-1.86,7.97-3.2c1.84-1.29,3.35-3.3,4.55-6.04l1.49-3.35l-15.87-37.11h6.34l12.67,30.93l12.82-30.93H451.93z
	 M485.87,616.97h24.22v4.77h-31.67v-4.17l23.62-28.54h-22.8v-4.77h30.03v4.4L485.87,616.97z"/>
</svg>
