<?xml version="1.0" encoding="utf-8"?>
<!-- Generator: Adobe Illustrator 23.0.3, SVG Export Plug-In . SVG Version: 6.00 Build 0)  -->
<svg version="1.1" id="Layer_1" xmlns="http://www.w3.org/2000/svg" xmlns:xlink="http://www.w3.org/1999/xlink" x="0px" y="0px"
	 viewBox="0 0 700 885" style="enable-background:new 0 0 700 885;" xml:space="preserve">
<style type="text/css">
	.st0{fill:url(#SVGID_1_);}
	.st1{fill:#1F2348;}
	.st2{fill:url(#SVGID_2_);}
	.st3{fill:none;stroke:#101531;}
	.st4{fill:#FFFFFF;filter:url(#Adobe_OpacityMaskFilter);}
	.st5{mask:url(#path-16-inside-1_1_);fill:#101531;}
	.st6{opacity:0.2;fill:none;stroke:#1F2348;enable-background:new    ;}
	.st7{opacity:0.2;}
	.st8{fill:none;stroke:#1F2348;enable-background:new    ;}
	.st9{fill:none;stroke:#1F2348;}
	.st10{opacity:0.4;fill:#1F2348;enable-background:new    ;}
	.st11{opacity:0.6;fill:#1F2348;enable-background:new    ;}
	.st12{fill:none;stroke:#101531;stroke-miterlimit:5.4438;}
</style>
<radialGradient id="SVGID_1_" cx="43.6987" cy="839.3213" r="1" gradientTransform="matrix(146.029 0 0 -146.286 -6189.1304 123498.2578)" gradientUnits="userSpaceOnUse">
	<stop  offset="0" style="stop-color:#EC991C"/>
	<stop  offset="1" style="stop-color:#E9B213"/>
</radialGradient>
<path class="st0" d="M226.69,647.91l-30.42-52.83c-2.17-3.77-6.19-6.09-10.53-6.09h-60.84c-4.35,0-8.36,2.32-10.53,6.09
	l-30.42,52.83c-2.17,3.77-2.17,8.42,0,12.19l30.42,52.81c2.17,3.77,6.19,6.09,10.53,6.09h60.84c4.35,0,8.36-2.32,10.53-6.09
	l30.42-52.81C228.85,656.32,228.85,651.68,226.69,647.91z"/>
<path class="st1" d="M67.58,783h9.61v56h-7.4l-30.21-39.05V839H30v-56h7.37l30.21,39.05V783z"/>
<path class="st1" d="M96.32,839v-56h10.32v56H96.32z"/>
<path class="st1" d="M172.21,783h8.1v56h-8.84v-34.63L156.37,839h-6.63l-15.1-34.63V839h-8.84v-56h8.1l19.16,43.84L172.21,783z"/>
<path class="st1" d="M199.47,839v-56h10.32v56H199.47z"/>
<path class="st1" d="M278.7,826.23c-3.01,5.97-7.68,9.48-11.82,11.18c0.49,1.12,2.77,4.24,4.49,6.04c1.72,1.8,3.54,3.62,5.83,5.48
	l-7,5.53c-2.58-1.8-4.82-3.95-7.1-6.46s-4.23-5.28-6-8.36c-0.43,0.03-1.62,0.07-2.37,0.07c-5.7,0-10.46-1.16-14.57-3.48
	c-4.11-2.33-7.25-5.66-9.42-10.02c-1.97-3.96-3.26-9.26-3.26-15.24c0-5.98,1.11-10.88,3.3-15.24c2.2-4.35,5.35-7.69,9.46-10.02
	c4.11-2.33,8.92-3.48,14.5-3.48c5.59,0,10.46,1.16,14.57,3.48c4.11,2.33,7.25,5.66,9.42,10.02c2.18,4.36,3.26,9.26,3.26,15.24
	C282,816.98,280.69,822.28,278.7,826.23z M242.26,826.28c2.98,3.57,7.13,5.35,12.48,5.35c5.35,0,9.52-1.78,12.48-5.35
	c2.98-3.57,4.46-8.61,4.46-15.28c0-6.62-1.49-11.78-4.46-15.31c-2.98-3.54-7.13-5.32-12.48-5.32c-5.35,0-9.52,1.75-12.48,5.28
	c-2.98,3.52-4.47,8.7-4.47,15.36S239.28,822.7,242.26,826.28z"/>
<radialGradient id="SVGID_2_" cx="43.7423" cy="839.2753" r="1" gradientTransform="matrix(170.715 0 0 -170.711 -7309.0786 143453.25)" gradientUnits="userSpaceOnUse">
	<stop  offset="0" style="stop-color:#EC991C"/>
	<stop  offset="1" style="stop-color:#E9B213"/>
</radialGradient>
<path class="st2" d="M198.76,98.74L163.2,37.11c-2.56-4.41-7.25-7.11-12.33-7.11H79.76c-5.07,0-9.77,2.7-12.3,7.11L31.9,98.74
	c-2.54,4.41-2.54,9.81,0,14.22l35.56,61.63c2.54,4.41,7.23,7.11,12.3,7.11h71.11c5.07,0,9.77-2.7,12.3-7.11l35.56-61.63
	C201.29,108.55,201.29,103.15,198.76,98.74z"/>
<path class="st1" d="M325.1,60.81h15.46v90.07h-11.9l-48.59-62.82v62.82h-15.41V60.81h11.85l48.59,62.82V60.81z"/>
<path class="st1" d="M371.33,150.89V60.81h16.59v90.07H371.33z"/>
<path class="st1" d="M493.4,60.81h13.04v90.07h-14.22v-55.7l-24.3,55.7h-10.67l-24.3-55.7v55.7h-14.22V60.81h13.04l30.82,70.52
	L493.4,60.81z"/>
<path class="st1" d="M537.26,150.89V60.81h16.59v90.07H537.26z"/>
<path class="st1" d="M664.69,130.36c-4.84,9.6-12.35,15.24-19.01,17.99c0.78,1.8,4.46,6.83,7.23,9.72c2.77,2.89,5.69,5.83,9.39,8.82
	l-11.26,8.89c-4.15-2.89-7.75-6.35-11.43-10.38c-3.67-4.03-6.8-8.49-9.65-13.44c-0.69,0.05-2.61,0.12-3.82,0.12
	c-9.17,0-16.83-1.87-23.44-5.59c-6.61-3.74-11.66-9.1-15.15-16.12c-3.2-6.38-5.26-14.88-5.26-24.51c0-9.62,1.78-17.49,5.31-24.51
	c3.53-6.99,8.6-12.37,15.22-16.12c6.61-3.75,14.34-5.59,23.32-5.59c8.98,0,16.83,1.87,23.44,5.59c6.61,3.75,11.66,9.1,15.15,16.12
	c3.51,7.02,5.26,14.89,5.26,24.51C670,115.48,667.89,124.01,664.69,130.36z M606.07,130.43c4.79,5.74,11.47,8.6,20.08,8.6
	c8.61,0,15.31-2.87,20.08-8.6c4.79-5.76,7.18-13.87,7.18-24.58c0-10.64-2.39-18.94-7.18-24.63c-4.79-5.69-11.47-8.56-20.08-8.56
	c-8.6,0-15.31,2.82-20.08,8.49c-4.79,5.67-7.18,13.99-7.18,24.7C598.89,116.57,601.28,124.67,606.07,130.43z"/>
<path class="st3" d="M280.28,311.15v62.2H265.9v-88.91h11.09l48.35,62.51l0.9,1.16v-1.46v-62.2h14.43v88.91h-11.13l-48.35-62.5
	l-0.89-1.16V311.15z"/>
<path class="st3" d="M372.38,373.35v-88.91h15.56v88.91H372.38z"/>
<defs>
	<filter id="Adobe_OpacityMaskFilter" filterUnits="userSpaceOnUse" x="418.2" y="282.94" width="89.54" height="91.91">
		<feColorMatrix  type="matrix" values="1 0 0 0 0  0 1 0 0 0  0 0 1 0 0  0 0 0 1 0"/>
	</filter>
</defs>
<mask maskUnits="userSpaceOnUse" x="418.2" y="282.94" width="89.54" height="91.91" id="path-16-inside-1_1_">
	<path class="st4" d="M493.73,283.94h13.01v89.91h-14.2v-55.6l-24.25,55.6h-10.65l-24.25-55.6v55.6h-14.2v-89.91h13.01l30.76,70.39
		L493.73,283.94z"/>
</mask>
<path class="st5" d="M493.73,283.94v-1h-0.65l-0.26,0.6L493.73,283.94z M506.74,283.94h1v-1h-1V283.94z M506.74,373.85v1h1v-1
	H506.74z M492.55,373.85h-1v1h1V373.85z M492.55,318.25h1v-4.79l-1.92,4.39L492.55,318.25z M468.29,373.85v1h0.65l0.26-0.6
	L468.29,373.85z M457.65,373.85l-0.92,0.4l0.26,0.6h0.65V373.85z M433.39,318.25l0.92-0.4l-1.92-4.39v4.79H433.39z M433.39,373.85v1
	h1v-1H433.39z M419.2,373.85h-1v1h1V373.85z M419.2,283.94v-1h-1v1H419.2z M432.21,283.94l0.92-0.4l-0.26-0.6h-0.65V283.94z
	 M462.97,354.33l-0.92,0.4l0.92,2.1l0.92-2.1L462.97,354.33z M493.73,284.94h13.01v-2h-13.01V284.94z M505.74,283.94v89.91h2v-89.91
	H505.74z M506.74,372.85h-14.2v2h14.2V372.85z M493.55,373.85v-55.6h-2v55.6H493.55z M491.63,317.85l-24.25,55.6l1.83,0.8
	l24.25-55.6L491.63,317.85z M468.29,372.85h-10.65v2h10.65V372.85z M458.56,373.45l-24.25-55.6l-1.83,0.8l24.25,55.6L458.56,373.45z
	 M432.39,318.25v55.6h2v-55.6H432.39z M433.39,372.85h-14.2v2h14.2V372.85z M420.2,373.85v-89.91h-2v89.91H420.2z M419.2,284.94
	h13.01v-2H419.2V284.94z M431.3,284.34l30.76,70.39l1.83-0.8l-30.76-70.39L431.3,284.34z M463.89,354.73l30.76-70.39l-1.83-0.8
	l-30.76,70.39L463.89,354.73z"/>
<path class="st3" d="M538,373.35v-88.91h15.56v88.91H538z"/>
<path class="st3" d="M645.53,370.86l-0.47,0.19l0.2,0.47c0.42,0.96,1.56,2.7,2.92,4.54c1.37,1.85,2.99,3.84,4.4,5.31
	c2.65,2.76,5.44,5.58,8.93,8.45l-10.46,8.26c-3.97-2.81-7.45-6.17-11.02-10.08c-3.64-3.99-6.74-8.41-9.57-13.33l-0.16-0.27
	l-0.31,0.02c-0.67,0.05-2.58,0.12-3.77,0.12c-9.09,0-16.64-1.85-23.16-5.52c-6.51-3.69-11.48-8.96-14.92-15.88l0,0
	c-3.16-6.29-5.2-14.7-5.2-24.24c0-9.54,1.76-17.32,5.25-24.24c3.48-6.9,8.48-12.19,14.99-15.88c6.51-3.69,14.14-5.52,23.04-5.52
	c8.9,0,16.64,1.85,23.15,5.52c6.51,3.69,11.48,8.96,14.92,15.88l0,0c3.46,6.92,5.2,14.7,5.2,24.24c0,9.54-2.09,17.98-5.25,24.24
	C659.49,362.6,652.09,368.15,645.53,370.86z M605.8,353.75L605.8,353.75c4.89,5.86,11.71,8.77,20.43,8.77
	c8.71,0,15.56-2.91,20.42-8.77c4.88-5.87,7.28-14.09,7.28-24.86c0-10.69-2.4-19.1-7.29-24.9c-4.89-5.81-11.71-8.72-20.42-8.72
	c-8.71,0-15.56,2.86-20.42,8.65c-4.88,5.78-7.29,14.22-7.29,24.98C598.52,339.66,600.92,347.88,605.8,353.75z"/>
<line class="st6" x1="31.18" y1="252.68" x2="670" y2="252.68"/>
<g class="st7">
	<line class="st8" x1="31.18" y1="283.44" x2="670" y2="283.44"/>
	<line class="st8" x1="31.18" y1="374.53" x2="670" y2="374.53"/>
	<line class="st8" x1="31.18" y1="405.29" x2="670" y2="405.29"/>
	<line class="st8" x1="30.5" y1="252" x2="30.5" y2="405.79"/>
	<line class="st8" x1="202.03" y1="252" x2="202.03" y2="405.79"/>
	<line class="st8" x1="264.73" y1="252" x2="264.73" y2="405.79"/>
	<line class="st8" x1="670.5" y1="252" x2="670.5" y2="405.79"/>
</g>
<g class="st7">
	<line class="st9" x1="30.18" y1="430.86" x2="201.53" y2="430.86"/>
	<line class="st9" x1="30.5" y1="425.45" x2="30.5" y2="436.1"/>
	<line class="st9" x1="202.03" y1="425.45" x2="202.03" y2="436.1"/>
	<line class="st9" x1="201.72" y1="430.86" x2="264.23" y2="430.86"/>
	<line class="st9" x1="264.73" y1="425.45" x2="264.73" y2="436.1"/>
</g>
<path class="st10" d="M116.78,461.06h2.48v1.68h-7.02v-1.68h2.5v-7.34l-2.32,1.39v-1.84l3.17-1.92h1.2V461.06z"/>
<path class="st10" d="M217.25,462.89c-1.35,0-2.39-0.5-3.1-1.49c-0.7-1-1.06-2.46-1.06-4.37c0-1.88,0.35-3.31,1.06-4.3
	c0.71-0.99,1.75-1.49,3.1-1.49c1.36,0,2.38,0.5,3.09,1.49c0.71,0.98,1.07,2.42,1.07,4.3c0,1.9-0.36,3.35-1.07,4.35
	C219.63,462.39,218.6,462.89,217.25,462.89z M217.25,461.27c0.74,0,1.27-0.34,1.6-1.01c0.34-0.68,0.51-1.76,0.51-3.23
	c0-1.45-0.17-2.51-0.51-3.17c-0.33-0.67-0.86-1.01-1.6-1.01c-0.74,0-1.27,0.34-1.62,1.01c-0.33,0.66-0.5,1.72-0.5,3.17
	c0,1.47,0.17,2.55,0.5,3.23C215.98,460.93,216.51,461.27,217.25,461.27z M222.92,460.5h2.24v2.24h-2.24V460.5z M232.62,456.89
	c0.67,0.18,1.18,0.51,1.54,0.99c0.36,0.48,0.54,1.07,0.54,1.78c0,0.99-0.37,1.78-1.1,2.35c-0.73,0.58-1.71,0.86-2.94,0.86
	c-0.77,0-1.51-0.12-2.22-0.35c-0.7-0.24-1.29-0.56-1.74-0.98l0.7-1.5c1.01,0.79,2.07,1.18,3.18,1.18c0.73,0,1.26-0.14,1.62-0.43
	c0.36-0.29,0.54-0.72,0.54-1.31c0-0.58-0.18-1-0.54-1.26c-0.36-0.28-0.92-0.42-1.68-0.42H229v-1.65h1.23c1.47,0,2.21-0.56,2.21-1.68
	c0-0.52-0.16-0.92-0.48-1.2c-0.32-0.28-0.77-0.42-1.34-0.42c-1.02,0-2.05,0.39-3.07,1.18l-0.69-1.5c0.46-0.4,1.03-0.73,1.73-0.96
	c0.7-0.25,1.42-0.37,2.16-0.37c1.12,0,2.01,0.28,2.67,0.83c0.67,0.54,1.01,1.27,1.01,2.19c-0.01,0.63-0.18,1.18-0.5,1.65
	C233.62,456.34,233.18,456.67,232.62,456.89z M242.37,456.89c0.74,0.18,1.31,0.52,1.73,1.01s0.62,1.08,0.62,1.78
	c0,0.65-0.18,1.22-0.54,1.71c-0.35,0.48-0.85,0.85-1.5,1.1c-0.64,0.26-1.38,0.38-2.22,0.38c-0.84,0-1.59-0.13-2.24-0.38
	c-0.64-0.26-1.14-0.62-1.5-1.1c-0.35-0.49-0.53-1.06-0.53-1.71c0-0.69,0.21-1.29,0.62-1.78s0.99-0.83,1.73-1.01
	c-0.64-0.21-1.15-0.55-1.52-1.01c-0.36-0.46-0.54-0.99-0.54-1.6c0-0.62,0.17-1.16,0.51-1.62c0.34-0.47,0.81-0.83,1.41-1.07
	c0.61-0.26,1.3-0.38,2.06-0.38c0.77,0,1.45,0.13,2.05,0.38c0.61,0.24,1.08,0.6,1.42,1.07c0.34,0.46,0.51,1,0.51,1.62
	c0,0.62-0.19,1.16-0.56,1.63C243.51,456.37,243.01,456.7,242.37,456.89z M240.45,452.82c-0.63,0-1.12,0.14-1.49,0.43
	c-0.36,0.29-0.54,0.7-0.54,1.23c0,0.5,0.18,0.91,0.54,1.23c0.37,0.31,0.87,0.51,1.49,0.61c0.62-0.1,1.11-0.3,1.47-0.61
	c0.37-0.32,0.56-0.73,0.56-1.23c0-0.53-0.18-0.94-0.54-1.23C241.58,452.97,241.08,452.82,240.45,452.82z M240.45,461.26
	c0.73,0,1.29-0.15,1.7-0.45c0.42-0.3,0.62-0.73,0.62-1.28c0-0.52-0.21-0.94-0.64-1.26c-0.42-0.32-0.98-0.53-1.68-0.62
	c-0.7,0.1-1.27,0.3-1.7,0.62c-0.42,0.32-0.62,0.74-0.62,1.26c0,0.55,0.2,0.98,0.61,1.28C239.16,461.11,239.73,461.26,240.45,461.26z
	 M254.03,461.06v1.68h-7.65v-1.52l3.87-4.18c0.46-0.5,0.79-0.96,1.01-1.38c0.21-0.42,0.32-0.83,0.32-1.23
	c0-0.52-0.15-0.92-0.46-1.18c-0.3-0.27-0.73-0.4-1.3-0.4c-1,0-2.03,0.39-3.09,1.18l-0.69-1.5c0.45-0.4,1.02-0.73,1.73-0.96
	c0.7-0.25,1.41-0.37,2.13-0.37c1.14,0,2.04,0.28,2.7,0.85c0.67,0.55,1.01,1.31,1.01,2.26c0,0.65-0.14,1.26-0.43,1.84
	c-0.28,0.58-0.75,1.22-1.41,1.94l-2.8,2.98H254.03z"/>
<path class="st11" d="M216.4,474.41c0.53,0,1,0.13,1.4,0.38c0.41,0.26,0.72,0.62,0.95,1.09c0.22,0.46,0.34,1.01,0.34,1.63
	s-0.11,1.18-0.34,1.66c-0.22,0.47-0.54,0.84-0.95,1.1c-0.41,0.26-0.88,0.4-1.4,0.4c-0.47,0-0.88-0.1-1.24-0.31
	c-0.35-0.21-0.62-0.5-0.8-0.89v1.12h-0.97v-8.83h0.97v3.86c0.18-0.39,0.44-0.69,0.79-0.9C215.51,474.51,215.93,474.41,216.4,474.41z
	 M216.22,479.87c0.58,0,1.04-0.2,1.37-0.61c0.33-0.42,0.49-1,0.49-1.74c0-0.73-0.16-1.29-0.49-1.69c-0.32-0.4-0.78-0.6-1.37-0.6
	c-0.6,0-1.06,0.2-1.38,0.6c-0.32,0.4-0.48,0.97-0.48,1.72c0,0.74,0.16,1.32,0.48,1.73C215.16,479.67,215.62,479.87,216.22,479.87z
	 M225.9,474.55v6.04h-0.96v-1.09c-0.18,0.38-0.44,0.67-0.8,0.88c-0.35,0.2-0.76,0.3-1.24,0.3c-0.54,0-1.01-0.13-1.42-0.38
	c-0.4-0.26-0.71-0.62-0.94-1.08c-0.22-0.47-0.32-1.02-0.32-1.64c0-0.62,0.11-1.17,0.34-1.64c0.22-0.48,0.54-0.85,0.94-1.12
	c0.41-0.26,0.88-0.4,1.4-0.4c0.47,0,0.88,0.1,1.24,0.31c0.35,0.21,0.62,0.5,0.8,0.88v-1.04H225.9z M223.09,479.87
	c0.59,0,1.05-0.2,1.37-0.6c0.32-0.41,0.48-0.98,0.48-1.73c0-0.74-0.16-1.32-0.48-1.72c-0.32-0.4-0.78-0.6-1.37-0.6
	c-0.59,0-1.06,0.21-1.39,0.62c-0.33,0.41-0.49,0.98-0.49,1.72c0,0.74,0.16,1.3,0.49,1.7C222.02,479.67,222.49,479.87,223.09,479.87z
	 M229.82,480.67c-1.02,0-1.82-0.26-2.41-0.78l0.32-0.72c0.33,0.26,0.66,0.44,1,0.55c0.34,0.11,0.71,0.17,1.13,0.17
	c0.46,0,0.8-0.08,1.03-0.23c0.24-0.16,0.36-0.39,0.36-0.68c0-0.24-0.08-0.43-0.24-0.58c-0.16-0.14-0.42-0.26-0.79-0.34l-1.02-0.24
	c-0.5-0.11-0.9-0.31-1.18-0.6c-0.27-0.29-0.41-0.63-0.41-1.03c0-0.53,0.21-0.96,0.64-1.28c0.42-0.34,0.98-0.5,1.68-0.5
	c0.42,0,0.82,0.07,1.2,0.2c0.38,0.14,0.69,0.33,0.95,0.59l-0.32,0.71c-0.57-0.47-1.18-0.71-1.82-0.71c-0.43,0-0.77,0.08-1.01,0.25
	c-0.23,0.16-0.35,0.39-0.35,0.68c0,0.25,0.07,0.44,0.22,0.59c0.15,0.14,0.39,0.26,0.72,0.34l1.02,0.25c0.56,0.13,0.98,0.33,1.25,0.6
	c0.27,0.26,0.41,0.61,0.41,1.04c0,0.52-0.21,0.94-0.64,1.25C231.12,480.51,230.54,480.67,229.82,480.67z M238.78,477.54h-4.43
	c0.01,0.77,0.18,1.35,0.53,1.74c0.35,0.39,0.86,0.59,1.52,0.59c0.7,0,1.35-0.24,1.94-0.71l0.32,0.71c-0.26,0.25-0.6,0.44-1.02,0.59
	c-0.41,0.14-0.83,0.22-1.26,0.22c-0.94,0-1.68-0.28-2.22-0.83c-0.54-0.56-0.8-1.32-0.8-2.29c0-0.62,0.12-1.16,0.36-1.63
	c0.24-0.48,0.58-0.85,1.01-1.12s0.92-0.4,1.48-0.4c0.8,0,1.43,0.26,1.88,0.79c0.46,0.52,0.68,1.24,0.68,2.16V477.54z M236.23,475.16
	c-0.5,0-0.92,0.15-1.24,0.46c-0.31,0.3-0.51,0.73-0.6,1.28h3.52c-0.05-0.57-0.22-1-0.5-1.3
	C237.12,475.31,236.73,475.16,236.23,475.16z M245.57,471.75v8.83h-0.96v-1.09c-0.18,0.38-0.44,0.67-0.8,0.88
	c-0.35,0.2-0.76,0.3-1.24,0.3c-0.53,0-1-0.13-1.4-0.4c-0.4-0.26-0.71-0.63-0.94-1.1c-0.22-0.48-0.34-1.03-0.34-1.66
	s0.11-1.17,0.32-1.63c0.22-0.47,0.54-0.84,0.95-1.09c0.41-0.26,0.88-0.38,1.4-0.38c0.47,0,0.88,0.1,1.24,0.31
	c0.35,0.2,0.62,0.48,0.79,0.85v-3.82H245.57z M242.76,479.87c0.59,0,1.05-0.2,1.37-0.6c0.32-0.41,0.48-0.98,0.48-1.73
	c0-0.74-0.16-1.3-0.48-1.7c-0.32-0.41-0.78-0.61-1.37-0.61c-0.59,0-1.06,0.2-1.39,0.6c-0.33,0.4-0.49,0.96-0.49,1.69
	c0,0.74,0.16,1.32,0.49,1.74C241.71,479.66,242.17,479.87,242.76,479.87z M253.08,480.67c-0.57,0-1.07-0.13-1.5-0.38
	c-0.43-0.26-0.77-0.62-1.01-1.09c-0.23-0.47-0.35-1.02-0.35-1.66c0-0.63,0.12-1.18,0.35-1.66c0.24-0.47,0.58-0.84,1.01-1.09
	c0.43-0.26,0.93-0.38,1.5-0.38c0.57,0,1.07,0.13,1.5,0.38c0.43,0.26,0.76,0.62,1,1.09c0.24,0.47,0.36,1.02,0.36,1.66
	c0,0.63-0.12,1.18-0.36,1.66c-0.23,0.47-0.56,0.84-1,1.09C254.15,480.54,253.65,480.67,253.08,480.67z M253.08,479.87
	c0.6,0,1.06-0.2,1.38-0.59c0.32-0.4,0.48-0.98,0.48-1.74c0-0.74-0.16-1.3-0.49-1.7c-0.33-0.41-0.78-0.61-1.37-0.61
	c-0.59,0-1.05,0.2-1.38,0.61c-0.33,0.4-0.49,0.97-0.49,1.7c0,0.76,0.16,1.34,0.48,1.74C252.01,479.67,252.48,479.87,253.08,479.87z
	 M260.46,474.41c1.45,0,2.17,0.8,2.17,2.39v3.79h-0.97v-3.74c0-0.56-0.11-0.97-0.34-1.22c-0.22-0.26-0.58-0.4-1.06-0.4
	c-0.56,0-1.01,0.17-1.34,0.52s-0.5,0.81-0.5,1.39v3.46h-0.97v-4.34c0-0.62-0.03-1.19-0.1-1.69h0.92l0.1,1.08
	c0.18-0.39,0.46-0.69,0.83-0.9C259.57,474.51,259.99,474.41,260.46,474.41z M268.89,475.32v3.3c0,0.45,0.09,0.76,0.28,0.95
	c0.18,0.18,0.44,0.26,0.78,0.26c0.22,0,0.44-0.04,0.65-0.11v0.83c-0.25,0.08-0.53,0.12-0.84,0.12c-0.58,0-1.03-0.16-1.36-0.48
	c-0.32-0.33-0.48-0.81-0.48-1.44v-3.43h-1.18v-0.77h1.18V473l0.97-0.35v1.9h1.73v0.77H268.89z M274.8,474.41
	c1.45,0,2.17,0.8,2.17,2.39v3.79H276v-3.74c0-0.56-0.11-0.97-0.34-1.22c-0.22-0.26-0.58-0.4-1.06-0.4c-0.56,0-1.01,0.17-1.34,0.52
	s-0.5,0.81-0.5,1.39v3.46h-0.97v-8.83h0.97v3.78c0.19-0.37,0.46-0.65,0.82-0.84C273.94,474.5,274.35,474.41,274.8,474.41z
	 M283.86,477.54h-4.43c0.01,0.77,0.18,1.35,0.53,1.74c0.35,0.39,0.86,0.59,1.52,0.59c0.7,0,1.35-0.24,1.94-0.71l0.32,0.71
	c-0.26,0.25-0.6,0.44-1.02,0.59c-0.41,0.14-0.83,0.22-1.26,0.22c-0.94,0-1.68-0.28-2.22-0.83c-0.54-0.56-0.8-1.32-0.8-2.29
	c0-0.62,0.12-1.16,0.36-1.63c0.24-0.48,0.58-0.85,1.01-1.12s0.92-0.4,1.48-0.4c0.8,0,1.43,0.26,1.88,0.79
	c0.46,0.52,0.68,1.24,0.68,2.16V477.54z M281.31,475.16c-0.5,0-0.92,0.15-1.24,0.46c-0.31,0.3-0.51,0.73-0.6,1.28h3.52
	c-0.05-0.57-0.22-1-0.5-1.3C282.2,475.31,281.81,475.16,281.31,475.16z M293.84,474.55v5.99c0,0.9-0.23,1.57-0.7,2.03
	c-0.46,0.46-1.13,0.7-2.03,0.7c-0.92,0-1.71-0.21-2.38-0.62l0.17-0.79c0.38,0.22,0.74,0.37,1.08,0.47c0.34,0.1,0.72,0.14,1.13,0.14
	c0.58,0,1.02-0.16,1.32-0.47c0.3-0.3,0.44-0.76,0.44-1.37v-1.43c-0.18,0.38-0.46,0.68-0.82,0.9c-0.35,0.21-0.77,0.31-1.26,0.31
	c-0.53,0-1-0.12-1.42-0.37c-0.41-0.25-0.72-0.6-0.95-1.06s-0.34-0.98-0.34-1.57c0-0.59,0.11-1.12,0.34-1.57
	c0.22-0.46,0.54-0.81,0.95-1.06c0.42-0.25,0.89-0.37,1.42-0.37c0.48,0,0.9,0.1,1.25,0.31c0.36,0.21,0.63,0.5,0.82,0.88v-1.04H293.84
	z M291,479.59c0.58,0,1.04-0.19,1.37-0.58c0.34-0.39,0.5-0.93,0.5-1.61s-0.17-1.21-0.5-1.6c-0.33-0.39-0.78-0.59-1.37-0.59
	c-0.59,0-1.06,0.2-1.4,0.59c-0.34,0.38-0.5,0.92-0.5,1.6s0.17,1.22,0.5,1.61C289.94,479.4,290.41,479.59,291,479.59z M298.2,480.67
	c-0.57,0-1.07-0.13-1.5-0.38c-0.43-0.26-0.77-0.62-1.01-1.09c-0.23-0.47-0.35-1.02-0.35-1.66c0-0.63,0.12-1.18,0.35-1.66
	c0.24-0.47,0.58-0.84,1.01-1.09c0.43-0.26,0.93-0.38,1.5-0.38c0.57,0,1.07,0.13,1.5,0.38c0.43,0.26,0.76,0.62,1,1.09
	c0.24,0.47,0.36,1.02,0.36,1.66c0,0.63-0.12,1.18-0.36,1.66c-0.23,0.47-0.56,0.84-1,1.09C299.27,480.54,298.77,480.67,298.2,480.67z
	 M298.2,479.87c0.6,0,1.06-0.2,1.38-0.59c0.32-0.4,0.48-0.98,0.48-1.74c0-0.74-0.16-1.3-0.49-1.7c-0.33-0.41-0.78-0.61-1.37-0.61
	c-0.59,0-1.05,0.2-1.38,0.61c-0.33,0.4-0.49,0.97-0.49,1.7c0,0.76,0.16,1.34,0.48,1.74C297.14,479.67,297.61,479.87,298.2,479.87z
	 M302.58,480.59v-8.83h0.97v8.83H302.58z M310.75,471.75v8.83h-0.96v-1.09c-0.18,0.38-0.44,0.67-0.8,0.88
	c-0.35,0.2-0.76,0.3-1.24,0.3c-0.53,0-1-0.13-1.4-0.4c-0.4-0.26-0.71-0.63-0.94-1.1c-0.22-0.48-0.34-1.03-0.34-1.66
	s0.11-1.17,0.32-1.63c0.22-0.47,0.54-0.84,0.95-1.09c0.41-0.26,0.88-0.38,1.4-0.38c0.47,0,0.88,0.1,1.24,0.31
	c0.35,0.2,0.62,0.48,0.79,0.85v-3.82H310.75z M307.94,479.87c0.59,0,1.05-0.2,1.37-0.6c0.32-0.41,0.48-0.98,0.48-1.73
	c0-0.74-0.16-1.3-0.48-1.7c-0.32-0.41-0.78-0.61-1.37-0.61s-1.06,0.2-1.39,0.6c-0.33,0.4-0.49,0.96-0.49,1.69
	c0,0.74,0.16,1.32,0.49,1.74C306.89,479.66,307.35,479.87,307.94,479.87z M317.68,477.54h-4.43c0.01,0.77,0.18,1.35,0.53,1.74
	c0.35,0.39,0.86,0.59,1.52,0.59c0.7,0,1.35-0.24,1.94-0.71l0.32,0.71c-0.26,0.25-0.6,0.44-1.02,0.59c-0.41,0.14-0.83,0.22-1.26,0.22
	c-0.94,0-1.68-0.28-2.22-0.83c-0.54-0.56-0.8-1.32-0.8-2.29c0-0.62,0.12-1.16,0.36-1.63c0.24-0.48,0.58-0.85,1.01-1.12
	s0.92-0.4,1.48-0.4c0.8,0,1.43,0.26,1.88,0.79c0.46,0.52,0.68,1.24,0.68,2.16V477.54z M315.13,475.16c-0.5,0-0.92,0.15-1.24,0.46
	c-0.31,0.3-0.51,0.73-0.6,1.28h3.52c-0.05-0.57-0.22-1-0.5-1.3C316.02,475.31,315.63,475.16,315.13,475.16z M322.17,474.41
	c1.45,0,2.17,0.8,2.17,2.39v3.79h-0.97v-3.74c0-0.56-0.11-0.97-0.34-1.22c-0.22-0.26-0.58-0.4-1.06-0.4c-0.56,0-1.01,0.17-1.34,0.52
	s-0.5,0.81-0.5,1.39v3.46h-0.97v-4.34c0-0.62-0.03-1.19-0.1-1.69h0.92l0.1,1.08c0.18-0.39,0.46-0.69,0.83-0.9
	C321.28,474.51,321.7,474.41,322.17,474.41z M332.11,474.41c0.2,0,0.38,0.02,0.55,0.07l-0.02,0.89c-0.18-0.06-0.4-0.1-0.64-0.1
	c-0.58,0-1.02,0.18-1.31,0.55c-0.28,0.36-0.42,0.8-0.42,1.32v3.44h-0.97v-4.34c0-0.62-0.03-1.19-0.1-1.69h0.92l0.1,1.12
	c0.15-0.41,0.4-0.72,0.73-0.94S331.68,474.41,332.11,474.41z M338.85,474.55v6.04h-0.96v-1.09c-0.18,0.38-0.44,0.67-0.8,0.88
	c-0.35,0.2-0.76,0.3-1.24,0.3c-0.54,0-1.01-0.13-1.42-0.38c-0.4-0.26-0.71-0.62-0.94-1.08c-0.22-0.47-0.32-1.02-0.32-1.64
	c0-0.62,0.11-1.17,0.34-1.64c0.22-0.48,0.54-0.85,0.94-1.12c0.41-0.26,0.88-0.4,1.4-0.4c0.47,0,0.88,0.1,1.24,0.31
	c0.35,0.21,0.62,0.5,0.8,0.88v-1.04H338.85z M336.05,479.87c0.59,0,1.05-0.2,1.37-0.6c0.32-0.41,0.48-0.98,0.48-1.73
	c0-0.74-0.16-1.32-0.48-1.72s-0.78-0.6-1.37-0.6c-0.59,0-1.06,0.21-1.39,0.62c-0.33,0.41-0.49,0.98-0.49,1.72
	c0,0.74,0.16,1.3,0.49,1.7S335.45,479.87,336.05,479.87z M342.03,475.32v3.3c0,0.45,0.09,0.76,0.28,0.95
	c0.18,0.18,0.44,0.26,0.78,0.26c0.22,0,0.44-0.04,0.65-0.11v0.83c-0.25,0.08-0.53,0.12-0.84,0.12c-0.58,0-1.03-0.16-1.36-0.48
	c-0.32-0.33-0.48-0.81-0.48-1.44v-3.43h-1.18v-0.77h1.18V473l0.97-0.35v1.9h1.73v0.77H342.03z M344.93,480.59v-6.04h0.97v6.04
	H344.93z M344.83,471.99h1.19v1.1h-1.19V471.99z M350.28,480.67c-0.57,0-1.07-0.13-1.5-0.38c-0.43-0.26-0.77-0.62-1.01-1.09
	c-0.23-0.47-0.35-1.02-0.35-1.66c0-0.63,0.12-1.18,0.35-1.66c0.24-0.47,0.58-0.84,1.01-1.09c0.43-0.26,0.93-0.38,1.5-0.38
	s1.07,0.13,1.5,0.38c0.43,0.26,0.76,0.62,1,1.09c0.24,0.47,0.36,1.02,0.36,1.66c0,0.63-0.12,1.18-0.36,1.66
	c-0.23,0.47-0.56,0.84-1,1.09C351.35,480.54,350.85,480.67,350.28,480.67z M350.28,479.87c0.6,0,1.06-0.2,1.38-0.59
	c0.32-0.4,0.48-0.98,0.48-1.74c0-0.74-0.16-1.3-0.49-1.7c-0.33-0.41-0.78-0.61-1.37-0.61c-0.59,0-1.05,0.2-1.38,0.61
	c-0.33,0.4-0.49,0.97-0.49,1.7c0,0.76,0.16,1.34,0.48,1.74C349.22,479.67,349.68,479.87,350.28,479.87z"/>
<path class="st12" d="M524.52,595.34L524.52,595.34l30.42,52.83c2.08,3.61,2.08,8.06,0,11.69l-30.42,52.81l0,0
	c-2.08,3.61-5.92,5.84-10.1,5.84h-60.84c-4.16,0-8.02-2.22-10.1-5.84l0,0l-30.42-52.81c-2.08-3.61-2.08-8.08,0-11.69l0,0
	l30.42-52.83l0,0c2.08-3.61,5.92-5.84,10.1-5.84h60.84C518.58,589.5,522.44,591.72,524.52,595.34z"/>
<path class="st12" d="M368.08,799.95v38.55h-8.58v-55h6.62l30.06,38.86l0.9,1.16v-1.46V783.5h8.61v55h-6.65l-30.06-38.86l-0.89-1.16
	V799.95z"/>
<path class="st12" d="M425.82,838.5v-55h9.32v55H425.82z"/>
<path class="st12" d="M500.02,804.17l-14.97,34.33h-5.98l-14.97-34.33l-0.96-2.2v2.4v34.13h-7.84v-55h7.28l19.03,43.54l0.46,1.05
	l0.46-1.05l19.03-43.54h7.28v55h-7.84v-34.13v-2.4L500.02,804.17z"/>
<path class="st12" d="M528.97,838.5v-55h9.32v55H528.97z"/>
<path class="st12" d="M595.69,836.96l-0.47,0.19l0.2,0.47c0.27,0.62,0.99,1.72,1.84,2.86c0.86,1.16,1.87,2.4,2.75,3.32
	c1.61,1.67,3.3,3.39,5.4,5.13l-6.22,4.91c-2.41-1.72-4.54-3.78-6.72-6.17c-2.26-2.47-4.18-5.21-5.93-8.27l-0.16-0.27l-0.31,0.02
	c-0.42,0.03-1.6,0.07-2.34,0.07c-5.63,0-10.3-1.15-14.33-3.41c-4.02-2.28-7.09-5.53-9.22-9.81l0,0c-1.94-3.89-3.21-9.1-3.21-15.02
	c0-5.92,1.09-10.73,3.25-15.01c2.15-4.26,5.24-7.53,9.26-9.81c4.02-2.28,8.74-3.41,14.26-3.41s10.3,1.15,14.33,3.41
	c4.02,2.28,7.09,5.53,9.21,9.81l0,0c2.14,4.28,3.2,9.09,3.2,15.01c0,5.91-1.3,11.14-3.25,15.01
	C604.31,831.86,599.73,835.29,595.69,836.96z M570.87,826.6L570.87,826.6c3.09,3.7,7.39,5.53,12.87,5.53
	c5.47,0,9.79-1.83,12.87-5.53c3.08-3.69,4.58-8.86,4.58-15.6c0-6.68-1.5-11.97-4.58-15.63c-3.09-3.67-7.39-5.5-12.86-5.5
	c-5.47,0-9.79,1.8-12.86,5.45c-3.08,3.65-4.58,8.95-4.58,15.68C566.29,817.73,567.79,822.9,570.87,826.6z"/>
<g class="st7">
	<line class="st8" x1="359" y1="588.5" x2="611" y2="588.5"/>
	<line class="st8" x1="359" y1="719.5" x2="611" y2="719.5"/>
	<line class="st8" x1="359" y1="782.5" x2="611" y2="782.5"/>
	<line class="st8" x1="359" y1="839.5" x2="611" y2="839.5"/>
	<line class="st8" x1="359" y1="854.5" x2="611" y2="854.5"/>
	<line class="st8" x1="358.5" y1="588" x2="358.5" y2="855"/>
	<line class="st8" x1="410.5" y1="589" x2="410.5" y2="854"/>
	<line class="st8" x1="557.5" y1="589" x2="557.5" y2="854"/>
	<line class="st8" x1="611.5" y1="588" x2="611.5" y2="855"/>
</g>
<g class="st7">
	<line class="st8" x1="636.5" y1="588.5" x2="636.5" y2="719"/>
	<line class="st8" x1="641" y1="588.5" x2="632" y2="588.5"/>
	<line class="st8" x1="641" y1="719.5" x2="632" y2="719.5"/>
	<line class="st8" x1="636.5" y1="720" x2="636.5" y2="782"/>
	<line class="st8" x1="641" y1="782.5" x2="632" y2="782.5"/>
</g>
<path class="st10" d="M652.34,662.32h2.48V664h-7.02v-1.68h2.5v-7.34l-2.32,1.39v-1.84l3.17-1.92h1.2V662.32z"/>
<path class="st10" d="M650.8,756.14c-1.35,0-2.39-0.5-3.1-1.49c-0.7-1-1.06-2.46-1.06-4.37c0-1.88,0.35-3.31,1.06-4.3
	c0.72-0.99,1.75-1.49,3.1-1.49c1.36,0,2.38,0.5,3.09,1.49c0.72,0.98,1.07,2.42,1.07,4.3c0,1.9-0.36,3.35-1.07,4.35
	C653.18,755.64,652.16,756.14,650.8,756.14z M650.8,754.53c0.74,0,1.27-0.34,1.6-1.01c0.34-0.68,0.51-1.76,0.51-3.23
	c0-1.45-0.17-2.51-0.51-3.17c-0.33-0.67-0.86-1.01-1.6-1.01c-0.74,0-1.27,0.34-1.62,1.01c-0.33,0.66-0.5,1.72-0.5,3.17
	c0,1.47,0.17,2.55,0.5,3.23C649.53,754.19,650.06,754.53,650.8,754.53z M656.47,753.76h2.24V756h-2.24V753.76z M665.02,748.72
	c0.71,0,1.34,0.16,1.89,0.46c0.54,0.3,0.97,0.72,1.26,1.28c0.3,0.54,0.45,1.17,0.45,1.89c0,0.75-0.17,1.41-0.51,1.98
	c-0.34,0.57-0.83,1.01-1.47,1.33c-0.64,0.31-1.38,0.46-2.22,0.46c-0.71,0-1.42-0.12-2.11-0.35c-0.69-0.24-1.26-0.57-1.71-0.98
	l0.69-1.5c1.03,0.79,2.09,1.18,3.17,1.18c0.72,0,1.26-0.18,1.63-0.53c0.38-0.36,0.58-0.88,0.58-1.54c0-0.63-0.2-1.13-0.59-1.5
	c-0.38-0.38-0.9-0.58-1.55-0.58c-0.45,0-0.87,0.09-1.26,0.26c-0.39,0.16-0.74,0.4-1.04,0.72h-1.25v-6.7h7.14v1.6h-5.12v3.1
	C663.54,748.92,664.23,748.72,665.02,748.72z"/>
<path class="st12" d="M163.67,260.38L163.67,260.38l35.53,61.69c2.43,4.22,2.43,9.41,0,13.65l-35.53,61.68l0,0
	c-2.43,4.22-6.92,6.82-11.79,6.82H80.82c-4.86,0-9.36-2.6-11.79-6.82l0,0L33.5,335.73c-2.43-4.22-2.43-9.43,0-13.65l0,0l35.53-61.69
	l0,0c2.43-4.22,6.92-6.82,11.79-6.82h71.06C156.74,253.57,161.25,256.16,163.67,260.38z"/>
</svg>
