<?xml version="1.0" encoding="utf-8"?>
<!-- Generator: Adobe Illustrator 23.0.3, SVG Export Plug-In . SVG Version: 6.00 Build 0)  -->
<svg version="1.1" id="Layer_1" xmlns="http://www.w3.org/2000/svg" xmlns:xlink="http://www.w3.org/1999/xlink" x="0px" y="0px"
	 viewBox="0 0 1443 321" style="enable-background:new 0 0 1443 321;" xml:space="preserve">
<style type="text/css">
	.st0{fill:#FFFFFF;}
	.st1{fill:#1F2348;}
	.st2{fill:url(#SVGID_1_);}
	.st3{opacity:0.5;fill:url(#SVGID_2_);enable-background:new    ;}
	.st4{opacity:0.15;fill:#FFFFFF;stroke:#1F2348;stroke-width:2;enable-background:new    ;}
	.st5{opacity:0.4;fill:#1F2348;enable-background:new    ;}
	.st6{fill:url(#SVGID_3_);}
	.st7{opacity:0.2;fill:#1F2348;enable-background:new    ;}
	.st8{fill:#E9B213;}
	.st9{fill:url(#SVGID_4_);}
	.st10{fill:url(#SVGID_5_);}
	.st11{opacity:0.7;fill:url(#SVGID_6_);enable-background:new    ;}
</style>
<rect class="st0" width="1443" height="321"/>
<path class="st1" d="M215.15,46l-1.85-4.34h-9.05L202.38,46H199l8.37-18.51h2.73L218.5,46H215.15z M205.37,39.06h6.81l-3.41-7.93
	L205.37,39.06z M234.49,36.43c1.07,0.31,1.9,0.86,2.47,1.64c0.59,0.78,0.88,1.74,0.88,2.89c0,1.58-0.56,2.82-1.69,3.72
	c-1.11,0.88-2.66,1.33-4.65,1.33h-8.4V27.49h8.14c1.91,0,3.41,0.43,4.5,1.3c1.09,0.85,1.64,2.03,1.64,3.54
	c0,0.97-0.26,1.82-0.78,2.55C236.09,35.58,235.39,36.1,234.49,36.43z M226.38,35.29h4.32c2.32,0,3.48-0.87,3.48-2.6
	c0-0.87-0.29-1.52-0.86-1.95c-0.57-0.43-1.45-0.65-2.63-0.65h-4.32V35.29z M231.14,43.4c1.21,0,2.1-0.22,2.65-0.65
	c0.57-0.43,0.86-1.12,0.86-2.05c0-0.95-0.29-1.66-0.86-2.11c-0.55-0.45-1.44-0.68-2.65-0.68h-4.76v5.49H231.14z M252.05,46.23
	c-1.82,0-3.41-0.39-4.78-1.17c-1.35-0.78-2.39-1.88-3.12-3.3c-0.73-1.44-1.09-3.12-1.09-5.04c0-1.91,0.36-3.57,1.09-4.99
	c0.73-1.44,1.77-2.54,3.12-3.3c1.37-0.78,2.96-1.17,4.78-1.17c1.25,0,2.42,0.2,3.51,0.6c1.11,0.38,2.03,0.92,2.76,1.61l-1.09,2.44
	c-0.83-0.68-1.66-1.16-2.5-1.46c-0.81-0.31-1.69-0.47-2.63-0.47c-1.79,0-3.17,0.58-4.16,1.74c-0.97,1.16-1.46,2.83-1.46,4.99
	c0,2.18,0.49,3.87,1.46,5.04c0.97,1.16,2.36,1.74,4.16,1.74c0.94,0,1.81-0.15,2.63-0.44c0.83-0.31,1.66-0.81,2.5-1.48l1.09,2.44
	c-0.73,0.69-1.65,1.24-2.76,1.64C254.47,46.04,253.3,46.23,252.05,46.23z M264.05,27.49h6.81c3.03,0,5.38,0.81,7.05,2.42
	c1.68,1.61,2.52,3.88,2.52,6.81c0,2.95-0.84,5.23-2.52,6.86c-1.66,1.61-4.01,2.42-7.05,2.42h-6.81V27.49z M270.66,43.27
	c4.26,0,6.4-2.18,6.4-6.55c0-4.33-2.13-6.5-6.4-6.5h-3.25v13.05H270.66z M286.46,46V27.49h12.38v2.65h-9.1v5.12h8.55v2.65h-8.55
	v5.43h9.1V46H286.46z M304.52,46V27.49h12.09v2.68h-8.76v5.07h8.24v2.7h-8.24V46H304.52z M337.19,35.99v8.89
	c-0.85,0.42-1.87,0.75-3.07,0.99c-1.2,0.24-2.42,0.36-3.67,0.36c-1.91,0-3.56-0.38-4.97-1.14c-1.4-0.76-2.48-1.85-3.22-3.28
	c-0.75-1.42-1.12-3.12-1.12-5.1c0-1.94,0.37-3.62,1.12-5.04c0.74-1.42,1.8-2.51,3.17-3.28c1.39-0.76,3.01-1.14,4.86-1.14
	c1.3,0,2.51,0.19,3.64,0.57c1.14,0.38,2.1,0.92,2.86,1.61l-1.14,2.44c-0.87-0.68-1.72-1.16-2.55-1.46
	c-0.83-0.29-1.74-0.44-2.73-0.44c-1.91,0-3.35,0.57-4.34,1.72c-0.97,1.14-1.46,2.82-1.46,5.02c0,2.27,0.5,3.99,1.51,5.15
	c1.01,1.14,2.5,1.72,4.5,1.72c1.21,0,2.41-0.16,3.59-0.49v-4.68h-4v-2.42H337.19z M356.36,27.49h3.33V46h-3.33v-8.03h-9.49V46h-3.3
	V27.49h3.3v7.75h9.49V27.49z M366.3,46V27.49h3.35V46H366.3z M198.95,80.9c0.88,0.12,1.51,0.18,1.87,0.18
	c0.85,0,1.43-0.21,1.74-0.62s0.47-1.16,0.47-2.24V60.49h3.35v17.73c0,1.98-0.37,3.41-1.12,4.29c-0.75,0.9-2.02,1.35-3.82,1.35
	c-0.83,0-1.66-0.07-2.5-0.21V80.9z M229.07,79h-4.11l-8.61-8.66V79H213V60.49h3.35v8.29l8.27-8.29h4.03l-9,8.89L229.07,79z
	 M232.91,79V60.49h3.35v15.76h8.66V79H232.91z M265.45,60.49h2.65V79h-2.96V67.51L260.23,79h-2.21l-4.94-11.36V79h-2.96V60.49h2.65
	l6.37,14.48L265.45,60.49z M287.21,60.49h3.15V79h-2.5l-9.98-12.97V79h-3.12V60.49h2.5l9.96,12.95V60.49z M305.2,79.23
	c-1.79,0-3.35-0.38-4.68-1.14c-1.32-0.78-2.34-1.88-3.07-3.3c-0.71-1.44-1.07-3.13-1.07-5.07c0-1.92,0.35-3.6,1.07-5.02
	c0.71-1.44,1.72-2.54,3.04-3.3c1.33-0.76,2.9-1.14,4.71-1.14c1.8,0,3.36,0.38,4.68,1.14c1.33,0.76,2.35,1.86,3.04,3.3
	c0.71,1.42,1.07,3.09,1.07,5.02c0,1.94-0.36,3.63-1.07,5.07c-0.71,1.42-1.73,2.52-3.04,3.3C308.56,78.85,307,79.23,305.2,79.23z
	 M305.2,76.56c1.72,0,3.05-0.59,4-1.77c0.95-1.18,1.43-2.87,1.43-5.07c0-2.18-0.48-3.86-1.43-5.02c-0.95-1.18-2.29-1.77-4-1.77
	s-3.05,0.58-4,1.74c-0.95,1.16-1.43,2.84-1.43,5.04c0,2.2,0.48,3.89,1.43,5.07C302.14,75.97,303.48,76.56,305.2,76.56z
	 M320.02,60.49h8.03c1.99,0,3.54,0.49,4.65,1.46c1.11,0.95,1.66,2.26,1.66,3.93c0,1.66-0.56,2.98-1.69,3.95
	c-1.11,0.97-2.65,1.46-4.63,1.46h-4.68V79h-3.35V60.49z M327.66,68.68c1.16,0,2.04-0.23,2.63-0.7c0.61-0.49,0.91-1.18,0.91-2.08
	c0-0.92-0.29-1.61-0.88-2.08c-0.59-0.49-1.47-0.73-2.65-0.73h-4.29v5.59H327.66z M355.25,60.49l-7.51,11.18V79h-3.35v-7.33
	l-7.51-11.18h3.82l5.36,8.37l5.38-8.37H355.25z M374.07,79h-3.54l-2.37-6.16c-0.21-0.57-0.53-0.97-0.96-1.2
	c-0.43-0.23-1-0.34-1.69-0.34h-3.35V79h-3.33V60.49h7.93c2.1,0,3.69,0.46,4.78,1.38c1.09,0.92,1.64,2.24,1.64,3.95
	c0,1.23-0.33,2.28-0.99,3.15c-0.64,0.85-1.56,1.46-2.76,1.82c1.09,0.23,1.88,0.99,2.37,2.29L374.07,79z M366.3,68.7
	c1.27,0,2.2-0.23,2.81-0.7c0.61-0.47,0.91-1.18,0.91-2.13c0-0.94-0.3-1.63-0.91-2.08c-0.59-0.47-1.53-0.7-2.81-0.7h-4.19v5.62H366.3
	z M207.27,111.23c-1.42,0-2.76-0.19-4-0.57c-1.23-0.38-2.28-0.93-3.15-1.64l1.14-2.44c0.9,0.68,1.84,1.18,2.81,1.51
	c0.99,0.31,2.06,0.47,3.22,0.47c1.28,0,2.27-0.22,2.96-0.68c0.71-0.45,1.07-1.08,1.07-1.9c0-0.69-0.33-1.22-0.99-1.59
	c-0.64-0.38-1.71-0.74-3.2-1.07c-2.32-0.5-4.01-1.15-5.07-1.95c-1.06-0.8-1.59-1.96-1.59-3.48c0-1.09,0.29-2.06,0.88-2.91
	c0.59-0.85,1.42-1.52,2.5-2c1.09-0.49,2.35-0.73,3.77-0.73c1.3,0,2.53,0.2,3.69,0.6c1.18,0.38,2.14,0.92,2.89,1.61l-1.12,2.44
	c-1.65-1.32-3.47-1.98-5.46-1.98c-1.2,0-2.14,0.25-2.83,0.75c-0.69,0.49-1.04,1.15-1.04,2c0,0.73,0.3,1.28,0.91,1.66
	c0.62,0.38,1.68,0.74,3.17,1.07c1.54,0.36,2.8,0.76,3.77,1.2c0.97,0.42,1.72,0.96,2.24,1.64c0.52,0.66,0.78,1.49,0.78,2.5
	c0,1.11-0.3,2.08-0.88,2.91c-0.59,0.81-1.44,1.45-2.55,1.9C210.09,111.01,208.78,111.23,207.27,111.23z M224.3,111V95.24h-6.03
	v-2.76h15.47v2.76h-6.06V111H224.3z M246.29,111.23c-2.55,0-4.48-0.65-5.8-1.95c-1.3-1.32-1.95-3.24-1.95-5.77V92.49h3.3v11.21
	c0,1.6,0.37,2.81,1.12,3.64c0.75,0.82,1.86,1.22,3.33,1.22c1.44,0,2.53-0.42,3.28-1.25c0.76-0.83,1.14-2.04,1.14-3.61V92.49h3.3
	v11.02c0,2.51-0.66,4.43-1.98,5.75C250.72,110.57,248.81,111.23,246.29,111.23z M274.07,92.49h3.41L269.23,111h-2.73l-8.24-18.51
	h3.48l6.16,14.3L274.07,92.49z M305.13,92.49h3.22L301.8,111h-2.73l-4.65-13.31L289.71,111h-2.73l-6.53-18.51h3.41l4.63,13.81
	l4.81-13.81h2.39l4.71,13.91L305.13,92.49z M322.04,101.59l7.05,9.41h-3.93l-5.02-6.92l-5.02,6.92h-3.93l7.05-9.44l-6.81-9.07h3.93
	l4.78,6.63l4.84-6.63h3.9L322.04,101.59z M348.79,92.49l-7.51,11.18V111h-3.35v-7.33l-7.51-11.18h3.82l5.36,8.37l5.38-8.37H348.79z
	 M355.39,108.32h9.85V111h-13.6v-2.44l9.52-13.39h-9.52v-2.68h13.31v2.42L355.39,108.32z"/>
<radialGradient id="SVGID_1_" cx="418.1554" cy="558.8217" r="1" gradientTransform="matrix(-193 0 0 129 81096 -71808)" gradientUnits="userSpaceOnUse">
	<stop  offset="0" style="stop-color:#260133"/>
	<stop  offset="1" style="stop-color:#1F2348"/>
</radialGradient>
<path class="st2" d="M199,161c0-5.52,4.48-10,10-10h183v129H209c-5.52,0-10-4.48-10-10V161z"/>
<path class="st0" d="M239.42,200l-1.42-3.34h-6.96L229.6,200H227l6.44-14.24h2.1L242,200H239.42z M231.9,194.66h5.24l-2.62-6.1
	L231.9,194.66z M254.3,192.64c0.83,0.24,1.46,0.66,1.9,1.26c0.45,0.6,0.68,1.34,0.68,2.22c0,1.21-0.43,2.17-1.3,2.86
	c-0.85,0.68-2.05,1.02-3.58,1.02h-6.46v-14.24h6.26c1.47,0,2.62,0.33,3.46,1c0.84,0.65,1.26,1.56,1.26,2.72c0,0.75-0.2,1.4-0.6,1.96
	C255.53,191.99,254.99,192.39,254.3,192.64z M248.06,191.76h3.32c1.79,0,2.68-0.67,2.68-2c0-0.67-0.22-1.17-0.66-1.5
	c-0.44-0.33-1.11-0.5-2.02-0.5h-3.32V191.76z M251.72,198c0.93,0,1.61-0.17,2.04-0.5c0.44-0.33,0.66-0.86,0.66-1.58
	c0-0.73-0.22-1.27-0.66-1.62c-0.43-0.35-1.11-0.52-2.04-0.52h-3.66V198H251.72z M267.81,200.18c-1.4,0-2.63-0.3-3.68-0.9
	c-1.04-0.6-1.84-1.45-2.4-2.54c-0.56-1.11-0.84-2.4-0.84-3.88c0-1.47,0.28-2.75,0.84-3.84c0.56-1.11,1.36-1.95,2.4-2.54
	c1.05-0.6,2.28-0.9,3.68-0.9c0.96,0,1.86,0.15,2.7,0.46c0.85,0.29,1.56,0.71,2.12,1.24l-0.84,1.88c-0.64-0.52-1.28-0.89-1.92-1.12
	c-0.63-0.24-1.3-0.36-2.02-0.36c-1.37,0-2.44,0.45-3.2,1.34c-0.75,0.89-1.12,2.17-1.12,3.84c0,1.68,0.37,2.97,1.12,3.88
	c0.75,0.89,1.81,1.34,3.2,1.34c0.72,0,1.39-0.11,2.02-0.34c0.64-0.24,1.28-0.62,1.92-1.14l0.84,1.88c-0.56,0.53-1.27,0.95-2.12,1.26
	C269.67,200.03,268.77,200.18,267.81,200.18z M277.04,185.76h5.24c2.33,0,4.14,0.62,5.42,1.86c1.29,1.24,1.94,2.99,1.94,5.24
	c0,2.27-0.65,4.03-1.94,5.28c-1.28,1.24-3.09,1.86-5.42,1.86h-5.24V185.76z M282.12,197.9c3.28,0,4.92-1.68,4.92-5.04
	c0-3.33-1.64-5-4.92-5h-2.5v10.04H282.12z M294.27,200v-14.24h9.52v2.04h-7v3.94h6.58v2.04h-6.58v4.18h7V200H294.27z M308.17,200
	v-14.24h9.3v2.06h-6.74v3.9h6.34v2.08h-6.34v6.2H308.17z M333.3,192.3v6.84c-0.65,0.32-1.44,0.57-2.36,0.76
	c-0.92,0.19-1.86,0.28-2.82,0.28c-1.47,0-2.74-0.29-3.82-0.88c-1.08-0.59-1.91-1.43-2.48-2.52s-0.86-2.4-0.86-3.92
	c0-1.49,0.29-2.79,0.86-3.88s1.39-1.93,2.44-2.52c1.07-0.59,2.31-0.88,3.74-0.88c1,0,1.93,0.15,2.8,0.44
	c0.88,0.29,1.61,0.71,2.2,1.24l-0.88,1.88c-0.67-0.52-1.32-0.89-1.96-1.12c-0.64-0.23-1.34-0.34-2.1-0.34
	c-1.47,0-2.58,0.44-3.34,1.32c-0.75,0.88-1.12,2.17-1.12,3.86c0,1.75,0.39,3.07,1.16,3.96c0.77,0.88,1.93,1.32,3.46,1.32
	c0.93,0,1.85-0.13,2.76-0.38v-3.6h-3.08v-1.86H333.3z M348.04,185.76h2.56V200h-2.56v-6.18h-7.3V200h-2.54v-14.24h2.54v5.96h7.3
	V185.76z M355.69,200v-14.24h2.58V200H355.69z M226.96,226.46c0.68,0.09,1.16,0.14,1.44,0.14c0.65,0,1.1-0.16,1.34-0.48
	c0.24-0.32,0.36-0.89,0.36-1.72v-13.64h2.58v13.64c0,1.52-0.29,2.62-0.86,3.3c-0.57,0.69-1.55,1.04-2.94,1.04
	c-0.64,0-1.28-0.05-1.92-0.16V226.46z M250.13,225h-3.16l-6.62-6.66V225h-2.58v-14.24h2.58v6.38l6.36-6.38h3.1l-6.92,6.84
	L250.13,225z M253.09,225v-14.24h2.58v12.12h6.66V225H253.09z M278.12,210.76h2.04V225h-2.28v-8.84L274.1,225h-1.7l-3.8-8.74V225
	h-2.28v-14.24h2.04l4.9,11.14L278.12,210.76z M294.85,210.76h2.42V225h-1.92l-7.68-9.98V225h-2.4v-14.24h1.92l7.66,9.96V210.76z
	 M308.69,225.18c-1.37,0-2.57-0.29-3.6-0.88c-1.01-0.6-1.8-1.45-2.36-2.54c-0.55-1.11-0.82-2.41-0.82-3.9
	c0-1.48,0.27-2.77,0.82-3.86c0.55-1.11,1.33-1.95,2.34-2.54c1.03-0.59,2.23-0.88,3.62-0.88c1.39,0,2.59,0.29,3.6,0.88
	c1.03,0.59,1.81,1.43,2.34,2.54c0.55,1.09,0.82,2.38,0.82,3.86c0,1.49-0.27,2.79-0.82,3.9c-0.55,1.09-1.33,1.94-2.34,2.54
	C311.27,224.89,310.08,225.18,308.69,225.18z M308.69,223.12c1.32,0,2.35-0.45,3.08-1.36c0.73-0.91,1.1-2.21,1.1-3.9
	c0-1.68-0.37-2.97-1.1-3.86c-0.73-0.91-1.76-1.36-3.08-1.36c-1.32,0-2.35,0.45-3.08,1.34c-0.73,0.89-1.1,2.19-1.1,3.88
	s0.37,2.99,1.1,3.9C306.34,222.67,307.37,223.12,308.69,223.12z M320.09,210.76h6.18c1.53,0,2.73,0.37,3.58,1.12
	c0.85,0.73,1.28,1.74,1.28,3.02s-0.43,2.29-1.3,3.04c-0.85,0.75-2.04,1.12-3.56,1.12h-3.6V225h-2.58V210.76z M325.97,217.06
	c0.89,0,1.57-0.18,2.02-0.54c0.47-0.37,0.7-0.91,0.7-1.6c0-0.71-0.23-1.24-0.68-1.6c-0.45-0.37-1.13-0.56-2.04-0.56h-3.3v4.3H325.97
	z M347.19,210.76l-5.78,8.6V225h-2.58v-5.64l-5.78-8.6h2.94l4.12,6.44l4.14-6.44H347.19z M361.67,225h-2.72l-1.82-4.74
	c-0.16-0.44-0.41-0.75-0.74-0.92c-0.33-0.17-0.77-0.26-1.3-0.26h-2.58V225h-2.56v-14.24h6.1c1.61,0,2.84,0.35,3.68,1.06
	c0.84,0.71,1.26,1.72,1.26,3.04c0,0.95-0.25,1.75-0.76,2.42c-0.49,0.65-1.2,1.12-2.12,1.4c0.84,0.17,1.45,0.76,1.82,1.76L361.67,225
	z M355.69,217.08c0.97,0,1.69-0.18,2.16-0.54c0.47-0.36,0.7-0.91,0.7-1.64c0-0.72-0.23-1.25-0.7-1.6c-0.45-0.36-1.17-0.54-2.16-0.54
	h-3.22v4.32H355.69z M233.36,250.18c-1.09,0-2.12-0.15-3.08-0.44c-0.95-0.29-1.75-0.71-2.42-1.26l0.88-1.88
	c0.69,0.52,1.41,0.91,2.16,1.16c0.76,0.24,1.59,0.36,2.48,0.36c0.99,0,1.75-0.17,2.28-0.52c0.55-0.35,0.82-0.83,0.82-1.46
	c0-0.53-0.25-0.94-0.76-1.22c-0.49-0.29-1.31-0.57-2.46-0.82c-1.79-0.39-3.09-0.89-3.9-1.5c-0.81-0.61-1.22-1.51-1.22-2.68
	c0-0.84,0.23-1.59,0.68-2.24c0.45-0.65,1.09-1.17,1.92-1.54c0.84-0.37,1.81-0.56,2.9-0.56c1,0,1.95,0.15,2.84,0.46
	c0.91,0.29,1.65,0.71,2.22,1.24l-0.86,1.88c-1.27-1.01-2.67-1.52-4.2-1.52c-0.92,0-1.65,0.19-2.18,0.58
	c-0.53,0.37-0.8,0.89-0.8,1.54c0,0.56,0.23,0.99,0.7,1.28c0.48,0.29,1.29,0.57,2.44,0.82c1.19,0.28,2.15,0.59,2.9,0.92
	c0.75,0.32,1.32,0.74,1.72,1.26c0.4,0.51,0.6,1.15,0.6,1.92c0,0.85-0.23,1.6-0.68,2.24c-0.45,0.63-1.11,1.11-1.96,1.46
	C235.53,250.01,234.52,250.18,233.36,250.18z M246.46,250v-12.12h-4.64v-2.12h11.9v2.12h-4.66V250H246.46z M263.38,250.18
	c-1.96,0-3.45-0.5-4.46-1.5c-1-1.01-1.5-2.49-1.5-4.44v-8.48h2.54v8.62c0,1.23,0.29,2.16,0.86,2.8c0.57,0.63,1.43,0.94,2.56,0.94
	c1.11,0,1.95-0.32,2.52-0.96c0.59-0.64,0.88-1.57,0.88-2.78v-8.62h2.54v8.48c0,1.93-0.51,3.41-1.52,4.42
	S265.31,250.18,263.38,250.18z M284.75,235.76h2.62L281.03,250h-2.1l-6.34-14.24h2.68l4.74,11L284.75,235.76z M308.64,235.76h2.48
	L306.08,250h-2.1l-3.58-10.24L296.78,250h-2.1l-5.02-14.24h2.62l3.56,10.62l3.7-10.62h1.84l3.62,10.7L308.64,235.76z M321.64,242.76
	l5.42,7.24h-3.02l-3.86-5.32l-3.86,5.32h-3.02l5.42-7.26l-5.24-6.98h3.02l3.68,5.1l3.72-5.1h3L321.64,242.76z M342.22,235.76
	l-5.78,8.6V250h-2.58v-5.64l-5.78-8.6h2.94l4.12,6.44l4.14-6.44H342.22z M347.3,247.94h7.58V250h-10.46v-1.88l7.32-10.3h-7.32v-2.06
	h10.24v1.86L347.3,247.94z"/>
<radialGradient id="SVGID_2_" cx="420.16" cy="558.8217" r="1" gradientTransform="matrix(-100 0 0 129 42508 -71808)" gradientUnits="userSpaceOnUse">
	<stop  offset="0" style="stop-color:#EAE9EA"/>
	<stop  offset="1" style="stop-color:#E9E9EA"/>
</radialGradient>
<path class="st3" d="M392,151h90c5.52,0,10,4.48,10,10v109c0,5.52-4.48,10-10,10h-90V151z"/>
<path class="st4" d="M28,20h123c4.42,0,8,3.58,8,8v244c0,4.42-3.58,8-8,8H28c-4.42,0-8-3.58-8-8V28C20,23.58,23.58,20,28,20z"/>
<path class="st1" d="M50,240h80c5.52,0,10,4.48,10,10l0,0c0,5.52-4.48,10-10,10H50c-5.52,0-10-4.48-10-10l0,0
	C40,244.48,44.48,240,50,240z"/>
<path class="st5" d="M41.23,44.61h4.19c1.87,0,3.31,0.5,4.34,1.49c1.03,0.99,1.55,2.39,1.55,4.19c0,1.81-0.52,3.22-1.55,4.22
	C48.74,55.5,47.29,56,45.42,56h-4.19V44.61z M45.3,54.32c2.62,0,3.94-1.34,3.94-4.03c0-2.67-1.31-4-3.94-4h-2v8.03H45.3z
	 M68.02,50.11c0.66,0.19,1.17,0.53,1.52,1.01c0.36,0.48,0.54,1.07,0.54,1.78c0,0.97-0.35,1.73-1.04,2.29
	C68.36,55.73,67.4,56,66.18,56h-5.17V44.61h5.01c1.17,0,2.1,0.27,2.77,0.8c0.67,0.52,1.01,1.25,1.01,2.18c0,0.6-0.16,1.12-0.48,1.57
	C69,49.59,68.57,49.91,68.02,50.11z M63.03,49.41h2.66c1.43,0,2.14-0.53,2.14-1.6c0-0.53-0.18-0.93-0.53-1.2
	c-0.35-0.27-0.89-0.4-1.62-0.4h-2.66V49.41z M65.95,54.4c0.75,0,1.29-0.13,1.63-0.4c0.35-0.27,0.53-0.69,0.53-1.26
	c0-0.59-0.18-1.02-0.53-1.3c-0.34-0.28-0.89-0.42-1.63-0.42h-2.93v3.38H65.95z M73.66,56V44.61h2.06v9.7h5.33V56H73.66z
	 M88.45,56.14c-1.57,0-2.76-0.4-3.57-1.2c-0.8-0.81-1.2-1.99-1.2-3.55v-6.78h2.03v6.9c0,0.98,0.23,1.73,0.69,2.24
	c0.46,0.5,1.14,0.75,2.05,0.75c0.89,0,1.56-0.26,2.02-0.77c0.47-0.51,0.7-1.25,0.7-2.22v-6.9h2.03v6.78c0,1.55-0.41,2.73-1.22,3.54
	C91.17,55.74,89.99,56.14,88.45,56.14z M97.19,56V44.61h7.62v1.63h-5.6v3.15h5.26v1.63H99.2v3.34h5.6V56H97.19z"/>
<radialGradient id="SVGID_3_" cx="420.16" cy="559.35" r="1" gradientTransform="matrix(-100 0 0 100 42156 -55735)" gradientUnits="userSpaceOnUse">
	<stop  offset="0" style="stop-color:#260133"/>
	<stop  offset="1" style="stop-color:#1F2348"/>
</radialGradient>
<path class="st6" d="M50,100h80c5.52,0,10,4.48,10,10v80c0,5.52-4.48,10-10,10H50c-5.52,0-10-4.48-10-10v-80
	C40,104.48,44.48,100,50,100z"/>
<path class="st7" d="M564,40.18c-1.4,0-2.63-0.3-3.68-0.9c-1.04-0.6-1.84-1.45-2.4-2.54c-0.56-1.11-0.84-2.4-0.84-3.88
	c0-1.47,0.28-2.75,0.84-3.84c0.56-1.11,1.36-1.95,2.4-2.54c1.05-0.6,2.28-0.9,3.68-0.9c0.96,0,1.86,0.15,2.7,0.46
	c0.85,0.29,1.56,0.71,2.12,1.24l-0.84,1.88c-0.64-0.52-1.28-0.89-1.92-1.12c-0.63-0.24-1.3-0.36-2.02-0.36
	c-1.37,0-2.44,0.45-3.2,1.34c-0.75,0.89-1.12,2.17-1.12,3.84c0,1.68,0.37,2.97,1.12,3.88c0.75,0.89,1.81,1.34,3.2,1.34
	c0.72,0,1.39-0.11,2.02-0.34c0.64-0.24,1.28-0.62,1.92-1.14l0.84,1.88c-0.56,0.53-1.27,0.95-2.12,1.26
	C565.86,40.03,564.96,40.18,564,40.18z M569.38,50.76h2.04V65h-2.28v-8.84L565.36,65h-1.7l-3.8-8.74V65h-2.28V50.76h2.04l4.9,11.14
	L569.38,50.76z M569.36,75.76l-5.78,8.6V90H561v-5.64l-5.78-8.6h2.94l4.12,6.44l4.14-6.44H569.36z M569.9,115h-3.16l-6.62-6.66V115
	h-2.58v-14.24h2.58v6.38l6.36-6.38h3.1l-6.92,6.84L569.9,115z"/>
<path class="st5" d="M596.54,25.58c1.8,0,3.19,0.61,4.16,1.84c0.99,1.21,1.48,2.95,1.48,5.2c0,1.57-0.23,2.93-0.7,4.06
	c-0.47,1.13-1.14,2-2.02,2.6c-0.87,0.6-1.9,0.9-3.1,0.9c-0.85,0-1.69-0.14-2.5-0.42c-0.8-0.29-1.49-0.71-2.08-1.24l0.86-1.88
	c1.27,0.99,2.47,1.48,3.62,1.48c1.05,0,1.87-0.45,2.44-1.34c0.59-0.91,0.89-2.2,0.92-3.88c-0.31,0.61-0.77,1.1-1.4,1.46
	c-0.61,0.36-1.31,0.54-2.1,0.54c-0.84,0-1.59-0.19-2.26-0.58c-0.65-0.39-1.17-0.93-1.54-1.62c-0.37-0.69-0.56-1.49-0.56-2.38
	c0-0.91,0.2-1.72,0.6-2.44c0.41-0.72,0.98-1.28,1.7-1.68C594.79,25.79,595.62,25.58,596.54,25.58z M596.68,32.84
	c0.75,0,1.35-0.24,1.82-0.72s0.7-1.11,0.7-1.88s-0.23-1.4-0.7-1.88c-0.47-0.49-1.07-0.74-1.82-0.74s-1.35,0.24-1.8,0.72
	c-0.44,0.48-0.66,1.11-0.66,1.9s0.22,1.42,0.66,1.9C595.33,32.61,595.93,32.84,596.68,32.84z M611.87,30.86
	c0.84,0,1.59,0.19,2.24,0.58c0.67,0.39,1.19,0.93,1.56,1.62c0.37,0.69,0.56,1.49,0.56,2.38c0,0.91-0.21,1.72-0.62,2.44
	c-0.4,0.72-0.97,1.29-1.7,1.7c-0.72,0.4-1.54,0.6-2.46,0.6c-1.8,0-3.19-0.61-4.16-1.82c-0.97-1.23-1.46-2.97-1.46-5.22
	c0-1.57,0.23-2.93,0.68-4.06c0.47-1.13,1.13-2,2-2.6c0.88-0.6,1.92-0.9,3.12-0.9c0.85,0,1.68,0.15,2.48,0.44
	c0.81,0.28,1.52,0.69,2.12,1.22l-0.88,1.88c-1.25-0.99-2.46-1.48-3.62-1.48c-1.05,0-1.87,0.45-2.44,1.34
	c-0.57,0.89-0.87,2.17-0.9,3.84c0.31-0.6,0.77-1.07,1.4-1.42C610.42,31.04,611.11,30.86,611.87,30.86z M611.33,38.14
	c0.73,0,1.32-0.24,1.76-0.72c0.45-0.48,0.68-1.11,0.68-1.9s-0.23-1.41-0.68-1.88c-0.44-0.48-1.03-0.72-1.78-0.72
	c-0.75,0-1.35,0.24-1.82,0.72c-0.47,0.48-0.7,1.11-0.7,1.88s0.23,1.41,0.7,1.9C609.97,37.9,610.59,38.14,611.33,38.14z
	 M596.54,50.58c1.8,0,3.19,0.61,4.16,1.84c0.99,1.21,1.48,2.95,1.48,5.2c0,1.57-0.23,2.93-0.7,4.06c-0.47,1.13-1.14,2-2.02,2.6
	c-0.87,0.6-1.9,0.9-3.1,0.9c-0.85,0-1.69-0.14-2.5-0.42c-0.8-0.29-1.49-0.71-2.08-1.24l0.86-1.88c1.27,0.99,2.47,1.48,3.62,1.48
	c1.05,0,1.87-0.45,2.44-1.34c0.59-0.91,0.89-2.2,0.92-3.88c-0.31,0.61-0.77,1.1-1.4,1.46c-0.61,0.36-1.31,0.54-2.1,0.54
	c-0.84,0-1.59-0.19-2.26-0.58c-0.65-0.39-1.17-0.93-1.54-1.62c-0.37-0.69-0.56-1.49-0.56-2.38c0-0.91,0.2-1.72,0.6-2.44
	c0.41-0.72,0.98-1.28,1.7-1.68C594.79,50.79,595.62,50.58,596.54,50.58z M596.68,57.84c0.75,0,1.35-0.24,1.82-0.72
	s0.7-1.11,0.7-1.88s-0.23-1.4-0.7-1.88c-0.47-0.49-1.07-0.74-1.82-0.74s-1.35,0.24-1.8,0.72c-0.44,0.48-0.66,1.11-0.66,1.9
	c0,0.79,0.22,1.42,0.66,1.9C595.33,57.61,595.93,57.84,596.68,57.84z M610.99,65.18c-1.69,0-2.99-0.62-3.88-1.86
	c-0.88-1.25-1.32-3.07-1.32-5.46c0-2.35,0.44-4.14,1.32-5.38c0.89-1.24,2.19-1.86,3.88-1.86c1.69,0,2.98,0.62,3.86,1.86
	c0.89,1.23,1.34,3.02,1.34,5.38c0,2.37-0.45,4.19-1.34,5.44C613.97,64.55,612.69,65.18,610.99,65.18z M610.99,63.16
	c0.92,0,1.59-0.42,2-1.26c0.43-0.85,0.64-2.2,0.64-4.04c0-1.81-0.21-3.13-0.64-3.96c-0.41-0.84-1.08-1.26-2-1.26
	s-1.59,0.42-2.02,1.26c-0.41,0.83-0.62,2.15-0.62,3.96c0,1.84,0.21,3.19,0.62,4.04C609.4,62.74,610.07,63.16,610.99,63.16z
	 M602.52,85.2v2.02h-2.02V90h-2.52v-2.78h-6.2V85.3l6.66-9.54h2.06v9.44H602.52z M594.22,85.2h3.76v-5.42L594.22,85.2z M612.91,87.9
	h3.1V90h-8.78v-2.1h3.12v-9.18l-2.9,1.74v-2.3l3.96-2.4h1.5V87.9z M602.52,110.2v2.02h-2.02V115h-2.52v-2.78h-6.2v-1.92l6.66-9.54
	h2.06v9.44H602.52z M594.22,110.2h3.76v-5.42L594.22,110.2z M613.19,107.68c0.84,0.23,1.48,0.64,1.92,1.24
	c0.45,0.6,0.68,1.34,0.68,2.22c0,1.24-0.46,2.22-1.38,2.94c-0.91,0.72-2.13,1.08-3.68,1.08c-0.96,0-1.89-0.15-2.78-0.44
	c-0.88-0.29-1.61-0.7-2.18-1.22l0.88-1.88c1.27,0.99,2.59,1.48,3.98,1.48c0.91,0,1.58-0.18,2.02-0.54c0.45-0.36,0.68-0.91,0.68-1.64
	c0-0.72-0.23-1.25-0.68-1.58c-0.45-0.35-1.15-0.52-2.1-0.52h-1.88v-2.06h1.54c1.84,0,2.76-0.7,2.76-2.1c0-0.65-0.2-1.15-0.6-1.5
	c-0.4-0.35-0.96-0.52-1.68-0.52c-1.28,0-2.56,0.49-3.84,1.48l-0.86-1.88c0.57-0.51,1.29-0.91,2.16-1.2c0.88-0.31,1.78-0.46,2.7-0.46
	c1.4,0,2.51,0.35,3.34,1.04c0.84,0.68,1.26,1.59,1.26,2.74c-0.01,0.79-0.22,1.47-0.62,2.06
	C614.45,106.99,613.9,107.41,613.19,107.68z"/>
<path class="st7" d="M569.26,172h-2.72l-1.82-4.74c-0.16-0.44-0.41-0.75-0.74-0.92c-0.33-0.17-0.77-0.26-1.3-0.26h-2.58V172h-2.56
	v-14.24h6.1c1.61,0,2.84,0.35,3.68,1.06c0.84,0.71,1.26,1.72,1.26,3.04c0,0.95-0.25,1.75-0.76,2.42c-0.49,0.65-1.2,1.12-2.12,1.4
	c0.84,0.17,1.45,0.76,1.82,1.76L569.26,172z M563.28,164.08c0.97,0,1.69-0.18,2.16-0.54s0.7-0.91,0.7-1.64c0-0.72-0.23-1.25-0.7-1.6
	c-0.45-0.36-1.17-0.54-2.16-0.54h-3.22v4.32H563.28z M569.42,189.3v6.84c-0.65,0.32-1.44,0.57-2.36,0.76
	c-0.92,0.19-1.86,0.28-2.82,0.28c-1.47,0-2.74-0.29-3.82-0.88c-1.08-0.59-1.91-1.43-2.48-2.52s-0.86-2.4-0.86-3.92
	c0-1.49,0.29-2.79,0.86-3.88s1.39-1.93,2.44-2.52c1.07-0.59,2.31-0.88,3.74-0.88c1,0,1.93,0.15,2.8,0.44
	c0.88,0.29,1.61,0.71,2.2,1.24l-0.88,1.88c-0.67-0.52-1.32-0.89-1.96-1.12c-0.64-0.23-1.34-0.34-2.1-0.34
	c-1.47,0-2.58,0.44-3.34,1.32c-0.75,0.88-1.12,2.17-1.12,3.86c0,1.75,0.39,3.07,1.16,3.96c0.77,0.88,1.93,1.32,3.46,1.32
	c0.93,0,1.85-0.13,2.76-0.38v-3.6h-3.08v-1.86H569.42z M566.3,214.64c0.83,0.24,1.46,0.66,1.9,1.26c0.45,0.6,0.68,1.34,0.68,2.22
	c0,1.21-0.43,2.17-1.3,2.86c-0.85,0.68-2.05,1.02-3.58,1.02h-6.46v-14.24h6.26c1.47,0,2.62,0.33,3.46,1
	c0.84,0.65,1.26,1.56,1.26,2.72c0,0.75-0.2,1.4-0.6,1.96C567.53,213.99,566.99,214.39,566.3,214.64z M560.06,213.76h3.32
	c1.79,0,2.68-0.67,2.68-2c0-0.67-0.22-1.17-0.66-1.5c-0.44-0.33-1.11-0.5-2.02-0.5h-3.32V213.76z M563.72,220
	c0.93,0,1.61-0.17,2.04-0.5c0.44-0.33,0.66-0.86,0.66-1.58c0-0.73-0.22-1.27-0.66-1.62c-0.43-0.35-1.11-0.52-2.04-0.52h-3.66V220
	H563.72z"/>
<path class="st5" d="M597.2,164.68c0.84,0.23,1.48,0.64,1.92,1.24c0.45,0.6,0.68,1.34,0.68,2.22c0,1.24-0.46,2.22-1.38,2.94
	c-0.91,0.72-2.13,1.08-3.68,1.08c-0.96,0-1.89-0.15-2.78-0.44c-0.88-0.29-1.61-0.7-2.18-1.22l0.88-1.88
	c1.27,0.99,2.59,1.48,3.98,1.48c0.91,0,1.58-0.18,2.02-0.54c0.45-0.36,0.68-0.91,0.68-1.64c0-0.72-0.23-1.25-0.68-1.58
	c-0.45-0.35-1.15-0.52-2.1-0.52h-1.88v-2.06h1.54c1.84,0,2.76-0.7,2.76-2.1c0-0.65-0.2-1.15-0.6-1.5s-0.96-0.52-1.68-0.52
	c-1.28,0-2.56,0.49-3.84,1.48l-0.86-1.88c0.57-0.51,1.29-0.91,2.16-1.2c0.88-0.31,1.78-0.46,2.7-0.46c1.4,0,2.51,0.35,3.34,1.04
	c0.84,0.68,1.26,1.59,1.26,2.74c-0.01,0.79-0.22,1.47-0.62,2.06C598.45,163.99,597.91,164.41,597.2,164.68z M610.91,169.9h3.1v2.1
	h-8.78v-2.1h3.12v-9.18l-2.9,1.74v-2.3l3.96-2.4h1.5V169.9z M597.2,189.68c0.84,0.23,1.48,0.64,1.92,1.24
	c0.45,0.6,0.68,1.34,0.68,2.22c0,1.24-0.46,2.22-1.38,2.94c-0.91,0.72-2.13,1.08-3.68,1.08c-0.96,0-1.89-0.15-2.78-0.44
	c-0.88-0.29-1.61-0.7-2.18-1.22l0.88-1.88c1.27,0.99,2.59,1.48,3.98,1.48c0.91,0,1.58-0.18,2.02-0.54c0.45-0.36,0.68-0.91,0.68-1.64
	c0-0.72-0.23-1.25-0.68-1.58c-0.45-0.35-1.15-0.52-2.1-0.52h-1.88v-2.06h1.54c1.84,0,2.76-0.7,2.76-2.1c0-0.65-0.2-1.15-0.6-1.5
	s-0.96-0.52-1.68-0.52c-1.28,0-2.56,0.49-3.84,1.48l-0.86-1.88c0.57-0.51,1.29-0.91,2.16-1.2c0.88-0.31,1.78-0.46,2.7-0.46
	c1.4,0,2.51,0.35,3.34,1.04c0.84,0.68,1.26,1.59,1.26,2.74c-0.01,0.79-0.22,1.47-0.62,2.06
	C598.45,188.99,597.91,189.41,597.2,189.68z M609.75,187.9c0.89,0,1.68,0.19,2.36,0.58c0.68,0.37,1.21,0.91,1.58,1.6
	c0.37,0.68,0.56,1.47,0.56,2.36c0,0.93-0.21,1.76-0.64,2.48c-0.43,0.71-1.04,1.26-1.84,1.66c-0.8,0.39-1.73,0.58-2.78,0.58
	c-0.89,0-1.77-0.15-2.64-0.44c-0.87-0.31-1.58-0.71-2.14-1.22l0.86-1.88c1.29,0.99,2.61,1.48,3.96,1.48c0.89,0,1.57-0.22,2.04-0.66
	c0.48-0.45,0.72-1.09,0.72-1.92c0-0.79-0.25-1.41-0.74-1.88c-0.48-0.48-1.13-0.72-1.94-0.72c-0.56,0-1.09,0.11-1.58,0.32
	c-0.49,0.2-0.93,0.5-1.3,0.9h-1.56v-8.38h8.92v2h-6.4v3.88C607.91,188.15,608.77,187.9,609.75,187.9z M590.04,207.76h9.92v1.92
	L593.5,222h-2.76l6.44-12.14h-7.14V207.76z M613.97,219.9v2.1h-9.56v-1.9l4.84-5.22c0.57-0.63,0.99-1.2,1.26-1.72
	c0.27-0.52,0.4-1.03,0.4-1.54c0-0.65-0.19-1.15-0.58-1.48c-0.37-0.33-0.91-0.5-1.62-0.5c-1.25,0-2.54,0.49-3.86,1.48l-0.86-1.88
	c0.56-0.51,1.28-0.91,2.16-1.2c0.88-0.31,1.77-0.46,2.66-0.46c1.43,0,2.55,0.35,3.38,1.06c0.84,0.69,1.26,1.63,1.26,2.82
	c0,0.81-0.18,1.58-0.54,2.3c-0.35,0.72-0.93,1.53-1.76,2.42l-3.5,3.72H613.97z"/>
<path class="st5" d="M567.26,270.68h-1.74l-0.84,4.22h2.12v1.64h-2.44l-0.68,3.46h-1.74l0.68-3.46h-2.56l-0.68,3.46h-1.74l0.68-3.46
	h-1.44v-1.64h1.76l0.84-4.22h-2.16v-1.62h2.48l0.64-3.3h1.74l-0.64,3.3h2.56l0.64-3.3h1.74l-0.64,3.3h1.42V270.68z M562.94,274.9
	l0.84-4.22h-2.56l-0.84,4.22H562.94z M578.05,277.9h3.1v2.1h-8.78v-2.1h3.12v-9.18l-2.9,1.74v-2.3l3.96-2.4h1.5V277.9z M585.66,280
	v-14.24h9.3v2.06h-6.74v3.9h6.34v2.08h-6.34v6.2H585.66z M608.55,277.9v2.1h-9.56v-1.9l4.84-5.22c0.57-0.63,0.99-1.2,1.26-1.72
	c0.27-0.52,0.4-1.03,0.4-1.54c0-0.65-0.19-1.15-0.58-1.48c-0.37-0.33-0.91-0.5-1.62-0.5c-1.25,0-2.54,0.49-3.86,1.48l-0.86-1.88
	c0.56-0.51,1.28-0.91,2.16-1.2c0.88-0.31,1.77-0.46,2.66-0.46c1.43,0,2.55,0.35,3.38,1.06c0.84,0.69,1.26,1.63,1.26,2.82
	c0,0.81-0.18,1.58-0.54,2.3c-0.35,0.72-0.93,1.53-1.76,2.42l-3.5,3.72H608.55z M619.78,272.68c0.84,0.23,1.48,0.64,1.92,1.24
	c0.45,0.6,0.68,1.34,0.68,2.22c0,1.24-0.46,2.22-1.38,2.94c-0.91,0.72-2.13,1.08-3.68,1.08c-0.96,0-1.89-0.15-2.78-0.44
	c-0.88-0.29-1.61-0.7-2.18-1.22l0.88-1.88c1.27,0.99,2.59,1.48,3.98,1.48c0.91,0,1.58-0.18,2.02-0.54c0.45-0.36,0.68-0.91,0.68-1.64
	c0-0.72-0.23-1.25-0.68-1.58c-0.45-0.35-1.15-0.52-2.1-0.52h-1.88v-2.06h1.54c1.84,0,2.76-0.7,2.76-2.1c0-0.65-0.2-1.15-0.6-1.5
	c-0.4-0.35-0.96-0.52-1.68-0.52c-1.28,0-2.56,0.49-3.84,1.48l-0.86-1.88c0.57-0.51,1.29-0.91,2.16-1.2c0.88-0.31,1.78-0.46,2.7-0.46
	c1.4,0,2.51,0.35,3.34,1.04c0.84,0.68,1.26,1.59,1.26,2.74c-0.01,0.79-0.22,1.47-0.62,2.06
	C621.03,271.99,620.48,272.41,619.78,272.68z M637.09,275.2v2.02h-2.02V280h-2.52v-2.78h-6.2v-1.92l6.66-9.54h2.06v9.44H637.09z
	 M628.79,275.2h3.76v-5.42L628.79,275.2z M647.96,272.68c0.92,0.23,1.64,0.65,2.16,1.26c0.52,0.61,0.78,1.35,0.78,2.22
	c0,0.81-0.23,1.53-0.68,2.14c-0.44,0.6-1.07,1.06-1.88,1.38c-0.8,0.32-1.73,0.48-2.78,0.48c-1.05,0-1.99-0.16-2.8-0.48
	c-0.8-0.32-1.43-0.78-1.88-1.38c-0.44-0.61-0.66-1.33-0.66-2.14c0-0.87,0.26-1.61,0.78-2.22s1.24-1.03,2.16-1.26
	c-0.8-0.27-1.43-0.69-1.9-1.26c-0.45-0.57-0.68-1.24-0.68-2c0-0.77,0.21-1.45,0.64-2.02c0.43-0.59,1.01-1.03,1.76-1.34
	c0.76-0.32,1.62-0.48,2.58-0.48c0.96,0,1.81,0.16,2.56,0.48c0.76,0.31,1.35,0.75,1.78,1.34c0.43,0.57,0.64,1.25,0.64,2.02
	c0,0.77-0.23,1.45-0.7,2.04C649.39,272.03,648.76,272.44,647.96,272.68z M645.56,267.6c-0.79,0-1.41,0.18-1.86,0.54
	c-0.45,0.36-0.68,0.87-0.68,1.54c0,0.63,0.23,1.14,0.68,1.54c0.47,0.39,1.09,0.64,1.86,0.76c0.77-0.12,1.39-0.37,1.84-0.76
	c0.47-0.4,0.7-0.91,0.7-1.54c0-0.67-0.23-1.18-0.68-1.54C646.97,267.78,646.35,267.6,645.56,267.6z M645.56,278.14
	c0.91,0,1.61-0.19,2.12-0.56c0.52-0.37,0.78-0.91,0.78-1.6c0-0.65-0.27-1.18-0.8-1.58c-0.52-0.4-1.22-0.66-2.1-0.78
	c-0.88,0.12-1.59,0.38-2.12,0.78c-0.52,0.4-0.78,0.93-0.78,1.58c0,0.69,0.25,1.23,0.76,1.6
	C643.94,277.95,644.66,278.14,645.56,278.14z"/>
<path class="st5" d="M205.76,291.41h-1.04l-0.5,2.53h1.27v0.98h-1.46l-0.41,2.08h-1.04l0.41-2.08h-1.54l-0.41,2.08h-1.04l0.41-2.08
	h-0.86v-0.98h1.06l0.5-2.53h-1.3v-0.97h1.49l0.38-1.98h1.04l-0.38,1.98h1.54l0.38-1.98h1.04l-0.38,1.98h0.85V291.41z M203.16,293.94
	l0.5-2.53h-1.54l-0.5,2.53H203.16z M212.23,295.74h1.86V297h-5.27v-1.26h1.87v-5.51l-1.74,1.04v-1.38l2.38-1.44h0.9V295.74z
	 M216.8,297v-8.54h5.58v1.24h-4.04v2.34h3.8v1.25h-3.8V297H216.8z M230.53,295.74V297h-5.74v-1.14l2.9-3.13
	c0.34-0.38,0.6-0.72,0.76-1.03c0.16-0.31,0.24-0.62,0.24-0.92c0-0.39-0.12-0.69-0.35-0.89c-0.22-0.2-0.55-0.3-0.97-0.3
	c-0.75,0-1.52,0.3-2.32,0.89l-0.52-1.13c0.34-0.3,0.77-0.54,1.3-0.72c0.53-0.18,1.06-0.28,1.6-0.28c0.86,0,1.53,0.21,2.03,0.64
	c0.5,0.42,0.76,0.98,0.76,1.69c0,0.49-0.11,0.95-0.32,1.38c-0.21,0.43-0.56,0.92-1.06,1.45l-2.1,2.23H230.53z M237.27,292.61
	c0.5,0.14,0.89,0.38,1.15,0.74c0.27,0.36,0.41,0.8,0.41,1.33c0,0.74-0.28,1.33-0.83,1.76c-0.54,0.43-1.28,0.65-2.21,0.65
	c-0.58,0-1.13-0.09-1.67-0.26c-0.53-0.18-0.96-0.42-1.31-0.73l0.53-1.13c0.76,0.59,1.56,0.89,2.39,0.89c0.54,0,0.95-0.11,1.21-0.32
	c0.27-0.22,0.41-0.54,0.41-0.98c0-0.43-0.14-0.75-0.41-0.95c-0.27-0.21-0.69-0.31-1.26-0.31h-1.13v-1.24h0.92
	c1.1,0,1.66-0.42,1.66-1.26c0-0.39-0.12-0.69-0.36-0.9c-0.24-0.21-0.58-0.31-1.01-0.31c-0.77,0-1.54,0.3-2.3,0.89l-0.52-1.13
	c0.34-0.3,0.78-0.54,1.3-0.72c0.53-0.18,1.07-0.28,1.62-0.28c0.84,0,1.51,0.21,2,0.62c0.5,0.41,0.76,0.96,0.76,1.64
	c-0.01,0.47-0.13,0.88-0.37,1.24C238.02,292.2,237.69,292.45,237.27,292.61z M247.65,294.12v1.21h-1.21V297h-1.51v-1.67h-3.72v-1.15
	l4-5.72h1.24v5.66H247.65z M242.67,294.12h2.26v-3.25L242.67,294.12z M254.18,292.61c0.55,0.14,0.98,0.39,1.3,0.76
	c0.31,0.37,0.47,0.81,0.47,1.33c0,0.49-0.14,0.92-0.41,1.28c-0.26,0.36-0.64,0.64-1.13,0.83c-0.48,0.19-1.04,0.29-1.67,0.29
	s-1.19-0.1-1.68-0.29c-0.48-0.19-0.86-0.47-1.13-0.83c-0.26-0.37-0.4-0.8-0.4-1.28c0-0.52,0.16-0.96,0.47-1.33
	c0.31-0.37,0.74-0.62,1.3-0.76c-0.48-0.16-0.86-0.41-1.14-0.76c-0.27-0.34-0.41-0.74-0.41-1.2c0-0.46,0.13-0.87,0.38-1.21
	c0.26-0.35,0.61-0.62,1.06-0.8c0.46-0.19,0.97-0.29,1.55-0.29s1.09,0.1,1.54,0.29c0.46,0.18,0.81,0.45,1.07,0.8
	c0.26,0.34,0.38,0.75,0.38,1.21c0,0.46-0.14,0.87-0.42,1.22C255.03,292.22,254.66,292.46,254.18,292.61z M252.74,289.56
	c-0.47,0-0.84,0.11-1.12,0.32s-0.41,0.52-0.41,0.92c0,0.38,0.14,0.68,0.41,0.92c0.28,0.23,0.65,0.38,1.12,0.46
	c0.46-0.07,0.83-0.22,1.1-0.46c0.28-0.24,0.42-0.55,0.42-0.92c0-0.4-0.14-0.71-0.41-0.92S253.21,289.56,252.74,289.56z
	 M252.74,295.88c0.54,0,0.97-0.11,1.27-0.34c0.31-0.22,0.47-0.54,0.47-0.96c0-0.39-0.16-0.71-0.48-0.95
	c-0.31-0.24-0.73-0.4-1.26-0.47c-0.53,0.07-0.95,0.23-1.27,0.47c-0.31,0.24-0.47,0.56-0.47,0.95c0,0.42,0.15,0.74,0.46,0.96
	C251.76,295.77,252.19,295.88,252.74,295.88z"/>
<path class="st5" d="M339.76,291.41h-1.04l-0.5,2.53h1.27v0.98h-1.46l-0.41,2.08h-1.04l0.41-2.08h-1.54l-0.41,2.08h-1.04l0.41-2.08
	h-0.86v-0.98h1.06l0.5-2.53h-1.3v-0.97h1.49l0.38-1.98h1.04l-0.38,1.98h1.54l0.38-1.98h1.04l-0.38,1.98h0.85V291.41z M337.16,293.94
	l0.5-2.53h-1.54l-0.5,2.53H337.16z M348.07,295.74V297h-5.74v-1.14l2.9-3.13c0.34-0.38,0.6-0.72,0.76-1.03
	c0.16-0.31,0.24-0.62,0.24-0.92c0-0.39-0.12-0.69-0.35-0.89c-0.22-0.2-0.55-0.3-0.97-0.3c-0.75,0-1.52,0.3-2.32,0.89l-0.52-1.13
	c0.34-0.3,0.77-0.54,1.3-0.72c0.53-0.18,1.06-0.28,1.6-0.28c0.86,0,1.53,0.21,2.03,0.64c0.5,0.42,0.76,0.98,0.76,1.69
	c0,0.49-0.11,0.95-0.32,1.38c-0.21,0.43-0.56,0.92-1.06,1.45l-2.1,2.23H348.07z M354.01,291.52c0.5,0,0.95,0.12,1.34,0.35
	c0.4,0.23,0.71,0.56,0.94,0.97c0.22,0.42,0.34,0.89,0.34,1.43c0,0.54-0.12,1.03-0.37,1.46c-0.24,0.43-0.58,0.77-1.02,1.02
	c-0.43,0.24-0.92,0.36-1.48,0.36c-1.08,0-1.91-0.36-2.5-1.09c-0.58-0.74-0.88-1.78-0.88-3.13c0-0.94,0.14-1.76,0.41-2.44
	c0.28-0.68,0.68-1.2,1.2-1.56c0.53-0.36,1.15-0.54,1.87-0.54c0.51,0,1.01,0.09,1.49,0.26c0.49,0.17,0.91,0.41,1.27,0.73l-0.53,1.13
	c-0.75-0.59-1.48-0.89-2.17-0.89c-0.63,0-1.12,0.27-1.46,0.8c-0.34,0.54-0.52,1.3-0.54,2.3c0.18-0.36,0.46-0.64,0.84-0.85
	C353.14,291.62,353.56,291.52,354.01,291.52z M353.69,295.88c0.44,0,0.79-0.14,1.06-0.43c0.27-0.29,0.41-0.67,0.41-1.14
	c0-0.47-0.14-0.85-0.41-1.13c-0.26-0.29-0.62-0.43-1.07-0.43s-0.81,0.14-1.09,0.43c-0.28,0.29-0.42,0.66-0.42,1.13
	c0,0.46,0.14,0.84,0.42,1.14C352.87,295.74,353.24,295.88,353.69,295.88z M361.88,297.11c-1.02,0-1.79-0.37-2.33-1.12
	c-0.53-0.75-0.79-1.84-0.79-3.28c0-1.41,0.26-2.48,0.79-3.23c0.54-0.74,1.31-1.12,2.33-1.12s1.79,0.37,2.32,1.12
	c0.54,0.74,0.8,1.81,0.8,3.23c0,1.42-0.27,2.51-0.8,3.26C363.67,296.73,362.9,297.11,361.88,297.11z M361.88,295.9
	c0.55,0,0.95-0.25,1.2-0.76c0.26-0.51,0.38-1.32,0.38-2.42c0-1.09-0.13-1.88-0.38-2.38c-0.25-0.5-0.65-0.76-1.2-0.76
	s-0.96,0.25-1.21,0.76c-0.25,0.5-0.37,1.29-0.37,2.38c0,1.1,0.12,1.91,0.37,2.42C360.92,295.64,361.33,295.9,361.88,295.9z
	 M371.43,295.74h1.86V297h-5.27v-1.26h1.87v-5.51l-1.74,1.04v-1.38l2.38-1.44h0.9V295.74z M379.99,292.61
	c0.5,0.14,0.89,0.38,1.15,0.74c0.27,0.36,0.41,0.8,0.41,1.33c0,0.74-0.28,1.33-0.83,1.76c-0.54,0.43-1.28,0.65-2.21,0.65
	c-0.58,0-1.13-0.09-1.67-0.26c-0.53-0.18-0.96-0.42-1.31-0.73l0.53-1.13c0.76,0.59,1.56,0.89,2.39,0.89c0.54,0,0.95-0.11,1.21-0.32
	c0.27-0.22,0.41-0.54,0.41-0.98c0-0.43-0.14-0.75-0.41-0.95c-0.27-0.21-0.69-0.31-1.26-0.31h-1.13v-1.24h0.92
	c1.1,0,1.66-0.42,1.66-1.26c0-0.39-0.12-0.69-0.36-0.9c-0.24-0.21-0.58-0.31-1.01-0.31c-0.77,0-1.54,0.3-2.3,0.89l-0.52-1.13
	c0.34-0.3,0.78-0.54,1.3-0.72c0.53-0.18,1.07-0.28,1.62-0.28c0.84,0,1.51,0.21,2,0.62c0.5,0.41,0.76,0.96,0.76,1.64
	c-0.01,0.47-0.13,0.88-0.37,1.24C380.74,292.2,380.41,292.45,379.99,292.61z M388.39,292.61c0.5,0.14,0.89,0.38,1.15,0.74
	c0.27,0.36,0.41,0.8,0.41,1.33c0,0.74-0.28,1.33-0.83,1.76c-0.54,0.43-1.28,0.65-2.21,0.65c-0.58,0-1.13-0.09-1.67-0.26
	c-0.53-0.18-0.96-0.42-1.31-0.73l0.53-1.13c0.76,0.59,1.56,0.89,2.39,0.89c0.54,0,0.95-0.11,1.21-0.32
	c0.27-0.22,0.41-0.54,0.41-0.98c0-0.43-0.14-0.75-0.41-0.95c-0.27-0.21-0.69-0.31-1.26-0.31h-1.13v-1.24h0.92
	c1.1,0,1.66-0.42,1.66-1.26c0-0.39-0.12-0.69-0.36-0.9c-0.24-0.21-0.58-0.31-1.01-0.31c-0.77,0-1.54,0.3-2.3,0.89l-0.52-1.13
	c0.34-0.3,0.78-0.54,1.3-0.72c0.53-0.18,1.07-0.28,1.62-0.28c0.84,0,1.51,0.21,2,0.62c0.5,0.41,0.76,0.96,0.76,1.64
	c-0.01,0.47-0.13,0.88-0.37,1.24C389.14,292.2,388.81,292.45,388.39,292.61z"/>
<path class="st4" d="M795,20h123c4.42,0,8,3.58,8,8v244c0,4.42-3.58,8-8,8H795c-4.42,0-8-3.58-8-8V28C787,23.58,790.58,20,795,20z"
	/>
<path class="st8" d="M817,240h80c5.52,0,10,4.48,10,10l0,0c0,5.52-4.48,10-10,10h-80c-5.52,0-10-4.48-10-10l0,0
	C807,244.48,811.48,240,817,240z"/>
<radialGradient id="SVGID_4_" cx="420.16" cy="559.35" r="1" gradientTransform="matrix(-100 0 0 100 42923 -55735)" gradientUnits="userSpaceOnUse">
	<stop  offset="0" style="stop-color:#EC991C"/>
	<stop  offset="1" style="stop-color:#E9B213"/>
</radialGradient>
<path class="st9" d="M817,100h80c5.52,0,10,4.48,10,10v80c0,5.52-4.48,10-10,10h-80c-5.52,0-10-4.48-10-10v-80
	C807,104.48,811.48,100,817,100z"/>
<path class="st5" d="M817.74,49.84v5.47c-0.52,0.26-1.15,0.46-1.89,0.61c-0.74,0.15-1.49,0.22-2.26,0.22c-1.17,0-2.19-0.23-3.06-0.7
	c-0.86-0.47-1.53-1.14-1.98-2.02s-0.69-1.92-0.69-3.14c0-1.19,0.23-2.23,0.69-3.1c0.46-0.87,1.11-1.55,1.95-2.02
	c0.85-0.47,1.85-0.7,2.99-0.7c0.8,0,1.55,0.12,2.24,0.35c0.7,0.23,1.29,0.57,1.76,0.99l-0.7,1.5c-0.53-0.42-1.06-0.71-1.57-0.9
	s-1.07-0.27-1.68-0.27c-1.17,0-2.06,0.35-2.67,1.06c-0.6,0.7-0.9,1.73-0.9,3.09c0,1.4,0.31,2.45,0.93,3.17
	c0.62,0.7,1.54,1.06,2.77,1.06c0.75,0,1.48-0.1,2.21-0.3v-2.88h-2.46v-1.49H817.74z M826.72,56.14c-1.1,0-2.06-0.23-2.88-0.7
	c-0.81-0.48-1.44-1.16-1.89-2.03c-0.44-0.89-0.66-1.93-0.66-3.12c0-1.18,0.22-2.21,0.66-3.09c0.44-0.89,1.06-1.56,1.87-2.03
	c0.82-0.47,1.79-0.7,2.9-0.7s2.07,0.23,2.88,0.7c0.82,0.47,1.45,1.15,1.87,2.03c0.44,0.87,0.66,1.9,0.66,3.09
	c0,1.19-0.22,2.23-0.66,3.12c-0.44,0.87-1.06,1.55-1.87,2.03C828.78,55.91,827.83,56.14,826.72,56.14z M826.72,54.5
	c1.06,0,1.88-0.36,2.46-1.09c0.59-0.73,0.88-1.77,0.88-3.12c0-1.34-0.29-2.37-0.88-3.09c-0.59-0.73-1.41-1.09-2.46-1.09
	c-1.06,0-1.88,0.36-2.46,1.07c-0.59,0.71-0.88,1.75-0.88,3.1c0,1.35,0.29,2.39,0.88,3.12C824.84,54.13,825.66,54.5,826.72,54.5z
	 M835.84,56V44.61h2.06v9.7h5.33V56H835.84z M846.39,44.61h4.19c1.87,0,3.31,0.5,4.34,1.49c1.03,0.99,1.55,2.39,1.55,4.19
	c0,1.81-0.52,3.22-1.55,4.22c-1.02,0.99-2.47,1.49-4.34,1.49h-4.19V44.61z M850.46,54.32c2.62,0,3.94-1.34,3.94-4.03
	c0-2.67-1.31-4-3.94-4h-2v8.03H850.46z"/>
<radialGradient id="SVGID_5_" cx="418.1554" cy="558.8217" r="1" gradientTransform="matrix(-193 0 0 129 81863 -71808)" gradientUnits="userSpaceOnUse">
	<stop  offset="0" style="stop-color:#EC991C"/>
	<stop  offset="1" style="stop-color:#E9B213"/>
</radialGradient>
<path class="st10" d="M966,161c0-5.52,4.48-10,10-10h183v129H976c-5.52,0-10-4.48-10-10V161z"/>
<path class="st0" d="M1005,196.66h-6.96L996.6,200H994l6.44-14.24h2.1L1009,200h-2.58L1005,196.66z M1004.14,194.66l-2.62-6.1
	l-2.62,6.1H1004.14z M1021.3,192.64c0.83,0.24,1.46,0.66,1.9,1.26c0.45,0.6,0.68,1.34,0.68,2.22c0,1.21-0.43,2.17-1.3,2.86
	c-0.85,0.68-2.05,1.02-3.58,1.02h-6.46v-14.24h6.26c1.47,0,2.62,0.33,3.46,1c0.84,0.65,1.26,1.56,1.26,2.72c0,0.75-0.2,1.4-0.6,1.96
	C1022.53,191.99,1021.99,192.39,1021.3,192.64z M1015.06,191.76h3.32c1.79,0,2.68-0.67,2.68-2c0-0.67-0.22-1.17-0.66-1.5
	c-0.44-0.33-1.11-0.5-2.02-0.5h-3.32V191.76z M1018.72,198c0.93,0,1.61-0.17,2.04-0.5c0.44-0.33,0.66-0.86,0.66-1.58
	c0-0.73-0.22-1.27-0.66-1.62c-0.43-0.35-1.11-0.52-2.04-0.52h-3.66V198H1018.72z M1034.81,200.18c-1.4,0-2.63-0.3-3.68-0.9
	c-1.04-0.6-1.84-1.45-2.4-2.54c-0.56-1.11-0.84-2.4-0.84-3.88c0-1.47,0.28-2.75,0.84-3.84c0.56-1.11,1.36-1.95,2.4-2.54
	c1.05-0.6,2.28-0.9,3.68-0.9c0.96,0,1.86,0.15,2.7,0.46c0.85,0.29,1.56,0.71,2.12,1.24l-0.84,1.88c-0.64-0.52-1.28-0.89-1.92-1.12
	c-0.63-0.24-1.3-0.36-2.02-0.36c-1.37,0-2.44,0.45-3.2,1.34c-0.75,0.89-1.12,2.17-1.12,3.84c0,1.68,0.37,2.97,1.12,3.88
	c0.75,0.89,1.81,1.34,3.2,1.34c0.72,0,1.39-0.11,2.02-0.34c0.64-0.24,1.28-0.62,1.92-1.14l0.84,1.88c-0.56,0.53-1.27,0.95-2.12,1.26
	C1036.67,200.03,1035.77,200.18,1034.81,200.18z M1044.04,185.76h5.24c2.33,0,4.14,0.62,5.42,1.86c1.29,1.24,1.94,2.99,1.94,5.24
	c0,2.27-0.65,4.03-1.94,5.28c-1.28,1.24-3.09,1.86-5.42,1.86h-5.24V185.76z M1049.12,197.9c3.28,0,4.92-1.68,4.92-5.04
	c0-3.33-1.64-5-4.92-5h-2.5v10.04H1049.12z M1061.27,185.76h9.52v2.04h-7v3.94h6.58v2.04h-6.58v4.18h7V200h-9.52V185.76z
	 M1075.17,185.76h9.3v2.06h-6.74v3.9h6.34v2.08h-6.34v6.2h-2.56V185.76z M1100.3,192.3v6.84c-0.65,0.32-1.44,0.57-2.36,0.76
	c-0.92,0.19-1.86,0.28-2.82,0.28c-1.47,0-2.74-0.29-3.82-0.88c-1.08-0.59-1.91-1.43-2.48-2.52c-0.57-1.09-0.86-2.4-0.86-3.92
	c0-1.49,0.29-2.79,0.86-3.88c0.57-1.09,1.39-1.93,2.44-2.52c1.07-0.59,2.31-0.88,3.74-0.88c1,0,1.93,0.15,2.8,0.44
	c0.88,0.29,1.61,0.71,2.2,1.24l-0.88,1.88c-0.67-0.52-1.32-0.89-1.96-1.12c-0.64-0.23-1.34-0.34-2.1-0.34
	c-1.47,0-2.58,0.44-3.34,1.32c-0.75,0.88-1.12,2.17-1.12,3.86c0,1.75,0.39,3.07,1.16,3.96c0.77,0.88,1.93,1.32,3.46,1.32
	c0.93,0,1.85-0.13,2.76-0.38v-3.6h-3.08v-1.86H1100.3z M1117.6,185.76V200h-2.56v-6.18h-7.3V200h-2.54v-14.24h2.54v5.96h7.3v-5.96
	H1117.6z M1122.69,185.76h2.58V200h-2.58V185.76z M993.96,226.46c0.68,0.09,1.16,0.14,1.44,0.14c0.65,0,1.1-0.16,1.34-0.48
	c0.24-0.32,0.36-0.89,0.36-1.72v-13.64h2.58v13.64c0,1.52-0.29,2.62-0.86,3.3c-0.57,0.69-1.55,1.04-2.94,1.04
	c-0.64,0-1.28-0.05-1.92-0.16V226.46z M1013.97,225l-6.62-6.66V225h-2.58v-14.24h2.58v6.38l6.36-6.38h3.1l-6.92,6.84l7.24,7.4
	H1013.97z M1020.09,210.76h2.58v12.12h6.66V225h-9.24V210.76z M1047.16,210.76V225h-2.28v-8.84l-3.78,8.84h-1.7l-3.8-8.74V225h-2.28
	v-14.24h2.04l4.9,11.14l4.86-11.14H1047.16z M1064.27,210.76V225h-1.92l-7.68-9.98V225h-2.4v-14.24h1.92l7.66,9.96v-9.96H1064.27z
	 M1075.69,225.18c-1.38,0-2.58-0.29-3.6-0.88c-1.02-0.6-1.8-1.45-2.36-2.54c-0.55-1.11-0.82-2.41-0.82-3.9
	c0-1.48,0.27-2.77,0.82-3.86c0.54-1.11,1.32-1.95,2.34-2.54c1.02-0.59,2.23-0.88,3.62-0.88c1.38,0,2.58,0.29,3.6,0.88
	c1.02,0.59,1.8,1.43,2.34,2.54c0.54,1.09,0.82,2.38,0.82,3.86c0,1.49-0.28,2.79-0.82,3.9c-0.55,1.09-1.33,1.94-2.34,2.54
	C1078.27,224.89,1077.07,225.18,1075.69,225.18z M1075.69,223.12c1.32,0,2.34-0.45,3.08-1.36c0.73-0.91,1.1-2.21,1.1-3.9
	c0-1.68-0.37-2.97-1.1-3.86c-0.74-0.91-1.76-1.36-3.08-1.36c-1.32,0-2.35,0.45-3.08,1.34c-0.74,0.89-1.1,2.19-1.1,3.88
	s0.36,2.99,1.1,3.9C1073.34,222.67,1074.37,223.12,1075.69,223.12z M1087.09,210.76h6.18c1.53,0,2.73,0.37,3.58,1.12
	c0.85,0.73,1.28,1.74,1.28,3.02s-0.43,2.29-1.3,3.04c-0.85,0.75-2.04,1.12-3.56,1.12h-3.6V225h-2.58V210.76z M1092.97,217.06
	c0.89,0,1.57-0.18,2.02-0.54c0.47-0.37,0.7-0.91,0.7-1.6c0-0.71-0.23-1.24-0.68-1.6c-0.45-0.37-1.13-0.56-2.04-0.56h-3.3v4.3
	H1092.97z M1108.41,219.36V225h-2.58v-5.64l-5.78-8.6h2.94l4.12,6.44l4.14-6.44h2.94L1108.41,219.36z M1128.67,225h-2.72l-1.82-4.74
	c-0.16-0.44-0.41-0.75-0.74-0.92c-0.33-0.17-0.77-0.26-1.3-0.26h-2.58V225h-2.56v-14.24h6.1c1.61,0,2.84,0.35,3.68,1.06
	c0.84,0.71,1.26,1.72,1.26,3.04c0,0.95-0.25,1.75-0.76,2.42c-0.49,0.65-1.2,1.12-2.12,1.4c0.84,0.17,1.45,0.76,1.82,1.76
	L1128.67,225z M1122.69,217.08c0.97,0,1.69-0.18,2.16-0.54s0.7-0.91,0.7-1.64c0-0.72-0.23-1.25-0.7-1.6
	c-0.45-0.36-1.17-0.54-2.16-0.54h-3.22v4.32H1122.69z M1000.36,250.18c-1.09,0-2.12-0.15-3.08-0.44c-0.95-0.29-1.75-0.71-2.42-1.26
	l0.88-1.88c0.69,0.52,1.41,0.91,2.16,1.16c0.76,0.24,1.59,0.36,2.48,0.36c0.99,0,1.75-0.17,2.28-0.52c0.55-0.35,0.82-0.83,0.82-1.46
	c0-0.53-0.25-0.94-0.76-1.22c-0.49-0.29-1.31-0.57-2.46-0.82c-1.79-0.39-3.09-0.89-3.9-1.5c-0.81-0.61-1.22-1.51-1.22-2.68
	c0-0.84,0.23-1.59,0.68-2.24s1.09-1.17,1.92-1.54c0.84-0.37,1.81-0.56,2.9-0.56c1,0,1.95,0.15,2.84,0.46
	c0.91,0.29,1.65,0.71,2.22,1.24l-0.86,1.88c-1.27-1.01-2.67-1.52-4.2-1.52c-0.92,0-1.65,0.19-2.18,0.58
	c-0.53,0.37-0.8,0.89-0.8,1.54c0,0.56,0.23,0.99,0.7,1.28c0.48,0.29,1.29,0.57,2.44,0.82c1.19,0.28,2.15,0.59,2.9,0.92
	c0.75,0.32,1.32,0.74,1.72,1.26c0.4,0.51,0.6,1.15,0.6,1.92c0,0.85-0.23,1.6-0.68,2.24c-0.45,0.63-1.11,1.11-1.96,1.46
	S1001.52,250.18,1000.36,250.18z M1013.46,237.88h-4.64v-2.12h11.9v2.12h-4.66V250h-2.6V237.88z M1030.38,250.18
	c-1.96,0-3.45-0.5-4.46-1.5c-1-1.01-1.5-2.49-1.5-4.44v-8.48h2.54v8.62c0,1.23,0.29,2.16,0.86,2.8c0.57,0.63,1.43,0.94,2.56,0.94
	c1.11,0,1.95-0.32,2.52-0.96c0.59-0.64,0.88-1.57,0.88-2.78v-8.62h2.54v8.48c0,1.93-0.51,3.41-1.52,4.42
	S1032.31,250.18,1030.38,250.18z M1054.37,235.76l-6.34,14.24h-2.1l-6.34-14.24h2.68l4.74,11l4.74-11H1054.37z M1078.12,235.76
	l-5.04,14.24h-2.1l-3.58-10.24l-3.62,10.24h-2.1l-5.02-14.24h2.62l3.56,10.62l3.7-10.62h1.84l3.62,10.7l3.64-10.7H1078.12z
	 M1094.06,250h-3.02l-3.86-5.32l-3.86,5.32h-3.02l5.42-7.26l-5.24-6.98h3.02l3.68,5.1l3.72-5.1h3l-5.26,7L1094.06,250z
	 M1103.44,244.36V250h-2.58v-5.64l-5.78-8.6h2.94l4.12,6.44l4.14-6.44h2.94L1103.44,244.36z M1121.88,247.94V250h-10.46v-1.88
	l7.32-10.3h-7.32v-2.06h10.24v1.86l-7.36,10.32H1121.88z"/>
<radialGradient id="SVGID_6_" cx="420.16" cy="558.8217" r="1" gradientTransform="matrix(-100 0 0 129 43275 -71808)" gradientUnits="userSpaceOnUse">
	<stop  offset="0" style="stop-color:#EDEBE9"/>
	<stop  offset="1" style="stop-color:#EDECE9"/>
</radialGradient>
<path class="st11" d="M1159,151h90c5.52,0,10,4.48,10,10v109c0,5.52-4.48,10-10,10h-90V151z"/>
<path class="st8" d="M980.3,41.66h-9.05L969.38,46H966l8.37-18.51h2.73L985.5,46h-3.35L980.3,41.66z M979.18,39.06l-3.41-7.93
	l-3.41,7.93H979.18z M1001.49,36.43c1.07,0.31,1.9,0.86,2.47,1.64c0.59,0.78,0.88,1.74,0.88,2.89c0,1.58-0.56,2.82-1.69,3.72
	c-1.11,0.88-2.66,1.33-4.65,1.33h-8.4V27.49h8.14c1.91,0,3.41,0.43,4.5,1.3c1.09,0.85,1.64,2.03,1.64,3.54
	c0,0.97-0.26,1.82-0.78,2.55C1003.09,35.58,1002.39,36.1,1001.49,36.43z M993.38,35.29h4.32c2.33,0,3.49-0.87,3.49-2.6
	c0-0.87-0.29-1.52-0.86-1.95c-0.57-0.43-1.45-0.65-2.63-0.65h-4.32V35.29z M998.14,43.4c1.21,0,2.09-0.22,2.65-0.65
	c0.57-0.43,0.86-1.12,0.86-2.05c0-0.95-0.29-1.66-0.86-2.11c-0.56-0.45-1.44-0.68-2.65-0.68h-4.76v5.49H998.14z M1019.05,46.23
	c-1.82,0-3.41-0.39-4.78-1.17c-1.35-0.78-2.39-1.88-3.12-3.3c-0.73-1.44-1.09-3.12-1.09-5.04c0-1.91,0.36-3.57,1.09-4.99
	c0.73-1.44,1.77-2.54,3.12-3.3c1.37-0.78,2.96-1.17,4.78-1.17c1.25,0,2.42,0.2,3.51,0.6c1.11,0.38,2.03,0.92,2.76,1.61l-1.09,2.44
	c-0.84-0.68-1.67-1.16-2.5-1.46c-0.82-0.31-1.69-0.47-2.63-0.47c-1.78,0-3.17,0.58-4.16,1.74c-0.97,1.16-1.45,2.83-1.45,4.99
	c0,2.18,0.48,3.87,1.45,5.04c0.97,1.16,2.36,1.74,4.16,1.74c0.94,0,1.81-0.15,2.63-0.44c0.83-0.31,1.66-0.81,2.5-1.48l1.09,2.44
	c-0.73,0.69-1.65,1.24-2.76,1.64C1021.47,46.04,1020.3,46.23,1019.05,46.23z M1031.05,27.49h6.81c3.04,0,5.39,0.81,7.05,2.42
	c1.68,1.61,2.52,3.88,2.52,6.81c0,2.95-0.84,5.23-2.52,6.86c-1.66,1.61-4.01,2.42-7.05,2.42h-6.81V27.49z M1037.66,43.27
	c4.26,0,6.39-2.18,6.39-6.55c0-4.33-2.13-6.5-6.39-6.5h-3.25v13.05H1037.66z M1053.46,27.49h12.37v2.65h-9.1v5.12h8.56v2.65h-8.56
	v5.43h9.1V46h-12.37V27.49z M1071.52,27.49h12.09v2.68h-8.76v5.07h8.24v2.7h-8.24V46h-3.33V27.49z M1104.19,35.99v8.89
	c-0.85,0.42-1.87,0.75-3.07,0.99c-1.2,0.24-2.42,0.36-3.67,0.36c-1.9,0-3.56-0.38-4.96-1.14c-1.41-0.76-2.48-1.85-3.23-3.28
	c-0.74-1.42-1.11-3.12-1.11-5.1c0-1.94,0.37-3.62,1.11-5.04c0.75-1.42,1.81-2.51,3.18-3.28c1.38-0.76,3-1.14,4.86-1.14
	c1.3,0,2.51,0.19,3.64,0.57c1.14,0.38,2.1,0.92,2.86,1.61l-1.15,2.44c-0.86-0.68-1.71-1.16-2.54-1.46
	c-0.84-0.29-1.75-0.44-2.73-0.44c-1.91,0-3.36,0.57-4.35,1.72c-0.97,1.14-1.45,2.82-1.45,5.02c0,2.27,0.5,3.99,1.51,5.15
	c1,1.14,2.5,1.72,4.49,1.72c1.22,0,2.41-0.16,3.59-0.49v-4.68h-4v-2.42H1104.19z M1126.69,27.49V46h-3.33v-8.03h-9.49V46h-3.3V27.49
	h3.3v7.75h9.49v-7.75H1126.69z M1133.3,27.49h3.35V46h-3.35V27.49z M965.95,80.9c0.88,0.12,1.51,0.18,1.87,0.18
	c0.85,0,1.43-0.21,1.74-0.62s0.47-1.16,0.47-2.24V60.49h3.35v17.73c0,1.98-0.37,3.41-1.12,4.29c-0.74,0.9-2.02,1.35-3.82,1.35
	c-0.83,0-1.66-0.07-2.5-0.21V80.9z M991.96,79l-8.61-8.66V79H980V60.49h3.35v8.29l8.27-8.29h4.03l-9,8.89l9.41,9.62H991.96z
	 M999.91,60.49h3.36v15.76h8.65V79h-12.01V60.49z M1035.11,60.49V79h-2.97V67.51L1027.23,79h-2.21l-4.94-11.36V79h-2.97V60.49h2.66
	l6.37,14.48l6.31-14.48H1035.11z M1057.35,60.49V79h-2.49l-9.99-12.97V79h-3.12V60.49h2.5l9.96,12.95V60.49H1057.35z M1072.19,79.23
	c-1.78,0-3.34-0.38-4.68-1.14c-1.31-0.78-2.34-1.88-3.06-3.3c-0.71-1.44-1.07-3.13-1.07-5.07c0-1.92,0.36-3.6,1.07-5.02
	c0.71-1.44,1.72-2.54,3.04-3.3c1.33-0.76,2.9-1.14,4.7-1.14c1.81,0,3.37,0.38,4.68,1.14c1.34,0.76,2.35,1.86,3.05,3.3
	c0.71,1.42,1.06,3.09,1.06,5.02c0,1.94-0.35,3.63-1.06,5.07c-0.71,1.42-1.73,2.52-3.05,3.3C1075.56,78.85,1074,79.23,1072.19,79.23z
	 M1072.19,76.56c1.72,0,3.06-0.59,4.01-1.77c0.95-1.18,1.43-2.87,1.43-5.07c0-2.18-0.48-3.86-1.43-5.02
	c-0.95-1.18-2.29-1.77-4.01-1.77c-1.71,0-3.05,0.58-4,1.74c-0.95,1.16-1.43,2.84-1.43,5.04c0,2.2,0.48,3.89,1.43,5.07
	C1069.14,75.97,1070.48,76.56,1072.19,76.56z M1087.02,60.49h8.03c2,0,3.55,0.49,4.66,1.46c1.11,0.95,1.66,2.26,1.66,3.93
	c0,1.66-0.56,2.98-1.69,3.95c-1.11,0.97-2.65,1.46-4.63,1.46h-4.68V79h-3.35V60.49z M1094.66,68.68c1.16,0,2.04-0.23,2.63-0.7
	c0.6-0.49,0.91-1.18,0.91-2.08c0-0.92-0.3-1.61-0.89-2.08c-0.59-0.49-1.47-0.73-2.65-0.73h-4.29v5.59H1094.66z M1114.74,71.67V79
	h-3.36v-7.33l-7.51-11.18h3.82l5.36,8.37l5.38-8.37h3.82L1114.74,71.67z M1141.07,79h-3.53l-2.37-6.16
	c-0.21-0.57-0.53-0.97-0.96-1.2c-0.44-0.23-1-0.34-1.69-0.34h-3.36V79h-3.32V60.49h7.93c2.09,0,3.69,0.46,4.78,1.38
	c1.09,0.92,1.64,2.24,1.64,3.95c0,1.23-0.33,2.28-0.99,3.15c-0.64,0.85-1.56,1.46-2.76,1.82c1.1,0.23,1.88,0.99,2.37,2.29
	L1141.07,79z M1133.3,68.7c1.26,0,2.2-0.23,2.81-0.7c0.6-0.47,0.91-1.18,0.91-2.13c0-0.94-0.31-1.63-0.91-2.08
	c-0.59-0.47-1.53-0.7-2.81-0.7h-4.19v5.62H1133.3z M974.27,111.23c-1.42,0-2.76-0.19-4-0.57c-1.23-0.38-2.28-0.93-3.15-1.64
	l1.14-2.44c0.9,0.68,1.84,1.18,2.81,1.51c0.99,0.31,2.06,0.47,3.22,0.47c1.28,0,2.27-0.22,2.96-0.68c0.71-0.45,1.07-1.08,1.07-1.9
	c0-0.69-0.33-1.22-0.99-1.59c-0.64-0.38-1.71-0.74-3.2-1.07c-2.32-0.5-4.01-1.15-5.07-1.95c-1.06-0.8-1.59-1.96-1.59-3.48
	c0-1.09,0.29-2.06,0.88-2.91c0.59-0.85,1.42-1.52,2.5-2c1.09-0.49,2.35-0.73,3.77-0.73c1.3,0,2.53,0.2,3.69,0.6
	c1.18,0.38,2.14,0.92,2.89,1.61l-1.12,2.44c-1.65-1.32-3.47-1.98-5.46-1.98c-1.2,0-2.14,0.25-2.83,0.75c-0.69,0.49-1.04,1.15-1.04,2
	c0,0.73,0.3,1.28,0.91,1.66c0.62,0.38,1.68,0.74,3.17,1.07c1.54,0.36,2.8,0.76,3.77,1.2c0.97,0.42,1.72,0.96,2.24,1.64
	c0.52,0.66,0.78,1.49,0.78,2.5c0,1.11-0.29,2.08-0.88,2.91c-0.59,0.81-1.44,1.45-2.55,1.9
	C977.09,111.01,975.78,111.23,974.27,111.23z M991.3,95.24h-6.03v-2.76h15.47v2.76h-6.05V111h-3.38V95.24z M1013.3,111.23
	c-2.55,0-4.49-0.65-5.8-1.95c-1.3-1.32-1.95-3.24-1.95-5.77V92.49h3.3v11.21c0,1.6,0.37,2.81,1.12,3.64
	c0.74,0.82,1.85,1.22,3.33,1.22c1.43,0,2.53-0.42,3.27-1.25c0.76-0.83,1.15-2.04,1.15-3.61V92.49h3.3v11.02
	c0,2.51-0.66,4.43-1.98,5.75C1017.72,110.57,1015.81,111.23,1013.3,111.23z M1044.48,92.49l-8.25,18.51h-2.73l-8.24-18.51h3.49
	l6.16,14.3l6.16-14.3H1044.48z M1075.36,92.49L1068.8,111h-2.73l-4.65-13.31l-4.71,13.31h-2.73l-6.52-18.51h3.4l4.63,13.81
	l4.81-13.81h2.39l4.71,13.91l4.73-13.91H1075.36z M1096.08,111h-3.92l-5.02-6.92l-5.02,6.92h-3.92l7.04-9.44l-6.81-9.07h3.93
	l4.78,6.63l4.84-6.63h3.9l-6.84,9.1L1096.08,111z M1108.28,103.67V111h-3.36v-7.33l-7.51-11.18h3.82l5.36,8.37l5.38-8.37h3.82
	L1108.28,103.67z M1132.25,108.32V111h-13.6v-2.44l9.51-13.39h-9.51v-2.68h13.31v2.42l-9.57,13.42H1132.25z"/>
<path class="st5" d="M972.76,291.41h-1.04l-0.5,2.53h1.27v0.98h-1.46l-0.41,2.08h-1.04l0.41-2.08h-1.54l-0.41,2.08h-1.04l0.41-2.08
	h-0.86v-0.98h1.06l0.5-2.53h-1.3v-0.97h1.49l0.38-1.98h1.04l-0.38,1.98h1.54l0.38-1.98h1.04l-0.38,1.98h0.85V291.41z M970.16,293.94
	l0.5-2.53h-1.54l-0.5,2.53H970.16z M975.4,297v-8.54h5.71v1.22h-4.2v2.36h3.95v1.22h-3.95v2.51h4.2V297H975.4z M986.14,288.35
	c1.08,0,1.91,0.37,2.5,1.1c0.59,0.73,0.89,1.77,0.89,3.12c0,0.94-0.14,1.76-0.42,2.44c-0.28,0.68-0.68,1.2-1.21,1.56
	c-0.52,0.36-1.14,0.54-1.86,0.54c-0.51,0-1.01-0.08-1.5-0.25c-0.48-0.18-0.9-0.42-1.25-0.74l0.52-1.13
	c0.76,0.59,1.48,0.89,2.17,0.89c0.63,0,1.12-0.27,1.46-0.8c0.35-0.54,0.54-1.32,0.55-2.33c-0.18,0.37-0.46,0.66-0.84,0.88
	c-0.37,0.22-0.79,0.32-1.26,0.32c-0.5,0-0.96-0.12-1.36-0.35c-0.39-0.23-0.7-0.56-0.92-0.97c-0.22-0.42-0.34-0.89-0.34-1.43
	c0-0.54,0.12-1.03,0.36-1.46c0.25-0.43,0.59-0.77,1.02-1.01C985.09,288.47,985.59,288.35,986.14,288.35z M986.22,292.7
	c0.45,0,0.81-0.14,1.09-0.43c0.28-0.29,0.42-0.66,0.42-1.13c0-0.46-0.14-0.84-0.42-1.13c-0.28-0.3-0.64-0.44-1.09-0.44
	s-0.81,0.14-1.08,0.43c-0.26,0.29-0.4,0.67-0.4,1.14c0,0.47,0.13,0.85,0.4,1.14C985.41,292.56,985.77,292.7,986.22,292.7z
	 M997.39,292.58c0.5,0.14,0.88,0.4,1.14,0.76c0.27,0.36,0.41,0.8,0.41,1.33c0,0.73-0.26,1.3-0.78,1.72
	c-0.51,0.41-1.23,0.61-2.15,0.61h-3.88v-8.54h3.76c0.88,0,1.57,0.2,2.08,0.6c0.5,0.39,0.76,0.94,0.76,1.63
	c0,0.45-0.12,0.84-0.36,1.18C998.13,292.19,997.8,292.43,997.39,292.58z M993.65,292.06h1.99c1.07,0,1.61-0.4,1.61-1.2
	c0-0.4-0.13-0.7-0.4-0.9c-0.26-0.2-0.67-0.3-1.21-0.3h-1.99V292.06z M995.84,295.8c0.56,0,0.97-0.1,1.22-0.3
	c0.26-0.2,0.4-0.52,0.4-0.95c0-0.44-0.13-0.76-0.4-0.97c-0.26-0.21-0.66-0.31-1.22-0.31h-2.2v2.53H995.84z M1007.28,295.74V297
	h-5.73v-1.14l2.9-3.13c0.34-0.38,0.6-0.72,0.76-1.03c0.16-0.31,0.24-0.62,0.24-0.92c0-0.39-0.12-0.69-0.35-0.89
	c-0.23-0.2-0.55-0.3-0.97-0.3c-0.76,0-1.53,0.3-2.32,0.89l-0.52-1.13c0.34-0.3,0.77-0.54,1.3-0.72c0.53-0.18,1.06-0.28,1.6-0.28
	c0.85,0,1.53,0.21,2.02,0.64c0.51,0.42,0.76,0.98,0.76,1.69c0,0.49-0.11,0.95-0.32,1.38c-0.21,0.43-0.56,0.92-1.06,1.45l-2.1,2.23
	H1007.28z M1013.85,295.74h1.86V297h-5.26v-1.26h1.87v-5.51l-1.74,1.04v-1.38l2.37-1.44h0.9V295.74z M1022.42,292.61
	c0.5,0.14,0.88,0.38,1.15,0.74c0.27,0.36,0.41,0.8,0.41,1.33c0,0.74-0.28,1.33-0.83,1.76c-0.55,0.43-1.28,0.65-2.21,0.65
	c-0.58,0-1.13-0.09-1.67-0.26c-0.53-0.18-0.96-0.42-1.31-0.73l0.53-1.13c0.76,0.59,1.56,0.89,2.39,0.89c0.54,0,0.95-0.11,1.21-0.32
	c0.27-0.22,0.41-0.54,0.41-0.98c0-0.43-0.14-0.75-0.41-0.95c-0.27-0.21-0.69-0.31-1.26-0.31h-1.13v-1.24h0.93
	c1.1,0,1.65-0.42,1.65-1.26c0-0.39-0.12-0.69-0.36-0.9s-0.57-0.31-1-0.31c-0.77,0-1.54,0.3-2.31,0.89l-0.51-1.13
	c0.34-0.3,0.77-0.54,1.29-0.72c0.53-0.18,1.07-0.28,1.62-0.28c0.84,0,1.51,0.21,2.01,0.62c0.5,0.41,0.75,0.96,0.75,1.64
	c-0.01,0.47-0.13,0.88-0.37,1.24C1023.17,292.2,1022.84,292.45,1022.42,292.61z"/>
<path class="st5" d="M1104.76,291.41h-1.05l-0.5,2.53h1.27v0.98h-1.46l-0.41,2.08h-1.05l0.41-2.08h-1.53l-0.41,2.08h-1.05l0.41-2.08
	h-0.86v-0.98h1.05l0.51-2.53h-1.3v-0.97h1.49l0.38-1.98h1.05l-0.39,1.98h1.54l0.38-1.98h1.05l-0.39,1.98h0.86V291.41z
	 M1102.16,293.94l0.51-2.53h-1.54l-0.5,2.53H1102.16z M1107.4,297v-8.54h5.71v1.22h-4.2v2.36h3.95v1.22h-3.95v2.51h4.2V297H1107.4z
	 M1119.59,297.11c-0.84,0-1.58-0.18-2.21-0.54c-0.62-0.36-1.1-0.87-1.44-1.52c-0.33-0.66-0.5-1.44-0.5-2.33
	c0-0.88,0.17-1.65,0.5-2.3c0.34-0.66,0.82-1.17,1.44-1.52c0.63-0.36,1.37-0.54,2.21-0.54c0.58,0,1.12,0.09,1.62,0.28
	c0.51,0.18,0.94,0.42,1.27,0.74l-0.5,1.13c-0.39-0.31-0.77-0.54-1.15-0.67c-0.38-0.14-0.78-0.22-1.22-0.22
	c-0.82,0-1.46,0.27-1.92,0.8c-0.44,0.54-0.67,1.3-0.67,2.3c0,1.01,0.23,1.78,0.67,2.33c0.45,0.54,1.09,0.8,1.92,0.8
	c0.44,0,0.84-0.07,1.22-0.2c0.38-0.14,0.76-0.37,1.15-0.68l0.5,1.13c-0.33,0.32-0.76,0.57-1.27,0.76
	C1120.71,297.02,1120.17,297.11,1119.59,297.11z M1127.53,288.35c1.08,0,1.91,0.37,2.5,1.1c0.59,0.73,0.88,1.77,0.88,3.12
	c0,0.94-0.14,1.76-0.42,2.44s-0.68,1.2-1.21,1.56c-0.52,0.36-1.14,0.54-1.86,0.54c-0.51,0-1.01-0.08-1.5-0.25
	c-0.48-0.18-0.89-0.42-1.25-0.74l0.52-1.13c0.76,0.59,1.48,0.89,2.17,0.89c0.63,0,1.12-0.27,1.47-0.8c0.35-0.54,0.53-1.32,0.55-2.33
	c-0.19,0.37-0.47,0.66-0.84,0.88s-0.79,0.32-1.26,0.32c-0.51,0-0.96-0.12-1.36-0.35c-0.39-0.23-0.7-0.56-0.92-0.97
	c-0.23-0.42-0.34-0.89-0.34-1.43c0-0.54,0.12-1.03,0.36-1.46c0.25-0.43,0.59-0.77,1.02-1.01
	C1126.48,288.47,1126.98,288.35,1127.53,288.35z M1127.61,292.7c0.45,0,0.82-0.14,1.1-0.43c0.28-0.29,0.42-0.66,0.42-1.13
	c0-0.46-0.14-0.84-0.42-1.13c-0.28-0.3-0.65-0.44-1.1-0.44c-0.44,0-0.8,0.14-1.08,0.43c-0.26,0.29-0.39,0.67-0.39,1.14
	c0,0.47,0.13,0.85,0.39,1.14C1126.81,292.56,1127.17,292.7,1127.61,292.7z M1135.92,288.35c1.08,0,1.92,0.37,2.5,1.1
	c0.59,0.73,0.89,1.77,0.89,3.12c0,0.94-0.14,1.76-0.42,2.44s-0.69,1.2-1.21,1.56c-0.52,0.36-1.14,0.54-1.86,0.54
	c-0.52,0-1.02-0.08-1.5-0.25c-0.48-0.18-0.9-0.42-1.25-0.74l0.51-1.13c0.76,0.59,1.49,0.89,2.18,0.89c0.63,0,1.12-0.27,1.46-0.8
	c0.35-0.54,0.54-1.32,0.55-2.33c-0.18,0.37-0.46,0.66-0.84,0.88c-0.37,0.22-0.79,0.32-1.26,0.32c-0.5,0-0.95-0.12-1.35-0.35
	c-0.4-0.23-0.7-0.56-0.93-0.97c-0.22-0.42-0.33-0.89-0.33-1.43c0-0.54,0.12-1.03,0.36-1.46s0.58-0.77,1.02-1.01
	C1134.88,288.47,1135.37,288.35,1135.92,288.35z M1136.01,292.7c0.45,0,0.81-0.14,1.09-0.43s0.42-0.66,0.42-1.13
	c0-0.46-0.14-0.84-0.42-1.13c-0.28-0.3-0.64-0.44-1.09-0.44s-0.81,0.14-1.08,0.43c-0.27,0.29-0.4,0.67-0.4,1.14
	c0,0.47,0.13,0.85,0.4,1.14C1135.2,292.56,1135.56,292.7,1136.01,292.7z M1145.75,295.74h1.86V297h-5.27v-1.26h1.87v-5.51
	l-1.74,1.04v-1.38l2.38-1.44h0.9V295.74z M1154.19,297.11c-0.84,0-1.57-0.18-2.21-0.54c-0.62-0.36-1.1-0.87-1.44-1.52
	c-0.33-0.66-0.5-1.44-0.5-2.33c0-0.88,0.17-1.65,0.5-2.3c0.34-0.66,0.82-1.17,1.44-1.52c0.64-0.36,1.37-0.54,2.21-0.54
	c0.58,0,1.12,0.09,1.62,0.28c0.51,0.18,0.94,0.42,1.27,0.74l-0.5,1.13c-0.38-0.31-0.77-0.54-1.15-0.67
	c-0.38-0.14-0.78-0.22-1.21-0.22c-0.83,0-1.47,0.27-1.92,0.8c-0.45,0.54-0.68,1.3-0.68,2.3c0,1.01,0.23,1.78,0.68,2.33
	c0.44,0.54,1.08,0.8,1.92,0.8c0.43,0,0.83-0.07,1.21-0.2c0.38-0.14,0.77-0.37,1.15-0.68l0.5,1.13c-0.33,0.32-0.76,0.57-1.27,0.76
	C1155.31,297.02,1154.77,297.11,1154.19,297.11z"/>
<path class="st7" d="M1331,40.18c-1.4,0-2.63-0.3-3.68-0.9c-1.04-0.6-1.84-1.45-2.4-2.54c-0.56-1.11-0.84-2.4-0.84-3.88
	c0-1.47,0.28-2.75,0.84-3.84c0.56-1.11,1.36-1.95,2.4-2.54c1.05-0.6,2.28-0.9,3.68-0.9c0.96,0,1.86,0.15,2.7,0.46
	c0.85,0.29,1.56,0.71,2.12,1.24l-0.84,1.88c-0.64-0.52-1.28-0.89-1.92-1.12c-0.63-0.24-1.3-0.36-2.02-0.36
	c-1.37,0-2.44,0.45-3.2,1.34c-0.75,0.89-1.12,2.17-1.12,3.84c0,1.68,0.37,2.97,1.12,3.88c0.75,0.89,1.81,1.34,3.2,1.34
	c0.72,0,1.39-0.11,2.02-0.34c0.64-0.24,1.28-0.62,1.92-1.14l0.84,1.88c-0.56,0.53-1.27,0.95-2.12,1.26
	C1332.86,40.03,1331.96,40.18,1331,40.18z M1336.38,50.76h2.04V65h-2.28v-8.84l-3.78,8.84h-1.7l-3.8-8.74V65h-2.28V50.76h2.04
	l4.9,11.14L1336.38,50.76z M1336.36,75.76l-5.78,8.6V90H1328v-5.64l-5.78-8.6h2.94l4.12,6.44l4.14-6.44H1336.36z M1336.9,115h-3.16
	l-6.62-6.66V115h-2.58v-14.24h2.58v6.38l6.36-6.38h3.1l-6.92,6.84L1336.9,115z"/>
<path class="st5" d="M1363.54,25.58c1.8,0,3.19,0.61,4.16,1.84c0.99,1.21,1.48,2.95,1.48,5.2c0,1.57-0.23,2.93-0.7,4.06
	s-1.14,2-2.02,2.6c-0.87,0.6-1.9,0.9-3.1,0.9c-0.85,0-1.69-0.14-2.5-0.42c-0.8-0.29-1.49-0.71-2.08-1.24l0.86-1.88
	c1.27,0.99,2.47,1.48,3.62,1.48c1.05,0,1.87-0.45,2.44-1.34c0.59-0.91,0.89-2.2,0.92-3.88c-0.31,0.61-0.77,1.1-1.4,1.46
	c-0.61,0.36-1.31,0.54-2.1,0.54c-0.84,0-1.59-0.19-2.26-0.58c-0.65-0.39-1.17-0.93-1.54-1.62c-0.37-0.69-0.56-1.49-0.56-2.38
	c0-0.91,0.2-1.72,0.6-2.44c0.41-0.72,0.98-1.28,1.7-1.68C1361.79,25.79,1362.62,25.58,1363.54,25.58z M1363.68,32.84
	c0.75,0,1.35-0.24,1.82-0.72s0.7-1.11,0.7-1.88s-0.23-1.4-0.7-1.88c-0.47-0.49-1.07-0.74-1.82-0.74s-1.35,0.24-1.8,0.72
	c-0.44,0.48-0.66,1.11-0.66,1.9s0.22,1.42,0.66,1.9C1362.33,32.61,1362.93,32.84,1363.68,32.84z M1366.2,57.68
	c0.84,0.23,1.48,0.64,1.92,1.24c0.45,0.6,0.68,1.34,0.68,2.22c0,1.24-0.46,2.22-1.38,2.94c-0.91,0.72-2.13,1.08-3.68,1.08
	c-0.96,0-1.89-0.15-2.78-0.44c-0.88-0.29-1.61-0.7-2.18-1.22l0.88-1.88c1.27,0.99,2.59,1.48,3.98,1.48c0.91,0,1.58-0.18,2.02-0.54
	c0.45-0.36,0.68-0.91,0.68-1.64c0-0.72-0.23-1.25-0.68-1.58c-0.45-0.35-1.15-0.52-2.1-0.52h-1.88v-2.06h1.54
	c1.84,0,2.76-0.7,2.76-2.1c0-0.65-0.2-1.15-0.6-1.5s-0.96-0.52-1.68-0.52c-1.28,0-2.56,0.49-3.84,1.48l-0.86-1.88
	c0.57-0.51,1.29-0.91,2.16-1.2c0.88-0.31,1.78-0.46,2.7-0.46c1.4,0,2.51,0.35,3.34,1.04c0.84,0.68,1.26,1.59,1.26,2.74
	c-0.01,0.79-0.22,1.47-0.62,2.06C1367.45,56.99,1366.91,57.41,1366.2,57.68z M1377.99,65.18c-1.69,0-2.98-0.62-3.88-1.86
	c-0.88-1.25-1.32-3.07-1.32-5.46c0-2.35,0.44-4.14,1.32-5.38c0.9-1.24,2.19-1.86,3.88-1.86c1.7,0,2.98,0.62,3.86,1.86
	c0.9,1.23,1.34,3.02,1.34,5.38c0,2.37-0.44,4.19-1.34,5.44C1380.97,64.55,1379.69,65.18,1377.99,65.18z M1377.99,63.16
	c0.92,0,1.59-0.42,2-1.26c0.43-0.85,0.64-2.2,0.64-4.04c0-1.81-0.21-3.13-0.64-3.96c-0.41-0.84-1.08-1.26-2-1.26
	s-1.59,0.42-2.02,1.26c-0.41,0.83-0.62,2.15-0.62,3.96c0,1.84,0.21,3.19,0.62,4.04C1376.4,62.74,1377.07,63.16,1377.99,63.16z
	 M1365.92,87.9h3.1V90h-8.78v-2.1h3.12v-9.18l-2.9,1.74v-2.3l3.96-2.4h1.5V87.9z M1377.99,90.18c-1.69,0-2.98-0.62-3.88-1.86
	c-0.88-1.25-1.32-3.07-1.32-5.46c0-2.35,0.44-4.14,1.32-5.38c0.9-1.24,2.19-1.86,3.88-1.86c1.7,0,2.98,0.62,3.86,1.86
	c0.9,1.23,1.34,3.02,1.34,5.38c0,2.37-0.44,4.19-1.34,5.44C1380.97,89.55,1379.69,90.18,1377.99,90.18z M1377.99,88.16
	c0.92,0,1.59-0.42,2-1.26c0.43-0.85,0.64-2.2,0.64-4.04c0-1.81-0.21-3.13-0.64-3.96c-0.41-0.84-1.08-1.26-2-1.26
	s-1.59,0.42-2.02,1.26c-0.41,0.83-0.62,2.15-0.62,3.96c0,1.84,0.21,3.19,0.62,4.04C1376.4,87.74,1377.07,88.16,1377.99,88.16z
	 M1391.98,90.18c-1.69,0-2.98-0.62-3.88-1.86c-0.88-1.25-1.32-3.07-1.32-5.46c0-2.35,0.44-4.14,1.32-5.38
	c0.9-1.24,2.19-1.86,3.88-1.86c1.7,0,2.98,0.62,3.86,1.86c0.9,1.23,1.34,3.02,1.34,5.38c0,2.37-0.44,4.19-1.34,5.44
	C1394.96,89.55,1393.68,90.18,1391.98,90.18z M1391.98,88.16c0.92,0,1.59-0.42,2-1.26c0.43-0.85,0.64-2.2,0.64-4.04
	c0-1.81-0.21-3.13-0.64-3.96c-0.41-0.84-1.08-1.26-2-1.26c-0.92,0-1.59,0.42-2.02,1.26c-0.41,0.83-0.62,2.15-0.62,3.96
	c0,1.84,0.21,3.19,0.62,4.04C1390.39,87.74,1391.06,88.16,1391.98,88.16z M1364,115.18c-1.69,0-2.99-0.62-3.88-1.86
	c-0.88-1.25-1.32-3.07-1.32-5.46c0-2.35,0.44-4.14,1.32-5.38c0.89-1.24,2.19-1.86,3.88-1.86s2.98,0.62,3.86,1.86
	c0.89,1.23,1.34,3.02,1.34,5.38c0,2.37-0.45,4.19-1.34,5.44C1366.98,114.55,1365.69,115.18,1364,115.18z M1364,113.16
	c0.92,0,1.59-0.42,2-1.26c0.43-0.85,0.64-2.2,0.64-4.04c0-1.81-0.21-3.13-0.64-3.96c-0.41-0.84-1.08-1.26-2-1.26
	s-1.59,0.42-2.02,1.26c-0.41,0.83-0.62,2.15-0.62,3.96c0,1.84,0.21,3.19,0.62,4.04C1362.41,112.74,1363.08,113.16,1364,113.16z"/>
<path class="st7" d="M1336.26,172h-2.72l-1.82-4.74c-0.16-0.44-0.41-0.75-0.74-0.92c-0.33-0.17-0.77-0.26-1.3-0.26h-2.58V172h-2.56
	v-14.24h6.1c1.61,0,2.84,0.35,3.68,1.06c0.84,0.71,1.26,1.72,1.26,3.04c0,0.95-0.25,1.75-0.76,2.42c-0.49,0.65-1.2,1.12-2.12,1.4
	c0.84,0.17,1.45,0.76,1.82,1.76L1336.26,172z M1330.28,164.08c0.97,0,1.69-0.18,2.16-0.54c0.47-0.36,0.7-0.91,0.7-1.64
	c0-0.72-0.23-1.25-0.7-1.6c-0.45-0.36-1.17-0.54-2.16-0.54h-3.22v4.32H1330.28z M1336.42,189.3v6.84c-0.65,0.32-1.44,0.57-2.36,0.76
	c-0.92,0.19-1.86,0.28-2.82,0.28c-1.47,0-2.74-0.29-3.82-0.88c-1.08-0.59-1.91-1.43-2.48-2.52c-0.57-1.09-0.86-2.4-0.86-3.92
	c0-1.49,0.29-2.79,0.86-3.88c0.57-1.09,1.39-1.93,2.44-2.52c1.07-0.59,2.31-0.88,3.74-0.88c1,0,1.93,0.15,2.8,0.44
	c0.88,0.29,1.61,0.71,2.2,1.24l-0.88,1.88c-0.67-0.52-1.32-0.89-1.96-1.12c-0.64-0.23-1.34-0.34-2.1-0.34
	c-1.47,0-2.58,0.44-3.34,1.32c-0.75,0.88-1.12,2.17-1.12,3.86c0,1.75,0.39,3.07,1.16,3.96c0.77,0.88,1.93,1.32,3.46,1.32
	c0.93,0,1.85-0.13,2.76-0.38v-3.6h-3.08v-1.86H1336.42z M1333.3,214.64c0.83,0.24,1.46,0.66,1.9,1.26c0.45,0.6,0.68,1.34,0.68,2.22
	c0,1.21-0.43,2.17-1.3,2.86c-0.85,0.68-2.05,1.02-3.58,1.02h-6.46v-14.24h6.26c1.47,0,2.62,0.33,3.46,1
	c0.84,0.65,1.26,1.56,1.26,2.72c0,0.75-0.2,1.4-0.6,1.96C1334.53,213.99,1333.99,214.39,1333.3,214.64z M1327.06,213.76h3.32
	c1.79,0,2.68-0.67,2.68-2c0-0.67-0.22-1.17-0.66-1.5c-0.44-0.33-1.11-0.5-2.02-0.5h-3.32V213.76z M1330.72,220
	c0.93,0,1.61-0.17,2.04-0.5c0.44-0.33,0.66-0.86,0.66-1.58c0-0.73-0.22-1.27-0.66-1.62c-0.43-0.35-1.11-0.52-2.04-0.52h-3.66V220
	H1330.72z"/>
<path class="st5" d="M1366.98,169.9v2.1h-9.56v-1.9l4.84-5.22c0.57-0.63,0.99-1.2,1.26-1.72c0.27-0.52,0.4-1.03,0.4-1.54
	c0-0.65-0.19-1.15-0.58-1.48c-0.37-0.33-0.91-0.5-1.62-0.5c-1.25,0-2.54,0.49-3.86,1.48l-0.86-1.88c0.56-0.51,1.28-0.91,2.16-1.2
	c0.88-0.31,1.77-0.46,2.66-0.46c1.43,0,2.55,0.35,3.38,1.06c0.84,0.69,1.26,1.63,1.26,2.82c0,0.81-0.18,1.58-0.54,2.3
	c-0.35,0.72-0.93,1.53-1.76,2.42l-3.5,3.72H1366.98z M1378.21,164.68c0.84,0.23,1.48,0.64,1.92,1.24c0.46,0.6,0.68,1.34,0.68,2.22
	c0,1.24-0.46,2.22-1.38,2.94c-0.9,0.72-2.13,1.08-3.68,1.08c-0.96,0-1.88-0.15-2.78-0.44c-0.88-0.29-1.6-0.7-2.18-1.22l0.88-1.88
	c1.27,0.99,2.6,1.48,3.98,1.48c0.91,0,1.58-0.18,2.02-0.54c0.46-0.36,0.68-0.91,0.68-1.64c0-0.72-0.22-1.25-0.68-1.58
	c-0.45-0.35-1.15-0.52-2.1-0.52h-1.88v-2.06h1.54c1.84,0,2.76-0.7,2.76-2.1c0-0.65-0.2-1.15-0.6-1.5s-0.96-0.52-1.68-0.52
	c-1.28,0-2.56,0.49-3.84,1.48l-0.86-1.88c0.58-0.51,1.3-0.91,2.16-1.2c0.88-0.31,1.78-0.46,2.7-0.46c1.4,0,2.52,0.35,3.34,1.04
	c0.84,0.68,1.26,1.59,1.26,2.74c-0.01,0.79-0.22,1.47-0.62,2.06C1379.47,163.99,1378.92,164.41,1378.21,164.68z M1392.2,164.68
	c0.84,0.23,1.48,0.64,1.92,1.24c0.46,0.6,0.68,1.34,0.68,2.22c0,1.24-0.46,2.22-1.38,2.94c-0.9,0.72-2.13,1.08-3.68,1.08
	c-0.96,0-1.88-0.15-2.78-0.44c-0.88-0.29-1.6-0.7-2.18-1.22l0.88-1.88c1.27,0.99,2.6,1.48,3.98,1.48c0.91,0,1.58-0.18,2.02-0.54
	c0.46-0.36,0.68-0.91,0.68-1.64c0-0.72-0.22-1.25-0.68-1.58c-0.45-0.35-1.15-0.52-2.1-0.52h-1.88v-2.06h1.54
	c1.84,0,2.76-0.7,2.76-2.1c0-0.65-0.2-1.15-0.6-1.5s-0.96-0.52-1.68-0.52c-1.28,0-2.56,0.49-3.84,1.48l-0.86-1.88
	c0.58-0.51,1.3-0.91,2.16-1.2c0.88-0.31,1.78-0.46,2.7-0.46c1.4,0,2.52,0.35,3.34,1.04c0.84,0.68,1.26,1.59,1.26,2.74
	c-0.01,0.79-0.22,1.47-0.62,2.06C1393.46,163.99,1392.91,164.41,1392.2,164.68z M1363.92,194.9h3.1v2.1h-8.78v-2.1h3.12v-9.18
	l-2.9,1.74v-2.3l3.96-2.4h1.5V194.9z M1371.03,182.76h9.92v1.92l-6.46,12.32h-2.76l6.44-12.14h-7.14V182.76z M1392.38,189.68
	c0.92,0.23,1.64,0.65,2.16,1.26c0.52,0.61,0.78,1.35,0.78,2.22c0,0.81-0.22,1.53-0.68,2.14c-0.44,0.6-1.06,1.06-1.88,1.38
	c-0.8,0.32-1.72,0.48-2.78,0.48c-1.05,0-1.98-0.16-2.8-0.48c-0.8-0.32-1.42-0.78-1.88-1.38c-0.44-0.61-0.66-1.33-0.66-2.14
	c0-0.87,0.26-1.61,0.78-2.22c0.52-0.61,1.24-1.03,2.16-1.26c-0.8-0.27-1.43-0.69-1.9-1.26c-0.45-0.57-0.68-1.24-0.68-2
	c0-0.77,0.22-1.45,0.64-2.02c0.43-0.59,1.02-1.03,1.76-1.34c0.76-0.32,1.62-0.48,2.58-0.48s1.82,0.16,2.56,0.48
	c0.76,0.31,1.36,0.75,1.78,1.34c0.43,0.57,0.64,1.25,0.64,2.02s-0.23,1.45-0.7,2.04C1393.81,189.03,1393.18,189.44,1392.38,189.68z
	 M1389.98,184.6c-0.78,0-1.4,0.18-1.86,0.54c-0.45,0.36-0.68,0.87-0.68,1.54c0,0.63,0.23,1.14,0.68,1.54
	c0.47,0.39,1.09,0.64,1.86,0.76c0.78-0.12,1.39-0.37,1.84-0.76c0.47-0.4,0.7-0.91,0.7-1.54c0-0.67-0.22-1.18-0.68-1.54
	C1391.39,184.78,1390.77,184.6,1389.98,184.6z M1389.98,195.14c0.91,0,1.62-0.19,2.12-0.56c0.52-0.37,0.78-0.91,0.78-1.6
	c0-0.65-0.26-1.18-0.8-1.58c-0.52-0.4-1.22-0.66-2.1-0.78c-0.88,0.12-1.58,0.38-2.12,0.78c-0.52,0.4-0.78,0.93-0.78,1.58
	c0,0.69,0.26,1.23,0.76,1.6C1388.36,194.95,1389.08,195.14,1389.98,195.14z M1363.92,219.9h3.1v2.1h-8.78v-2.1h3.12v-9.18l-2.9,1.74
	v-2.3l3.96-2.4h1.5V219.9z M1375.53,207.58c1.8,0,3.19,0.61,4.16,1.84c0.99,1.21,1.48,2.95,1.48,5.2c0,1.57-0.23,2.93-0.7,4.06
	c-0.46,1.13-1.14,2-2.02,2.6c-0.86,0.6-1.9,0.9-3.1,0.9c-0.85,0-1.68-0.14-2.5-0.42c-0.8-0.29-1.49-0.71-2.08-1.24l0.86-1.88
	c1.27,0.99,2.48,1.48,3.62,1.48c1.06,0,1.87-0.45,2.44-1.34c0.59-0.91,0.9-2.2,0.92-3.88c-0.3,0.61-0.77,1.1-1.4,1.46
	c-0.61,0.36-1.31,0.54-2.1,0.54c-0.84,0-1.59-0.19-2.26-0.58c-0.65-0.39-1.16-0.93-1.54-1.62c-0.37-0.69-0.56-1.49-0.56-2.38
	c0-0.91,0.2-1.72,0.6-2.44c0.42-0.72,0.98-1.28,1.7-1.68C1373.79,207.79,1374.61,207.58,1375.53,207.58z M1375.67,214.84
	c0.75,0,1.36-0.24,1.82-0.72c0.47-0.48,0.7-1.11,0.7-1.88c0-0.77-0.23-1.4-0.7-1.88c-0.46-0.49-1.07-0.74-1.82-0.74
	c-0.74,0-1.34,0.24-1.8,0.72c-0.44,0.48-0.66,1.11-0.66,1.9c0,0.79,0.22,1.42,0.66,1.9
	C1374.33,214.61,1374.93,214.84,1375.67,214.84z"/>
<path class="st5" d="M1334.26,270.68h-1.74l-0.84,4.22h2.12v1.64h-2.44l-0.68,3.46h-1.74l0.68-3.46h-2.56l-0.68,3.46h-1.74
	l0.68-3.46h-1.44v-1.64h1.76l0.84-4.22h-2.16v-1.62h2.48l0.64-3.3h1.74l-0.64,3.3h2.56l0.64-3.3h1.74l-0.64,3.3h1.42V270.68z
	 M1329.94,274.9l0.84-4.22h-2.56l-0.84,4.22H1329.94z M1338.67,280v-14.24h9.52v2.04h-7v3.94h6.58v2.04h-6.58v4.18h7V280H1338.67z
	 M1356.56,265.58c1.8,0,3.19,0.61,4.16,1.84c0.99,1.21,1.48,2.95,1.48,5.2c0,1.57-0.23,2.93-0.7,4.06c-0.46,1.13-1.14,2-2.02,2.6
	c-0.86,0.6-1.9,0.9-3.1,0.9c-0.85,0-1.68-0.14-2.5-0.42c-0.8-0.29-1.49-0.71-2.08-1.24l0.86-1.88c1.27,0.99,2.48,1.48,3.62,1.48
	c1.06,0,1.87-0.45,2.44-1.34c0.59-0.91,0.9-2.2,0.92-3.88c-0.3,0.61-0.77,1.1-1.4,1.46c-0.61,0.36-1.31,0.54-2.1,0.54
	c-0.84,0-1.59-0.19-2.26-0.58c-0.65-0.39-1.16-0.93-1.54-1.62c-0.37-0.69-0.56-1.49-0.56-2.38c0-0.91,0.2-1.72,0.6-2.44
	c0.42-0.72,0.98-1.28,1.7-1.68C1354.82,265.79,1355.64,265.58,1356.56,265.58z M1356.7,272.84c0.75,0,1.36-0.24,1.82-0.72
	c0.47-0.48,0.7-1.11,0.7-1.88c0-0.77-0.23-1.4-0.7-1.88c-0.46-0.49-1.07-0.74-1.82-0.74c-0.74,0-1.34,0.24-1.8,0.72
	c-0.44,0.48-0.66,1.11-0.66,1.9c0,0.79,0.22,1.42,0.66,1.9C1355.36,272.61,1355.96,272.84,1356.7,272.84z M1375.32,272.64
	c0.82,0.24,1.46,0.66,1.9,1.26c0.45,0.6,0.68,1.34,0.68,2.22c0,1.21-0.44,2.17-1.3,2.86c-0.86,0.68-2.05,1.02-3.58,1.02h-6.46
	v-14.24h6.26c1.46,0,2.62,0.33,3.46,1c0.84,0.65,1.26,1.56,1.26,2.72c0,0.75-0.2,1.4-0.6,1.96
	C1376.55,271.99,1376.01,272.39,1375.32,272.64z M1369.08,271.76h3.32c1.78,0,2.68-0.67,2.68-2c0-0.67-0.22-1.17-0.66-1.5
	c-0.44-0.33-1.12-0.5-2.02-0.5h-3.32V271.76z M1372.74,278c0.93,0,1.61-0.17,2.04-0.5c0.44-0.33,0.66-0.86,0.66-1.58
	c0-0.73-0.22-1.27-0.66-1.62c-0.43-0.35-1.11-0.52-2.04-0.52h-3.66V278H1372.74z M1391.8,277.9v2.1h-9.56v-1.9l4.84-5.22
	c0.58-0.63,1-1.2,1.26-1.72c0.27-0.52,0.4-1.03,0.4-1.54c0-0.65-0.19-1.15-0.58-1.48c-0.37-0.33-0.91-0.5-1.62-0.5
	c-1.25,0-2.54,0.49-3.86,1.48l-0.86-1.88c0.56-0.51,1.28-0.91,2.16-1.2c0.88-0.31,1.77-0.46,2.66-0.46c1.43,0,2.56,0.35,3.38,1.06
	c0.84,0.69,1.26,1.63,1.26,2.82c0,0.81-0.18,1.58-0.54,2.3c-0.34,0.72-0.93,1.53-1.76,2.42l-3.5,3.72H1391.8z M1402.76,277.9h3.1
	v2.1h-8.78v-2.1h3.12v-9.18l-2.9,1.74v-2.3l3.96-2.4h1.5V277.9z M1417.03,272.68c0.84,0.23,1.48,0.64,1.92,1.24
	c0.45,0.6,0.68,1.34,0.68,2.22c0,1.24-0.46,2.22-1.38,2.94c-0.91,0.72-2.14,1.08-3.68,1.08c-0.96,0-1.89-0.15-2.78-0.44
	c-0.88-0.29-1.61-0.7-2.18-1.22l0.88-1.88c1.26,0.99,2.59,1.48,3.98,1.48c0.9,0,1.58-0.18,2.02-0.54c0.45-0.36,0.68-0.91,0.68-1.64
	c0-0.72-0.23-1.25-0.68-1.58c-0.46-0.35-1.16-0.52-2.1-0.52h-1.88v-2.06h1.54c1.84,0,2.76-0.7,2.76-2.1c0-0.65-0.2-1.15-0.6-1.5
	c-0.4-0.35-0.96-0.52-1.68-0.52c-1.28,0-2.56,0.49-3.84,1.48l-0.86-1.88c0.57-0.51,1.29-0.91,2.16-1.2c0.88-0.31,1.78-0.46,2.7-0.46
	c1.4,0,2.51,0.35,3.34,1.04c0.84,0.68,1.26,1.59,1.26,2.74c-0.02,0.79-0.22,1.47-0.62,2.06
	C1418.28,271.99,1417.73,272.41,1417.03,272.68z"/>
</svg>
